<svg width="63" height="26" viewBox="0 0 63 26" fill="none" xmlns="http://www.w3.org/2000/svg">
<g clip-path="url(#clip0)">
<path d="M29.797 12.2223V19.5559H27.4705V1.44506H33.6408C34.3774 1.42968 35.1096 1.56031 35.7954 1.82941C36.4812 2.09851 37.1069 2.50076 37.6364 3.01295C38.1713 3.49404 38.5969 4.08404 38.8848 4.7433C39.1727 5.40257 39.3161 6.11582 39.3054 6.83511C39.3208 7.55826 39.1795 8.27617 38.8915 8.93963C38.6034 9.6031 38.1752 10.1964 37.6364 10.679C36.5574 11.7078 35.2256 12.2218 33.6408 12.2208H29.797V12.2223ZM29.797 3.67478V9.99689H33.6986C34.1264 10.0096 34.552 9.93284 34.9484 9.7716C35.3448 9.61035 35.7032 9.36816 36.0006 9.0605C36.2965 8.77284 36.5317 8.42878 36.6923 8.04865C36.8529 7.66853 36.9356 7.26006 36.9356 6.8474C36.9356 6.43474 36.8529 6.02627 36.6923 5.64614C36.5317 5.26602 36.2965 4.92195 36.0006 4.6343C35.7069 4.32015 35.3498 4.07202 34.9529 3.90635C34.5561 3.74068 34.1285 3.66125 33.6986 3.67334H29.797V3.67478Z" fill="#5F6368"/>
<path d="M44.6665 6.75995C46.3861 6.75995 47.7435 7.21948 48.7387 8.13853C49.7338 9.05758 50.2309 10.3177 50.23 11.9188V19.5559H48.0046V17.8363H47.9034C46.9401 19.2524 45.6588 19.9605 44.0596 19.9605C42.6945 19.9605 41.5524 19.5559 40.6334 18.7467C40.1923 18.3753 39.8397 17.9101 39.6012 17.3851C39.3627 16.8602 39.2444 16.2886 39.2548 15.7121C39.2548 14.4298 39.7394 13.4101 40.7085 12.6529C41.6777 11.8957 42.9715 11.5161 44.5899 11.5142C45.9714 11.5142 47.1091 11.7671 48.0031 12.2728V11.741C48.0058 11.348 47.9209 10.9593 47.7547 10.6032C47.5885 10.247 47.3451 9.93229 47.0422 9.68185C46.4269 9.12677 45.6251 8.8239 44.7966 8.8336C43.497 8.8336 42.4686 9.38176 41.7114 10.4781L39.6623 9.18764C40.7894 7.56918 42.4575 6.75995 44.6665 6.75995ZM41.6565 15.7626C41.6549 16.0587 41.7241 16.3509 41.8583 16.6148C41.9926 16.8788 42.1879 17.1068 42.4281 17.2799C42.9427 17.6847 43.5813 17.8991 44.2359 17.8869C45.2176 17.8852 46.1587 17.4944 46.8529 16.8002C47.6236 16.0748 48.0089 15.2236 48.0089 14.2468C47.2835 13.6687 46.272 13.3797 44.9743 13.3797C44.0292 13.3797 43.2412 13.6076 42.6102 14.0632C41.9729 14.5257 41.6565 15.0878 41.6565 15.7626Z" fill="#5F6368"/>
<path d="M63.0043 7.16458L55.2357 25.0182H52.834L55.7169 18.7712L50.6086 7.16458H53.1375L56.8296 16.0661H56.8802L60.4711 7.16458H63.0043Z" fill="#5F6368"/>
<path d="M20.3954 10.6414C20.3963 9.93236 20.3363 9.22458 20.2162 8.52582H10.4043V12.533H16.0241C15.9091 13.1729 15.6657 13.783 15.3086 14.3264C14.9514 14.8698 14.488 15.3353 13.9461 15.6947V18.2958H17.3001C19.2639 16.4852 20.3954 13.8075 20.3954 10.6414Z" fill="#4285F4"/>
<path d="M10.4044 20.8088C13.2122 20.8088 15.5763 19.8868 17.3002 18.2973L13.9463 15.6962C13.0127 16.3291 11.8105 16.6904 10.4044 16.6904C7.69062 16.6904 5.3872 14.8609 4.56352 12.3957H1.1084V15.0762C1.97437 16.7994 3.30225 18.248 4.94377 19.2603C6.5853 20.2726 8.47588 20.8087 10.4044 20.8088Z" fill="#34A853"/>
<path d="M4.56349 12.3957C4.12804 11.1038 4.12804 9.7049 4.56349 8.41309V5.73251H1.10837C0.379884 7.18212 0.000488281 8.78201 0.000488281 10.4044C0.000488281 12.0267 0.379884 13.6266 1.10837 15.0762L4.56349 12.3957Z" fill="#FBBC04"/>
<path d="M10.4044 4.11841C11.8882 4.09417 13.3219 4.65478 14.3957 5.67907L17.3652 2.70949C15.4822 0.940851 12.9876 -0.0301601 10.4044 1.12383e-05C8.47588 9.91339e-05 6.5853 0.536205 4.94377 1.54848C3.30225 2.56075 1.97437 4.00934 1.1084 5.73254L4.56352 8.41311C5.3872 5.94785 7.69062 4.11841 10.4044 4.11841Z" fill="#EA4335"/>
</g>
<defs>
<clipPath id="clip0">
<rect width="63" height="25.0182" fill="white"/>
</clipPath>
</defs>
</svg>
