<svg width="63" height="26" viewBox="0 0 63 26" fill="none" xmlns="http://www.w3.org/2000/svg">
<path d="M11.5113 3.35205C10.7729 4.23026 9.59154 4.92293 8.41015 4.82398C8.26248 3.63654 8.84087 2.37488 9.5177 1.59562C10.2561 0.692674 11.5482 0.0494767 12.5942 0C12.7173 1.23692 12.2373 2.4491 11.5113 3.35205ZM12.5819 5.05899C10.8714 4.96004 9.40695 6.03616 8.59474 6.03616C7.77024 6.03616 6.52732 5.10847 5.17365 5.13321C3.41388 5.15794 1.77717 6.15985 0.878821 7.75547C-0.967094 10.9467 0.398883 15.6717 2.18327 18.2693C3.057 19.5557 4.10302 20.9657 5.4813 20.9163C6.78575 20.8668 7.3026 20.0628 8.87778 20.0628C10.4653 20.0628 10.9206 20.9163 12.2989 20.8915C13.7264 20.8668 14.6247 19.6051 15.4985 18.3187C16.4953 16.8592 16.9014 15.4367 16.926 15.3625C16.9014 15.3378 14.1694 14.2864 14.1448 11.1199C14.1202 8.47288 16.2984 7.21123 16.3968 7.13701C15.1662 5.30638 13.2464 5.10847 12.5819 5.05899ZM22.4637 1.47193V20.7555H25.4418V14.1627H29.5643C33.33 14.1627 35.9758 11.5652 35.9758 7.80495C35.9758 4.04472 33.3792 1.47193 29.6628 1.47193H22.4637ZM25.4418 3.99524H28.8752C31.4595 3.99524 32.9362 5.38059 32.9362 7.81732C32.9362 10.254 31.4595 11.6518 28.8629 11.6518H25.4418V3.99524ZM41.4151 20.9039C43.2856 20.9039 45.0208 19.9515 45.8084 18.4424H45.8699V20.7555H48.6265V11.157C48.6265 8.37393 46.4114 6.5804 43.0026 6.5804C39.8399 6.5804 37.5018 8.39867 37.4156 10.8972H40.0984C40.3199 9.7098 41.4151 8.93054 42.9164 8.93054C44.7378 8.93054 45.7592 9.78402 45.7592 11.3549V12.4186L42.0427 12.6413C38.5847 12.8516 36.7142 14.274 36.7142 16.7479C36.7142 19.2464 38.6462 20.9039 41.4151 20.9039ZM42.215 18.6156C40.6275 18.6156 39.6184 17.8487 39.6184 16.6736C39.6184 15.4615 40.5906 14.7564 42.4488 14.6451L45.7592 14.4348V15.5233C45.7592 17.3292 44.2332 18.6156 42.215 18.6156ZM52.306 26C55.2102 26 56.5762 24.8868 57.7699 21.51L63 6.76594H59.9727L56.4655 18.1579H56.4039L52.8967 6.76594H49.7833L54.8288 20.8049L54.558 21.6584C54.1027 23.1056 53.3643 23.6622 52.0476 23.6622C51.8138 23.6622 51.3584 23.6375 51.1738 23.6127V25.9258C51.3461 25.9753 52.0845 26 52.306 26Z" fill="black"/>
</svg>
