<?xml version="1.0" encoding="utf-8"?>
<!-- Generator: Adobe Illustrator 22.0.0, SVG Export Plug-In . SVG Version: 6.00 Build 0)  -->
<svg version="1.1" id="Layer_1" xmlns="http://www.w3.org/2000/svg" xmlns:xlink="http://www.w3.org/1999/xlink" x="0px" y="0px"
	 viewBox="0 0 70 70" style="enable-background:new 0 0 70 70;" xml:space="preserve">
<style type="text/css">
	.st0{clip-path:url(#SVGID_2_);}
	.st1{fill:#E91E63;}
</style>
<g>
	<defs>
		<rect id="SVGID_1_" x="8.5" width="53" height="70"/>
	</defs>
	<clipPath id="SVGID_2_">
		<use xlink:href="#SVGID_1_"  style="overflow:visible;"/>
	</clipPath>
	<g class="st0">
		<path class="st1" d="M50.7,50.4c0-3.5-0.9-6.9-2.8-9.8c-1-1.5-2.2-2.8-3-4.4c-0.7-1.6-1-3.3-1-5c0.1-6.7-4-12.8-10.8-14.2
			c-0.1-0.9-0.2-1.8-0.4-2.6c1.8-0.6,3.3-1.3,4.5-1.9c3.8,3.4,8.8,4.3,13.7,3.7c2.5-0.3,4.9-0.9,7.3-1.7c1.5-0.5,2.6-1,2-2.7
			c-2.3-7-8.9-11.9-16.3-11.8c-2.5,0-5.1,0.6-7.5,1.4c-1.3,0.4-2.7,0.8-3.9,1.5c-1.5,0.9-0.5,2.4,0.2,3.5c-0.5,0.2-1,0.5-1.5,0.7
			c-0.7-2.5-1.9-6.4-4.9-6.8C24.2,0,22.2,1.9,22.2,4c0,1.6,0.9,3.5,1.3,5c0.8,2.8,1.6,5.7,2.1,8.6c-2.9,1.1-5.4,3.2-7,5.9
			c-0.8,1.4-1.3,2.8-1.6,4.4c-0.3,1.6-0.1,3.2-0.4,4.8c-0.7,3.7-3.6,5.8-5.3,8.9c-1.6,3-2.4,6.4-2.1,9.9C10.2,65.2,26,72.4,38,67.7
			C45.2,64.9,50.6,58.2,50.7,50.4C50.7,46,50.6,55.1,50.7,50.4L50.7,50.4z M50.1,4.1c4.2,1.9,6.3,5.8,7.2,7.8
			c-4.2,1.4-9,2.4-13.4,1.1c-4.1-1.2-6.7-4.5-8.7-8.1C41,2.5,46,2.2,50.1,4.1C46,2.2,54.2,6,50.1,4.1z M25,4.2C25,4.1,25,4.1,25,4.2
			c-0.1-0.4,0.3-1,0.7-1.1c0.5-0.1,0.8,0.4,1.1,0.7c0.8,1,1.3,2.5,1.6,3.7c0.3,1.1,0.4,3,1.9,3c1.2,0,2.8-1,3.9-1.6
			c0.3,0.5,0.7,1,1.1,1.5c-1.5,0.7-3.2,1-4.7,1.8c-1.5,0.8-0.5,3.3-0.3,4.6c-0.6,0-1.3,0.1-1.9,0.1C27.4,11.8,25.1,4.5,25,4.2
			C25.1,4.5,25,4.1,25,4.2z M43.1,61.2c-6.3,6.2-16.7,6.8-23.9,1.9c-6.8-4.6-9.4-13.6-5.1-20.8c1.2-2.1,3.1-3.6,4.1-5.8
			c1.1-2.2,1.3-4.4,1.4-6.7c0.2-4.1,2.8-7.8,6.6-9.4c4.2-1.8,9.1-0.6,12.2,2.7c1.4,1.5,2.3,3.4,2.6,5.4c0.4,2.1,0,4.2,0.5,6.3
			c0.5,2.3,1.7,4.2,3.1,6c1.4,1.8,2.4,3.9,3,6.1C48.7,52.1,46.9,57.5,43.1,61.2C41.4,62.8,46.1,58.2,43.1,61.2L43.1,61.2z"/>
		<path class="st1" d="M35.5,31.5c-1.1-0.5-0.9-2.4-1.5-3.4c-0.5-0.8-1.4-1.5-2.3-1.9c-0.5-0.3-1-0.4-1.6-0.6
			c-1.2-0.5-1.6-2.4-0.1-2.8c1.7-0.4,4.3,1.5,5.3,2.6c0.9,0.9,1.6,2.1,1.9,3.3C37.6,30,37.4,32.4,35.5,31.5z"/>
		<path class="st1" d="M36.2,35.7c-1.6-0.8-0.4-3.3,1.2-2.5l0,0C39.1,33.9,37.9,36.5,36.2,35.7z"/>
	</g>
</g>
</svg>
