<?xml version="1.0" encoding="utf-8"?>
<!-- Generator: Adobe Illustrator 22.0.0, SVG Export Plug-In . SVG Version: 6.00 Build 0)  -->
<svg version="1.1" id="Layer_1" xmlns="http://www.w3.org/2000/svg" xmlns:xlink="http://www.w3.org/1999/xlink" x="0px" y="0px"
	 viewBox="0 0 70 70" style="enable-background:new 0 0 70 70;" xml:space="preserve">
<style type="text/css">
	.st0{fill:#E91E63;}
</style>
<path class="st0" d="M50.8,5.2C50.9,5,51,4.7,50.9,4.4c-0.1-0.3-0.3-0.5-0.6-0.6c-9.6-4.4-20.9-4.4-30.6,0C19.2,4,19,4.5,19.1,5
	c0.1,0.5,0.6,0.8,1.1,0.8c0.2,0,0.3,0,0.5-0.1c9-4.1,19.5-4.1,28.5,0c0.3,0.1,0.6,0.1,0.9,0C50.4,5.7,50.7,5.5,50.8,5.2z"/>
<path class="st0" d="M64.4,19.2c-0.3,0.1-0.5,0.4-0.6,0.7c-0.1,0.3-0.1,0.6,0.1,0.9c2.2,4.4,3.4,9.3,3.3,14.3
	c0,17.8-14.4,32.2-32.2,32.2C17.2,67.2,2.8,52.8,2.8,35c0-5,1.1-9.9,3.3-14.3c0.2-0.4,0.2-0.8-0.1-1.2c-0.2-0.3-0.6-0.5-1-0.5
	c-0.4,0-0.8,0.3-1,0.6c-2.4,4.8-3.6,10-3.6,15.3c0,19,15.4,34.5,34.5,34.5c19.1,0,34.5-15.4,34.5-34.5c0-5.3-1.2-10.6-3.6-15.3
	c-0.1-0.3-0.4-0.5-0.7-0.6C65,19.1,64.6,19.1,64.4,19.2z"/>
<path class="st0" d="M7.1,6.6c-2.7,2.7-0.6,8.8,2.1,11.5c1.3,1.3,3,2.1,4.8,2.1h0.2c0.5,0,1-0.1,1.5-0.2l14,14.1
	c0,0.2-0.1,0.5-0.1,0.8c0,0.3,0,0.5,0.1,0.8l-1.6,1.6c-1.3,1.3-1.3,3.4,0,4.7c1.3,1.3,3.4,1.3,4.7,0l1.6-1.6c0.2,0,0.5,0.1,0.8,0.1
	c0.3,0,0.5,0,0.8-0.1l1.6,1.6c1.3,1.3,3.4,1.3,4.7,0c1.3-1.3,1.3-3.4,0-4.7l-1.6-1.6c0-0.2,0.1-0.5,0.1-0.8c0-0.3,0-0.5-0.1-0.8
	l14.2-14.3c1.3,0.6,2.8,0.4,3.8-0.6l7.8-7.9c0.3-0.3,0.4-0.7,0.3-1.1c-0.1-0.4-0.4-0.7-0.8-0.8c-0.4-0.1-0.8,0-1.1,0.3l-7.8,7.9
	c-0.4,0.4-1.1,0.4-1.6,0l-0.8-0.8l8.6-8.6c0.3-0.3,0.4-0.7,0.3-1.1c-0.1-0.4-0.4-0.7-0.8-0.8c-0.4-0.1-0.8,0-1.1,0.3l-8.6,8.6
	l-0.8-0.8c-0.4-0.4-0.4-1.1,0-1.6L60.2,5c0.4-0.4,0.4-1.1,0-1.6c-0.4-0.4-1.1-0.4-1.6,0l-7.8,7.8c-1,1-1.3,2.5-0.6,3.8L36,29.4
	c-0.2,0-0.5-0.1-0.8-0.1c-0.3,0-0.5,0-0.8,0.1l-14-14.1c0.1-0.6,0.2-1.2,0.2-1.8c-0.1-1.8-0.8-3.6-2.1-4.9C15.8,5.9,9.8,3.9,7.1,6.6
	z M14.1,18c-1.3-0.1-2.5-0.6-3.4-1.5c-2.2-2.2-3.6-6.9-2.1-8.4c0.5-0.5,1.2-0.7,2-0.6c2.4,0.1,4.6,1.1,6.4,2.7
	c0.9,0.9,1.4,2.1,1.5,3.4c0.1,1.2-0.4,2.3-1.2,3.2C16.4,17.7,15.3,18.1,14.1,18z M31.3,40.4c-0.2,0.2-0.5,0.3-0.8,0.3
	s-0.6-0.1-0.8-0.3c-0.2-0.2-0.3-0.5-0.3-0.8c0-0.3,0.1-0.6,0.3-0.8l0.9-0.9c0.4,0.6,0.9,1.2,1.6,1.6L31.3,40.4z M40.7,38.8
	c0.3,0.3,0.4,0.7,0.3,1.1c-0.1,0.4-0.4,0.7-0.8,0.8c-0.4,0.1-0.8,0-1.1-0.3l-0.9-0.9c0.6-0.4,1.2-1,1.6-1.6L40.7,38.8z M51.6,16.8
	l1.6,1.6L39.8,31.8c-0.4-0.6-0.9-1.2-1.6-1.6L51.6,16.8z M38.5,34.9c0,1.8-1.5,3.3-3.3,3.3c-1.8,0-3.3-1.5-3.3-3.3s1.5-3.3,3.3-3.3
	C37,31.6,38.5,33,38.5,34.9z M32.2,30.2c-0.6,0.4-1.2,1-1.6,1.6L17.9,19.1c0.6-0.4,1.2-1,1.6-1.6L32.2,30.2z"/>
</svg>
