<?xml version="1.0" encoding="utf-8"?>
<!-- Generator: Adobe Illustrator 22.0.0, SVG Export Plug-In . SVG Version: 6.00 Build 0)  -->
<svg version="1.1" id="Layer_1" xmlns="http://www.w3.org/2000/svg" xmlns:xlink="http://www.w3.org/1999/xlink" x="0px" y="0px"
	 viewBox="0 0 70 70" style="enable-background:new 0 0 70 70;" xml:space="preserve">
<style type="text/css">
	.st0{fill:#E91E63;}
	.st1{fill:#FFFFFF;filter:url(#Adobe_OpacityMaskFilter);}
	.st2{mask:url(#path-4-inside-1_1_);fill:#E91E63;}
</style>
<path class="st0" d="M21.6,39.6c-0.1-0.8-0.8-1.4-1.6-1.3c-0.8,0.1-1.4,0.8-1.3,1.6L21.6,39.6z M21.6,68.1c0.1,0.8,0.8,1.4,1.6,1.3
	c0.8-0.1,1.4-0.8,1.3-1.6L21.6,68.1z M18.6,39.9l3,28.2l2.9-0.3l-3-28.2L18.6,39.9z"/>
<path class="st0" d="M35.8,39c0-0.8-0.7-1.5-1.5-1.5c-0.8,0-1.5,0.7-1.5,1.5L35.8,39z M32.9,68.3c0,0.8,0.7,1.5,1.5,1.5
	c0.8,0,1.5-0.7,1.5-1.5L32.9,68.3z M32.9,39l0,29.3l2.9,0l0-29.3L32.9,39z"/>
<path class="st0" d="M50.5,39.4c0.1-0.8-0.4-1.5-1.2-1.7c-0.8-0.1-1.5,0.4-1.7,1.2L50.5,39.4z M43.2,67.9c-0.1,0.8,0.4,1.5,1.2,1.7
	c0.8,0.1,1.5-0.4,1.7-1.2L43.2,67.9z M47.6,39l-4.3,29l2.9,0.4l4.3-29L47.6,39z"/>
<defs>
	<filter id="Adobe_OpacityMaskFilter" filterUnits="userSpaceOnUse" x="-17.9" y="-19.3" width="104.1" height="108.6">
		<feColorMatrix  type="matrix" values="1 0 0 0 0  0 1 0 0 0  0 0 1 0 0  0 0 0 1 0"/>
	</filter>
</defs>
<mask maskUnits="userSpaceOnUse" x="-17.9" y="-19.3" width="104.1" height="108.6" id="path-4-inside-1_1_">
	<path class="st1" d="M1.6,31.5c0,2.2,0.7,4.4,2.1,6.2C5,39.5,6.8,40.8,9,41.5l3.9,25.4c0.1,0.8,0.5,1.6,1.2,2.1
		c0.6,0.5,1.4,0.8,2.3,0.8h35.6c0.8,0,1.6-0.3,2.3-0.8c0.6-0.5,1.1-1.3,1.2-2.1l3.9-25.4c2-0.6,3.7-1.7,5-3.3
		c1.3-1.6,2.1-3.5,2.4-5.5c0.2-2-0.1-4.1-1-5.9c-0.9-1.8-2.3-3.3-4.1-4.4c-1.3-6.3-4.7-12-9.7-16c-5-4.1-11.2-6.3-17.7-6.3
		c-6.4,0-12.7,2.2-17.7,6.3c-5,4.1-8.4,9.7-9.7,16c-1.6,0.9-2.9,2.2-3.8,3.8S1.6,29.6,1.6,31.5z M53.1,66.5c0,0.3-0.2,0.5-0.4,0.7
		c-0.2,0.2-0.5,0.3-0.8,0.3H16.4c-0.3,0-0.5-0.1-0.8-0.3s-0.4-0.4-0.4-0.7l-3.8-24.6c0.2,0,0.4,0,0.6,0c1.4,0,2.8-0.3,4.1-0.8
		c1.3-0.6,2.5-1.4,3.5-2.4c1.9,2,4.4,3.1,7.2,3.2c2.7,0.1,5.4-0.9,7.4-2.7c2,1.8,4.7,2.8,7.4,2.7c2.7-0.1,5.3-1.3,7.2-3.2
		c1,1,2.2,1.8,3.5,2.4c1.3,0.6,2.7,0.8,4.1,0.8c0.2,0,0.4,0,0.6,0L53.1,66.5z M9,23.4c0.8-4.5,2.9-8.7,5.9-12.2
		c3-3.5,6.9-6,11.3-7.5c1.8-0.6,4.4-1.1,6-1.2c0.7-0.1,1.3-0.1,2-0.1c6,0,11.8,2.1,16.4,5.9c4.6,3.8,7.7,9.2,8.8,15
		c0,0.2,0.1,0.3,0.2,0.5c0.1,0.1,0.2,0.3,0.4,0.3c1.1,0.6,2.1,1.4,2.8,2.3c0.8,1,1.3,2.1,1.5,3.3c0.2,1.2,0.2,2.5-0.1,3.7
		c-0.3,1.2-0.9,2.3-1.7,3.2c-0.8,0.9-1.8,1.7-3,2.2c-1.1,0.5-2.4,0.7-3.6,0.7c-1.2-0.1-2.4-0.4-3.5-1c-1.1-0.6-2-1.4-2.7-2.4
		c-0.1-0.1-0.2-0.3-0.4-0.4c-0.2-0.1-0.3-0.1-0.5-0.1c-0.2,0-0.4,0-0.5,0.1c-0.2,0.1-0.3,0.2-0.4,0.4c-0.7,1-1.6,1.8-2.7,2.4
		c-1.1,0.6-2.3,0.9-3.5,1c-1.2,0.1-2.4-0.2-3.6-0.6c-1.1-0.5-2.1-1.2-2.9-2.1c-0.1-0.1-0.2-0.2-0.4-0.3c-0.2-0.1-0.3-0.1-0.5-0.1
		c-0.2,0-0.3,0-0.5,0.1c-0.2,0.1-0.3,0.2-0.4,0.3c-0.8,0.9-1.8,1.6-2.9,2.1c-1.1,0.5-2.4,0.7-3.6,0.6c-1.2-0.1-2.4-0.4-3.5-1
		c-1.1-0.6-2-1.4-2.7-2.4c-0.1-0.1-0.3-0.3-0.4-0.3c-0.2-0.1-0.3-0.1-0.5-0.1s-0.4,0-0.5,0.1c-0.2,0.1-0.3,0.2-0.4,0.3
		c-0.7,1-1.7,1.8-2.7,2.4c-1.1,0.6-2.3,0.9-3.5,1s-2.5-0.2-3.6-0.7c-1.1-0.5-2.1-1.2-3-2.2c-0.8-0.9-1.4-2-1.7-3.2
		c-0.3-1.2-0.4-2.4-0.1-3.7c0.2-1.2,0.8-2.4,1.5-3.3c0.8-1,1.7-1.8,2.8-2.3c0.2-0.1,0.3-0.2,0.4-0.3C8.9,23.7,8.9,23.6,9,23.4z"/>
</mask>
<path class="st2" d="M1.6,31.5l19.5,0l0,0L1.6,31.5z M9,41.5l19.2-3l-1.9-12.1l-11.7-3.6L9,41.5z M12.9,66.8l19.3-2.9l0,0l0,0
	L12.9,66.8z M16.4,69.8V50.3h0l0,0L16.4,69.8z M51.9,69.8L52,50.3l0,0h0V69.8z M55.4,66.8l-19.2-3l0,0l0,0L55.4,66.8z M59.3,41.5
	l-5.6-18.6l-11.8,3.5l-1.9,12.1L59.3,41.5z M61.5,22.4l-19.1,3.9l1.8,8.6l7.6,4.4L61.5,22.4z M34.2,0.1v-19.5V0.1z M6.8,22.4
	l9.7,16.9l7.6-4.4l1.8-8.6L6.8,22.4z M53.1,66.5l-19.2-3l0,0.1l0,0.1L53.1,66.5z M51.9,67.5L52.1,48L52,48h-0.1V67.5z M16.4,67.5V48
	h-0.1l-0.1,0L16.4,67.5z M15.2,66.5l19.3-2.9l0-0.1l0-0.1L15.2,66.5z M11.4,41.9l1.1-19.4l-24-1.4l3.7,23.8L11.4,41.9z M12,41.9
	v19.5h0h0L12,41.9z M19.6,38.7l14.1-13.4L19.6,10.5L5.5,25.2L19.6,38.7z M34.2,39.2l13-14.5l-13-11.7l-13,11.7L34.2,39.2z
	 M48.7,38.7l14.1-13.5L48.7,10.5L34.6,25.2L48.7,38.7z M56.3,41.9l0,19.5h0h0V41.9z M56.9,41.9l19.2,3l3.7-23.8l-24,1.4L56.9,41.9z
	 M9,23.4l-19.2-3.5l0,0L9,23.4z M26.2,3.7l-6-18.5L26.2,3.7z M32.2,2.5l1.5,19.4L32.2,2.5z M34.2,2.4v19.5l0,0L34.2,2.4z M59.3,23.4
	l19.2-3.5l0,0L59.3,23.4z M60,24.2l-8.8,17.4l0.1,0l0.1,0L60,24.2z M59.5,38.9l7.7,17.9L59.5,38.9z M52.4,38.6l-9.3,17.1L52.4,38.6z
	 M49.7,36.2l15.9-11.3l0-0.1l0-0.1L49.7,36.2z M47.8,36.2L32,24.8l0,0l0,0L47.8,36.2z M45,38.6l-9.3-17.1L45,38.6z M38,38.9L45.5,21
	L38,38.9z M35,36.8L49.7,24l-0.2-0.3l-0.2-0.3L35,36.8z M34.2,36.4v19.5V36.4z M33.3,36.8L19.1,23.5l-0.2,0.3L18.7,24L33.3,36.8z
	 M30.3,38.9L22.8,21L30.3,38.9z M23.3,38.6l9.3-17.1L23.3,38.6z M20.5,36.2l15.8-11.3l-0.3-0.4l-0.3-0.4L20.5,36.2z M18.7,36.2
	L3.4,24.1l-0.3,0.4l-0.3,0.4L18.7,36.2z M15.9,38.6l9.3,17.1L15.9,38.6z M8.8,38.9L1.1,56.8L8.8,38.9z M8.3,24.2l8.7,17.4l0.1,0
	l0.1,0L8.3,24.2z M-17.9,31.5c0,6.4,2.1,12.7,5.9,17.8l31.2-23.3c1.2,1.5,1.8,3.4,1.8,5.4L-17.9,31.5z M-12,49.3
	c3.8,5.1,9.2,8.9,15.3,10.8l11.3-37.3c1.8,0.6,3.4,1.7,4.6,3.2L-12,49.3z M-10.2,44.4l3.9,25.4l38.5-5.9l-3.9-25.4L-10.2,44.4z
	 M-6.4,69.7c0.8,5.5,3.6,10.5,7.8,14l25.3-29.6c2.9,2.5,4.9,6,5.4,9.8L-6.4,69.7z M1.4,83.7c4.2,3.6,9.5,5.5,15,5.5l-0.2-38.9
	c3.8,0,7.5,1.3,10.5,3.8L1.4,83.7z M16.4,89.2h35.6V50.3H16.4V89.2z M51.9,89.2c5.5,0,10.8-1.9,15-5.5L41.6,54.1
	c2.9-2.5,6.6-3.9,10.5-3.8L51.9,89.2z M66.9,83.7c4.2-3.6,7-8.6,7.8-14l-38.5-5.8c0.6-3.8,2.5-7.3,5.4-9.8L66.9,83.7z M74.6,69.8
	l3.9-25.4l-38.5-5.9l-3.9,25.4L74.6,69.8z M64.9,60.1c5.6-1.7,10.6-5,14.3-9.4l-29.8-25c1.1-1.3,2.6-2.3,4.3-2.8L64.9,60.1z
	 M79.2,50.7c3.8-4.5,6.1-9.9,6.8-15.7l-38.7-4.5c0.2-1.8,0.9-3.4,2.1-4.8L79.2,50.7z M86,34.9c0.7-5.8-0.4-11.7-3-16.9L48.2,35.5
	c-0.8-1.6-1.1-3.4-0.9-5.1L86,34.9z M83,18c-2.6-5.2-6.7-9.5-11.8-12.5L51.8,39.3c-1.5-0.9-2.8-2.2-3.5-3.8L83,18z M80.6,18.5
	c-2.2-10.7-8-20.3-16.5-27.2L39.5,21.5c1.5,1.2,2.5,2.9,2.9,4.8L80.6,18.5z M64.1-8.7c-8.5-6.9-19.1-10.7-30-10.7v38.9
	c2,0,3.9,0.7,5.4,1.9L64.1-8.7z M34.2-19.3c-10.9,0-21.5,3.8-30,10.7l24.6,30.2c1.5-1.2,3.4-1.9,5.4-1.9V-19.3z M4.2-8.7
	C-4.3-1.8-10.1,7.8-12.3,18.5l38.2,7.8c0.4-1.9,1.4-3.6,2.9-4.8L4.2-8.7z M-2.9,5.6c-4.6,2.6-8.3,6.4-11,11L19.8,36
	c-0.8,1.4-2,2.5-3.3,3.3L-2.9,5.6z M-13.9,16.5c-2.6,4.6-4,9.7-4,15L21,31.4c0,1.6-0.4,3.2-1.2,4.6L-13.9,16.5z M33.8,63.6
	c0.6-4.4,2.9-8.4,6.2-11.2L65.4,82c3.8-3.2,6.3-7.7,7-12.7L33.8,63.6z M40,52.4c3.4-2.9,7.6-4.4,12-4.4l-0.2,38.9
	c5,0,9.8-1.7,13.5-5L40,52.4z M51.9,48H16.4v38.9h35.6V48z M16.3,48c4.4,0,8.7,1.5,12,4.4L2.9,82c3.8,3.2,8.6,5,13.5,5L16.3,48z
	 M28.3,52.4c3.4,2.9,5.6,6.9,6.2,11.2l-38.5,5.7c0.7,4.9,3.2,9.4,7,12.7L28.3,52.4z M34.5,63.5l-3.8-24.6l-38.5,5.9L-4,69.4
	L34.5,63.5z M10.3,61.3C10.3,61.3,10.2,61.3,10.3,61.3c-0.1,0,0.1,0,0.2,0c0.3,0,0.8,0,1.5,0V22.4c0.3,0,0.5,0,0.6,0
	c0.1,0,0.3,0,0.3,0c0,0,0,0,0,0c0,0,0,0-0.1,0c-0.1,0-0.2,0-0.4,0L10.3,61.3z M12.1,61.4c4,0,8-0.8,11.7-2.4L8.5,23.2
	c1.1-0.5,2.3-0.7,3.5-0.7L12.1,61.4z M23.8,59c3.7-1.6,7.1-3.9,9.9-6.8l-28.1-27c0.8-0.9,1.8-1.6,3-2L23.8,59z M5.5,52.1
	c5.4,5.6,12.7,8.9,20.5,9.2l1.5-38.9c2.3,0.1,4.5,1.1,6.2,2.8L5.5,52.1z M26,61.4c7.8,0.3,15.4-2.4,21.1-7.6l-26-29
	c1.7-1.6,4-2.4,6.4-2.3L26,61.4z M21.2,53.7c5.8,5.2,13.4,7.9,21.1,7.6l-1.5-38.9c2.3-0.1,4.6,0.7,6.4,2.3L21.2,53.7z M42.3,61.4
	c7.8-0.3,15.1-3.6,20.5-9.2L34.6,25.2c1.6-1.7,3.8-2.7,6.2-2.8L42.3,61.4z M34.7,52.2c2.8,2.9,6.1,5.2,9.9,6.8l15.3-35.8
	c1.1,0.5,2.1,1.2,3,2L34.7,52.2z M44.5,59c3.7,1.6,7.7,2.4,11.7,2.4l0.1-38.9c1.2,0,2.4,0.2,3.5,0.7L44.5,59z M56.3,61.4
	c0.7,0,1.3,0,1.5,0c0.1,0,0.3,0,0.3,0c0,0,0,0-0.1,0l-2.2-38.9c-0.2,0-0.3,0-0.4,0c0,0,0,0-0.1,0c0,0,0,0,0,0c0,0,0.1,0,0.3,0
	c0.1,0,0.4,0,0.6,0V61.4z M37.6,38.9l-3.8,24.6l38.5,5.9l3.8-24.6L37.6,38.9z M28.1,26.9c0.2-1.1,0.7-2,1.4-2.9L0.2-1.6
	c-5.3,6.1-8.9,13.5-10.4,21.5L28.1,26.9z M29.5,24c0.7-0.8,1.6-1.4,2.7-1.8l-12-37c-7.7,2.5-14.6,7.1-20,13.2L29.5,24z M33.7,21.9
	c0.2,0,0.3,0,0.4,0c0.1,0,0.1,0,0.1,0V-17c-1.4,0-2.6,0.1-3.5,0.1L33.7,21.9z M34.2,21.9c1.4,0,2.8,0.5,3.9,1.4L63-6.6
	C54.9-13.4,44.7-17,34.1-17L34.2,21.9z M38.1,23.3c1.1,0.9,1.8,2.2,2.1,3.5l38.3-7C76.6,9.5,71.1,0.1,63-6.6L38.1,23.3z M40.2,26.9
	c0.6,3.1,1.9,6.1,3.8,8.6l31.2-23.2c1.7,2.3,2.8,4.9,3.3,7.7L40.2,26.9z M43.9,35.5c1.9,2.6,4.4,4.6,7.2,6.1L68.8,6.9
	c2.5,1.3,4.7,3.1,6.4,5.4L43.9,35.5z M51.2,41.6c-1.5-0.8-2.9-1.9-3.9-3.2l30.9-23.6c-2.5-3.3-5.8-6-9.6-7.9L51.2,41.6z M47.3,38.4
	c-1-1.4-1.8-3-2.1-4.7l38.2-7.7c-0.8-4.1-2.6-8-5.1-11.3L47.3,38.4z M45.2,33.7c-0.3-1.7-0.3-3.5,0.2-5.1L83,38.5
	c1.1-4.1,1.2-8.3,0.4-12.4L45.2,33.7z M45.4,28.6c0.4-1.7,1.3-3.2,2.4-4.5l29.5,25.4c2.7-3.2,4.7-6.9,5.8-11L45.4,28.6z M47.7,24.1
	c1.1-1.3,2.5-2.3,4.1-3l15.4,35.8c3.8-1.7,7.3-4.2,10-7.3L47.7,24.1z M51.8,21.1c1.6-0.7,3.3-1,5-0.9L55,59.1
	c4.2,0.2,8.4-0.6,12.2-2.2L51.8,21.1z M56.8,20.2c1.7,0.1,3.4,0.5,4.9,1.4L43.1,55.7c3.7,2,7.8,3.2,11.9,3.3L56.8,20.2z M61.7,21.5
	c1.5,0.8,2.8,2,3.8,3.4L33.8,47.5c2.4,3.4,5.6,6.2,9.3,8.2L61.7,21.5z M65.5,24.8c-1.9-2.7-4.4-4.8-7.3-6.3L40.4,53.2
	c-2.6-1.3-4.8-3.2-6.5-5.6L65.5,24.8z M58.1,18.5c-2.9-1.5-6.1-2.3-9.4-2.3v38.9c-2.9,0-5.8-0.7-8.3-2L58.1,18.5z M48.7,16.2
	c-3.3,0-6.5,0.8-9.4,2.3L57,53.2c-2.6,1.3-5.4,2-8.3,2V16.2z M39.3,18.5c-2.9,1.5-5.4,3.6-7.3,6.3l31.6,22.8
	c-1.7,2.4-3.9,4.3-6.5,5.6L39.3,18.5z M31.9,24.9c1-1.4,2.3-2.5,3.8-3.4l18.7,34.2c3.7-2,6.8-4.8,9.2-8.2L31.9,24.9z M35.7,21.5
	c1.5-0.8,3.2-1.3,4.9-1.4l2,38.9c4.2-0.2,8.2-1.4,11.9-3.3L35.7,21.5z M40.6,20.1c1.7-0.1,3.4,0.2,5,0.9L30.4,56.9
	c3.8,1.6,8,2.3,12.1,2.1L40.6,20.1z M45.5,21c1.6,0.7,3,1.7,4.1,3L20.4,49.7c2.7,3.1,6.2,5.6,10,7.2L45.5,21z M49.2,23.5
	c-1.9-2.1-4.3-3.7-6.9-4.8L26.9,54.4c-2.3-1-4.3-2.4-6.1-4.2L49.2,23.5z M42.3,18.7C39.8,17.5,37,17,34.2,17v38.9
	c-2.5,0-4.9-0.5-7.2-1.5L42.3,18.7z M34.2,17c-2.8,0-5.6,0.6-8.2,1.7l15.4,35.8c-2.3,1-4.7,1.5-7.2,1.5V17z M26,18.7
	c-2.6,1.1-4.9,2.7-6.9,4.8l28.3,26.7c-1.7,1.8-3.8,3.3-6.1,4.2L26,18.7z M18.7,24c1.1-1.3,2.5-2.3,4.1-3l15.2,35.9
	c3.8-1.6,7.3-4.1,10-7.2L18.7,24z M22.8,21c1.6-0.7,3.3-1,5-0.9l-2,38.9c4.2,0.2,8.3-0.5,12.1-2.1L22.8,21z M27.7,20.1
	c1.7,0.1,3.4,0.6,4.9,1.4L13.9,55.7c3.7,2,7.7,3.1,11.9,3.3L27.7,20.1z M32.6,21.5c1.5,0.8,2.8,2,3.8,3.4L4.7,47.5
	c2.4,3.4,5.6,6.2,9.2,8.2L32.6,21.5z M35.8,24.1c-1.9-2.4-4.4-4.4-7.2-5.8L11.7,53.4c-2.5-1.2-4.7-2.9-6.4-5.1L35.8,24.1z
	 M28.6,18.3c-2.8-1.4-5.9-2.1-9-2.1v38.9c-2.7,0-5.5-0.6-7.9-1.8L28.6,18.3z M19.6,16.3c-3.1,0-6.2,0.7-9,2.1l16.9,35.1
	c-2.5,1.2-5.2,1.8-7.9,1.8V16.3z M10.6,18.3c-2.8,1.4-5.3,3.3-7.2,5.8l30.5,24.2c-1.7,2.2-3.9,3.9-6.4,5.1L10.6,18.3z M2.8,24.9
	c1-1.4,2.3-2.6,3.8-3.4l18.7,34.2c3.7-2,6.9-4.8,9.3-8.2L2.8,24.9z M6.6,21.5c1.5-0.8,3.2-1.3,4.9-1.4l1.8,38.9
	c4.2-0.2,8.3-1.3,11.9-3.3L6.6,21.5z M11.5,20.2c1.7-0.1,3.4,0.2,5,0.9L1.1,56.8c3.8,1.7,8,2.4,12.2,2.2L11.5,20.2z M16.5,21.1
	c1.6,0.7,3,1.7,4.1,3L-8.9,49.5c2.7,3.2,6.2,5.7,10,7.3L16.5,21.1z M20.6,24.1c1.1,1.3,1.9,2.9,2.4,4.5l-37.7,9.9
	c1.1,4.1,3,7.8,5.8,11L20.6,24.1z M23,28.6c0.4,1.7,0.5,3.4,0.2,5.1l-38.2-7.7c-0.8,4.1-0.7,8.4,0.4,12.4L23,28.6z M23.1,33.7
	C22.8,35.4,22,37,21,38.4L-9.9,14.7c-2.5,3.3-4.3,7.2-5.1,11.3L23.1,33.7z M21,38.4c-1,1.4-2.4,2.5-3.9,3.2L-0.4,6.8
	c-3.7,1.9-7,4.6-9.6,7.9L21,38.4z M17.2,41.6c2.8-1.4,5.3-3.5,7.2-6.1L-6.9,12.3C-5.2,10-3,8.2-0.5,6.9L17.2,41.6z M24.4,35.5
	c1.9-2.6,3.2-5.5,3.8-8.6l-38.3-6.9c0.5-2.8,1.6-5.4,3.3-7.7L24.4,35.5z M32.2,22.2c-0.1,0,0,0,0.2,0c0.2,0,0.4-0.1,0.6-0.1
	c0.2,0,0.5-0.1,0.6-0.1c0.2,0,0.2,0,0,0l-3-38.8c-3.1,0.2-7.2,1-10.5,2.1L32.2,22.2z"/>
</svg>
