<?xml version="1.0" encoding="utf-8"?>
<!-- Generator: Adobe Illustrator 22.0.0, SVG Export Plug-In . SVG Version: 6.00 Build 0)  -->
<svg version="1.1" id="Layer_1" xmlns="http://www.w3.org/2000/svg" xmlns:xlink="http://www.w3.org/1999/xlink" x="0px" y="0px"
	 viewBox="0 0 70 70" style="enable-background:new 0 0 70 70;" xml:space="preserve">
<style type="text/css">
	.st0{fill:#E91E63;}
	.st1{fill:none;stroke:#E91E63;stroke-width:3;stroke-linecap:round;stroke-linejoin:round;}
	.st2{fill:none;stroke:#E91E63;stroke-width:4;stroke-linecap:round;stroke-linejoin:round;}
	.st3{fill:none;stroke:#E91E63;stroke-width:3;stroke-linecap:round;}
</style>
<path class="st0" d="M23.7,19.5c-0.6,0.8-0.4,2,0.4,2.6c0.8,0.6,2,0.4,2.6-0.4L23.7,19.5z M54,33.2c-0.6,0.8-0.4,2,0.4,2.6
	c0.8,0.6,2,0.4,2.6-0.4L54,33.2z M26.7,21.6l11-15.1l-3-2.2l-11,15.1L26.7,21.6z M43,5.7l17.2,12.5l2.2-3L45.2,2.7L43,5.7z
	 M61.1,23.6l-7,9.7l3,2.2l7-9.7L61.1,23.6z M60.2,18.2c1.7,1.2,2.1,3.6,0.8,5.3l3,2.2c2.4-3.4,1.7-8-1.6-10.5L60.2,18.2z M37.7,6.5
	c1.2-1.7,3.6-2.1,5.3-0.8l2.2-3c-3.4-2.4-8-1.7-10.5,1.6L37.7,6.5z"/>
<path class="st1" d="M19.8,28.3l21.7-2.7l-10.9,15l21.3-2.2"/>
<path class="st2" d="M16.3,32.7L6.6,46.1c-1.8,2.5-1.3,6.1,1.2,7.9l17.2,12.5c2.5,1.8,6.1,1.3,7.9-1.2l14.5-19.9"/>
<path class="st3" d="M51.4,1.7l11.3,8.5"/>
</svg>
