<?xml version="1.0" encoding="utf-8"?>
<!-- Generator: Adobe Illustrator 22.0.0, SVG Export Plug-In . SVG Version: 6.00 Build 0)  -->
<svg version="1.1" id="Layer_1" xmlns="http://www.w3.org/2000/svg" xmlns:xlink="http://www.w3.org/1999/xlink" x="0px" y="0px"
	 viewBox="0 0 70 70" style="enable-background:new 0 0 70 70;" xml:space="preserve">
<style type="text/css">
	.st0{fill:#E91E63;}
</style>
<path class="st0" d="M66.2,25.3c0,0,2-2,2-5c0-2-0.6-3.6-2-4.7l-1.1-1.1l1.1-1.1c2.8-2.8,2.8-7,0-9.5c-2.8-2.8-7-2.8-9.5,0l-1.1,1.1
	l-1.1-1.1c-2.8-2.8-7-2.8-9.5,0l-0.3,0.3l-2-2c-2-2-5.6-2-7.8,0c-2,2-2,5.6,0,7.8l7.8,7.8L17.1,44l-7.8-7.8c-2-2-5.6-2-7.8,0
	c-2,2-2,5.6,0,7.8l2,2l-0.3,0.3c-2.8,2.8-2.7,6.4,0.2,9.2c0.2,0.2,0.9,0.8,0.9,0.8l-1.1,1.1c-2.8,2.8-2.8,7,0,9.5
	c2.8,2.8,7,2.8,9.5,0l1.1-1.1l1.1,1.1c2.8,2.8,7,2.8,9.5,0l0.3-0.3l2,2c2,2,5.6,2,7.8,0c2-2,2-5.6,0-7.8l-7.8-7.8l26.2-26.2l7.8,7.8
	c2,2,5.7,2,7.8,0c2-2.1,1.9-5.3-0.2-7.6C67.5,26.3,66.2,25.3,66.2,25.3z M58.7,5.8c1.7-1.7,4.2-1.7,5.9,0s1.7,4.2,0,5.9l-1.1,1.1
	l-5.6-5.9L58.7,5.8z M46.9,5.8c1.7-1.7,4.2-1.7,5.9,0l11.7,11.4c1.7,1.7,1.7,4.2,0,5.9l-0.3,0.3L46.9,5.8z M11.2,64.9
	c-1.6,1.5-4.2,1.7-5.9,0c-1.7-1.7-1.3-4.6,0-5.9c0.3-0.2,1-0.9,1-0.9l6,6L11.2,64.9z M22.7,64.9c-1.7,1.7-4.2,1.7-5.9,0L5.4,53.5
	c-1.7-1.7-1.7-4.2,0-5.9l0.3-0.3L22.7,64.9z M32.4,66.6c-1.1,1.1-2.8,1.1-3.6,0C27.7,65.5,5.1,42.9,3.7,41.5c-1.1-1.1-1.1-2.8,0-3.6
	c1.1-1.1,2.8-1.1,3.6,0L32.4,63C33.5,63.8,33.5,65.5,32.4,66.6z M24.6,51.2l-5.9-5.9L45,19.2l5.9,5.9L24.6,51.2z M66.2,32.8
	c-1,1.1-2.7,0.8-3.6,0L37.5,7.7c-1.1-1.1-1.1-2.8,0-3.6c1.1-1.1,2.8-1.1,3.6,0c1.1,1.1,23.7,23.7,25.1,25.1
	C67.3,30.3,67.3,32,66.2,32.8z"/>
</svg>
