<?xml version="1.0" encoding="utf-8"?>
<!-- Generator: Adobe Illustrator 22.0.0, SVG Export Plug-In . SVG Version: 6.00 Build 0)  -->
<svg version="1.1" id="Layer_1" xmlns="http://www.w3.org/2000/svg" xmlns:xlink="http://www.w3.org/1999/xlink" x="0px" y="0px"
	 viewBox="0 0 70 70" style="enable-background:new 0 0 70 70;" xml:space="preserve">
<style type="text/css">
	.st0{fill:#E91E63;}
	.st1{fill:#FFF5F5;}
</style>
<path class="st0" d="M19.9,2c0.4-0.7,0.1-1.5-0.6-1.9c-0.7-0.4-1.5-0.1-1.9,0.6L19.9,2z M22.2,16.1l1.2-0.7L22.2,16.1z M32.7,23.4
	l1.4,0c0-0.8-0.6-1.4-1.4-1.4V23.4z M33,44.7h1.4l0,0L33,44.7z M1.5,54.8l-1.4-0.1L1.5,54.8z M0.1,68.6c0,0.8,0.6,1.4,1.3,1.4
	c0.8,0,1.4-0.6,1.4-1.3L0.1,68.6z M17.4,0.7c-0.2,0.4-0.3,0.8-0.4,1.2C17,2.3,17,2.8,17,3.3c0,1,0.1,2.3,0.4,3.7
	c0.5,2.8,1.6,6.4,3.6,9.8l2.4-1.4c-1.8-3.1-2.8-6.3-3.3-8.9c-0.2-1.3-0.3-2.4-0.3-3.2c0-0.4,0-0.8,0.1-1c0-0.3,0.1-0.3,0.1-0.3
	L17.4,0.7z M21,16.9c2.4,4.1,6.1,7.9,11.7,7.9V22c-4.2,0-7.1-2.8-9.3-6.5L21,16.9z M31.3,23.4l0.4,21.3l2.8,0l-0.4-21.3L31.3,23.4z
	 M31.6,44.7c0,0.3-0.1,0.9-0.5,1.4c-0.3,0.5-0.7,0.8-1.3,0.8v2.8c1.7,0,2.9-1,3.6-2c0.7-1,1-2.2,1-3H31.6z M29.9,46.9
	c-0.8,0-1.6-0.3-2.6-0.8c-0.5-0.3-1-0.6-1.6-1c-0.6-0.4-1.2-0.8-1.8-1.2c-2.6-1.6-6-3.1-11-2.6l0.3,2.8c4.1-0.4,6.9,0.8,9.2,2.2
	c0.6,0.4,1.2,0.7,1.7,1.1c0.6,0.4,1.1,0.7,1.7,1.1c1.2,0.6,2.5,1.2,3.9,1.2V46.9z M12.9,41.3c-5,0.5-8.1,2.9-10.1,5.7
	c-1.9,2.7-2.5,5.8-2.7,7.7L2.9,55c0.2-1.7,0.7-4.2,2.3-6.4c1.5-2.1,3.9-4,8.1-4.5L12.9,41.3z M0.1,54.7C0,56.2,0,58.9,0,61.6
	c0.1,2.7,0.1,5.4,0.1,7l2.8,0.1c0.1-1.7,0-4.5-0.1-7.1c-0.1-2.7-0.1-5.2,0.1-6.5L0.1,54.7z"/>
<path class="st0" d="M11.9,68.6c0,0.8,0.6,1.4,1.4,1.4c0.8,0,1.4-0.6,1.4-1.4H11.9z M13.3,54.8h1.4c0,0,0-0.1,0-0.1L13.3,54.8z
	 M23.8,56.6l0.9-1.1L23.8,56.6z M61.8,59.6c0.5-0.6,0.4-1.5-0.2-2c-0.6-0.5-1.5-0.4-2,0.2L61.8,59.6z M14.7,68.6V54.8h-2.8v13.8
	H14.7z M14.7,54.7c0-0.1,0-0.2,0-0.3c0,0,0-0.1,0-0.1c0,0,0,0,0,0c0,0,0,0,0,0c0,0,0,0,0,0c0,0,0,0,0.1,0c0.2-0.1,0.8-0.1,1.8,0.1
	c1.9,0.5,4.5,1.8,6.4,3.3l1.7-2.2c-2.2-1.7-5.1-3.2-7.5-3.8c-1.2-0.3-2.5-0.4-3.5,0c-0.6,0.2-1.1,0.6-1.4,1.3
	c-0.3,0.6-0.4,1.3-0.4,2L14.7,54.7z M23,57.7c5.6,4.3,9.8,9.9,20.3,9.9v-2.8c-9.3,0-12.6-4.6-18.6-9.3L23,57.7z M43.3,67.5
	c9.3,0,14.8-3.4,18.5-8l-2.2-1.7c-3.1,3.9-7.9,6.9-16.3,6.9V67.5z"/>
<path class="st0" d="M30.5,1.4c0-0.8-0.6-1.4-1.4-1.4s-1.4,0.6-1.4,1.4H30.5z M31.2,10.4l1.2-0.8l0,0L31.2,10.4z M35.4,14.7
	l-0.8,1.1c0.5,0.4,1.3,0.3,1.7-0.1L35.4,14.7z M63.7,15.7l-1.2,0.8l0,0L63.7,15.7z M62.5,52.1c-0.4,0.7-0.1,1.5,0.6,1.9
	c0.7,0.4,1.5,0.1,1.9-0.6L62.5,52.1z M27.7,1.4c0,2.7,0.3,6.7,2.3,9.8l2.3-1.5c-1.5-2.3-1.9-5.6-1.9-8.2H27.7z M30,11.2
	c1.5,2.3,3.7,4.1,4.6,4.7l1.6-2.3c-0.7-0.5-2.5-2-3.8-4L30,11.2z M36.3,15.7c2.4-2.3,5.4-5.7,11.5-6L47.7,7
	c-7.2,0.4-11,4.6-13.3,6.8L36.3,15.7z M47.8,9.7c6.2-0.3,12,2.7,14.7,6.8l2.3-1.6c-3.3-5-10.1-8.4-17.2-8L47.8,9.7z M62.6,16.5
	c3,4.4,4.7,10.1,4.7,16.9H70c0-7.2-1.8-13.5-5.1-18.5L62.6,16.5z M67.2,33.4c0,9-2.7,14.8-4.7,18.7l2.5,1.3c2.2-4.1,5.1-10.3,5.1-20
	H67.2z"/>
<path class="st0" d="M39.8,30.2c0,2.1,1.4,4.1,2.2,4.8c-1,1-3,4-3,7.9s2.9,6.9,4.3,7.9h13.4c1.3-1.3,2.3-3,3-4.4
	c0.9-1.8,1.2-3.5,0.9-5.7c-0.4-3.1-2-4.7-3-5.7c1.7-2.2,1.7-4.2,1.7-5.3c0-1.3-2.2-6.6-9.5-6.6C42.4,23.1,39.8,27.5,39.8,30.2z"/>
<path class="st1" d="M46.1,32.9c1.2-0.4,2.4-0.7,3.7-0.7c1.3,0,2.5,0.2,3.7,0.7c0.1,0,0.1,0,0.2,0c0.1,0,0.2,0,0.3-0.1
	c0.1-0.1,0.3-0.2,0.4-0.2c1-0.6,1.5-1.4,1.5-2.2c0-0.8-0.5-1.5-1.5-2.2c-1.2-0.8-2.8-1.2-4.6-1.2c-1.8,0-3.4,0.4-4.6,1.2
	c-1,0.6-1.5,1.4-1.5,2.2c0,0.8,0.5,1.5,1.5,2.2c0.1,0.1,0.3,0.2,0.4,0.2C45.8,33,45.9,33,46.1,32.9z"/>
</svg>
