<?xml version="1.0" encoding="utf-8"?>
<!-- Generator: Adobe Illustrator 22.0.0, SVG Export Plug-In . SVG Version: 6.00 Build 0)  -->
<svg version="1.1" id="Layer_1" xmlns="http://www.w3.org/2000/svg" xmlns:xlink="http://www.w3.org/1999/xlink" x="0px" y="0px"
	 viewBox="0 0 70 70" style="enable-background:new 0 0 70 70;" xml:space="preserve">
<style type="text/css">
	.st0{fill:#E91E63;}
	.st1{fill:none;stroke:#E91E63;stroke-width:1.5;}
	.st2{fill:none;stroke:#E91E63;}
</style>
<path class="st0" d="M19.9,1.4c0-0.8-0.6-1.4-1.4-1.4S17,0.6,17,1.4H19.9z M21.9,16.2l1.2-0.7l0,0L21.9,16.2z M32.3,23.4h1.4
	c0-0.8-0.7-1.4-1.4-1.4V23.4z M32.6,44.7H34l0,0H32.6z M1.5,54.8L3,54.9L1.5,54.8z M0.1,68.5c0,0.8,0.6,1.5,1.4,1.5S3,69.4,3,68.6
	L0.1,68.5z M17,1.4c0,1.7-0.4,8.5,3.6,15.5l2.5-1.4c-3.6-6.2-3.3-12.3-3.3-14H17V1.4z M20.7,16.9c2.4,4.1,6,7.9,11.6,7.9v-2.9
	c-4.1,0-6.9-2.7-9.1-6.5L20.7,16.9z M30.8,23.4l0.3,21.3H34l-0.3-21.3L30.8,23.4z M31.2,44.7c0,0.3-0.1,0.9-0.5,1.4
	c-0.3,0.5-0.7,0.7-1.2,0.7v2.9c1.7,0,2.9-1,3.6-2c0.6-1,1-2.2,1-3C34.1,44.7,31.2,44.7,31.2,44.7z M29.5,46.8
	c-0.8,0-1.5-0.3-2.5-0.8c-0.5-0.3-1-0.6-1.5-1s-1.2-0.8-1.8-1.2c-2.6-1.6-6-3.2-10.9-2.6l0.3,2.9c4.1-0.4,6.7,0.8,9.1,2.2
	c0.6,0.4,1.1,0.7,1.7,1.1c0.6,0.4,1.1,0.7,1.7,1.1c1.2,0.6,2.4,1.2,3.9,1.2C29.5,49.7,29.5,46.8,29.5,46.8z M12.8,41.3
	c-4.9,0.5-8.1,2.9-10,5.7c-1.9,2.7-2.5,5.8-2.7,7.7L3,54.9c0.2-1.7,0.7-4.2,2.2-6.4c1.5-2.1,3.9-4,7.9-4.5L12.8,41.3z M0.1,54.7
	C0,56.2,0,58.9,0,61.5c0,2.7,0.1,5.3,0.1,7L3,68.6c0.1-1.7,0-4.5-0.1-7.1c0-2.7-0.1-5.2,0.1-6.5L0.1,54.7z"/>
<path class="st0" d="M9.6,68.6c0,0.8,0.6,1.4,1.4,1.4c0.8,0,1.4-0.6,1.4-1.4H9.6z M11,56h1.4v-0.1L11,56z M22.3,57.6l0.8-1.2l0,0
	L22.3,57.6z M62.4,60.5c0.5-0.6,0.5-1.5-0.1-2s-1.5-0.5-2,0.1L62.4,60.5z M12.5,68.6V56H9.6v12.6H12.5z M12.5,55.8
	c0-0.2,0-0.2,0-0.2c0,0.1-0.1,0,0,0c0.3-0.1,1-0.1,2.1,0.1c2.1,0.4,4.8,1.6,6.9,3l1.6-2.4c-2.3-1.5-5.4-2.9-7.9-3.4
	c-1.2-0.3-2.5-0.4-3.6,0c-0.6,0.2-1.1,0.6-1.5,1.2c-0.4,0.6-0.5,1.3-0.4,2L12.5,55.8z M21.5,58.8c5.9,4,10.4,8.9,21.4,8.9v-2.9
	c-9.9,0-13.5-4.2-19.8-8.5L21.5,58.8z M42.9,67.7c9.8,0,15.6-3,19.5-7.2l-2.1-2C57,62,52,64.8,42.9,64.8V67.7z"/>
<path class="st0" d="M31.6,1.4C31.6,0.6,31,0,30.2,0s-1.4,0.6-1.4,1.4H31.6z M32.2,10.7l1.2-0.8L32.2,10.7z M36.3,15.1l-0.8,1.2
	c0.6,0.4,1.4,0.3,1.9-0.2L36.3,15.1z M49.2,8.6l0.1,1.4L49.2,8.6z M63.8,16.2L62.6,17l0,0L63.8,16.2z M62.5,53.5
	c-0.4,0.7-0.1,1.6,0.7,1.9c0.7,0.4,1.6,0.1,1.9-0.7L62.5,53.5z M28.8,1.4c0,2.8,0.3,6.9,2.3,10l2.4-1.5c-1.5-2.4-1.8-5.8-1.8-8.5
	C31.7,1.4,28.8,1.4,28.8,1.4z M31,11.4c1.5,2.4,3.5,4.2,4.5,4.9l1.7-2.3c-0.7-0.5-2.5-2-3.7-4L31,11.4z M37.3,16.1
	c2.2-2.2,6.1-5.8,12-6.1l-0.2-2.9c-7,0.4-11.5,4.6-13.8,6.9L37.3,16.1z M49.3,10.1c5.6-0.3,10.6,2.6,13.3,6.9l2.4-1.5
	c-3.2-5.1-9.2-8.6-15.9-8.2L49.3,10.1z M62.6,16.9c2.9,4.5,4.5,10.4,4.5,17.4H70c0-7.4-1.8-13.9-5-18.9L62.6,16.9z M67.1,34.3
	c0,9.3-2.6,15.2-4.6,19.2l2.6,1.3c2.1-4.2,4.9-10.6,4.9-20.5H67.1z"/>
<path class="st0" d="M35.9,51.9c2-5.1,2.8-8.4,2.3-14.2c0-7.5,7.5,2.9,12.7,6.4c7.5,5.1,13.2-1.5,9.5,7.8c-1.4,3.5-8.5,9.5-18.6,9.5
	C33.6,61.4,34.5,55.4,35.9,51.9z"/>
<circle class="st1" cx="56.6" cy="37.4" r="4.1"/>
<circle class="st1" cx="45.8" cy="29" r="2.9"/>
<circle class="st2" cx="56.6" cy="23" r="1.7"/>
</svg>
