<?xml version="1.0" encoding="utf-8"?>
<!-- Generator: Adobe Illustrator 22.0.0, SVG Export Plug-In . SVG Version: 6.00 Build 0)  -->
<svg version="1.1" id="Layer_1" xmlns="http://www.w3.org/2000/svg" xmlns:xlink="http://www.w3.org/1999/xlink" x="0px" y="0px"
	 viewBox="0 0 70 70" style="enable-background:new 0 0 70 70;" xml:space="preserve">
<style type="text/css">
	.st0{fill:#E91E63;}
</style>
<path class="st0" d="M20.5,2.1c0.4-0.7,0.1-1.5-0.5-1.9C19.2-0.2,18.4,0,18,0.7L20.5,2.1z M22.9,16.1l1.2-0.7L22.9,16.1z M33.7,23.4
	l1.4,0c0-0.8-0.6-1.4-1.4-1.4V23.4z M34.1,44.7h1.4l0,0L34.1,44.7z M1.5,54.8l-1.4-0.1L1.5,54.8z M0.1,68.6c0,0.8,0.6,1.4,1.3,1.4
	c0.8,0,1.4-0.6,1.4-1.3L0.1,68.6z M18,0.7c-0.2,0.4-0.3,0.8-0.4,1.2c-0.1,0.4-0.1,0.9-0.1,1.4c0,1,0.1,2.3,0.4,3.7
	c0.5,2.8,1.7,6.4,3.8,9.8l2.4-1.4c-1.9-3.1-2.9-6.3-3.4-8.9c-0.2-1.3-0.3-2.4-0.3-3.2c0-0.4,0-0.7,0.1-1c0-0.3,0.1-0.3,0.1-0.3
	L18,0.7z M21.7,16.9c2.5,4.1,6.3,7.9,12.1,7.9V22c-4.4,0-7.4-2.8-9.7-6.5L21.7,16.9z M32.3,23.4l0.4,21.3l2.8,0l-0.4-21.3L32.3,23.4
	z M32.7,44.7c0,0.3-0.1,0.9-0.5,1.4c-0.3,0.5-0.8,0.8-1.4,0.8v2.8c1.7,0,2.9-1,3.7-2c0.7-1,1-2.2,1-3H32.7z M30.8,46.9
	c-0.8,0-1.7-0.3-2.7-0.8c-0.5-0.3-1-0.6-1.6-1c-0.6-0.4-1.2-0.8-1.9-1.2c-2.7-1.6-6.2-3.1-11.3-2.6l0.3,2.8c4.3-0.5,7.2,0.8,9.6,2.2
	c0.6,0.4,1.2,0.7,1.8,1.1c0.6,0.4,1.2,0.7,1.8,1.1c1.2,0.6,2.5,1.2,4,1.2V46.9z M13.3,41.3C8.2,41.9,4.9,44.2,2.9,47
	c-2,2.7-2.6,5.8-2.8,7.7L2.9,55c0.2-1.7,0.7-4.2,2.3-6.4c1.5-2.1,4.1-4.1,8.4-4.5L13.3,41.3z M0.1,54.7C0,56.2,0,58.9,0,61.6
	c0.1,2.7,0.1,5.4,0.1,7l2.8,0.1c0.1-1.7,0-4.5-0.1-7.2c-0.1-2.7-0.1-5.2,0.1-6.5L0.1,54.7z"/>
<path class="st0" d="M10.9,68.6c0,0.8,0.6,1.4,1.4,1.4c0.8,0,1.4-0.6,1.4-1.4H10.9z M12.3,55.9h1.4c0,0,0-0.1,0-0.1L12.3,55.9z
	 M22.8,57.5l0.8-1.1l0,0L22.8,57.5z M60.6,60.4c0.5-0.6,0.4-1.5-0.1-2c-0.6-0.5-1.5-0.4-2,0.1L60.6,60.4z M13.7,68.6V55.9h-2.8v12.7
	H13.7z M13.7,55.8c0-0.2,0-0.3,0-0.2c0,0.1-0.1,0,0,0c0.3-0.1,0.9-0.1,1.9,0.1c1.9,0.4,4.5,1.7,6.4,3l1.6-2.3
	c-2.2-1.6-5-2.9-7.4-3.5c-1.2-0.3-2.4-0.4-3.5,0c-0.6,0.2-1.1,0.6-1.5,1.2c-0.3,0.6-0.4,1.3-0.4,1.9L13.7,55.8z M22,58.7
	c5.6,4,9.8,9.1,20.2,9.1v-2.8c-9.3,0-12.6-4.2-18.6-8.5L22,58.7z M42.2,67.7c9.2,0,14.7-3.1,18.4-7.3l-2.1-1.8
	c-3.1,3.6-7.8,6.4-16.3,6.4V67.7z"/>
<path class="st0" d="M31.8,1.4c0-0.8-0.6-1.4-1.4-1.4c-0.8,0-1.4,0.6-1.4,1.4H31.8z M32.5,10.6l1.2-0.7L32.5,10.6z M36.5,15.1
	l-0.8,1.1c0.6,0.4,1.3,0.3,1.8-0.1L36.5,15.1z M49.4,8.6l0.1,1.4L49.4,8.6z M63.9,16.1l-1.2,0.7l0,0L63.9,16.1z M62.6,53.5
	c-0.3,0.7-0.1,1.5,0.6,1.9c0.7,0.3,1.5,0.1,1.9-0.6L62.6,53.5z M29.1,1.4c0,2.8,0.3,6.9,2.2,10l2.4-1.5c-1.5-2.4-1.8-5.8-1.8-8.5
	H29.1z M31.3,11.4c1.5,2.4,3.5,4.2,4.4,4.8l1.6-2.3c-0.7-0.5-2.4-2.1-3.7-4.1L31.3,11.4z M37.5,16.1c2.2-2.2,6.1-5.8,11.9-6.1
	l-0.1-2.8c-7,0.4-11.5,4.6-13.7,6.9L37.5,16.1z M49.4,10C55,9.7,60,12.6,62.7,16.8l2.3-1.5c-3.2-5-9.2-8.5-15.8-8.2L49.4,10z
	 M62.7,16.8c2.9,4.5,4.5,10.4,4.5,17.4H70c0-7.4-1.7-13.8-4.9-18.9L62.7,16.8z M67.2,34.2c0,9.3-2.6,15.2-4.6,19.2l2.5,1.2
	c2.1-4.2,4.9-10.6,4.9-20.5H67.2z"/>
<path class="st0" d="M50.9,31.8c0.7-1.7,2.4-2.9,4.3-2.9c2.6,0,4.5,2.2,4.7,4.9c0,0,0.1,0.7-0.2,1.8c-0.4,1.6-1.3,3.1-2.5,4.2
	l-6.4,5.7l-6.3-5.7c-1.2-1.1-2.1-2.5-2.5-4.2c-0.3-1.2-0.2-1.8-0.2-1.8c0.2-2.7,2.1-4.9,4.7-4.9C48.6,28.8,50.2,30,50.9,31.8z"/>
</svg>
