<?xml version="1.0" encoding="utf-8"?>
<!-- Generator: Adobe Illustrator 22.0.0, SVG Export Plug-In . SVG Version: 6.00 Build 0)  -->
<svg version="1.1" id="Layer_1" xmlns="http://www.w3.org/2000/svg" xmlns:xlink="http://www.w3.org/1999/xlink" x="0px" y="0px"
	 viewBox="0 0 68 70" style="enable-background:new 0 0 68 70;" xml:space="preserve">
<style type="text/css">
	.st0{fill:#E91E63;}
</style>
<path class="st0" d="M66.3,68.7v-3.3c0-10-7.6-17.5-17.6-17.5H41l-7.9,7.7l-7.9-7.7h-7.1c-10.2,0-17.6,7.5-17.6,17.5v3.3h2.4v-3.3
	c0-8.7,6.6-14.9,15.2-14.9h6.6l8.7,8.5l8.7-8.5h6.6c8.7,0,15.2,6.4,15.2,14.9v3.3H66.3z"/>
<path class="st0" d="M15.6,43.7c0.5,0,1.3,0,1.8-0.3c0.8-0.3,1.1-0.8,0.8-1.5c-0.3-0.8-0.8-1-1.6-0.8c-2.6,0.3-5-0.5-7.1-2.1
	c0.8-0.3,1.3-0.8,2.1-1c2.6-1.5,3.4-4.1,2.9-7.7c-1.1-5.7-1.6-17,4.2-21.6c0,0,0,0,0.3-0.3c0,0,5.8-6.4,14.2-6.4
	c8.4,0,14.2,6.4,14.2,6.4s0,0,0.3,0.3c5.8,4.6,5.3,16,4.2,21.9c-0.8,3.3,0.5,6.2,2.9,7.7c0.8,0.3,1.3,0.8,2.1,1
	c-2.1,1.5-4.5,2.3-7.1,2.1c-0.8-0.3-1.3,0.3-1.6,0.8c-0.3,0.8,0.3,1.3,0.8,1.5c0.5,0,1.1,0.3,1.8,0.3c3.2,0,6.6-1.5,8.7-3.9
	c0.5-0.5,0.5-1.3,0-1.8c-0.3-0.3-0.3-0.3-0.5-0.3c-1.3-0.5-2.4-1-3.2-1.5c-2.1-1.3-2.1-3.3-1.8-5.1c0.3-1.8,2.9-17.2-5-24.2
	C45,2.6,38.9,0,32.9,0c-6,0.3-11.8,2.6-16,7.2c-8.1,6.7-5.3,22.4-5,24.2c0.2,1.6,1.1,3.9-1.3,5.1c-1.1,0.8-2.4,1.3-3.4,1.5
	c-0.5,0.3-1.1,0.8-0.8,1.5c0,0.3,0.3,0.3,0.3,0.5C9.2,42.2,12.4,43.5,15.6,43.7z"/>
<path class="st0" d="M22.9,14.7c-0.8,0-1.3,0.5-1.3,1.3v4.6h-4.5c-0.8-0.3-1.3,0.5-1.3,1l0.5,9.5c0.5,10,7.4,17,16.8,17h0.3
	c9.5,0,16.3-6.9,16.8-17l0.5-9.5c0-0.8-0.5-1.3-1.1-1.3H45V16c0-0.8-0.5-1.3-1.3-1.3c-0.8,0-1.3,0.5-1.3,1.3v4.6h-4.7V16
	c0-0.8-0.5-1.3-1.3-1.3S35,15.2,35,16v4.6h-4.7V16c0-0.8-0.5-1.3-1.3-1.3c-0.8,0-1.3,0.5-1.3,1.3v4.6h-3.4V16
	C24.2,15.2,23.7,14.7,22.9,14.7z M48.4,31.1c-0.5,8.8-6.3,14.7-14.5,14.7h-0.3c-8.4,0-13.9-5.9-14.5-14.7l-0.8-8.2h30.5L48.4,31.1z"
	/>
<path class="st0" d="M59.4,70c-0.8,0-1.3-0.5-1.3-1.3c0-5.7-1.3-9.3-4.2-10.8c-0.5-0.3-0.8-1-0.5-1.8c0.3-0.5,1.1-0.8,1.8-0.5
	c3.7,2.3,5.5,6.4,5.5,13.1C60.5,69.5,60.2,70,59.4,70z"/>
<path class="st0" d="M50,56.4c-0.3,0-0.3,0-0.5,0c0,0-1.6-0.8-3.2-0.5c-0.8,0-1.3-0.5-1.3-1.3c0-0.8,0.5-1.3,1.3-1.3
	c2.1,0,3.9,0.8,4.2,0.8c0.8,0.3,1.1,1,0.8,1.5C51,56.4,50.5,56.4,50,56.4z"/>
</svg>
