<?xml version="1.0" encoding="utf-8"?>
<!-- Generator: Adobe Illustrator 22.0.0, SVG Export Plug-In . SVG Version: 6.00 Build 0)  -->
<svg version="1.1" id="Layer_1" xmlns="http://www.w3.org/2000/svg" xmlns:xlink="http://www.w3.org/1999/xlink" x="0px" y="0px"
	 viewBox="0 0 70 70" style="enable-background:new 0 0 70 70;" xml:space="preserve">
<style type="text/css">
	.st0{clip-path:url(#SVGID_2_);}
	.st1{fill:#E91E63;}
</style>
<g>
	<defs>
		<rect id="SVGID_1_" x="0.9" width="68.3" height="70"/>
	</defs>
	<clipPath id="SVGID_2_">
		<use xlink:href="#SVGID_1_"  style="overflow:visible;"/>
	</clipPath>
	<g class="st0">
		<path class="st1" d="M34.2,7.3c0.7,0,1.3-0.6,1.3-1.3V2c0-0.7-0.6-1.3-1.3-1.3c-0.7,0-1.3,0.6-1.3,1.3V6
			C32.9,6.7,33.5,7.3,34.2,7.3z"/>
		<path class="st1" d="M61.6,35.6h4.7c0.7,0,1.3-0.6,1.3-1.3c0-0.7-0.6-1.3-1.3-1.3h-4.7c-0.7,0-1.3,0.6-1.3,1.3
			C60.3,35,60.9,35.6,61.6,35.6z"/>
		<path class="st1" d="M2.1,35.6h4.7c0.7,0,1.3-0.6,1.3-1.3c0-0.7-0.6-1.3-1.3-1.3H2.1c-0.7,0-1.3,0.6-1.3,1.3
			C0.8,35,1.4,35.6,2.1,35.6z"/>
		<path class="st1" d="M54.5,15l2.8-2.8c0.5-0.5,0.5-1.3,0-1.9c-0.5-0.5-1.3-0.5-1.8,0l-2.8,2.8c-0.5,0.5-0.5,1.3,0,1.9
			C53.2,15.5,54,15.5,54.5,15z"/>
		<path class="st1" d="M13.9,15c0.5,0.5,1.3,0.5,1.8,0c0.5-0.5,0.5-1.3,0-1.9L13,10.3c-0.5-0.5-1.3-0.5-1.8,0
			c-0.5,0.5-0.5,1.3,0,1.9L13.9,15z"/>
		<path class="st1" d="M34.2,67.9c0.7,0,1.3-0.6,1.3-1.3c0-0.7-0.6-1.3-1.3-1.3s-1.3,0.6-1.3,1.3C32.9,67.3,33.5,67.9,34.2,67.9z"/>
		<path class="st1" d="M15.3,32.4v9.8c0,7.2,5.8,11.3,7.8,12.6v11.8c0,0.7,0.6,1.3,1.3,1.3h3.9c0.7,0,1.3-0.6,1.3-1.3
			c0-0.7-0.6-1.3-1.3-1.3h-2.6V54c0-0.5-0.3-0.9-0.7-1.2c-0.1,0-7.1-3.7-7.1-10.6v-9.8c0-1.4,1.2-2.6,2.6-2.6h14.2
			c-0.6,3-3.2,5.2-6.4,5.2h-3.9c-0.7,0-1.3,0.6-1.3,1.3s0.6,1.3,1.3,1.3c5.8,0,10.4,4.7,10.4,10.5c0,0.7,0.6,1.3,1.3,1.3
			c0.7,0,1.3-0.6,1.3-1.3c0-3.6,2.9-6.6,6.5-6.6c0.7,0,1.3-0.6,1.3-1.3c0-0.7-0.6-1.3-1.3-1.3c-3.1,0-5.9,1.6-7.6,4
			c-1-2.4-2.8-4.5-5-5.9c2.3-0.8,4.1-2.5,5.1-4.7c0.9,0.8,2.1,1.3,3.5,1.3c0.3,0,0.7,0,1,0c0.6,0,1.2,0,1.8-0.1
			c0.5,2.3,2.6,4.1,5.1,4.1c1,0,1.8-0.3,2.6-0.7v5.3c0,6.9-7,10.6-7.1,10.6C43,53,42.7,53.5,42.7,54v11.3h-2.6
			c-0.7,0-1.3,0.6-1.3,1.3c0,0.7,0.6,1.3,1.3,1.3H44c0.7,0,1.3-0.6,1.3-1.3V54.8c2.1-1.3,7.8-5.4,7.8-12.6c0-2.6,0-12.4,0-16.5
			c0-2.9-2.3-5.2-5.2-5.2c-1,0-1.9,0.3-2.6,0.7c-0.3-2.6-2.5-4.7-5.2-4.7c-1,0-1.9,0.3-2.6,0.7c-0.3-2.6-2.5-4.7-5.2-4.7
			c-2.7,0-4.9,2-5.2,4.7c-0.8-0.5-1.7-0.7-2.6-0.7c-2.9,0-5.2,2.4-5.2,5.2v5.5C17,27.9,15.3,29.9,15.3,32.4z M47.9,23
			c1.4,0,2.6,1.2,2.6,2.6v6.7c0,1.4-1.2,2.6-2.6,2.6c-1.4,0-2.6-1.2-2.6-2.6v-6.7C45.3,24.2,46.5,23,47.9,23z M40.1,19.1
			c1.4,0,2.6,1.2,2.6,2.6v8.7c0,0.4-0.1,0.5-0.1,0.5c-0.2,0.2-1.3,0.2-2,0.2c-0.2,0-0.3,0-0.5,0c-1.4,0-2.6-1.2-2.6-2.6v-6.7
			C37.5,20.3,38.7,19.1,40.1,19.1z M29.7,17.8c0-1.4,1.2-2.6,2.6-2.6c1.4,0,2.6,1.2,2.6,2.6v9.3h-5.2V17.8z M24.4,19.1
			c1.4,0,2.6,1.2,2.6,2.6v5.4h-5.2v-5.4C21.8,20.3,23,19.1,24.4,19.1z"/>
	</g>
</g>
</svg>
