<?xml version="1.0" encoding="utf-8"?>
<!-- Generator: Adobe Illustrator 22.0.0, SVG Export Plug-In . SVG Version: 6.00 Build 0)  -->
<svg version="1.1" id="Layer_1" xmlns="http://www.w3.org/2000/svg" xmlns:xlink="http://www.w3.org/1999/xlink" x="0px" y="0px"
	 viewBox="0 0 1220 660" style="enable-background:new 0 0 1220 660;" xml:space="preserve">
<style type="text/css">
	.st0{fill:#E91E63;fill-opacity:0.2;}
	.st1{fill:url(#SVGID_1_);fill-opacity:0.2;}
	.st2{fill:none;stroke:url(#SVGID_2_);stroke-width:2;stroke-linecap:round;stroke-linejoin:round;}
	.st3{fill:none;stroke:#E91E63;stroke-width:1.5;stroke-linecap:round;stroke-linejoin:round;stroke-dasharray:9.67,9.67;}
	.st4{fill:none;stroke:#08C697;stroke-width:2;stroke-linecap:round;stroke-linejoin:round;stroke-miterlimit:10;}
	.st5{fill:#E91E63;}
	.st6{fill:none;stroke:#E91E63;stroke-width:1.5;stroke-linecap:round;stroke-dasharray:8,8;}
	.st7{fill:none;stroke:#BDBDBD;stroke-width:2;stroke-linecap:round;stroke-linejoin:round;stroke-miterlimit:10;}
	.st8{fill:#89E3D3;}
	.st9{fill:#08C697;}
</style>
<path class="st0" d="M1014.3,217H749.8c15.2-27.4,52.4-89,111.5-128.7c64.9-43.6,125.6-46.9,153-43.6V217z"/>
<linearGradient id="SVGID_1_" gradientUnits="userSpaceOnUse" x1="161.092" y1="245.9477" x2="1014.2791" y2="245.9477" gradientTransform="matrix(1 0 0 -1 0 660)">
	<stop  offset="0" style="stop-color:#01EDB5"/>
	<stop  offset="1" style="stop-color:#15E8C8"/>
</linearGradient>
<path class="st1" d="M161.1,607.1V221.1c33.4-2,138.2,45.6,214.8,96.3c152.6,132,245.4,183.2,327.2,204.2
	c92.7,31,253.4,26.5,308.1,19.4l1.1,66.2H161.1z"/>
<linearGradient id="SVGID_2_" gradientUnits="userSpaceOnUse" x1="163.0118" y1="443.0615" x2="177.0383" y2="443.0615" gradientTransform="matrix(1 0 0 -1 0 660)">
	<stop  offset="0" style="stop-color:#01EDB5"/>
	<stop  offset="1" style="stop-color:#15E8C8"/>
</linearGradient>
<path class="st2" d="M162.2,216.9h15.7"/>
<path class="st3" d="M185.4,216l828.9,1"/>
<path class="st4" d="M162.1,217c0,0,99.1,24.4,228,113.5c83.5,57.8,175.2,167.3,369.8,204.7c92.1,17.7,250.3,7.8,250.3,7.8"/>
<path class="st5" d="M164.6,212.5c-0.8-0.3-1.7,0.2-1.9,1c-0.3,0.8,0.2,1.7,1,1.9L164.6,212.5z M422.5,348.7l0.8-1.3l0,0
	L422.5,348.7z M803.5,138l1.1,1l0,0L803.5,138z M1011,46.2c0.8,0.1,1.6-0.5,1.7-1.3c0.1-0.8-0.5-1.6-1.3-1.7L1011,46.2z
	 M163.7,215.4c112.2,35.4,180,82.9,258,134.6l1.7-2.5c-78-51.7-146.1-99.4-258.8-134.9L163.7,215.4z M421.7,350
	c19.7,13.1,45.1,28.8,70.8,41.3c25.6,12.5,51.8,21.8,72.9,21.8v-3c-20.4,0-46-9-71.6-21.5c-25.5-12.4-50.8-28.1-70.5-41.1L421.7,350
	z M565.4,413.1c35.1,0,61.8-11,83.5-29.1c21.7-18,38.5-43.1,53.7-71.1c7.6-14,14.9-28.8,22.2-43.9c7.3-15.1,14.8-30.4,22.7-45.5
	c15.9-30.3,33.7-59.7,57-84.5l-2.2-2.1c-23.6,25.1-41.6,54.8-57.5,85.2c-8,15.2-15.4,30.6-22.7,45.6c-7.3,15.1-14.6,29.8-22.2,43.7
	c-15.2,27.9-31.7,52.6-53,70.2c-21.2,17.6-47.3,28.4-81.6,28.4V413.1z M804.6,139C885.4,53.2,974,41.2,1011,46.2l0.4-3
	c-38-5.1-127.6,7.2-209,93.7L804.6,139z"/>
<path class="st6" d="M414.4,353.8v253.3"/>
<path class="st7" d="M163.1,2.3V608l848,0.1"/>
<circle class="st8" cx="163.1" cy="218" r="22.3"/>
<circle class="st5" cx="413.4" cy="342.6" r="11.1"/>
<circle class="st9" cx="163.1" cy="218" r="14.2"/>
<circle class="st8" cx="1008.2" cy="534.2" r="22.3"/>
<circle class="st9" cx="1008.2" cy="534.2" r="14.2"/>
<circle class="st5" cx="1013.3" cy="44.7" r="11.1"/>
<path class="st9" d="M1066.3,534.5c1.8-0.9,2.9-2.7,2.9-5c0-3.6-2.9-5.9-8.4-5.9h-10.6v22.7h11.3c5.8,0,8.9-2.3,8.9-6.2
	C1070.4,537.2,1068.7,535.3,1066.3,534.5z M1060.4,526.9c2.9,0,4.6,1,4.6,3.1c0,2.1-1.7,3.1-4.6,3.1h-6v-6.3H1060.4z M1061.2,543
	h-6.8v-6.5h6.8c3.2,0,4.9,1,4.9,3.3C1066.1,542,1064.4,543,1061.2,543z M1082.3,546.5c5.4,0,9.2-3.7,9.2-8.9c0-5.2-3.9-8.9-9.2-8.9
	c-5.3,0-9.2,3.7-9.2,8.9C1073.1,542.8,1077,546.5,1082.3,546.5z M1082.3,543.1c-2.9,0-5.1-2.1-5.1-5.4c0-3.3,2.2-5.4,5.1-5.4
	c3,0,5.2,2.1,5.2,5.4C1087.4,541,1085.2,543.1,1082.3,543.1z M1108.3,522.3v8.9c-1.4-1.6-3.3-2.3-5.6-2.3c-5,0-8.8,3.5-8.8,8.9
	c0,5.4,3.7,8.9,8.8,8.9c2.4,0,4.4-0.8,5.7-2.5v2.2h3.9v-24.1H1108.3z M1103.2,543.1c-2.9,0-5.2-2.1-5.2-5.4c0-3.3,2.2-5.4,5.2-5.4
	c2.9,0,5.2,2.1,5.2,5.4C1108.4,541,1106.1,543.1,1103.2,543.1z M1130,529l-5.5,12.8L1119,529h-4.2l7.6,17.4l-0.3,0.7
	c-0.8,1.7-1.6,2.4-3,2.4c-1.1,0-2.2-0.5-3-1.2l-1.6,3c1.1,1,2.9,1.6,4.6,1.6c2.9,0,5.1-1.2,6.7-5.1l8.1-18.7H1130z M1153.5,526.1
	c1.5,0,2.6-1.1,2.6-2.5c0-1.3-1.1-2.3-2.6-2.3c-1.5,0-2.6,1.1-2.6,2.4C1150.9,525.1,1152,526.1,1153.5,526.1z M1137.4,528v1.1h-2.9
	v3.2h2.9v13.9h4.1v-13.9h4.6v-3.2h-4.8v-1c0-1.8,0.9-2.8,2.6-2.8c0.8,0,1.6,0.3,2.2,0.7l1.1-3c-0.9-0.6-2.3-0.9-3.7-0.9
	C1139.6,522,1137.4,524.4,1137.4,528z M1151.4,546.3h4.1V529h-4.1V546.3z M1170.1,542.5c-0.6,0.5-1.4,0.7-2.3,0.7
	c-1.6,0-2.4-0.9-2.4-2.6v-8.2h4.6v-3.2h-4.6v-4h-4.1v4h-2.9v3.2h2.9v8.3c0,3.8,2.2,5.8,6,5.8c1.5,0,2.9-0.4,3.9-1.2L1170.1,542.5z"
	/>
<path d="M35.3,205.4l-7.5,22.7h-4.5l-5.6-16.8L12,228.1H7.5L0,205.4h4.4l5.6,17.3l5.9-17.3h3.9l5.7,17.3l5.8-17.3H35.3z M53.4,219.6
	c0,0.3,0,0.7-0.1,1.2H39.7c0.2,1.3,0.9,2.3,1.8,3c1,0.7,2.3,1.1,3.8,1.1c1.9,0,3.5-0.6,4.7-1.9l2.2,2.5c-0.8,0.9-1.8,1.6-3,2.1
	s-2.5,0.7-4,0.7c-1.9,0-3.6-0.4-5-1.1c-1.4-0.8-2.6-1.8-3.4-3.1c-0.8-1.4-1.2-2.9-1.2-4.6c0-1.7,0.4-3.2,1.1-4.5
	c0.8-1.4,1.8-2.4,3.2-3.2c1.4-0.8,2.9-1.1,4.6-1.1c1.7,0,3.2,0.4,4.5,1.1c1.3,0.7,2.4,1.8,3.1,3.1C53,216.3,53.4,217.8,53.4,219.6z
	 M44.6,213.9c-1.3,0-2.4,0.4-3.3,1.2c-0.9,0.8-1.4,1.8-1.6,3h9.8c-0.2-1.3-0.7-2.3-1.6-3C47,214.3,45.9,213.9,44.6,213.9z
	 M57.3,210.8h4.1v17.3h-4.1V210.8z M59.3,208c-0.7,0-1.4-0.2-1.8-0.7c-0.5-0.5-0.7-1.1-0.7-1.8c0-0.7,0.2-1.3,0.7-1.7
	c0.5-0.5,1.1-0.7,1.8-0.7c0.7,0,1.4,0.2,1.8,0.7c0.5,0.4,0.7,1,0.7,1.7c0,0.7-0.2,1.3-0.7,1.8C60.7,207.7,60.1,208,59.3,208z
	 M83.8,210.8v14.7c0,6.1-3.1,9.1-9.3,9.1c-1.7,0-3.2-0.2-4.7-0.6c-1.5-0.4-2.7-1-3.7-1.8l1.8-3c0.8,0.6,1.7,1.1,2.9,1.5
	c1.2,0.4,2.3,0.6,3.5,0.6c1.9,0,3.3-0.4,4.2-1.3c0.9-0.9,1.3-2.2,1.3-4v-0.9c-0.7,0.8-1.5,1.3-2.5,1.7c-1,0.4-2.1,0.6-3.3,0.6
	c-1.6,0-3.1-0.3-4.5-1c-1.3-0.7-2.4-1.7-3.1-3c-0.8-1.3-1.1-2.7-1.1-4.4c0-1.6,0.4-3.1,1.1-4.3c0.8-1.3,1.8-2.3,3.1-3
	c1.3-0.7,2.8-1,4.5-1c1.3,0,2.4,0.2,3.4,0.6c1,0.4,1.9,1,2.6,1.9v-2.3H83.8z M74.6,223.9c1.5,0,2.8-0.5,3.8-1.4
	c1-0.9,1.5-2.1,1.5-3.6c0-1.4-0.5-2.6-1.5-3.5c-1-0.9-2.2-1.4-3.8-1.4c-1.6,0-2.8,0.5-3.8,1.4c-1,0.9-1.5,2.1-1.5,3.5
	c0,1.5,0.5,2.7,1.5,3.6C71.7,223.5,73,223.9,74.6,223.9z M99,210.6c2.2,0,3.9,0.6,5.3,1.9c1.3,1.3,2,3.2,2,5.7v9.9h-4.1v-9.4
	c0-1.5-0.4-2.6-1.1-3.4c-0.7-0.8-1.7-1.2-3-1.2c-1.5,0-2.7,0.5-3.5,1.4c-0.9,0.9-1.3,2.2-1.3,3.9v8.8h-4.1v-24.1h4.1v8.8
	c0.7-0.7,1.5-1.3,2.5-1.6C96.7,210.8,97.8,210.6,99,210.6z M121.8,227.2c-0.5,0.4-1.1,0.7-1.8,0.9c-0.7,0.2-1.4,0.3-2.1,0.3
	c-1.9,0-3.4-0.5-4.4-1.5s-1.6-2.4-1.6-4.3v-8.3H109V211h2.9v-4h4.1v4h4.6v3.2h-4.6v8.2c0,0.8,0.2,1.5,0.6,1.9c0.4,0.4,1,0.6,1.8,0.6
	c0.9,0,1.7-0.2,2.3-0.7L121.8,227.2z"/>
<path class="st5" d="M1064.6,55.9l-4.6-6.6c-0.2,0-0.5,0-0.9,0h-5.1v6.6h-4.2V33.2h9.3c2,0,3.7,0.3,5.1,1c1.5,0.6,2.6,1.6,3.4,2.8
	c0.8,1.2,1.2,2.6,1.2,4.3c0,1.7-0.4,3.2-1.3,4.4c-0.8,1.2-2,2.2-3.6,2.8l5.2,7.5H1064.6z M1064.5,41.3c0-1.4-0.5-2.6-1.4-3.3
	c-1-0.8-2.3-1.2-4.2-1.2h-4.9v9h4.9c1.8,0,3.2-0.4,4.2-1.2C1064,43.8,1064.5,42.7,1064.5,41.3z M1089.4,47.3c0,0.3,0,0.7-0.1,1.2
	h-13.6c0.2,1.3,0.9,2.3,1.8,3c1,0.7,2.3,1.1,3.8,1.1c1.9,0,3.5-0.6,4.7-1.9l2.2,2.5c-0.8,0.9-1.8,1.6-3,2.1c-1.2,0.5-2.5,0.7-4,0.7
	c-1.9,0-3.6-0.4-5-1.1c-1.4-0.8-2.6-1.8-3.4-3.1c-0.8-1.4-1.2-2.9-1.2-4.6c0-1.7,0.4-3.2,1.1-4.5c0.8-1.4,1.8-2.4,3.2-3.2
	c1.4-0.8,2.9-1.1,4.6-1.1c1.7,0,3.2,0.4,4.5,1.1c1.3,0.7,2.4,1.8,3.1,3.1C1089,44,1089.4,45.6,1089.4,47.3z M1080.6,41.6
	c-1.3,0-2.4,0.4-3.3,1.2c-0.9,0.8-1.4,1.8-1.6,3h9.8c-0.2-1.3-0.7-2.3-1.6-3C1083,42,1081.9,41.6,1080.6,41.6z M1098.6,56.1
	c-1.4,0-2.8-0.2-4.1-0.6c-1.3-0.4-2.4-0.8-3.2-1.4l1.6-3.1c0.8,0.5,1.7,0.9,2.8,1.3c1.1,0.3,2.2,0.5,3.2,0.5c2.4,0,3.6-0.6,3.6-1.9
	c0-0.6-0.3-1-0.9-1.3c-0.6-0.2-1.6-0.5-3-0.7c-1.4-0.2-2.6-0.5-3.5-0.7c-0.9-0.3-1.7-0.8-2.3-1.5c-0.6-0.7-1-1.7-1-3
	c0-1.6,0.7-3,2-3.9c1.4-1,3.2-1.5,5.6-1.5c1.2,0,2.4,0.1,3.6,0.4c1.2,0.3,2.2,0.6,2.9,1.1l-1.6,3.1c-1.5-0.9-3.1-1.3-5-1.3
	c-1.2,0-2.1,0.2-2.7,0.6c-0.6,0.3-0.9,0.8-0.9,1.4c0,0.6,0.3,1.1,1,1.4c0.7,0.3,1.7,0.5,3.1,0.7c1.4,0.2,2.5,0.5,3.4,0.7
	c0.9,0.3,1.6,0.8,2.3,1.4c0.6,0.7,1,1.6,1,2.9c0,1.6-0.7,2.9-2.1,3.9C1102.9,55.6,1101,56.1,1098.6,56.1z M1120.3,54.9
	c-0.5,0.4-1.1,0.7-1.8,0.9c-0.7,0.2-1.4,0.3-2.1,0.3c-1.9,0-3.4-0.5-4.4-1.5c-1-1-1.6-2.4-1.6-4.3v-8.3h-2.9v-3.2h2.9v-4h4.1v4h4.6
	v3.2h-4.6v8.2c0,0.8,0.2,1.5,0.6,1.9c0.4,0.4,1,0.6,1.8,0.6c0.9,0,1.7-0.2,2.3-0.7L1120.3,54.9z M1127.5,41.1
	c1.2-1.8,3.2-2.7,6.2-2.7v3.9c-0.3-0.1-0.7-0.1-0.9-0.1c-1.6,0-2.8,0.5-3.7,1.4c-0.9,0.9-1.3,2.2-1.3,4v8.4h-4.1V38.6h3.9V41.1z
	 M1137.1,38.6h4.1v17.3h-4.1V38.6z M1139.2,35.7c-0.7,0-1.4-0.2-1.8-0.7c-0.5-0.5-0.7-1.1-0.7-1.8c0-0.7,0.2-1.3,0.7-1.7
	c0.5-0.5,1.1-0.7,1.8-0.7c0.7,0,1.3,0.2,1.8,0.7c0.5,0.4,0.7,1,0.7,1.7c0,0.7-0.2,1.3-0.7,1.8C1140.6,35.5,1139.9,35.7,1139.2,35.7z
	 M1154.5,56.1c-1.8,0-3.4-0.4-4.8-1.1c-1.4-0.8-2.5-1.8-3.3-3.1c-0.8-1.4-1.2-2.9-1.2-4.6c0-1.7,0.4-3.2,1.2-4.6
	c0.8-1.3,1.9-2.4,3.3-3.1c1.4-0.8,3-1.1,4.9-1.1c1.7,0,3.2,0.3,4.5,1c1.3,0.7,2.3,1.7,2.9,3l-3.1,1.8c-0.5-0.8-1.1-1.4-1.9-1.8
	c-0.7-0.4-1.5-0.6-2.4-0.6c-1.5,0-2.8,0.5-3.8,1.5c-1,1-1.5,2.3-1.5,3.9c0,1.6,0.5,3,1.5,4c1,1,2.3,1.5,3.8,1.5
	c0.9,0,1.7-0.2,2.4-0.6c0.8-0.4,1.4-1,1.9-1.8l3.1,1.8c-0.7,1.3-1.7,2.3-3,3C1157.6,55.8,1156.1,56.1,1154.5,56.1z M1176,54.9
	c-0.5,0.4-1.1,0.7-1.8,0.9c-0.7,0.2-1.4,0.3-2.1,0.3c-1.9,0-3.4-0.5-4.4-1.5c-1-1-1.6-2.4-1.6-4.3v-8.3h-2.9v-3.2h2.9v-4h4.1v4h4.6
	v3.2h-4.6v8.2c0,0.8,0.2,1.5,0.6,1.9c0.4,0.4,1,0.6,1.8,0.6c0.9,0,1.7-0.2,2.3-0.7L1176,54.9z M1179.3,38.6h4.1v17.3h-4.1V38.6z
	 M1181.4,35.7c-0.7,0-1.4-0.2-1.8-0.7c-0.5-0.5-0.7-1.1-0.7-1.8c0-0.7,0.2-1.3,0.7-1.7c0.5-0.5,1.1-0.7,1.8-0.7
	c0.7,0,1.4,0.2,1.8,0.7c0.5,0.4,0.7,1,0.7,1.7c0,0.7-0.2,1.3-0.7,1.8C1182.7,35.5,1182.1,35.7,1181.4,35.7z M1204.9,38.6l-7.4,17.3
	h-4.2l-7.4-17.3h4.2l5.4,12.8l5.5-12.8H1204.9z M1223.2,47.3c0,0.3,0,0.7-0.1,1.2h-13.6c0.2,1.3,0.9,2.3,1.8,3
	c1,0.7,2.3,1.1,3.8,1.1c1.9,0,3.5-0.6,4.7-1.9l2.2,2.5c-0.8,0.9-1.8,1.6-3,2.1c-1.2,0.5-2.5,0.7-4,0.7c-1.9,0-3.6-0.4-5-1.1
	c-1.4-0.8-2.6-1.8-3.4-3.1c-0.8-1.4-1.2-2.9-1.2-4.6c0-1.7,0.4-3.2,1.1-4.5c0.8-1.4,1.8-2.4,3.2-3.2c1.4-0.8,2.9-1.1,4.6-1.1
	c1.7,0,3.2,0.4,4.5,1.1c1.3,0.7,2.4,1.8,3.1,3.1C1222.9,44,1223.2,45.6,1223.2,47.3z M1214.5,41.6c-1.3,0-2.4,0.4-3.3,1.2
	c-0.9,0.8-1.4,1.8-1.6,3h9.8c-0.2-1.3-0.7-2.3-1.6-3C1216.9,42,1215.8,41.6,1214.5,41.6z M1066.3,72.4v24.1h-3.9v-2.2
	c-0.7,0.8-1.5,1.4-2.5,1.8c-1,0.4-2.1,0.6-3.2,0.6c-1.7,0-3.2-0.4-4.5-1.1c-1.3-0.7-2.4-1.8-3.1-3.1c-0.8-1.4-1.1-2.9-1.1-4.7
	c0-1.8,0.4-3.3,1.1-4.6c0.8-1.3,1.8-2.4,3.1-3.1c1.3-0.7,2.8-1.1,4.5-1.1c1.1,0,2.2,0.2,3.1,0.6s1.8,1,2.4,1.8v-8.9H1066.3z
	 M1057.2,93.2c1,0,1.8-0.2,2.6-0.6c0.8-0.5,1.4-1.1,1.8-1.9s0.7-1.8,0.7-2.9c0-1.1-0.2-2-0.7-2.9s-1.1-1.4-1.8-1.9
	c-0.8-0.5-1.7-0.7-2.6-0.7s-1.8,0.2-2.6,0.7c-0.8,0.4-1.4,1.1-1.8,1.9c-0.5,0.8-0.7,1.8-0.7,2.9c0,1.1,0.2,2,0.7,2.9
	c0.5,0.8,1.1,1.5,1.8,1.9C1055.3,93,1056.2,93.2,1057.2,93.2z M1071.6,79.1h4.1v17.3h-4.1V79.1z M1073.7,76.2
	c-0.7,0-1.3-0.2-1.8-0.7c-0.5-0.5-0.7-1.1-0.7-1.8c0-0.7,0.2-1.3,0.7-1.7c0.5-0.5,1.1-0.7,1.8-0.7c0.7,0,1.4,0.2,1.8,0.7
	c0.5,0.4,0.7,1,0.7,1.7c0,0.7-0.2,1.3-0.7,1.8C1075,76,1074.4,76.2,1073.7,76.2z M1097.3,87.9c0,0.3,0,0.7-0.1,1.2h-13.6
	c0.2,1.3,0.9,2.3,1.8,3c1,0.7,2.3,1.1,3.8,1.1c1.9,0,3.5-0.6,4.7-1.9l2.2,2.5c-0.8,0.9-1.8,1.6-3,2.1c-1.2,0.5-2.5,0.7-4,0.7
	c-1.9,0-3.6-0.4-5-1.1c-1.4-0.8-2.6-1.8-3.4-3.1c-0.8-1.4-1.2-2.9-1.2-4.6c0-1.7,0.4-3.2,1.1-4.5c0.8-1.4,1.8-2.4,3.2-3.2
	c1.4-0.8,2.9-1.1,4.6-1.1c1.7,0,3.2,0.4,4.5,1.1c1.3,0.7,2.4,1.8,3.1,3.1C1096.9,84.5,1097.3,86.1,1097.3,87.9z M1088.5,82.2
	c-1.3,0-2.4,0.4-3.3,1.2c-0.9,0.8-1.4,1.8-1.6,3h9.8c-0.2-1.3-0.7-2.3-1.6-3C1090.9,82.5,1089.8,82.2,1088.5,82.2z M1111.6,95.5
	c-0.5,0.4-1.1,0.7-1.8,0.9c-0.7,0.2-1.4,0.3-2.1,0.3c-1.9,0-3.4-0.5-4.4-1.5c-1-1-1.6-2.4-1.6-4.3v-8.3h-2.9v-3.2h2.9v-4h4.1v4h4.6
	v3.2h-4.6v8.2c0,0.8,0.2,1.5,0.6,1.9c0.4,0.4,1,0.6,1.8,0.6c0.9,0,1.7-0.2,2.3-0.7L1111.6,95.5z"/>
<path d="M184.9,637.1v22.7h-2.3v-18.2l-8.9,15.3h-1.1l-8.9-15.2v18.1h-2.3v-22.7h2l9.9,16.8l9.8-16.8H184.9z M198.8,660
	c-1.6,0-3.1-0.4-4.4-1.1c-1.3-0.8-2.4-1.8-3.1-3.1c-0.8-1.3-1.1-2.8-1.1-4.5c0-1.7,0.4-3.2,1.1-4.5c0.8-1.3,1.8-2.3,3.1-3.1
	c1.3-0.7,2.8-1.1,4.4-1.1c1.6,0,3.1,0.4,4.4,1.1c1.3,0.7,2.3,1.8,3.1,3.1c0.8,1.3,1.1,2.8,1.1,4.5c0,1.7-0.4,3.2-1.1,4.5
	c-0.7,1.3-1.8,2.4-3.1,3.1C201.9,659.6,200.4,660,198.8,660z M198.8,657.9c1.2,0,2.3-0.3,3.2-0.8c1-0.6,1.7-1.4,2.3-2.4
	c0.5-1,0.8-2.2,0.8-3.5c0-1.3-0.3-2.5-0.8-3.5c-0.5-1-1.3-1.8-2.3-2.3c-1-0.6-2-0.8-3.2-0.8s-2.3,0.3-3.3,0.8
	c-1,0.5-1.7,1.3-2.3,2.3c-0.5,1-0.8,2.2-0.8,3.5c0,1.3,0.3,2.5,0.8,3.5c0.6,1,1.3,1.8,2.3,2.4C196.5,657.7,197.5,657.9,198.8,657.9z
	 M220.8,642.6c2.1,0,3.8,0.6,5.1,1.9c1.3,1.2,1.9,3,1.9,5.4v9.9h-2.3v-9.7c0-1.8-0.4-3.1-1.3-4.1c-0.9-0.9-2.2-1.4-3.8-1.4
	c-1.8,0-3.3,0.6-4.4,1.7c-1.1,1.1-1.6,2.6-1.6,4.5v8.9h-2.3v-17.1h2.2v3.1c0.6-1,1.5-1.8,2.6-2.4C218,642.9,219.3,642.6,220.8,642.6
	z M243,658.8c-0.4,0.4-1,0.7-1.6,0.9c-0.6,0.2-1.3,0.3-2,0.3c-1.6,0-2.8-0.4-3.7-1.3s-1.3-2.1-1.3-3.7v-10.3h-3v-1.9h3V639h2.3v3.7
	h5.2v1.9h-5.2v10.2c0,1,0.2,1.8,0.7,2.3c0.5,0.5,1.3,0.8,2.2,0.8c0.5,0,0.9-0.1,1.4-0.2c0.5-0.2,0.8-0.4,1.2-0.6L243,658.8z
	 M255.9,642.6c2.1,0,3.8,0.6,5.1,1.9c1.3,1.2,1.9,3,1.9,5.4v9.9h-2.3v-9.7c0-1.8-0.4-3.1-1.3-4.1s-2.2-1.4-3.8-1.4
	c-1.8,0-3.3,0.6-4.4,1.7c-1.1,1.1-1.6,2.6-1.6,4.5v8.9h-2.3v-24.1h2.3v10c0.6-1,1.5-1.8,2.6-2.3
	C253.2,642.9,254.5,642.6,255.9,642.6z M282.4,637.1v22.7h-2.3v-20.6h-5.4v-2.1H282.4z"/>
<path d="M908.1,637.1v22.7h-2.3v-18.2l-8.9,15.3h-1.1l-8.9-15.2v18.1h-2.3v-22.7h2l9.9,16.8l9.8-16.8H908.1z M922,660
	c-1.6,0-3.1-0.4-4.4-1.1c-1.3-0.8-2.4-1.8-3.1-3.1c-0.8-1.3-1.1-2.8-1.1-4.5c0-1.7,0.4-3.2,1.1-4.5c0.8-1.3,1.8-2.3,3.1-3.1
	c1.3-0.7,2.8-1.1,4.4-1.1c1.6,0,3.1,0.4,4.4,1.1c1.3,0.7,2.3,1.8,3.1,3.1c0.8,1.3,1.1,2.8,1.1,4.5c0,1.7-0.4,3.2-1.1,4.5
	c-0.7,1.3-1.8,2.4-3.1,3.1C925.1,659.6,923.6,660,922,660z M922,657.9c1.2,0,2.3-0.3,3.2-0.8c1-0.6,1.7-1.4,2.3-2.4
	c0.5-1,0.8-2.2,0.8-3.5c0-1.3-0.3-2.5-0.8-3.5c-0.5-1-1.3-1.8-2.3-2.3c-1-0.6-2-0.8-3.2-0.8c-1.2,0-2.3,0.3-3.3,0.8
	c-1,0.5-1.7,1.3-2.3,2.3c-0.5,1-0.8,2.2-0.8,3.5c0,1.3,0.3,2.5,0.8,3.5c0.6,1,1.3,1.8,2.3,2.4C919.7,657.7,920.8,657.9,922,657.9z
	 M944,642.6c2.1,0,3.8,0.6,5.1,1.9c1.3,1.2,1.9,3,1.9,5.4v9.9h-2.3v-9.7c0-1.8-0.4-3.1-1.3-4.1c-0.9-0.9-2.2-1.4-3.8-1.4
	c-1.8,0-3.3,0.6-4.4,1.7c-1.1,1.1-1.6,2.6-1.6,4.5v8.9h-2.3v-17.1h2.2v3.1c0.6-1,1.5-1.8,2.6-2.4C941.3,642.9,942.6,642.6,944,642.6
	z M966.3,658.8c-0.4,0.4-1,0.7-1.6,0.9c-0.6,0.2-1.3,0.3-2,0.3c-1.6,0-2.8-0.4-3.7-1.3s-1.3-2.1-1.3-3.7v-10.3h-3v-1.9h3V639h2.3
	v3.7h5.2v1.9H960v10.2c0,1,0.2,1.8,0.7,2.3c0.5,0.5,1.3,0.8,2.2,0.8c0.5,0,0.9-0.1,1.4-0.2c0.5-0.2,0.8-0.4,1.2-0.6L966.3,658.8z
	 M979.2,642.6c2.1,0,3.8,0.6,5.1,1.9c1.3,1.2,1.9,3,1.9,5.4v9.9h-2.3v-9.7c0-1.8-0.4-3.1-1.3-4.1c-0.9-0.9-2.2-1.4-3.8-1.4
	c-1.8,0-3.3,0.6-4.4,1.7c-1.1,1.1-1.6,2.6-1.6,4.5v8.9h-2.3v-24.1h2.3v10c0.6-1,1.5-1.8,2.6-2.3
	C976.5,642.9,977.7,642.6,979.2,642.6z M1007.1,646.8c2.4,0.1,4.2,0.8,5.4,1.9c1.3,1.1,1.9,2.6,1.9,4.5c0,1.3-0.3,2.5-0.9,3.5
	c-0.6,1-1.6,1.8-2.8,2.4c-1.2,0.6-2.7,0.9-4.5,0.9c-1.6,0-3.2-0.3-4.7-0.8c-1.4-0.5-2.6-1.3-3.5-2.1l1.1-1.8c0.8,0.8,1.8,1.4,3,1.9
	c1.3,0.5,2.6,0.7,4,0.7c1.9,0,3.3-0.4,4.3-1.2c1-0.8,1.5-1.9,1.5-3.4c0-1.4-0.5-2.5-1.5-3.3c-1-0.8-2.6-1.2-4.6-1.2h-1.6v-1.7
	l6.3-7.9h-11.6v-2.1h14.6v1.7L1007.1,646.8z"/>
</svg>
