<?xml version="1.0" encoding="UTF-8"?> <!-- Generator: Adobe Illustrator 16.0.0, SVG Export Plug-In . SVG Version: 6.00 Build 0) --> <svg xmlns="http://www.w3.org/2000/svg" xmlns:xlink="http://www.w3.org/1999/xlink" id="Слой_1" x="0px" y="0px" width="352px" height="120.501px" viewBox="0 0 352 120.501" xml:space="preserve"> <g> <g> <path fill="#4F4F4F" d="M164.078,70.671c0,6.794-5.152,10.699-15.172,10.699h-18.909V41.743h17.776 c9.114,0,14.209,3.85,14.209,10.247c0,4.303-2.207,7.303-5.321,8.831C161.135,62.066,164.078,65.406,164.078,70.671z M135.659,46.328V59.01h11.605c5.774,0,9.058-2.151,9.058-6.341c0-4.189-3.284-6.34-9.058-6.34H135.659z M158.36,70.218 c0-4.585-3.396-6.623-9.681-6.623h-13.021v13.189h13.021C154.963,76.784,158.36,74.804,158.36,70.218z"></path> <path fill="#4F4F4F" d="M169.854,66.369c0-8.945,6.624-15.286,15.626-15.286c9.001,0,15.567,6.34,15.567,15.286 c0,8.943-6.566,15.341-15.567,15.341C176.479,81.71,169.854,75.313,169.854,66.369z M195.557,66.369 c0-6.398-4.303-10.53-10.076-10.53c-5.774,0-10.135,4.132-10.135,10.53c0,6.396,4.36,10.586,10.135,10.586 C191.254,76.955,195.557,72.766,195.557,66.369z"></path> <path fill="#4F4F4F" d="M237.453,39.365V81.37h-5.21v-4.755c-2.433,3.396-6.283,5.095-10.698,5.095 c-8.774,0-15.173-6.171-15.173-15.341c0-9.171,6.398-15.286,15.173-15.286c4.245,0,7.981,1.585,10.472,4.813V39.365H237.453z M232.074,66.369c0-6.398-4.359-10.53-10.076-10.53c-5.775,0-10.135,4.132-10.135,10.53c0,6.396,4.359,10.586,10.135,10.586 C227.715,76.955,232.074,72.766,232.074,66.369z"></path> <path fill="#4F4F4F" d="M274.874,51.367l-14.55,33.005c-2.659,6.339-6.113,8.321-10.699,8.321c-2.887,0-5.831-0.963-7.699-2.774 l2.322-4.075c1.472,1.414,3.339,2.206,5.377,2.206c2.604,0,4.246-1.188,5.718-4.642l0.963-2.095l-13.247-29.947h5.662 l10.473,24.003l10.358-24.003H274.874z"></path> <path fill="#4F4F4F" d="M286.992,46.668v13.813h19.869v4.867h-19.869V81.37h-5.661V41.743h27.965v4.925H286.992z"></path> <path fill="#4F4F4F" d="M315.526,42.083c0-1.981,1.585-3.567,3.679-3.567c2.096,0,3.681,1.529,3.681,3.455 c0,2.037-1.528,3.623-3.681,3.623C317.111,45.593,315.526,44.064,315.526,42.083z M316.489,51.367h5.435V81.37h-5.435V51.367z"></path> <path fill="#4F4F4F" d="M349.721,79.616c-1.643,1.415-4.133,2.094-6.566,2.094c-6.059,0-9.512-3.34-9.512-9.396V55.839h-5.095 v-4.472h5.095V44.8h5.436v6.566h8.604v4.472h-8.604v16.247c0,3.227,1.698,5.039,4.698,5.039c1.584,0,3.113-0.51,4.246-1.416 L349.721,79.616z"></path> </g> </g> <g> <g> <linearGradient id="SVGID_1_" gradientUnits="userSpaceOnUse" x1="2.4082" y1="60.4893" x2="103.271" y2="60.4893"> <stop offset="0" style="stop-color:#05ECC8"></stop> <stop offset="1" style="stop-color:#00FFAB"></stop> </linearGradient> <path fill="url(#SVGID_1_)" d="M103.271,88.927c-0.933,1.763-2.286,3.341-3.802,4.21l-41.25,23.875 c-2.818,1.629-7.418,1.629-10.246,0.01L6.681,93.229c-1.772-1.024-3.351-2.991-4.273-5.113c0.072-0.102,0.133-0.204,0.205-0.306 c8.248-12.398,9.231-24.867,7.644-35.073c-1.434-9.293-4.979-16.721-7.101-20.482v-0.01c-0.072-0.113-0.133-0.226-0.195-0.328 c-0.01-0.031-0.031-0.052-0.041-0.082c0.933-1.681,2.245-3.156,3.699-3.997L47.87,3.967c1.25-0.728,2.879-1.127,4.529-1.199 c0.43-0.031,0.861-0.031,1.292,0c0.204,0.01,0.399,0.021,0.604,0.041c1.404,0.144,2.736,0.533,3.812,1.147l19.712,11.353 l8.607,4.959l12.972,7.479c1.25,0.718,2.387,1.906,3.279,3.29c-1.568,2.623-4.724,8.504-6.701,16.291 C93.106,58.609,92.717,73.876,103.271,88.927z"></path> <linearGradient id="SVGID_2_" gradientUnits="userSpaceOnUse" x1="46.1211" y1="3.1533" x2="35.5146" y2="41.0585"> <stop offset="0" style="stop-color:#00F4B5"></stop> <stop offset="1" style="stop-color:#0DBDAF"></stop> </linearGradient> <path fill="url(#SVGID_2_)" d="M2.87,32.084c0.932-1.781,2.309-3.367,3.839-4.25L47.952,3.972 c2.818-1.635,7.429-1.635,10.245-0.014L77.88,15.295c-12.269,2.49-22.2,10.975-40.138,19.008 C22.162,41.272,9.066,35.785,2.87,32.084z"></path> <linearGradient id="SVGID_3_" gradientUnits="userSpaceOnUse" x1="47.8745" y1="41.6572" x2="57.9593" y2="79.2145"> <stop offset="0" style="stop-color:#00E0BD;stop-opacity:0"></stop> <stop offset="1" style="stop-color:#0EC4B6"></stop> </linearGradient> <path fill="url(#SVGID_3_)" d="M102.676,31.037c-1.568,2.623-4.724,8.504-6.701,16.291c-4.959,3.873-11.813,10.718-22.019,22.193 C53.208,92.831,22.296,92.329,3.331,89.162c-0.266-0.44-0.512-0.892-0.717-1.352c8.248-12.398,9.231-24.867,7.644-35.073 c30.257,2.735,43.28-14.211,60.452-26.107c5.912-4.099,11.199-5.892,15.717-6.363l12.972,7.479 C100.647,28.465,101.785,29.653,102.676,31.037z"></path> </g> <g> <path fill="#FFFFFF" d="M75.495,71.737c0,8.103-6.347,12.829-18.501,12.829H33.495V37.3h22.148 c11.344,0,17.421,4.794,17.421,12.289c0,4.862-2.431,8.441-6.077,10.399C72.051,61.608,75.495,65.592,75.495,71.737z M42.273,44.187v13.033h12.424c6.077,0,9.521-2.161,9.521-6.483c0-4.389-3.444-6.55-9.521-6.55H42.273z M66.649,70.859 c0-4.727-3.579-6.82-10.196-6.82h-14.18v13.64h14.18C63.071,77.679,66.649,75.586,66.649,70.859z"></path> </g> </g> </svg> 