<svg width="42" height="65" viewBox="0 0 42 65" fill="none" xmlns="http://www.w3.org/2000/svg">
<path d="M41.1863 55.2153C40.9863 53.1153 40.0863 49.2153 39.5863 48.6153C39.4863 48.4153 39.3863 47.1153 39.2863 45.9153C39.2863 45.3153 39.1863 44.7153 39.1863 44.1153C39.0863 43.3153 39.0863 42.6153 38.9863 41.8153C38.8863 41.1153 38.7863 40.4153 38.5863 39.9153C37.8863 37.6153 37.4863 35.1153 37.6863 32.7153C37.7863 30.5153 36.5863 28.3153 34.2863 26.5153C33.3863 25.8153 32.9863 25.7153 32.5863 25.6153C32.2863 25.6153 31.8863 25.5153 30.9863 25.0153C29.8863 24.4153 27.1863 22.7153 26.9863 22.5153C26.5863 22.1153 26.4863 21.4153 26.4863 20.3153C27.0863 20.0153 27.5863 19.6153 27.5863 19.2153C27.5863 18.9153 27.8863 17.2153 28.1863 15.8153C28.4863 14.3153 28.5863 13.4153 28.5863 13.2153C28.5863 12.8153 28.1863 11.8153 28.1863 11.5153V11.4153L28.2863 11.2153C28.4863 10.8153 28.8863 9.91526 28.9863 5.81526C28.9863 3.51526 27.7863 3.11526 27.1863 2.91526C27.4863 2.41526 27.3863 1.81526 27.3863 1.81526C27.3863 1.71526 27.2863 1.61526 27.1863 1.61526C27.0863 1.61526 26.9863 1.61526 26.8863 1.71526C26.3863 2.21526 24.8863 1.61526 23.7863 1.21526L23.5863 1.11526C21.5863 0.415259 20.0863 1.51526 18.7863 2.41526C18.2863 2.81526 17.7863 3.11526 17.2863 3.41526C15.2863 4.41526 14.4863 5.71526 14.5863 6.51526C14.6863 7.11526 15.3863 10.9153 15.5863 12.0153C15.4863 12.0153 15.3863 12.1153 15.2863 12.1153C14.9863 12.3153 14.8863 12.6153 14.8863 13.1153C14.7863 14.1153 15.8863 15.1153 16.1863 15.4153C16.3863 16.0153 17.2863 18.9153 18.3863 20.0153C18.3863 20.8153 18.1863 22.0153 17.7863 22.3153C17.2863 22.8153 15.3863 23.2153 13.6863 23.6153C12.7863 23.8153 12.1863 24.2153 11.4863 24.5153C10.6863 24.9153 9.98627 25.3153 8.68627 25.6153C5.48627 26.3153 3.28627 29.4153 3.28627 30.8153C3.28627 31.4153 2.98627 32.4153 2.68627 33.8153C2.28627 35.4153 1.78627 37.6153 1.18627 40.7153C0.786273 42.9153 0.886274 47.4153 0.886274 47.9153C0.786274 48.4153 -0.113726 53.4153 0.0862739 55.5153C0.286274 56.8153 1.28627 60.3153 2.08627 63.0153C2.18627 63.5153 2.38627 63.9153 2.48627 64.3153H3.08627C2.98627 63.8153 2.78627 63.3153 2.68627 62.8153C1.88627 60.1153 0.886273 56.6153 0.686273 55.4153C0.486273 53.3153 1.48627 48.0153 1.48627 47.9153C1.48627 47.9153 1.48627 47.9153 1.48627 47.8153C1.48627 47.8153 1.48627 47.2153 1.48627 46.3153C2.18627 46.3153 4.58627 46.5153 8.58627 47.7153C8.08627 49.5153 7.68627 50.6153 7.38627 51.3153C7.18627 51.9153 7.08627 52.3153 6.98627 52.5153C6.98627 52.7153 6.98627 53.0153 7.18627 53.6153C7.38627 54.6153 7.58627 56.1153 7.58627 57.2153C7.58627 57.6153 7.48627 58.2153 7.48627 58.8153C7.28627 61.2153 7.18627 63.3153 7.28627 64.3153H7.88627C7.78627 63.4153 7.98627 60.6153 8.08627 58.9153C8.08627 58.3153 8.18627 57.7153 8.18627 57.3153C8.28627 56.1153 7.98627 54.6153 7.78627 53.6153C7.68627 53.1153 7.58627 52.7153 7.68627 52.6153C7.68627 52.4153 7.78627 52.1153 7.98627 51.6153C8.28627 50.8153 8.68627 49.6153 9.28627 47.7153C9.28627 47.5153 9.38627 47.4153 9.38627 47.2153C9.48627 46.7153 9.68627 45.8153 9.88627 45.0153C9.98627 45.4153 10.0863 45.8153 10.2863 46.1153C10.7863 47.0153 11.7863 49.6153 11.8863 50.2153C11.9863 50.8153 11.9863 52.5153 11.8863 53.6153C11.8863 53.8153 11.7863 54.4153 11.6863 55.0153C11.5863 55.7153 11.4863 56.5153 11.3863 56.8153C11.3863 56.9153 11.1863 57.5153 10.9863 58.0153C10.4863 59.4153 9.68627 61.6153 9.58627 63.5153C9.58627 63.8153 9.58628 64.1153 9.48627 64.4153H10.0863C10.0863 64.1153 10.0863 63.8153 10.1863 63.5153C10.2863 62.2153 10.6863 60.7153 11.0863 59.5153C12.3863 59.9153 18.2863 61.4153 23.7863 61.4153C26.7863 61.4153 29.6863 60.9153 31.6863 59.6153C31.7863 59.8153 31.8863 60.0153 31.9863 60.3153C32.4863 61.7153 33.0863 63.4153 33.2863 64.4153H33.8863V64.3153C33.6863 63.3153 33.0863 61.5153 32.4863 60.1153C32.1863 59.2153 31.7863 58.2153 31.7863 58.0153V57.8153C32.0863 51.4153 32.3863 50.4153 32.4863 50.2153C32.6863 49.8153 32.8863 48.5153 33.0863 47.3153C33.5863 48.2153 34.1863 49.6153 34.0863 50.1153C33.9863 51.1153 34.8863 57.3153 35.9863 60.1153C36.4863 61.3153 37.0863 62.5153 37.5863 63.7153C37.6863 63.9153 37.7863 64.0153 37.7863 64.2153H38.3863C38.2863 64.0153 38.1863 63.7153 37.9863 63.4153C37.3863 62.2153 36.7863 61.0153 36.3863 59.8153C35.2863 57.0153 34.4863 50.9153 34.5863 50.0153C34.5863 49.1153 33.4863 47.0153 33.1863 46.3153C33.5863 45.9153 35.2863 44.4153 38.5863 44.0153C38.5863 44.5153 38.6863 45.0153 38.6863 45.5153C38.7863 47.6153 38.8863 48.3153 39.0863 48.6153C39.3863 49.0153 40.3863 52.6153 40.5863 54.8153C40.6863 56.2153 40.9863 60.6153 41.1863 64.0153H41.7863C41.6863 60.9153 41.3863 56.4153 41.1863 55.2153ZM16.6863 15.2153C16.6863 15.1153 16.6863 15.1153 16.5863 15.1153C16.2863 14.8153 15.3863 14.0153 15.3863 13.2153C15.3863 12.9153 15.4863 12.7153 15.5863 12.7153C15.6863 12.7153 15.6863 12.6153 15.7863 12.6153H15.8863C15.9863 12.6153 16.0863 12.6153 16.1863 12.5153C16.2863 12.4153 16.2863 12.3153 16.2863 12.2153C16.2863 12.2153 15.3863 7.01526 15.2863 6.31526C15.1863 5.81526 15.7863 4.71526 17.6863 3.81526C18.1863 3.51526 18.7863 3.11526 19.2863 2.81526C20.5863 1.91526 21.7863 1.01526 23.3863 1.61526L23.5863 1.71526C24.6863 2.11526 25.9863 2.61526 26.7863 2.41526C26.7863 2.61526 26.6863 2.81526 26.5863 2.91526C26.4863 3.01526 26.3863 3.21526 26.4863 3.31526C26.3863 3.51526 26.5863 3.51526 26.7863 3.61526C27.2863 3.71526 28.2863 3.91526 28.2863 6.01526C28.2863 6.91526 28.2863 7.71526 28.1863 8.31526C28.0863 8.01526 28.0863 7.61526 27.9863 7.31526C27.7863 6.51526 27.3863 6.21526 27.0863 6.11526C26.5863 5.91526 25.8863 6.11526 25.2863 6.51526H25.1863C24.3863 7.11526 24.2863 7.21526 22.7863 6.41526C20.7863 5.41526 17.7863 6.11526 17.2863 6.91526C16.9863 7.31526 16.9863 8.71526 17.0863 11.4153C17.0863 11.5153 17.0863 11.6153 17.0863 11.6153C17.0863 11.8153 17.1863 11.9153 17.3863 11.9153C17.5863 11.9153 17.6863 11.8153 17.6863 11.6153C17.6863 11.6153 17.6863 11.5153 17.6863 11.3153C17.4863 8.01526 17.6863 7.31526 17.7863 7.21526C18.0863 6.71526 20.7863 6.01526 22.5863 6.91526C24.2863 7.81526 24.5863 7.61526 25.4863 6.91526L25.5863 6.81526C26.0863 6.51526 26.5863 6.31526 26.8863 6.51526C27.1863 6.61526 27.3863 6.91526 27.4863 7.31526C27.6863 8.21526 27.8863 9.21526 27.9863 9.71526C27.9863 9.71526 27.8863 9.61526 27.7863 9.61526C27.5863 9.61526 26.2863 9.61526 25.9863 10.4153C25.6863 11.1153 26.5863 13.5153 26.9863 14.5153C27.0863 14.7153 27.2863 15.1153 27.1863 15.3153C27.1863 15.3153 27.0863 15.4153 26.9863 15.4153C26.5863 15.5153 25.6863 15.6153 25.4863 15.5153C25.2863 15.5153 25.1863 15.6153 25.1863 15.8153C25.1863 16.0153 25.2863 16.1153 25.4863 16.1153C25.4863 16.1153 25.5863 16.1153 25.6863 16.1153C25.9863 16.1153 26.7863 16.1153 27.2863 15.9153C27.4863 15.8153 27.6863 15.7153 27.8863 15.5153C27.9863 15.2153 27.8863 14.8153 27.6863 14.3153C26.9863 12.5153 26.5863 10.9153 26.6863 10.6153C26.7863 10.3153 27.4863 10.2153 27.9863 10.2153C28.0863 10.2153 28.1863 10.1153 28.2863 10.0153C28.1863 10.6153 27.9863 10.9153 27.9863 11.0153L27.8863 11.3153V11.4153L27.9863 11.6153C28.1863 12.1153 28.3863 12.8153 28.3863 13.1153C28.3863 13.3153 28.1863 14.5153 27.9863 15.6153C27.6863 17.4153 27.3863 18.8153 27.3863 19.1153C27.2863 19.3153 26.3863 19.9153 25.3863 20.3153C24.7863 20.4153 22.1863 20.2153 19.4863 19.7153C19.3863 19.7153 19.2863 19.6153 19.1863 19.5153C18.0863 19.0153 17.1863 16.7153 16.6863 15.2153ZM18.2863 22.8153C18.7863 22.4153 18.9863 21.1153 18.9863 20.4153C19.0863 20.4153 19.0863 20.4153 19.1863 20.5153C21.1863 20.9153 23.3863 21.1153 24.5863 21.1153C24.8863 21.1153 25.1863 21.1153 25.3863 21.0153C25.5863 20.9153 25.7863 20.8153 26.0863 20.7153C26.0863 21.5153 26.1863 22.4153 26.6863 22.9153C26.8863 23.1153 27.2863 23.5153 27.7863 23.8153C27.6863 24.5153 27.3863 25.9153 26.2863 27.0153C25.3863 27.9153 24.0863 28.3153 22.3863 28.2153C17.6863 27.9153 16.4863 24.6153 16.2863 23.6153C17.1863 23.4153 17.8863 23.1153 18.2863 22.8153ZM33.2863 45.9153C33.2863 45.5153 33.3863 45.2153 33.3863 45.1153C33.4863 44.8153 34.0863 42.9153 34.1863 41.5153C34.2863 40.0153 33.2863 35.3153 33.2863 35.1153C33.2863 35.0153 33.0863 34.9153 32.9863 34.9153C32.8863 34.9153 32.7863 35.1153 32.7863 35.2153C32.7863 35.2153 33.7863 40.0153 33.6863 41.4153V41.5153C33.6863 41.5153 33.5863 41.6153 33.5863 41.7153C33.4863 42.6153 30.4863 43.3153 28.3863 43.6153C28.1863 43.6153 28.0863 43.8153 28.1863 43.9153C28.1863 44.0153 28.2863 44.1153 28.4863 44.1153C29.1863 44.0153 32.2863 43.6153 33.5863 42.6153C33.3863 43.7153 32.9863 44.9153 32.9863 44.9153C32.9863 44.9153 32.9863 44.9153 32.9863 45.0153C32.9863 45.4153 32.8863 46.0153 32.7863 46.6153C32.5863 48.0153 32.2863 49.7153 32.0863 50.2153C31.7863 50.9153 31.4863 54.8153 31.2863 58.0153V58.1153C31.2863 58.2153 31.3863 58.5153 31.5863 59.2153C26.3863 63.0153 13.3863 59.7153 11.3863 59.1153C11.4863 58.8153 11.5863 58.5153 11.6863 58.3153C11.9863 57.5153 12.0863 57.1153 12.0863 56.9153C12.0863 56.6153 12.1863 55.8153 12.2863 55.2153C12.3863 54.5153 12.4863 53.9153 12.4863 53.7153C12.4863 53.0153 12.5863 50.9153 12.4863 50.2153C12.3863 49.5153 11.3863 47.0153 10.7863 46.0153C10.2863 45.1153 10.2863 43.3153 10.3863 43.3153C10.3863 43.2153 10.2863 43.0153 10.1863 43.0153C10.0863 43.0153 9.88627 43.1153 9.88627 43.2153C9.88627 43.2153 9.28627 46.1153 8.98627 47.2153C8.98627 47.3153 8.98627 47.3153 8.88627 47.4153C4.78627 46.1153 2.38627 46.0153 1.58627 46.0153C1.58627 44.4153 1.68627 42.3153 1.88627 41.0153C2.48627 37.9153 2.98627 35.7153 3.38627 34.1153C3.78627 32.6153 3.98627 31.7153 3.98627 31.0153C4.08627 29.7153 6.08627 26.9153 8.98627 26.3153C10.2863 26.0153 11.0863 25.6153 11.8863 25.2153C12.4863 24.9153 13.0863 24.5153 13.8863 24.3153C14.4863 24.1153 15.0863 24.0153 15.6863 23.8153C15.9863 24.9153 17.2863 28.5153 22.2863 28.8153C22.4863 28.8153 22.5863 28.8153 22.7863 28.8153C24.3863 28.8153 25.6863 28.3153 26.5863 27.4153C27.6863 26.3153 28.0863 25.0153 28.1863 24.1153C28.9863 24.6153 29.8863 25.1153 30.6863 25.5153C31.5863 26.0153 32.0863 26.1153 32.3863 26.1153C32.7863 26.2153 32.9863 26.2153 33.8863 26.9153C35.3863 28.1153 37.1863 30.1153 37.0863 32.7153C36.9863 35.2153 37.2863 37.8153 38.0863 40.1153C38.3863 41.0153 38.5863 42.4153 38.6863 43.8153C35.8863 44.1153 34.1863 45.2153 33.2863 45.9153Z" fill="white"/>
<path d="M20.9862 43.9151C20.9862 43.9151 18.9862 44.3151 16.6862 44.2151C14.1862 44.1151 14.1862 43.5151 14.1862 43.3151C14.1862 43.1151 14.0862 43.0151 13.8862 43.0151C13.6862 43.0151 13.5862 43.1151 13.5862 43.3151C13.5862 44.2151 14.4862 44.7151 16.5862 44.8151C16.8862 44.8151 17.1862 44.8151 17.4862 44.8151C19.4862 44.8151 20.8862 44.5151 20.9862 44.5151C21.0862 44.5151 21.1862 44.3151 21.1862 44.2151C21.2862 44.0151 21.1862 43.9151 20.9862 43.9151Z" fill="white"/>
</svg>
