<?xml version="1.0" encoding="utf-8"?>
<!-- Generator: Adobe Illustrator 22.0.1, SVG Export Plug-In . SVG Version: 6.00 Build 0)  -->
<svg version="1.1" id="Layer_1" xmlns="http://www.w3.org/2000/svg" xmlns:xlink="http://www.w3.org/1999/xlink" x="0px" y="0px"
	 viewBox="0 0 608 659" style="enable-background:new 0 0 608 659;" xml:space="preserve">
<style type="text/css">
	.st0{fill:#E7F7EE;}
	.st1{fill:#C7E5D3;}
	.st2{fill:none;}
</style>
<circle class="st0" cx="304.4" cy="331.3" r="302.3"/>
<g>
	<path class="st1" d="M536.2,522.2H72.4c-0.6,0-1,0.4-1,1s0.4,1,1,1h463.8c0.6,0,1-0.4,1-1S536.7,522.2,536.2,522.2z"/>
	<path class="st1" d="M603.3,366.5h-83.1c-4,0-7.3,3.3-7.3,7.3v9.8c-1.1-1-2.6-1.6-4.2-1.6c-3.4,0-6.2,2.8-6.2,6.2v80.4h-14.4
		c-2.3-5.8,4.8-18.4,7.9-22.8c0.2-0.4,0.2-0.8,0-1.2c-0.3-0.3-0.7-0.5-1.1-0.4c-7.3,2.2-12.4,12.6-15,19.3v-13.8
		c5.6-0.5,10-5.1,10-10.8c0-6-4.9-10.9-10.9-10.9s-10.9,4.9-10.9,10.9c0,5.6,4.3,10.3,9.8,10.8v15.8c-2.5-5.5-7.5-14.7-12.9-15.1
		c-0.4,0-0.8,0.2-1,0.5c-0.2,0.4-0.1,0.8,0.1,1.1c0.1,0.1,6.9,8.6,6.6,16.6h-15.4V198.7c0-0.6-0.4-1-1-1H449v-4.6
		c15.5-0.5,28-13.3,28-29c0-15.8-12.7-28.7-28.5-29v-4.6h6.9c2.3,0,4.2-1.9,4.2-4.2v-7c0-2.3-1.9-4.2-4.2-4.2h-15.8
		c-2.3,0-4.2,1.9-4.2,4.2v7c0,2.3,1.9,4.2,4.2,4.2h6.9v4.7c-15.3,0.8-27.5,13.5-27.5,29c0,15.6,12.5,28.4,28,29v4.6h-5.2
		c-0.6,0-1,0.4-1,1v269.8h-25.9l1.6-5.7c3.1-7.5-1.1-17.4-1.3-17.9c-0.2-0.5-0.7-0.7-1.2-0.6c-0.5,0.2-0.8,0.7-0.7,1.2
		c0.8,3.5-1.1,7.5-2.6,10c-1.6-10.6-9.4-17.7-9.8-18c-0.3-0.3-0.8-0.3-1.2-0.1c-0.4,0.3-0.5,0.7-0.4,1.2c2.4,6.8,3.6,17.2,1.7,19
		c-0.1,0.1-0.4,0.4-1.2,0c-4.9-2.1-4.8-9-4.8-9c0-0.5-0.4-0.9-0.9-1s-1,0.2-1.1,0.7c-2.8,9.9,1.5,16.9,4,20
		c-7.9-0.1-33.5-0.2-40.2,0c-2.1,0.1-3.5-0.3-4.2-1.2c-1.5-1.8-0.7-5.7,0.1-9.1l0.2-0.7c1-4.5-1.4-10.5-3.4-12.2
		c-0.8-0.7-1.4-0.6-1.8-0.5c-0.6,0.2-1,0.8-1.1,1.8l-0.1,1c-0.3,2.3-0.8,6.5-2.1,7c-0.5,0.2-1.4-0.4-1.8-0.8c-3.5-3-4-14.6-3.8-18.9
		c0-0.4-0.2-0.7-0.5-0.9c-0.3-0.2-0.7-0.2-1,0c-4.3,2.2-5.8,11.3-6.9,20.4c0,0.1,0,0.3-0.1,0.4c0-0.2,0-0.4-0.1-0.7
		c-0.2-2.8-0.5-6.3-2.1-9.6c-2.3-4.8-6.8-5.6-8.9-5.4c-0.4,0-0.8,0.4-0.9,0.8s0.1,0.9,0.5,1.1c4.5,2.4,4,6.5,2.8,13.4l-0.2,1.2
		c-0.9,5.4,2.5,10.3,4.6,12.8h-17c0.9-3.2,2.7-11.1-0.5-16.3c-0.2-0.3-0.6-0.5-1-0.5c-0.4,0.1-0.7,0.4-0.8,0.8
		c-0.8,4.1-2.3,8.9-3.2,9.6c-0.1,0.1-0.8,0.1-1.8-0.4c-2.8-1.4-6.2-5.6-6.5-12.9c0-0.5-0.4-0.9-0.9-1s-0.9,0.3-1.1,0.7
		c-0.1,0.5-3.4,12.3-2.5,17.8l-0.1,2.3H268h-0.1c-0.2-0.1-0.4-0.2-0.6-0.2h-21.1c-1.6-0.5-2.7-1.3-3.4-2.7
		c-2.1-4.1,0.4-10.8,0.4-10.9c0.1-0.3,0.1-0.7-0.1-0.9c-0.2-0.3-0.5-0.4-0.8-0.4c-4.2,0-7.2,3.4-9,6.4v-15.3
		c9.4-2.6,14-10.8,13.6-15.5c-0.2-2-1.3-3.3-2.9-3.4c-2.6-0.2-5,2.1-6.7,4.4c0.3-2.7,0.2-5.7-1-7.2c-1-1.2-2.5-1.6-4.3-0.9
		c-5.2,1.9-3.3,8-2.2,11.3c-0.6-0.8-1.3-1.7-1.9-2.6c-2-2.8-3.3-4.5-4.8-4.5c-2.1,0-2.4,3.3-2.6,4.7c-0.8,9,8.2,12.7,10.9,13.6V461
		c-2.8-2.3-7.1-2.8-7.3-2.8c-0.4,0-0.8,0.2-1,0.5c-0.2,0.4-0.1,0.8,0.1,1.1c4.1,4.8,3.2,7.5,2.7,8.3H199l-3.7-2.5
		c-13.3-9.4-5.5-28.2-5.4-28.4c0.1-0.3,0.1-0.7-0.1-1c-0.2-0.3-0.5-0.4-0.9-0.4c-4.1,0.4-7.3,2.1-9.4,5c-3,4.3-3.3,10.3-2.9,14.7
		c-5.6-6.1-15.7-4.1-15.8-4.1c-0.5,0.1-0.8,0.5-0.8,1s0.3,0.9,0.8,1c4.6,1.2,7.4,3.1,8.4,5.9c1.3,3.6-0.7,7.6-1.5,8.9h-27.3V333.5
		c1.8,1.6,3.7,3.2,5.7,4.6c11.2,8.1,24.3,12.3,37.8,12.3c3.5,0,7-0.3,10.5-0.8c17.1-2.8,32.1-12,42.2-26c12.3-17,15.6-39,8.8-58.8
		c10.8-5.6,19.9-13.6,27.1-23.5c12.3-17,17.2-37.7,13.8-58.4c-3.3-20.7-14.5-38.8-31.5-51.1c-17.9-12.9-40.4-17.7-62-13.1
		c-4.4-18-15.1-33.9-30.2-44.8c-2.3-1.7-4.7-3.2-7.1-4.6c-0.5-0.3-1.1-0.1-1.4,0.4c-0.3,0.5-0.1,1.1,0.4,1.4c2.4,1.4,4.7,2.9,7,4.5
		c14.7,10.6,25.1,26.1,29.4,43.6c-3.3,1-15.8,5.3-24.6,18.2c-0.3,0.5-0.2,1.1,0.3,1.4c0.2,0.1,0.4,0.2,0.6,0.2
		c0.3,0,0.6-0.2,0.8-0.4c9.6-14,24.1-17.5,24.2-17.6c0.1,0,0.1-0.1,0.2-0.1c21.3-4.7,43.6-0.2,61.3,12.6
		c16.5,11.9,27.4,29.6,30.7,49.7c3.3,20.1-1.5,40.3-13.5,56.9c-7.2,10-16.3,17.8-27.2,23.3l0,0c-0.9,0.3-18.8,5.9-35.7-3
		c-0.5-0.3-1.1-0.1-1.4,0.4c-0.3,0.5-0.1,1.1,0.4,1.4c7.8,4.1,15.7,5.3,22.2,5.3c6.9,0,12.3-1.3,14.3-1.9
		c6.5,19.2,3.3,40.4-8.6,56.9c-9.8,13.6-24.3,22.6-40.9,25.2c-16.6,2.7-33.2-1.3-46.8-11.1c-10-7.2-17.5-17-21.9-28.4
		c-0.1-0.4-0.5-0.6-0.9-0.6l0,0c-0.4,0-0.8,0.3-0.9,0.6c-1.9,5-4.5,9.8-7.7,14.2c-20.3,28.1-59.6,34.4-87.7,14.2
		c-11-7.9-18.6-18.2-22.6-30.5c-0.2-0.5-0.7-0.8-1.3-0.6c-0.5,0.2-0.8,0.7-0.6,1.3c4.2,12.7,12,23.3,23.4,31.5
		c22.8,16.5,52.9,15.9,74.8,0.7v129.5H84.1c-1.5-1.4-8.8-8.7-3.5-20.3c0.2-0.3,0.1-0.8-0.1-1c-0.2-0.3-0.6-0.4-1-0.3
		c-0.3,0.1-4.7,1.2-6.5,8.8c-1.5-5.3-4.7-11.2-11.1-14.6c-0.4-0.2-0.9-0.1-1.2,0.3s-0.3,0.9,0,1.3c0,0,3.4,4.3,1.4,13.5
		c-1.7-0.6-4.9-2.4-5.1-6.7c0-0.4-0.2-0.7-0.6-0.9c-0.4-0.2-0.8-0.1-1.1,0.2c-0.3,0.3-8,7-7.7,16.7H35c-0.6,0-1,0.4-1,1s0.4,1,1,1
		h13.7c0.3,0,0.5-0.1,0.7-0.3c0.2-0.2,0.3-0.5,0.3-0.8c-0.6-6.8,3.4-12.3,5.5-14.7c1.1,4.3,5.1,6.3,7.3,6.8c0.5,0.1,1-0.2,1.2-0.7
		c1.5-5.9,1-10.1,0.2-12.8c6.1,5,7.9,13.1,8.3,17.9c0,1.2,0,2.6,0.2,4c0,0.5,0.5,0.9,1,0.9l0,0c0.5,0,1-0.4,1-1
		c0-0.2,0.1-1.9-0.2-4.4c0.1-6.7,1.9-10.1,3.4-11.9c-3.7,12.3,5.4,19.8,5.5,19.9c0.2,0.1,0.4,0.2,0.6,0.2h18.7c0.6,0,1-0.4,1-1
		V337.4c5.1-3.8,9.7-8.5,13.6-13.9c1-1.4,1.9-2.8,2.8-4.2v17.6c0,0.6,0.4,1,1,1s1-0.4,1-1v-17.8c0-0.6-0.4-1-1-1
		c-0.1,0-0.2,0-0.3,0.1c1.3-2.3,2.5-4.6,3.6-7c3.3,7.7,8,14.6,14,20.5v137.7c0,0.6,0.4,1,1,1h28.8c0.3,0,0.6-0.2,0.8-0.4
		c0.2-0.2,4-5.9,2-11.2c-0.9-2.3-2.6-4.1-5.3-5.5c4.1,0.2,9.9,1.6,11.8,8.2c0.2,0.5,0.7,0.8,1.2,0.7c0.5-0.1,0.8-0.7,0.7-1.2
		c0-0.1-3-12.2,1.7-18.8c1.5-2.1,3.6-3.4,6.4-4c-1.7,5-5.6,20.6,6.7,29.2l3.9,2.7c0.2,0.1,0.4,0.2,0.6,0.2h27.8
		c0.3,0,0.5-0.1,0.7-0.3c0.1-0.1,3.2-3.3-0.7-9.2c1.9,0.5,4.3,1.6,5.1,3.6l0,0c0,0,0,0.1,0.1,0.1c0,0.1,0.1,0.1,0.1,0.2l0.1,0.1
		c0.1,0,0.1,0.1,0.2,0.1c0,0,0,0,0.1,0c0,0,0,0,0.1,0s0.2,0,0.2,0h0.1c0,0,0,0,0.1,0s0.1,0,0.1-0.1c0,0,0.1,0,0.1-0.1
		c0.1,0,0.1-0.1,0.2-0.1c0,0,0.1,0,0.1-0.1c0.1-0.1,0.1-0.2,0.2-0.3l0,0c0-0.1,2.7-7.6,7.6-8.9c-0.7,2.5-1.7,7.4,0.2,11
		c1,1.9,2.6,3.2,4.8,3.7c0.1,0,0.2,0,0.3,0h21.3h0.1c0.2,0.1,0.4,0.2,0.6,0.2h23.4c0.5,0,1-0.4,1-1l0.2-3.4c0-0.1,0-0.1,0-0.2
		c-0.5-2.9,0.4-8.1,1.3-12.1c1.4,5.1,4.4,8.3,7,9.5c1.5,0.7,2.9,0.8,3.8,0.1c1.4-1,2.6-4.8,3.3-7.7c1.4,5.7-1.2,13.1-1.2,13.1
		c-0.1,0.3-0.1,0.6,0.1,0.9s0.5,0.4,0.8,0.4h20.4c0.4,0,0.8-0.3,0.9-0.6c0.1-0.4,0-0.8-0.3-1.1c-0.1-0.1-6.8-6.3-5.7-12.7l0.2-1.2
		c0.9-5.1,1.7-9.6-0.7-12.9c1.2,0.6,2.5,1.7,3.4,3.6c1.4,2.9,1.7,6.1,1.9,8.9c0.2,2.2,0.3,4.1,1,5.4c0.4,0.8,1.1,0.8,1.3,0.8
		c1.1-0.2,1.2-1.2,1.8-5.9c0.6-5.1,1.7-13.9,4.4-17.5c0.1,4.7,0.6,14.9,4.6,18.2c1.4,1.2,2.7,1.6,3.9,1.1c2.4-0.9,3-5.2,3.4-8.6
		l0.1-0.8c1.2,1.4,3.3,6.3,2.5,10l-0.2,0.7c-0.9,4.1-1.8,8.3,0.3,10.8c1.2,1.4,3.1,2.1,5.8,1.9c7.9-0.3,42.1,0,42.5,0l0,0
		c0.4,0,0.8-0.3,0.9-0.7c0.1-0.4,0-0.8-0.3-1.1c-0.3-0.3-6.1-5.3-5.9-14.2c0.8,2,2.3,4.1,4.9,5.2c1.7,0.7,2.8,0.1,3.3-0.4
		c2.6-2.5,1.5-11,0.1-16.9c2.7,3.4,6.3,9.2,6.6,16.3c0,0.4,0.3,0.8,0.7,0.9c0.4,0.1,0.8,0,1.1-0.3c0.2-0.2,3-3.8,4.2-8.1
		c0.7,3.3,1.1,7.6-0.4,11.1v0.1l-1.9,7c-0.1,0.3,0,0.6,0.2,0.9s0.5,0.4,0.8,0.4h27.2v1.4c0,2.1,0.9,3.9,2.3,5.2H41.4
		c-0.6,0-1,0.4-1,1s0.4,1,1,1h406.5h0.1h0.1h119.1c0.6,0,1-0.4,1-1s-0.4-1-1-1h-53.9c1-1.1,1.6-2.6,1.6-4.2V449
		c1.3,1.4,3.2,2.3,5.3,2.3h61c0.6,0,1-0.4,1-1s-0.4-1-1-1h-61c-2.9,0-5.3-2.4-5.3-5.3v-4.6c0-2.9,2.4-5.3,5.3-5.3h67.7
		c0.6,0,1-0.4,1-1s-0.4-1-1-1h-67.7c-2.1,0-4,0.9-5.3,2.3v-12.6c1.3,1.4,3.2,2.3,5.3,2.3h71.1c0.6,0,1-0.4,1-1s-0.4-1-1-1h-71.1
		c-2.9,0-5.3-2.4-5.3-5.3v-28.5v-14.4c0-2.9,2.4-5.3,5.3-5.3h83.1c0.6,0,1-0.4,1-1C604.3,366.9,603.8,366.5,603.3,366.5z
		 M437.5,126.4v-7c0-1.2,1-2.2,2.1-2.2h15.8c1.2,0,2.1,1,2.1,2.2v7c0,1.2-1,2.2-2.1,2.2h-15.8C438.5,128.6,437.5,127.6,437.5,126.4z
		 M421,164.2c0-14.9,12.1-27,27-27s27,12.1,27,27s-12.1,27-27,27S421,179.1,421,164.2z M222.3,431c0.2-2,0.5-2.7,0.6-2.9
		c0.7,0.3,2.2,2.4,3.1,3.6c1.3,1.8,2.6,3.6,3.8,4.4c1,0.6,1.7,0.5,2.1-0.1c0.5-0.7,0.2-1.6-0.4-3.3c-1.3-3.9-2.2-7.8,1-9
		c1-0.4,1.6-0.3,2,0.2c1.4,1.8,0.5,7.8-0.3,11.1c-0.1,0.5,0.1,1,0.6,1.2s1-0.1,1.2-0.5c1-2.1,4.4-8.2,7.5-8.2c0.1,0,0.1,0,0.2,0
		c0.7,0,1,0.9,1,1.6c0.3,3.3-3,10.7-11.6,13.3c-0.1-0.4-0.5-0.7-0.9-0.7s-0.8,0.3-0.9,0.7C228.4,441.3,221.7,438,222.3,431z
		 M492.4,447.7c-3,5-8.1,14.8-6.4,20.9h-5.8C481.5,464.6,485.8,452.4,492.4,447.7z M478.9,443.6c-1.7,0-3-1.4-3-3c0-1.7,1.4-3,3-3
		s3,1.4,3,3C482,442.3,480.6,443.6,478.9,443.6z M470.1,438.9c0-4.9,4-8.9,8.9-8.9s8.9,4,8.9,8.9c0,4.6-3.5,8.4-8,8.8v-2.1
		c2.3-0.4,4.1-2.5,4.1-4.9c0-2.8-2.3-5-5-5c-2.8,0-5,2.3-5,5c0,2.4,1.7,4.4,3.9,4.9v2.1C473.5,447.1,470.1,443.4,470.1,438.9z
		 M467.7,453.8c3.8,3.1,7.5,10.5,9.2,14.8h-4.3C472.9,462.9,469.9,457.1,467.7,453.8z M442.8,472V199.8h10.5V472
		c0,1.4-0.5,2.7-1.5,3.7s-2.3,1.5-3.7,1.5H448C445.1,477.2,442.8,474.9,442.8,472z M453.1,477.1c1.4-1.4,2.1-3.2,2.1-5.1v-1.4h23.6
		h8.6l0,0l0,0h15v2.5c0,1.6,0.6,3.1,1.6,4.2h-51C453,477.2,453.1,477.2,453.1,477.1z M512.9,439.4v4.6v29.1c0,2.3-1.9,4.2-4.2,4.2
		c-2.3,0-4.2-1.9-4.2-4.2v-84.9c0-2.3,1.9-4.2,4.2-4.2s4.2,1.9,4.2,4.2v28.5V439.4z"/>
	<path class="st1" d="M601.7,377.5h-78.8c-0.6,0-1,0.4-1,1s0.4,1,1,1h78.8c0.6,0,1-0.4,1-1S602.3,377.5,601.7,377.5z"/>
	<path class="st1" d="M599.9,389H523c-0.6,0-1,0.4-1,1s0.4,1,1,1h76.9c0.6,0,1-0.4,1-1S600.4,389,599.9,389z"/>
	<path class="st1" d="M597.4,400.4h-74.5c-0.6,0-1,0.4-1,1s0.4,1,1,1h74.5c0.6,0,1-0.4,1-1C598.5,400.9,598,400.4,597.4,400.4z"/>
	<path class="st1" d="M594.4,411.9H523c-0.6,0-1,0.4-1,1s0.4,1,1,1h71.4c0.6,0,1-0.4,1-1S594.9,411.9,594.4,411.9z"/>
	<path class="st1" d="M111.4,371.7c0.6,0,1-0.4,1-1v-29.4c0-0.6-0.4-1-1-1s-1,0.4-1,1v29.4C110.4,371.2,110.8,371.7,111.4,371.7z"/>
	<path class="st1" d="M110.4,452.6c0,0.6,0.4,1,1,1s1-0.4,1-1v-64.7c0-0.6-0.4-1-1-1s-1,0.4-1,1V452.6z"/>
	<path class="st1" d="M129.9,399.3c0.6,0,1-0.4,1-1v-69.2c0-0.6-0.4-1-1-1s-1,0.4-1,1v69.2C128.9,398.9,129.4,399.3,129.9,399.3z"/>
	<path class="st1" d="M128.9,463c0,0.6,0.4,1,1,1s1-0.4,1-1v-52c0-0.6-0.4-1-1-1s-1,0.4-1,1V463z"/>
	<path class="st1" d="M121.9,428.6v-64.9c0-0.6-0.4-1-1-1s-1,0.4-1,1v64.9c0,0.6,0.4,1,1,1S121.9,429.2,121.9,428.6z"/>
	<path class="st1" d="M55.2,329L55.2,329c0.6,0,1-0.4,1.1-0.9c0-0.6-0.4-1-0.9-1.1c-35.2-3.2-32.7-40.2-32.6-41.8
		c0-0.6-0.4-1-0.9-1.1c-0.6,0-1,0.4-1.1,0.9C20.7,285.5,17.9,325.6,55.2,329z"/>
	<path class="st1" d="M101.6,306.1c-5,10-20.7,15.1-20.8,15.2c-0.5,0.2-0.8,0.7-0.7,1.3c0.1,0.4,0.5,0.7,1,0.7c0.1,0,0.2,0,0.3,0
		c0.7-0.2,16.6-5.4,22-16.2c0.2-0.5,0-1.1-0.4-1.3C102.4,305.4,101.8,305.6,101.6,306.1z"/>
	<path class="st1" d="M194.9,329.3c0.1,0,0.2,0,0.3,0c0.7-0.2,16.6-5.4,22-16.2c0.2-0.5,0-1.1-0.4-1.3c-0.5-0.2-1.1,0-1.3,0.4
		c-5,10-20.7,15.1-20.8,15.2c-0.5,0.2-0.8,0.7-0.6,1.3C194.1,329,194.5,329.3,194.9,329.3z"/>
	<path class="st1" d="M266.1,193.1c0,0.5,0.5,1,1,1l0,0c0.6,0,1-0.5,1-1c-1.7-45.6-43.1-56-43.5-56.1c-0.5-0.1-1.1,0.2-1.2,0.7
		c-0.1,0.5,0.2,1.1,0.7,1.2C224.5,138.9,264.5,149,266.1,193.1z"/>
	<path class="st1" d="M141.7,86.5c0.1,0.1,13.4,6.8,20,17.3c0.2,0.3,0.5,0.5,0.9,0.5c0.2,0,0.4,0,0.5-0.2c0.5-0.3,0.6-0.9,0.3-1.4
		c-6.9-11-20.2-17.7-20.8-18c-0.5-0.2-1.1,0-1.3,0.4C141,85.7,141.2,86.3,141.7,86.5z"/>
	<path class="st1" d="M55.8,244.3c0,16.6,13.5,30.2,30.2,30.2c0.6,0,1-0.4,1-1s-0.4-1-1-1c-15.5,0-28.2-12.6-28.2-28.2
		c0-8.9,4.3-17.4,11.5-22.7c0.2-0.2,0.4-0.4,0.4-0.7s0-0.5-0.2-0.7c-5-6.6-7.7-14.5-7.7-22.8c0-20.8,17-37.8,37.8-37.8
		c16.8,0,31.3,10.8,36.2,26.8c0.1,0.5,0.6,0.8,1.1,0.7c1.4-0.3,3-0.4,4.5-0.4c13.4,0,24.3,10.9,24.3,24.3c0,7.8-3.8,15.1-10.1,19.7
		c-0.4,0.3-0.5,1-0.2,1.4s0.9,0.6,1.4,0.2c6.8-4.9,10.9-12.9,10.9-21.3c0-14.5-11.8-26.3-26.3-26.3c-1.3,0-2.7,0.1-4,0.3
		c-5.4-16.4-20.5-27.4-37.8-27.4c-22,0-39.8,17.9-39.8,39.8c0,8.4,2.6,16.4,7.5,23.3C60.1,226.3,55.8,235.1,55.8,244.3z"/>
	<path class="st1" d="M121.2,184.6c0.3,0.5,0.9,0.6,1.4,0.3s0.6-0.9,0.3-1.4c-4.9-7.2-13-11.6-21.7-11.6
		c-14.5,0-26.2,11.8-26.2,26.2c0,4,0.9,7.8,2.6,11.4c0.2,0.4,0.5,0.6,0.9,0.6c0.1,0,0.3,0,0.4-0.1c0.5-0.2,0.7-0.8,0.5-1.3
		c-1.6-3.3-2.4-6.8-2.4-10.5c0-13.3,10.9-24.2,24.2-24.2C109.2,173.9,116.7,177.9,121.2,184.6z"/>
	<path class="st1" d="M445.3,145c-9.2,1.3-16.3,9-16.7,18.3c0,0.6,0.4,1,1,1.1l0,0c0.5,0,1-0.4,1-1c0.4-8.3,6.7-15.2,15-16.4
		c0.5-0.1,0.9-0.6,0.9-1.1C446.3,145.3,445.8,144.9,445.3,145z"/>
	<path class="st1" d="M526.5,533.5H82.1c-0.6,0-1,0.4-1,1s0.4,1,1,1h444.5c0.6,0,1-0.4,1-1C527.5,533.9,527.1,533.5,526.5,533.5z"/>
</g>
<rect x="0.1" class="st2" width="607.8" height="659"/>
</svg>
