<?xml version="1.0" encoding="utf-8"?>
<!-- Generator: Adobe Illustrator 22.0.1, SVG Export Plug-In . SVG Version: 6.00 Build 0)  -->
<svg version="1.1" id="Layer_2_1_" xmlns="http://www.w3.org/2000/svg" xmlns:xlink="http://www.w3.org/1999/xlink" x="0px" y="0px"
	 viewBox="0 0 608 659" style="enable-background:new 0 0 608 659;" xml:space="preserve">
<style type="text/css">
	.st0{fill:#F8AD84;}
	.st1{fill:url(#SVGID_1_);}
	.st2{fill:url(#SVGID_2_);}
	.st3{fill:none;}
	.st4{fill:url(#SVGID_3_);}
	.st5{fill:url(#SVGID_4_);}
	.st6{fill:url(#SVGID_5_);}
	.st7{fill:url(#SVGID_6_);}
	.st8{fill:url(#SVGID_7_);}
	.st9{fill:url(#SVGID_8_);}
	.st10{fill:#EAAC8C;}
	.st11{opacity:0.4;fill:url(#SVGID_9_);enable-background:new    ;}
	.st12{fill:url(#SVGID_10_);}
	.st13{fill:url(#SVGID_11_);}
	.st14{fill:url(#SVGID_12_);}
	.st15{fill:url(#SVGID_13_);}
	.st16{fill:#67B2AC;}
	.st17{fill:#8FC9C6;}
	.st18{opacity:0.5;fill:url(#SVGID_14_);enable-background:new    ;}
	.st19{opacity:0.8;fill:url(#SVGID_15_);enable-background:new    ;}
	.st20{fill:url(#SVGID_16_);}
	.st21{opacity:0.5;fill:url(#SVGID_17_);enable-background:new    ;}
	.st22{opacity:0.5;fill:url(#SVGID_18_);enable-background:new    ;}
	.st23{opacity:0.5;fill:url(#SVGID_19_);enable-background:new    ;}
	.st24{fill:url(#SVGID_20_);}
	.st25{fill:url(#SVGID_21_);}
	.st26{fill:#DD8C68;}
	.st27{fill:#E89972;}
	.st28{fill:#51062A;}
	.st29{fill:#EA9971;}
	.st30{fill:#961E4C;}
	.st31{fill:url(#SVGID_22_);}
	.st32{fill:url(#SVGID_23_);}
	.st33{fill:url(#SVGID_24_);}
	.st34{fill:url(#SVGID_25_);}
	.st35{fill:url(#SVGID_26_);}
	.st36{fill:url(#SVGID_27_);}
	.st37{fill:url(#SVGID_28_);}
	.st38{opacity:0.8;fill:url(#SVGID_29_);enable-background:new    ;}
	.st39{opacity:0.8;fill:url(#SVGID_30_);enable-background:new    ;}
	.st40{fill:url(#SVGID_31_);}
	.st41{opacity:0.8;fill:url(#SVGID_32_);enable-background:new    ;}
	.st42{opacity:0.4;fill:url(#SVGID_33_);enable-background:new    ;}
	.st43{fill:url(#SVGID_34_);}
	.st44{fill:#CE745F;}
	.st45{fill:#FFFFFF;}
	.st46{fill:#2B3A44;}
	.st47{fill:#88AAA7;}
	.st48{fill:#BDD6D3;}
	.st49{fill:#476D62;}
	.st50{fill:#E8F9F5;}
	.st51{fill:none;stroke:#E1F4EE;stroke-linecap:round;stroke-linejoin:round;stroke-miterlimit:10;}
	.st52{opacity:0.5;fill:url(#SVGID_35_);enable-background:new    ;}
</style>
<path class="st0" d="M353.1,602.6c0,0-0.1,11,0.8,16.3s18,3.2,18.9,2.7s-1.7-7.8-2.2-14.3C370.1,600.8,353.1,602.6,353.1,602.6z"/>
<path class="st0" d="M256.6,601.2c0,0,1.1,13.5,0,15.9s-21.3,3.7-21,0.8c0.4-2.8,2.9-10.6,4.5-14.1
	C241.6,600.4,256.6,601.2,256.6,601.2z"/>
<g>
	
		<linearGradient id="SVGID_1_" gradientUnits="userSpaceOnUse" x1="-8209.3252" y1="2274.3733" x2="-8201.4697" y2="2157.1633" gradientTransform="matrix(-1 0 0 1 -7825.6895 -1908.4365)">
		<stop  offset="0" style="stop-color:#DF9570"/>
		<stop  offset="1" style="stop-color:#F8AD84"/>
	</linearGradient>
	<path class="st1" d="M371.3,144c0,0,9.1,7.3,9.3,16.3c0.2,9,2.3,20.4,2.3,20.4s6.9,13.5,8.1,28.5c1.3,15,1.6,24.8,4.1,29.9
		c2.5,5.2,7.2,29.3,5.6,56.6s-1.6,33.1-1.6,33.1s1.8,17.4,3.8,20.7c2,3.3,0.5,9.1-0.4,11.3c-0.9,2.2-2.8,9.6-3,10.4s-4.3,4.5-8.2,7
		c-3.9,2.4-8.9,7.3-10.4,8.9s-3.4,0-2.7-4.5c0.7-4.5,4.6-9.6,7.4-12.3c2.8-2.7,1.7-12.5,1.7-14.1s-4.3-2.9-4.3-2.9
		s-0.6,11.8-3.7,14.4c-1.8,1.5-4.1,1.7-4.8-1c-0.7-2.7,1.6-6.7,1.6-11.7c-0.1-4.9-1.1-9.6,0.6-14.6c1.6-5,7.4-11.3,7.4-17.5
		c0-6.3-14.2-45.5-15.3-55.8c-1.1-10.2-1.5-22.6-2.8-28.4c-1.3-5.8-10.5-21.1-13-35.4C350.3,189.1,333.9,135.9,371.3,144z"/>
	
		<linearGradient id="SVGID_2_" gradientUnits="userSpaceOnUse" x1="-8195.6289" y1="2099.5073" x2="-8210.6064" y2="2131.5229" gradientTransform="matrix(-1 0 0 1 -7825.6895 -1908.4365)">
		<stop  offset="0" style="stop-color:#C77F5E"/>
		<stop  offset="1" style="stop-color:#F8AD84"/>
	</linearGradient>
	<path class="st2" d="M352.8,203.1c2.1,12,9,24.8,11.9,32c4.7,5.4,10.2,9,17.2,7.4c5.8-1.3,9.2-6,11.2-11.7c-0.8-5.4-1.2-12.7-2-22
		c-1.3-15-8.1-28.5-8.1-28.5s-3.8-12.6-4-21.6s-7.6-14.9-7.6-14.9C333.9,135.8,350.3,188.9,352.8,203.1z"/>
	<path class="st3" d="M364.7,235.1c4.7,5.4,10.2,9,17.2,7.4c5.8-1.3,9.2-6,11.2-11.7"/>
	
		<linearGradient id="SVGID_3_" gradientUnits="userSpaceOnUse" x1="-8214.4756" y1="2281.1267" x2="-8223.1836" y2="2284.2678" gradientTransform="matrix(-1 0 0 1 -7825.6895 -1908.4365)">
		<stop  offset="0" style="stop-color:#C97A52"/>
		<stop  offset="1" style="stop-color:#DA9473;stop-opacity:0"/>
	</linearGradient>
	<path class="st4" d="M378.8,387.1c0,0,0.9,0.7,2.8-2.2c1.9-3,4.7-6.2,7.1-7.8c2.3-1.6,4.7-2.8,5.2-5.5s1.3-9.2,2.5-12.1
		s2.4-1.5,2.4,1.1c0,2.7-2.5,13.9-3.3,14.6s-7.8,5.5-10.2,7.6C382.9,384.9,380.5,388.3,378.8,387.1z"/>
	
		<linearGradient id="SVGID_4_" gradientUnits="userSpaceOnUse" x1="-8206.3975" y1="2278.1765" x2="-8214.3359" y2="2278.281" gradientTransform="matrix(-1 0 0 1 -7825.6895 -1908.4365)">
		<stop  offset="0" style="stop-color:#D48863"/>
		<stop  offset="1" style="stop-color:#F8AD83;stop-opacity:0"/>
	</linearGradient>
	<path class="st5" d="M396.8,358.6c0,0-2.4,11.3-3,13c-0.7,1.7-1,2.5-4,4.7c-2.9,2.2-6.3,4.9-7.1,6.8c-0.8,1.9-3,5.1-4.2,3.6
		s-1.2-6.4,3.4-12.3c4.6-5.8,4.1-4.4,5.1-7.5s0.2-9.3,0-11.5C386.7,353.2,397.8,348.9,396.8,358.6z"/>
	
		<linearGradient id="SVGID_5_" gradientUnits="userSpaceOnUse" x1="-8207.5342" y1="2270.2515" x2="-8204.6396" y2="2269.2507" gradientTransform="matrix(-1 0 0 1 -7825.6895 -1908.4365)">
		<stop  offset="0" style="stop-color:#C97A52"/>
		<stop  offset="1" style="stop-color:#DA9473;stop-opacity:0"/>
	</linearGradient>
	<path class="st6" d="M383,353.2c0,0-0.5,6.1-1.1,8.5c-1.2,4.5-1.8,6.2-4.8,7c-2.4,0.6-3.1-1.8-3.1-1.8s4.3-1,6.1-6.5
		C381.8,354.9,383,353.2,383,353.2z"/>
	
		<linearGradient id="SVGID_6_" gradientUnits="userSpaceOnUse" x1="-8211.9092" y1="2271.3044" x2="-8215.9063" y2="2271.3044" gradientTransform="matrix(-1 0 0 1 -7825.6895 -1908.4365)">
		<stop  offset="0" style="stop-color:#C97A52"/>
		<stop  offset="1" style="stop-color:#DA9473;stop-opacity:0"/>
	</linearGradient>
	<path class="st7" d="M387.4,355.9c0,0,0.4,7.7,0,9.8c-0.4,2.1-1.1,3.3-1.2,3.7c-0.1,0.5,0.3,1.5,1.7,0.8c1.4-0.7,2.8-11.5,1.7-13.7
		C388.4,354.2,387.4,355.9,387.4,355.9z"/>
	
		<linearGradient id="SVGID_7_" gradientUnits="userSpaceOnUse" x1="-8219.8164" y1="2273.979" x2="-8223.3701" y2="2274.2927" gradientTransform="matrix(-1 0 0 1 -7825.6895 -1908.4365)">
		<stop  offset="0" style="stop-color:#C97A52"/>
		<stop  offset="1" style="stop-color:#DA9473;stop-opacity:0"/>
	</linearGradient>
	<path class="st8" d="M396.8,358.6c0,0-1.3,2.7-1.6,4.9c-0.3,2.2-1.2,7.9-1.5,8.4s1,2.5,1.9,1.2c1-1.3,3.3-14.2,2.5-14.9
		C397.3,357.4,396.8,358.6,396.8,358.6z"/>
	
		<linearGradient id="SVGID_8_" gradientUnits="userSpaceOnUse" x1="-8197.3779" y1="2194.769" x2="-8204.1953" y2="2192.9512" gradientTransform="matrix(-1 0 0 1 -7825.6895 -1908.4365)">
		<stop  offset="0" style="stop-color:#C97A52"/>
		<stop  offset="1" style="stop-color:#DA9473;stop-opacity:0"/>
	</linearGradient>
	<path class="st9" d="M383.9,323.9c0,0,4.8-3.5,1-14.7c-3.8-11.3-12.4-45.3-12.5-52c-0.2-6.7-5.7-12.6-5.4-9.8
		c0.2,2.8,1.5,18.7,2.8,25.6C371,279.4,383.8,316.2,383.9,323.9z"/>
	<path class="st10" d="M382.1,384.4c0,0-1.3-0.9-1.7-0.7c-0.4,0.2-1.9,1.9-2.1,2.7c-0.1,0.8,0.7,0.9,0.8,1
		C379.2,387.4,381.1,386.9,382.1,384.4z"/>
	<path class="st10" d="M377.8,364.7c0,0-2.4-1.3-3-0.3c-0.7,1.3-0.9,2.6-0.6,3.3c0.3,0.6,1.8,1.3,2.4,0.9
		C377.5,368.1,378.7,365,377.8,364.7z"/>
	
		<linearGradient id="SVGID_9_" gradientUnits="userSpaceOnUse" x1="-8203.6816" y1="2267.6079" x2="-8203.4082" y2="2269.3306" gradientTransform="matrix(-1 0 0 1 -7825.6895 -1908.4365)">
		<stop  offset="0" style="stop-color:#C97A52"/>
		<stop  offset="1" style="stop-color:#DA9473;stop-opacity:0"/>
	</linearGradient>
	<path class="st11" d="M375.8,357.9c0,0,0.7,2,3.3,1.4c2.5-0.5,0.7,0.6-0.3,0.9C377.9,360.5,375.6,360.4,375.8,357.9z"/>
	
		<linearGradient id="SVGID_10_" gradientUnits="userSpaceOnUse" x1="-8210.875" y1="2262.9688" x2="-8212.3633" y2="2260.6594" gradientTransform="matrix(-1 0 0 1 -7825.6895 -1908.4365)">
		<stop  offset="0" style="stop-color:#C97A52"/>
		<stop  offset="1" style="stop-color:#DA9473;stop-opacity:0"/>
	</linearGradient>
	<path class="st12" d="M387.4,356.7c0,0,2.4-2.4-0.2-4.2c-2.7-1.8-4.7-1.2-4.1,0.7C383,353.2,387.4,354.1,387.4,356.7z"/>
</g>
<path class="st0" d="M282.2,98.7l-2.4,24.9c0,0-20.8,9.5-26.3,10.8c-5.5,1.3-25.1,3.9-31.2,12.5c-6.1,8.6,1.6,23.2,11,26.6
	c9.4,3.4,10.2,17.9,10.2,17.9s1.4,15.7,3.8,23.7c2.4,8,11.5,35.9,10.7,42.8c-0.7,5.5-2.7,15.1-1.9,18.4c0.8,3.3-1.4,9.7-1.4,9.7
	s-12.4,24.4,33.2,29.6s59.1-8.6,57.7-22.4s-1.5-8.9-0.4-13.9s0.6-10.4-1-15.6s-1.4-13.5-0.1-23.5s8.8-27.3,10-41.8
	c1.3-14.6,11.9-14.3,15.3-20.8c3.4-6.6,15.6-28.1-1.3-36.3c-14.2-6.9-39.1-12-42.9-14.6c-3.8-2.7-8.6-5.7-8.6-5.7l-1.4-20
	c0,0-0.4-18.6-13-17.8C290.5,83.9,283.6,82,282.2,98.7z"/>
<linearGradient id="SVGID_11_" gradientUnits="userSpaceOnUse" x1="188.8505" y1="2274.4089" x2="196.6832" y2="2157.5437" gradientTransform="matrix(1 0 0 1 25.0195 -1908.4365)">
	<stop  offset="0" style="stop-color:#DF9570"/>
	<stop  offset="1" style="stop-color:#F8AD84"/>
</linearGradient>
<path class="st13" d="M224.5,144.6c0,0-6.9,4.1-7.1,13.1c-0.2,9-2.4,23-2.4,23s-6.9,13.5-8.1,28.5c-1.3,15-1.6,24.8-4.1,29.9
	c-2.5,5.2-7.2,29.3-5.6,56.6c1.6,27.3,1.6,33.1,1.6,33.1s-1.8,17.4-3.8,20.7c-2,3.3-0.5,9.1,0.4,11.3c0.9,2.2,2.8,9.6,3,10.4
	s4.3,4.5,8.2,7c3.9,2.4,8.9,7.3,10.4,8.9s3.4,0,2.7-4.5s-4.6-9.6-7.4-12.3c-2.8-2.7-1.7-12.5-1.7-14.1s4.3-2.9,4.3-2.9
	s0.6,11.8,3.7,14.4c1.8,1.5,4.1,1.7,4.8-1s-1.6-6.7-1.6-11.7c0.1-4.9,1.1-9.6-0.6-14.6c-1.6-5-7.4-11.3-7.4-17.5
	c0-6.3,14.2-45.5,15.3-55.8c1.1-10.2,1.5-22.6,2.8-28.4c1.3-5.8,10.5-21.1,13-35.4C247.5,189.1,262,136.4,224.5,144.6z"/>
<linearGradient id="SVGID_12_" gradientUnits="userSpaceOnUse" x1="201.709" y1="2099.5938" x2="186.9016" y2="2131.2451" gradientTransform="matrix(1 0 0 1 25.0195 -1908.4365)">
	<stop  offset="0" style="stop-color:#C77F5E"/>
	<stop  offset="1" style="stop-color:#F8AD84"/>
</linearGradient>
<path class="st14" d="M245,203.1c-2.1,12-9,24.8-11.9,32c-4.7,5.4-10.2,9-17.2,7.4c-5.8-1.3-9.2-6-11.2-11.7c0.8-5.4,1.2-12.7,2-22
	c1.3-15,8.1-28.5,8.1-28.5s2.2-14,2.4-23s7.1-13.1,7.1-13.1C262,136.2,247.5,188.9,245,203.1z"/>
<linearGradient id="SVGID_13_" gradientUnits="userSpaceOnUse" x1="281.8564" y1="2246.1255" x2="274.2482" y2="2569.9038" gradientTransform="matrix(1 0 0 1 25.0195 -1908.4365)">
	<stop  offset="0" style="stop-color:#392F64"/>
	<stop  offset="1" style="stop-color:#582978"/>
</linearGradient>
<path class="st15" d="M298.6,360.2c-9.1,48-26.8,104-26.2,113.3c0.6,10.2,4.2,19.8-0.2,50.5c-4.4,30.7-10.4,60.7-11.7,70
	c-0.5,3.9-1.2,7.4-1.4,10.5c-0.3,6.5-2.5,8-15.1,6.8c-4.2-0.4-7.7,1.2-6.5-5.8c1.2-6.7,3-23.6,3-23.6s1.5-26.8-1.7-58.1
	c-1.2-11.8-0.8-29.3-3.4-43c-1.8-9.4-1.1-11.9-0.4-18.7c1.9-18.8-2.3-59-0.2-82.2c3-33.1,9-58.2,10.4-65.4
	c3.3-16.9,9.4-28.6,9.4-28.6s30.7,16.1,91.6,2.3c0,0,10.8,15.9,14.5,38.6c4.2,25.9,10.5,92.3,7.5,146.1c0,0,7.5,67.6,3.4,115.3
	c-0.6,7.4-1.6,16.2-0.3,20.3c1.9,5.9-1.3,6-10.1,5.8c-2.6-0.1-7,0.5-8.6-2.8c-0.5-0.9,0.4-3.9,0-5.2c-1.7-5.6-1.5-15.1-1.7-17.5
	c-0.6-8.8-18.6-71.4-16.7-104.3c0,0-23.5-85.2-28.2-126.9"/>
<g>
	<path class="st16" d="M331.2,127.5c-0.9,5-8.3,24.7-35.6,24.6c-28.2-0.1-29.3-22.7-29.3-22.7c3.8-1.7,5.7-2.4,5.7-2.4
		s2,19.9,23.3,18.9s29.3-12,29.3-20.1C324.5,125.8,326.9,125.8,331.2,127.5z"/>
	<line class="st3" x1="255.3" y1="271.3" x2="255.3" y2="271.3"/>
	<path class="st17" d="M255.3,267.2L255.3,267.2"/>
	<path class="st17" d="M369.8,141.6c-8-4.6-16.7-7.3-25.3-10.2c-5-1.7-9.8-2.5-13.4-3.9c-0.9,5-8.3,24.7-35.6,24.6
		c-28.2-0.1-29.3-22.7-29.3-22.7c-3.5,1.6-8.8,3.4-15.9,4.9c-15,3.1-25.7,7.4-30.7,14.6c-5,7.2-14.2,50-14.2,50s13.6,11.9,38.4,13.8
		l1.4-7.4c0,0,2.6,14.9,5.1,22.3c2.5,7.5,6.6,21.9,6.6,21.9s1.6,7.9,0,10.9c-1.1,2-1.5,4.7-1.6,6.8c-0.1,1.1,0,2.1,0.1,2.7
		s0,1-0.1,1.4c-0.3,0.9-1,1.4-0.9,2.2c0.1,1.2,1,3,0.8,4.1c-0.1,0.3-0.3,0.6-0.6,0.8c-0.9,0.8-3.5,12.9-2.9,13.6
		c0.8,0.9,17,8.7,55,6c37.9-2.7,40.3-5.4,40.3-6.2c0-0.9,2.1-1.8,1.6-3.7l-2.3-6.5c-0.3-1.7-1.2-3-0.5-4.4c0.3-0.6,0.4-1.4,0.5-2.4
		c0.2-1.4,0.1-2.9-0.2-4c-0.5-2-2.5-10.4-2.4-16.2s3.2-22.4,5.2-28.8c1.6-5.1,2.8-13.2,3.9-20.4c0,0,22.1,6.1,38.2-5.1
		C391,200.2,388.3,152.1,369.8,141.6z"/>
	<path class="st17" d="M346,282.3h-0.1"/>
	<path class="st17" d="M346.4,274.7L346.4,274.7"/>
</g>
<linearGradient id="SVGID_14_" gradientUnits="userSpaceOnUse" x1="278.233" y1="2146.678" x2="274.1597" y2="2102.5" gradientTransform="matrix(1 0 0 1 25.0195 -1908.4365)">
	<stop  offset="0" style="stop-color:#59BAC2;stop-opacity:0"/>
	<stop  offset="1" style="stop-color:#387E85"/>
</linearGradient>
<path class="st18" d="M245.2,205.3l2.9-21.3c0,0,1.1,20.9,10.5,25c7.5,3.3,23.5,3.9,31.3,1.6c8.8-2.6,14.6-3.8,24-0.9
	c7.6,2.3,24.1,4.7,33.1-0.8c4.1-2.5,6.4-24.9,6.4-24.9l-0.4,21.2c0,0-2.9,13.5-4.3,18.2c-1.4,4.8-2.5,9.3-2.5,9.3
	s-18.8,1.4-35.2-2.3c-16.4-3.8-24,5.3-37.6,3.4c-13.6-1.9-21.7-2.4-21.7-2.4S244.6,209.8,245.2,205.3z"/>
<linearGradient id="SVGID_15_" gradientUnits="userSpaceOnUse" x1="197.4599" y1="2077.5642" x2="183.9871" y2="2075.2144" gradientTransform="matrix(1 0 0 1 25.0195 -1908.4365)">
	<stop  offset="0" style="stop-color:#59BAC2;stop-opacity:0"/>
	<stop  offset="1" style="stop-color:#387E85"/>
</linearGradient>
<path class="st19" d="M205.3,198.9c0,0,10.6,6.5,14.3,8.2s2.4-45.4,10.4-53.8c8-8.5,13.6-17.5,17.5-18.3c0,0-23.2,3.4-29,15.8
	C212.8,163.1,205.3,198.9,205.3,198.9z"/>
<linearGradient id="SVGID_16_" gradientUnits="userSpaceOnUse" x1="339.4719" y1="2105.8835" x2="324.4748" y2="2103.2676" gradientTransform="matrix(1 0 0 1 25.0195 -1908.4365)">
	<stop  offset="0" style="stop-color:#59BAC2;stop-opacity:0"/>
	<stop  offset="1" style="stop-color:#387E85"/>
</linearGradient>
<path class="st20" d="M353.3,185.2c0,0,0,17.5,6.1,18.5c6.1,0.9,22.1,1.6,25.2,0c0,0-12.9,7.4-31.7,1.6L353.3,185.2z"/>
<linearGradient id="SVGID_17_" gradientUnits="userSpaceOnUse" x1="297.6831" y1="2192.1362" x2="297.5994" y2="2186.3672" gradientTransform="matrix(1 0 0 1 25.0195 -1908.4365)">
	<stop  offset="0" style="stop-color:#59BAC2;stop-opacity:0"/>
	<stop  offset="1" style="stop-color:#387E85"/>
</linearGradient>
<path class="st21" d="M346.4,281.6c-26.3,3.1-17.2-0.7-45-1.9c-7.4-0.3,1.6-1.6,20.3-2.2c18.3-0.6,24.4-2.6,24.7-2.7
	c-0.1,0.9-0.3,1.8-0.5,2.4C345.2,278.5,346.1,279.9,346.4,281.6z"/>
<linearGradient id="SVGID_18_" gradientUnits="userSpaceOnUse" x1="247.8932" y1="2193.478" x2="249.2322" y2="2188.8877" gradientTransform="matrix(1 0 0 1 25.0195 -1908.4365)">
	<stop  offset="0" style="stop-color:#59BAC2;stop-opacity:0"/>
	<stop  offset="1" style="stop-color:#387E85"/>
</linearGradient>
<path class="st22" d="M254.8,278.5c0.3-0.3,0.5-0.5,0.6-0.8c0.2-1.1-0.6-2.9-0.8-4.1c0,0,24.9,12.2,37.1,12.7
	C303.9,286.8,267.4,286.1,254.8,278.5z"/>
<linearGradient id="SVGID_19_" gradientUnits="userSpaceOnUse" x1="237.7817" y1="2181.7253" x2="238.8783" y2="2178.2004" gradientTransform="matrix(1 0 0 1 25.0195 -1908.4365)">
	<stop  offset="0" style="stop-color:#59BAC2;stop-opacity:0"/>
	<stop  offset="1" style="stop-color:#387E85"/>
</linearGradient>
<path class="st23" d="M255.4,271.3c0.1-0.4,0.2-0.8,0.1-1.4c-0.1-0.6-0.2-1.6-0.1-2.7c0.3,0.1,9.4,3.7,15.2,4.8
	C276.5,273.3,266,273.3,255.4,271.3z"/>
<linearGradient id="SVGID_20_" gradientUnits="userSpaceOnUse" x1="274.9144" y1="2199.9385" x2="274.0079" y2="2209.6079" gradientTransform="matrix(1 0 0 1 25.0195 -1908.4365)">
	<stop  offset="0" style="stop-color:#59BAC2;stop-opacity:0"/>
	<stop  offset="1" style="stop-color:#387E85"/>
</linearGradient>
<path class="st24" d="M253.3,281.7c0,0,26.9,13.4,58.7,10s36.6-3.6,36.6-3.6s-1.3,1.4-1.6,3.3c0,0.3,0,0.7-0.3,0.9
	c-1.6,1.4-10,4.3-41.4,5.9c-31.6,1.9-48.4-3.5-52.1-5.2c-1.4-0.6-1.8-0.8-1.5-2.4C252.3,288,253.3,281.7,253.3,281.7z"/>
<linearGradient id="SVGID_21_" gradientUnits="userSpaceOnUse" x1="290.4823" y1="1809.6628" x2="289.8952" y2="1836.1808" gradientTransform="matrix(1 0 0 1 8.3398 -1715.7383)">
	<stop  offset="0" style="stop-color:#C47958"/>
	<stop  offset="1" style="stop-color:#F8AD84"/>
</linearGradient>
<path class="st25" d="M282.3,95.4l-1.7,19.2c0,0,1.4,5.2,12.9,6.8c11.5,1.6,21.8-3.9,22.6-5.5L314.9,96L282.3,95.4z"/>
<path class="st0" d="M335.2,58.1c-3.4-2.7-6,1.5-6,1.5c0.4-6.7-5.6-18.5-16.8-26.4c-3.9-2.8-9.8-2.2-15.9-0.2
	c-5.3-1.4-10.3-1.6-13.7,0.8c-11.1,8-17.2,19.8-16.8,26.4c0,0-2.6-4.1-6-1.5c-3.4,2.7-1.4,13.4,2.3,16.4c2.9,2.4,5.5,1.9,5.5,1.9
	s-0.2,19,10.2,25.8c10.4,6.8,14.6,8.9,20,8.9c8.5,0,15.9-6.7,18.5-8.5c10.4-6.8,10.6-24.8,10.6-24.8s2.3,0.3,5.9-3
	C337.7,71.5,338.7,60.7,335.2,58.1z"/>
<path class="st26" d="M292.2,80.7c0,0,1.3,1.4,3.4,1.5c5.7,0.4,6.5-1.4,7.2-2s0.2,4.3-4.7,4.8c-3.7,0.4-5.7-1.8-5.8-3.2
	C292.2,80.4,292.2,80.7,292.2,80.7"/>
<path class="st27" d="M265.4,63.4c0,0-1.8-4.2-3.8-3.4s-1.6,4.1-1.6,4.1s0.1,1.1,2,1.4c2.9,0.3,4.6,6.8,4.7,8.7
	C266.9,76.2,266.3,65.5,265.4,63.4"/>
<path class="st27" d="M330.3,63.4c0,0,1.8-4.2,3.8-3.4s1.6,4.1,1.6,4.1s-0.1,1.1-2,1.4c-2.9,0.3-4.6,6.8-4.7,8.7
	C328.9,76.2,329.5,65.5,330.3,63.4"/>
<path class="st28" d="M323.4,61c0,0-5-4-8.2-4.3s-7.4,1-8.8,1.1s-1.5-3.5-0.9-3.8s7.3-1.3,11.6,0.7C320.4,56,322.2,59,323.4,61z"/>
<path class="st28" d="M317.9,65.9c0,0-2.5-3.7-5.7-4s-6.3,2-6.9,2.7c-0.7,0.7,3.8-1.1,6.6-0.6C314.6,64.5,318.5,66.8,317.9,65.9"/>
<path class="st28" d="M313.7,63.6c0,0,1.2,4.7-0.8,6.1c-2,1.5-3.3-0.4-3.9-1.7c-0.6-1.3-0.2-4.4,0.3-5
	C309.9,62.4,313.7,63.6,313.7,63.6"/>
<path class="st28" d="M315.3,17.5c0,0,0.4,0.8,2.1,0.5s15.7,1.2,18.3,10.5c1.9,6.8-0.3,8.1,0.7,9.7c1.3,1.9,5.7-0.3,5.1,7.8
	s-4.2,8.1-4.2,8.1s3.9,1.3,1.9,5.9c-0.4,1-1.9,5.1-1.9,4c0-1.8-0.6-5.3-2.8-6.3c-2.4-1.1-5.4,1.3-5.4,2.8c0,0-0.4,7.3-1.7,9.7
	l-0.8,0.2c0,0,0.3-16.1-2.5-21c0,0-11.2-22.1-11.1-28.1C313.1,15.1,315.3,17.5,315.3,17.5z"/>
<path class="st29" d="M304.4,101.9c-7.3-1.4-13,0-13,0s2.7-2,5.7-2C301.5,100,304.4,101.9,304.4,101.9z"/>
<path class="st29" d="M288.1,56.7c0,0,4.8,1.8,4.8,6.1c0,4.2,0.5,6.8,0,6.8c-1.2,0.1,0-4.9-5.7-5.9c-5.6-0.9-9.5,2.7-9.5,2.7
	s-6.4-2.1-4.8-5.5C274.4,57.4,282.9,54.6,288.1,56.7z"/>
<path class="st28" d="M272.7,61c0,0,5-4,8.2-4.3s7.4,1,8.8,1.1s1.5-3.5,0.9-3.8s-7.3-1.3-11.6,0.7C275.7,56,273.9,59,272.7,61z"/>
<path class="st28" d="M277.5,66.6c0,0,2.3-3.8,5.5-4.3s6.4,1.6,7.1,2.3c0.7,0.7-3.9-0.9-6.6-0.2C280.8,65,277,67.6,277.5,66.6"/>
<path class="st28" d="M281.6,64.1c0,0-0.9,4.7,1.2,6.1c2.1,1.3,3.2-0.6,3.8-1.9c0.6-1.3,0-4.4-0.6-4.9
	C285.3,62.7,281.6,64.1,281.6,64.1"/>
<path class="st27" d="M271,47.9c0,0,8.6-0.3,10.8-4.3c2.1-4,0.9-7.5,3.6-7.4c2.8,0,2.8-0.2,2.8-0.2s3.7-0.9,5.1,1.5
	c1.3,2.1,1,8,5.8,8.1c3.5,0.1-1.4,5.9,11.9,6.1c13.4,0.2,12.4-1.5,12.4-1.5l-30.3-24.5l-13.7,6.4L271,47.9z"/>
<path class="st28" d="M288,35.7c0,0,6.7-4.6,7.4,0.2c0.7,4.8-0.5,6.9,3.6,8.4c2.5,0.9,4.9-0.2,4.9-0.2c-2.2,9.8,14.5,9.5,16.9,8.3
	c3.5-1.7,6.8-3.6,6.5-9.3c0,0-5.9,3-6-3c-0.2-6,4.1-7.6,2.1-13.1c-1.8-4.9-6.2-6.4-6.2-6.4s0.7-8.8-8.1-12.7
	c-6.1-2.7-16.5-4.1-25.6,10.4c0,0-15.5-4-22.8,6.2c-4.1,5.7,0.5,15,0.5,15s-6.3,3.3-5.9,8.2c0.4,4.9,3.3,14.8,3.3,14.8
	s0.1-3.8,2.7-4.4c5.1-1.3,6.1,5.4,6.5,7.9l2.1,3.4l-0.3-11.2c0,0,1.7-3.2,1.3-7.4c-0.4-4.2-0.2-2.6-0.2-2.6s8.6-0.3,10.2-7
	C282.7,34.5,284.5,34.9,288,35.7z"/>
<path class="st30" d="M328.1,42.4c-0.2-0.4-0.7-0.6-1.2-0.4h-0.1c-0.5,0.2-1.1,0.4-1.6,0.5c-0.6,0.1-1.1,0.1-1.5,0s-0.8-0.3-1-0.7
	s-0.4-0.9-0.5-1.4V40c0-0.1,0-0.2,0-0.2v-0.2c0-0.3,0-0.7,0-1c0.1-0.6,0.1-1.1,0.3-1.7c0.3-1.2,0.8-2.3,1.4-3.5
	c0.3-0.6,0.5-1.3,0.7-2c0.1-0.3,0.1-0.7,0.2-1.1c0-0.4,0.1-0.7,0-1.1c0-0.7-0.2-1.5-0.4-2.2l-0.2-0.5v-0.1l0,0l0,0v-0.1v-0.1
	l-0.1-0.2l-0.4-0.9c-0.2-0.6-0.7-1.2-1.1-1.8c-0.2-0.3-0.5-0.5-0.7-0.8s-0.5-0.5-0.7-0.8c-0.5-0.5-1.1-0.9-1.7-1.3
	c-0.4-0.3-0.8-0.5-1.3-0.7c0-0.9-0.1-1.6-0.3-2.5c-0.2-1-0.5-2-0.9-3c-0.2-0.5-0.4-0.9-0.7-1.4c-0.3-0.4-0.5-0.9-0.9-1.3
	c-0.6-0.8-1.3-1.6-2.1-2.3c-0.8-0.7-1.6-1.3-2.5-1.8l-1.4-0.7c-0.5-0.2-0.9-0.4-1.4-0.6c-1-0.3-2-0.6-2.9-0.8c-1-0.2-2-0.3-3-0.4
	c-0.5,0-1,0-1.5,0L299.1,5c-1,0.2-2,0.4-3,0.7c-0.5,0.1-1,0.3-1.4,0.5c-0.5,0.2-1,0.4-1.4,0.7L292,7.7c-0.4,0.3-0.8,0.6-1.2,0.9
	c-0.8,0.6-1.6,1.3-2.3,1.9c-0.7,0.7-1.4,1.4-2.1,2.2c-0.6,0.8-1.2,1.6-1.8,2.3l-1.4,2c-0.7-0.1-1.4-0.2-2-0.3
	c-0.9-0.1-1.7-0.2-2.6-0.2s-1.7-0.1-2.6,0c-0.9,0-1.7,0.1-2.6,0.2s-1.7,0.3-2.6,0.4c-0.8,0.2-1.7,0.4-2.5,0.8
	c-0.4,0.2-0.8,0.3-1.2,0.5l-1.2,0.6l-0.6,0.3l-0.5,0.4l-1.1,0.7c-0.7,0.6-1.3,1.2-2,1.8l-0.8,1l-0.4,0.5l-0.1,0.1
	c-0.3,0.2-0.3,0.2-0.3,0.2l-0.2,0.3c-0.4,0.7-0.8,1.6-1.1,2.5c-0.2,0.9-0.4,1.7-0.4,2.6s0,1.8,0.1,2.6c0.1,0.9,0.3,1.7,0.5,2.6
	c0.4,1.6,0.9,3.1,1.6,4.5c-0.8,0.5-1.6,1.1-2.4,1.7c-0.8,0.7-1.6,1.6-2.2,2.5c-0.3,0.5-0.5,1-0.7,1.5l-0.2,0.8l-0.1,0.8
	c0,0.6,0,1.2,0.1,1.7l0.3,1.6l0.3,1.6c0.1,0.5,0.2,1.1,0.3,1.6l0.8,3.1c0.3,1.1,0.6,2.1,0.9,3.1s0.6,2.1,0.9,3.1
	c-0.3-1-0.5-2.1-0.8-3.1c-0.2-1-0.5-2.1-0.7-3.1l-0.7-3.2c-0.1-0.5-0.2-1-0.3-1.6l-0.2-1.6l-0.2-1.6c-0.1-0.5-0.1-1-0.1-1.5l0.1-0.8
	l0.2-0.7c0.2-0.5,0.4-0.9,0.7-1.4c0.6-0.9,1.3-1.6,2.1-2.3c0.8-0.7,1.7-1.3,2.6-1.8c0.2-0.1,0.3-0.3,0.2-0.5l0,0
	c-0.7-1.5-1.2-3.1-1.6-4.7c-0.2-0.8-0.3-1.6-0.4-2.4c-0.1-0.8-0.1-1.6-0.1-2.5c0-0.8,0.2-1.6,0.4-2.4c0.1-0.4,0.3-0.7,0.4-1.1
	s0.4-0.7,0.6-1.1l0.2-0.3l0.1-0.1l0.1-0.1l0.4-0.5l0.8-0.9c0.6-0.6,1.2-1.1,1.8-1.6l1-0.7l0.5-0.3l0.6-0.3l1.1-0.5
	c0.4-0.2,0.8-0.3,1.2-0.4c0.8-0.3,1.6-0.5,2.4-0.7s1.6-0.3,2.4-0.4s1.6-0.1,2.5-0.1c0.8,0,1.7,0,2.5,0.1s1.6,0.1,2.5,0.3
	c0.8,0.1,1.6,0.3,2.4,0.5c0.3,0.1,0.6,0,0.8-0.3l0,0l1.6-2.4l1.8-2.2c0.7-0.7,1.3-1.4,2-2s1.4-1.3,2.2-1.8c0.4-0.3,0.7-0.6,1.1-0.8
	l1.2-0.7c0.4-0.3,0.8-0.4,1.3-0.6c0.4-0.2,0.8-0.4,1.3-0.5c0.9-0.3,1.8-0.5,2.7-0.6l1.4-0.1c0.5,0,0.9,0,1.4,0
	c0.9,0.1,1.8,0.2,2.7,0.4c0.9,0.2,1.8,0.5,2.7,0.8c0.4,0.2,0.9,0.4,1.3,0.5l1.2,0.6c0.8,0.5,1.6,1,2.2,1.6c0.7,0.6,1.3,1.3,1.8,2
	c0.3,0.4,0.5,0.8,0.7,1.1c0.2,0.4,0.4,0.8,0.6,1.2c0.4,0.8,0.6,1.7,0.8,2.6c0.2,0.9,0.2,1.8,0.2,2.7c0,0.4,0.2,0.8,0.6,1l0,0
	c0.5,0.2,1,0.5,1.5,0.8s1,0.7,1.4,1.1c0.2,0.2,0.4,0.4,0.6,0.6s0.4,0.4,0.6,0.7c0.3,0.5,0.7,0.8,0.9,1.5l0.4,0.9l0.1,0.2l0,0l0,0
	v0.1l0.1,0.4c0.2,0.6,0.3,1.1,0.3,1.7c0,0.3,0,0.6,0,0.8c-0.1,0.3-0.1,0.6-0.2,0.8c-0.1,0.6-0.3,1.1-0.6,1.7
	c-0.5,1.2-1.1,2.4-1.4,3.8c-0.2,0.7-0.3,1.4-0.3,2.1c0,0.4,0,0.7,0,1v0.2V40l0.1,0.5c0.1,0.7,0.3,1.5,0.8,2.2s1.3,1.3,2.1,1.5
	c0.8,0.2,1.6,0.1,2.3,0c0.3-0.1,0.5-0.1,0.8-0.2c0,0.2,0,0.5-0.1,0.7c-0.1,0.6-0.2,1.3-0.5,1.9c-0.3,0.6-0.6,1.1-1,1.6
	s-0.9,0.9-1.4,1.3c-0.5,0.4-1.1,0.7-1.7,1.1l-0.9,0.5c-0.2,0.1-0.3,0.2-0.4,0.2s-0.3,0.1-0.4,0.1c-0.6,0.1-1.3,0.2-2,0.3
	s-1.4,0.1-2.1,0.1c-1.4,0-2.8-0.1-4.2-0.4c-1.4-0.3-2.7-0.6-3.9-1.2c-1.2-0.6-2.2-1.4-2.8-2.5c-0.3-0.5-0.4-1.1-0.5-1.8
	c-0.1-0.6,0-1.3,0.1-1.9l0,0c0-0.2,0-0.3-0.1-0.5c-0.2-0.4-0.7-0.6-1.1-0.4c-0.3,0.2-0.8,0.3-1.2,0.4l-0.7,0.1h-0.7
	c-0.4,0-0.8,0-1.3-0.2l-0.4-0.1H299l0,0l-0.2-0.1c-0.2-0.1-0.4-0.2-0.6-0.3c-0.4-0.2-0.8-0.4-1.1-0.7c-0.3-0.3-0.5-0.6-0.6-1
	c-0.3-0.8-0.3-1.8-0.4-2.8c0-0.5-0.1-1-0.1-1.5s-0.1-1-0.2-1.5c-0.1-0.6-0.3-1.2-0.7-1.7c-0.4-0.5-1.1-0.9-1.7-1
	c-1.2-0.2-2.3,0.2-3.3,0.6c-0.9,0.4-1.7,0.8-2.5,1.4c-0.9-0.2-1.8-0.4-2.9-0.3c-0.6,0-1.2,0.2-1.7,0.6c-0.5,0.3-0.8,0.8-1.2,1.3
	c-0.3,0.5-0.5,0.9-0.7,1.4s-0.4,1-0.5,1.5c-0.2,0.5-0.3,1-0.4,1.5s-0.3,0.9-0.4,1.4c-0.2,0.4-0.4,0.9-0.7,1.2l-0.4,0.6l-0.5,0.5
	c-0.3,0.3-0.7,0.6-1.1,0.9c-0.4,0.3-0.8,0.5-1.2,0.8c-0.4,0.2-0.9,0.4-1.3,0.6c-0.5,0.2-0.9,0.3-1.4,0.5c-0.8,0.2-1.7,0.4-2.6,0.5
	l0,0l0,0c0,0,0,0,0-0.1c-0.1-0.1-0.1-0.2-0.3-0.2c-0.1,0-0.3,0.1-0.3,0.2c0,0.1,0,0.1,0,0.1l0,0l0,0v0.1v0.1v0.2l0.1,0.7l0.1,1.3
	c0.1,0.5,0.1,0.9,0.1,1.3v0.7v0.7c0,0.4,0,0.9-0.1,1.3c0,0.4-0.1,0.9-0.2,1.3c-0.1,0.4-0.2,0.9-0.4,1.3c-0.1,0.4-0.3,0.8-0.5,1.2
	l0,0V58l0.5,11.2l0.3-11.2c0.2-0.4,0.4-0.8,0.5-1.2s0.3-0.9,0.4-1.3c0.1-0.4,0.2-0.9,0.3-1.3c0.1-0.5,0.1-0.9,0.2-1.4v-0.7v-0.7
	c0-0.5,0-0.9-0.1-1.4l-0.1-1.3v-0.3c0.9-0.1,1.8-0.2,2.8-0.4c0.5-0.1,1-0.3,1.5-0.4c0.5-0.2,1-0.4,1.4-0.6c0.5-0.2,0.9-0.5,1.3-0.8
	s0.8-0.6,1.2-1l0.5-0.6c0.2-0.2,0.3-0.4,0.5-0.6c0.3-0.4,0.5-0.9,0.8-1.4c0.2-0.5,0.4-1,0.5-1.5s0.3-1,0.4-1.4
	c0.1-0.5,0.3-0.9,0.5-1.4c0.2-0.4,0.4-0.9,0.6-1.2c0.3-0.4,0.5-0.7,0.9-0.9c0.3-0.2,0.7-0.4,1.1-0.4c0.8-0.1,1.8,0.2,2.8,0.4
	c0.2,0,0.3,0,0.5-0.1l0,0c0.8-0.5,1.7-1,2.5-1.3c0.9-0.3,1.8-0.6,2.6-0.5c0.4,0.1,0.6,0.2,0.9,0.5c0.2,0.3,0.3,0.7,0.4,1.1
	c0.1,0.5,0.1,1,0.2,1.4c0,0.5,0.1,1,0.1,1.5c0.1,1,0,2,0.4,3.2c0.2,0.6,0.5,1.1,1,1.5c0.4,0.4,0.9,0.7,1.4,1
	c0.2,0.1,0.5,0.2,0.7,0.3l0.2,0.1l0,0h0.1h0.1l0.4,0.1c0.4,0.1,1.1,0.2,1.7,0.2c0.3,0,0.6,0,0.8,0c0.3,0,0.5-0.1,0.8-0.1
	c0.1,0,0.2,0,0.3-0.1c0,0.4,0,0.7,0,1.1c0,0.8,0.3,1.6,0.6,2.4c0.7,1.5,2.1,2.6,3.5,3.3s2.9,1.1,4.3,1.4c1.5,0.3,3,0.4,4.4,0.4
	c0.7,0,1.5,0,2.2-0.1s1.5-0.1,2.3-0.3c0.2-0.1,0.4-0.1,0.6-0.2c0.3-0.1,0.4-0.2,0.6-0.3l1-0.5c0.7-0.4,1.3-0.7,1.9-1.2
	s1.2-1,1.8-1.6c0.5-0.6,1-1.3,1.3-2.1c0.3-0.7,0.5-1.5,0.6-2.3c0.1-0.4,0.1-0.8,0.1-1.2v-1.2C328.2,42.6,328.2,42.5,328.1,42.4z"/>
<linearGradient id="SVGID_22_" gradientUnits="userSpaceOnUse" x1="265.5633" y1="2262.4192" x2="249.2257" y2="2307.8501" gradientTransform="matrix(1 0 0 1 25.0195 -1908.4365)">
	<stop  offset="0" style="stop-color:#2F2556"/>
	<stop  offset="0.8505" style="stop-color:#3F266B;stop-opacity:0.1495"/>
	<stop  offset="1" style="stop-color:#42266F;stop-opacity:0"/>
</linearGradient>
<path class="st31" d="M279.6,331.2c0,0,5,19.8,9.8,22.1c3.5,1.7,9.2,2.6,13.7,1.9c1.7-0.3,4.1,0.5,4.1,1.4c0,0.7-8.7,3.4-8.7,3.4
	c-10,47.7-11.3,48.8-17.4,72.5c-6.8,26.3-0.3-20.9,0.9-43.7C283.4,366.1,280.2,335.6,279.6,331.2z"/>
<path class="st3" d="M204.8,230.9c1.9,5.7,5.4,10.3,11.2,11.7c7,1.6,12.4-2.1,17.2-7.4"/>
<linearGradient id="SVGID_23_" gradientUnits="userSpaceOnUse" x1="184.0816" y1="2281.1462" x2="175.3738" y2="2284.2871" gradientTransform="matrix(1 0 0 1 25.0195 -1908.4365)">
	<stop  offset="0" style="stop-color:#C97A52"/>
	<stop  offset="1" style="stop-color:#DA9473;stop-opacity:0"/>
</linearGradient>
<path class="st32" d="M219.1,387.1c0,0-0.9,0.7-2.8-2.2c-1.9-3-4.7-6.2-7-7.8c-2.4-1.6-4.7-2.8-5.2-5.5s-1.3-9.2-2.5-12.1
	s-2.4-1.5-2.4,1.1c0,2.7,2.5,13.9,3.3,14.6s7.8,5.5,10.2,7.6C214.9,384.9,217.3,388.3,219.1,387.1z"/>
<linearGradient id="SVGID_24_" gradientUnits="userSpaceOnUse" x1="192.1512" y1="2278.1765" x2="184.2141" y2="2278.281" gradientTransform="matrix(1 0 0 1 25.0195 -1908.4365)">
	<stop  offset="0" style="stop-color:#D48863"/>
	<stop  offset="1" style="stop-color:#F8AD83;stop-opacity:0"/>
</linearGradient>
<path class="st33" d="M201.1,358.6c0,0,2.4,11.3,3,13c0.7,1.7,1,2.5,4,4.7c2.9,2.2,6.3,4.9,7.1,6.8s3,5.1,4.2,3.6s1.2-6.4-3.4-12.3
	c-4.6-5.8-4.1-4.4-5.1-7.5s-0.2-9.3,0-11.5S200.1,348.9,201.1,358.6z"/>
<linearGradient id="SVGID_25_" gradientUnits="userSpaceOnUse" x1="191.0179" y1="2270.2576" x2="193.9129" y2="2269.2571" gradientTransform="matrix(1 0 0 1 25.0195 -1908.4365)">
	<stop  offset="0" style="stop-color:#C97A52"/>
	<stop  offset="1" style="stop-color:#DA9473;stop-opacity:0"/>
</linearGradient>
<path class="st34" d="M214.9,353.2c0,0,0.5,6.1,1.1,8.5c1.2,4.5,1.8,6.2,4.8,7c2.4,0.6,3.1-1.8,3.1-1.8s-4.3-1-6.1-6.5
	C216.1,354.9,214.9,353.2,214.9,353.2z"/>
<linearGradient id="SVGID_26_" gradientUnits="userSpaceOnUse" x1="186.6394" y1="2271.3044" x2="182.6422" y2="2271.3044" gradientTransform="matrix(1 0 0 1 25.0195 -1908.4365)">
	<stop  offset="0" style="stop-color:#C97A52"/>
	<stop  offset="1" style="stop-color:#DA9473;stop-opacity:0"/>
</linearGradient>
<path class="st35" d="M210.5,355.9c0,0-0.4,7.7,0,9.8c0.4,2.1,1.1,3.3,1.2,3.7c0.1,0.5-0.3,1.5-1.7,0.8s-2.8-11.5-1.7-13.7
	C209.5,354.2,210.5,355.9,210.5,355.9z"/>
<linearGradient id="SVGID_27_" gradientUnits="userSpaceOnUse" x1="178.7333" y1="2273.981" x2="175.1816" y2="2274.2944" gradientTransform="matrix(1 0 0 1 25.0195 -1908.4365)">
	<stop  offset="0" style="stop-color:#C97A52"/>
	<stop  offset="1" style="stop-color:#DA9473;stop-opacity:0"/>
</linearGradient>
<path class="st36" d="M201.1,358.6c0,0,1.3,2.7,1.6,4.9c0.3,2.2,1.2,7.9,1.5,8.4s-1,2.5-1.9,1.2c-1-1.3-3.3-14.2-2.5-14.9
	C200.6,357.4,201.1,358.6,201.1,358.6z"/>
<linearGradient id="SVGID_28_" gradientUnits="userSpaceOnUse" x1="201.1732" y1="2194.7639" x2="194.3554" y2="2192.9458" gradientTransform="matrix(1 0 0 1 25.0195 -1908.4365)">
	<stop  offset="0" style="stop-color:#C97A52"/>
	<stop  offset="1" style="stop-color:#DA9473;stop-opacity:0"/>
</linearGradient>
<path class="st37" d="M214,323.9c0,0-4.8-3.5-1-14.7c3.8-11.3,12.4-45.3,12.5-52c0.2-6.7,5.7-12.6,5.4-9.8
	c-0.2,2.8-1.5,18.7-2.8,25.6C226.9,279.4,214.1,316.2,214,323.9z"/>
<linearGradient id="SVGID_29_" gradientUnits="userSpaceOnUse" x1="229.6103" y1="2393.2498" x2="226.8565" y2="2444.9407" gradientTransform="matrix(1 0 0 1 25.0195 -1908.4365)">
	<stop  offset="0" style="stop-color:#382556"/>
	<stop  offset="1" style="stop-color:#42266F;stop-opacity:0"/>
</linearGradient>
<path class="st38" d="M234.6,475.8c0,0,1.8,12.4,12.5,11.4c15.8-1.5,14.4-9.7,18.7-13.2c2.8-2.2,7.8,0,8.1,13.9
	c0.3,13.9,0.9,26.2-4.1,50.5c-1.5,7.6-28.4,15.4-29.9-1.9C238.4,519.3,236.7,484.2,234.6,475.8z"/>
<linearGradient id="SVGID_30_" gradientUnits="userSpaceOnUse" x1="257.2736" y1="2332.2993" x2="250.3808" y2="2330.6812" gradientTransform="matrix(1 0 0 1 25.0195 -1908.4365)">
	<stop  offset="0" style="stop-color:#2F2556"/>
	<stop  offset="1" style="stop-color:#42266F;stop-opacity:0"/>
</linearGradient>
<path class="st39" d="M272.5,470c0,0-3.4-1.4-2.1-17.1s9.9-54.6,11.8-67.1c2-12.5,13.2-11,10.3,0.7S276.7,449,272.5,470z"/>
<linearGradient id="SVGID_31_" gradientUnits="userSpaceOnUse" x1="291.1777" y1="2328.7209" x2="299.8393" y2="2327.593" gradientTransform="matrix(1 0 0 1 25.0195 -1908.4365)">
	<stop  offset="0" style="stop-color:#2F2556"/>
	<stop  offset="1" style="stop-color:#42266F;stop-opacity:0"/>
</linearGradient>
<path class="st40" d="M306.7,355.9c0,0,7,14.6,10.3,31.2s19.8,86.6,21.5,91.2c1.7,4.6-4.6,5.3-4.6,5.3S305.1,378.6,306.7,355.9z"/>
<linearGradient id="SVGID_32_" gradientUnits="userSpaceOnUse" x1="326.6135" y1="2402.2249" x2="328.7838" y2="2447.7964" gradientTransform="matrix(1 0 0 1 25.0195 -1908.4365)">
	<stop  offset="0" style="stop-color:#382556"/>
	<stop  offset="1" style="stop-color:#42266F;stop-opacity:0"/>
</linearGradient>
<path class="st41" d="M331.5,474.2c0,0,6.5,5.9,7.3,7.4s6,6.6,13.1,7.9s15.6-3.8,16.7-11.5c0,0,3.4,39.7,3.7,46.6
	c0.3,6.9-27.2,12.9-34.3,0c0,0-2-10.7-3-19.7s-0.9-17.4-0.8-19.4C334.3,483.5,332.3,476.1,331.5,474.2z"/>
<path class="st10" d="M215.8,384.4c0,0,1.3-0.9,1.7-0.7c0.4,0.2,1.9,1.9,2.1,2.7c0.1,0.8-0.7,0.9-0.8,1
	C218.7,387.4,216.8,386.9,215.8,384.4z"/>
<path class="st10" d="M220.1,364.7c0,0,2.4-1.3,3-0.3c0.7,1.3,0.9,2.6,0.6,3.3c-0.3,0.6-1.8,1.3-2.4,0.9
	C220.4,368.1,219.2,365,220.1,364.7z"/>
<linearGradient id="SVGID_33_" gradientUnits="userSpaceOnUse" x1="194.8877" y1="2267.6033" x2="195.1621" y2="2269.3271" gradientTransform="matrix(1 0 0 1 25.0195 -1908.4365)">
	<stop  offset="0" style="stop-color:#C97A52"/>
	<stop  offset="1" style="stop-color:#DA9473;stop-opacity:0"/>
</linearGradient>
<path class="st42" d="M222.1,357.9c0,0-0.7,2-3.3,1.4c-2.5-0.5-0.7,0.6,0.3,0.9C220,360.5,222.3,360.4,222.1,357.9z"/>
<linearGradient id="SVGID_34_" gradientUnits="userSpaceOnUse" x1="187.7029" y1="2262.9521" x2="186.2153" y2="2260.6426" gradientTransform="matrix(1 0 0 1 25.0195 -1908.4365)">
	<stop  offset="0" style="stop-color:#C97A52"/>
	<stop  offset="1" style="stop-color:#DA9473;stop-opacity:0"/>
</linearGradient>
<path class="st43" d="M210.5,356.7c0,0-2.4-2.4,0.2-4.2c2.7-1.8,4.7-1.2,4.2,0.7C214.9,353.2,210.5,354.1,210.5,356.7z"/>
<g id="XMLID_5_">
	<g>
		<path class="st44" d="M294.6,89.1c-0.7,0-3.9,0.7-6.3,1l0.1,1.2c0,0,0,0,0.1,0c0.9,0.4,6.3,0.4,6.3,0.4s1.1,0.8,3.2,0.7
			c2.3-0.2,2.8-0.9,3.8-1.1c1.4-0.1,3.7,0,3.7,0h0.6V90c-0.4-0.1-0.8-0.2-1.3-0.3c-2.3-0.6-4.7-0.9-6.3,0l-0.8,0.4
			C297.7,90,296.6,89.1,294.6,89.1z"/>
		<path class="st44" d="M306.5,91.2c0,0-3.2,1.5-6.1,2.7c-1.6,0.7-4.9,0.8-6.4,0.2c-1.5-0.6-5-2.5-5.5-2.8h-0.1l-0.1-1.2
			c-1,0.1-1.9,0.2-2.5,0.1c0,0,2.1,2.4,2.8,3.3c1.7,2.1,4.6,4.5,9.4,3.9c4.7-0.6,7-2.5,8.6-4.2c1.6-1.8,2.6-3,2.6-3
			c-1.5,0.1-2,0.1-3.1-0.2v1.3L306.5,91.2z"/>
		<path class="st45" d="M300.4,93.9c2.9-1.2,6.1-2.7,6.1-2.7h-0.4h-0.6c0,0-2.3-0.1-3.7,0c-1,0.1-1.6,0.9-3.8,1.1
			c-2.2,0.2-3.2-0.7-3.2-0.7s-5.4,0-6.3-0.4c0.5,0.3,4,2.2,5.5,2.8C295.5,94.7,298.8,94.6,300.4,93.9z"/>
	</g>
</g>
<g>
	<g id="XMLID_3_">
		<path class="st46" d="M211.5,650.6L211.5,650.6c2.3,0.8,8.3,1.9,13.9,1.9c6.6,0,14.7-3,18-5.7c3.3-2.6,6-6.3,9.1-7.7
			s5.4-1.4,7.4-2.5s2.6-2.4,2.6-3.6c0.4,2.9-2.7,4.7-6.4,5.5c-4,0.8-8.3,5.1-10.1,6.9c-3.3,3.4-11.5,7.9-21.7,7.6
			c-10.5-0.3-17.8-3.4-18.5-6.3C205.9,647,206.8,649,211.5,650.6z"/>
		<path class="st47" d="M259.4,623.6c0,0-0.4-1.8-1.1-4.2l0,0c0-0.2,0-1.4-0.1-1.5l0,0c0.3-1.5,0.8-4.9,0.4-5.7
			c0.5,1.2-0.5,3.9-1.2,4.7c-1.2,1.3-4.9,1.8-6.3,1.2c-2.2-1-4.6-2.4-6.4-1.6c-1.5,0.6-3.5,3-3.8,3.3l0,0c-2.9,4.8-7,11.3-7,11.6
			c0,0.4,0.3,2,0.3,2s-5.8-1.2-9.8-3.1c-0.5-0.2-0.9-0.5-1.3-0.7c-0.2,0.2-0.5,0.4-0.7,0.5c-2.1,1.4-6.8,4.3-10.5,7.2l0,0
			c-0.3,0.4-2.3,2.9,0.4,4.1c3,1.3,14.4,1.8,18.7-0.4c1.8-0.9,3.9-2.1,6.1-2.9c2.9-1.1,6-1.6,8.6,0.1c0.2,0.1,0.4,0.3,0.6,0.4
			c4-2.9,8.8-6,11.4-7c1.6-0.7,2.2-2.1,2.4-3.6C260.2,625.9,259.4,623.6,259.4,623.6z"/>
		<path class="st48" d="M258.6,612.8c0.1,1.6-0.6,3.3-1.3,4c-1.2,1.3-4.9,1.8-6.3,1.2c-2.2-1-4.6-2.4-6.4-1.6
			c-1.5,0.6-3.5,3-3.8,3.3c0.4-0.7,0.8-1.4,1.2-2c0.3-0.5,0.6-0.9,0.9-1.2c1.4-1.6,3.3-2.1,5.5-1.1c2.9,1.3,6.2,1.9,7.3,1.1
			c0.7-0.5,1-2.3,1.4-4.1c0.2-1.1,0.6-1.2,1.2-0.7C258.4,611.9,258.6,612.2,258.6,612.8z"/>
		<path class="st48" d="M245.6,638.3c0.2,0.1,0.4,0.3,0.6,0.4c-2.2,1.6-4.2,3.2-5.3,4.3c-3,3-12.4,5.7-12.4,5.7
			c-8.8,0.9-14.3,0.4-17.6-0.7c0.4-1.1,1-2.3,1-3c0-1.3-2.4-3.1-3.6-1.9c-0.6,0.6-1.2,1.4-1.6,2.2c-0.5-0.8-0.6-1.6-0.5-2.3
			c0-0.1,0.1-0.3,0.2-0.4c0.6-1.2,2.8-3.2,5.5-5.1c-0.3,0.4-2.3,2.9,0.4,4.1c3,1.3,14.4,1.8,18.7-0.4c1.8-0.9,3.9-2.1,6.1-2.9
			C240,637.1,243.1,636.6,245.6,638.3z"/>
		<path class="st49" d="M240.8,619.8c-2.9,4.8-7,11.3-7,11.6c0,0.4,0.3,2,0.3,2s-5.8-1.2-9.8-3.1c3.3-3.8,9.8-15.2,9.8-15.2
			s0.7-0.8,0.1-1.2c0.2-0.6,0.6-1.3,1-1.6c0.7-0.6,2.9-0.5,5,0.6c2.1,1,2.8,1.7,2.8,2.4c0,0.6-0.4,1.3-0.4,1.3l0.2,0.1
			c-0.3,0.4-0.6,0.8-0.9,1.2C241.6,618.4,241.2,619.1,240.8,619.8L240.8,619.8z"/>
		<path class="st48" d="M240.3,615.1c0.2,0.1,0.3,0.4,0.2,0.7l-1.3,2.8c-0.1,0.2-0.4,0.4-0.7,0.2l-3.6-1.7c-0.2-0.1-0.3-0.4-0.2-0.7
			l1.3-2.8c0.1-0.2,0.4-0.4,0.7-0.2L240.3,615.1z"/>
		<path class="st48" d="M234.2,613.9c0.5,0.4-0.1,1.2-0.1,1.2s-6.5,11.4-9.8,15.2c-0.5-0.2-0.9-0.5-1.3-0.7
			c3.9-3.5,9.5-15.3,9.5-15.3s0.3-0.9,1.3-0.6C234.1,613.8,234.2,613.9,234.2,613.9z"/>
		<path class="st50" d="M262.3,632.3c-0.7-2.1-2.1-3.4-2.4-4.2c-0.2,1.5-0.8,3-2.4,3.6c-2.6,1-7.4,4.1-11.4,7
			c-2.2,1.6-4.2,3.2-5.3,4.3c-3,3-12.4,5.7-12.4,5.7c-8.8,0.9-14.3,0.4-17.6-0.7c0.4-1.1,1-2.3,1-3c0-1.4-2.4-3.1-3.6-1.9
			c-0.6,0.6-1.2,1.4-1.6,2.2c-0.5-0.8-0.6-1.6-0.5-2.3c0-0.1,0.1-0.3,0.2-0.4l0,0c0,0-1.2,1.4-0.5,4.2l0,0c0.1,0.2,1,2.2,5.7,3.8
			l0,0c2.3,0.8,8.3,1.9,13.9,1.9c6.6,0,14.7-3,18-5.7c3.3-2.6,6-6.3,9.1-7.7s5.4-1.4,7.4-2.5s2.6-2.4,2.6-3.6
			C262.5,632.8,262.4,632.5,262.3,632.3z"/>
	</g>
	<path class="st49" d="M248.4,637.2c-3.8,2.7-5.5,4.1-5.5,4.1c-1.8-6.4-10.1-8.2-10.1-8.2l2.1-3.5
		C234.9,629.6,243.6,630.9,248.4,637.2z"/>
	<path class="st3" d="M252.6,634.4c-1.5,0.9-2.9,1.9-4.2,2.8c-4.8-6.3-13.5-7.6-13.5-7.6l6.3-10.4
		C242.5,620.2,250.9,626.9,252.6,634.4z"/>
	<path class="st49" d="M256.4,632.2c-1.2,0.6-2.5,1.4-3.8,2.2c-1.7-7.5-10-14.1-11.3-15.1l1.3-1.4
		C250.7,620.5,256.4,632.2,256.4,632.2z"/>
	<path class="st3" d="M241.2,619.2c-0.1-0.1-0.2-0.1-0.2-0.1"/>
	<path class="st51" d="M231.4,617.2c0,0,1.7,5,7.7,7.4c0,0-7.4,0.3-11.3-1c0,0,2.1,4.3,8.1,6.3c0,0-10.6,0.7-12.8,0.4
		c0,0,6.3,3,11.3,2.6c0,0-7.9-3.2-9.4-5.9c0,0,7.2,0.9,12.1,0c0,0-7.1-3.4-7.4-6.7c0,0,6.6,1.2,10.8,1.2"/>
</g>
<g>
	<g id="XMLID_2_">
		<path class="st46" d="M399.1,653.5L399.1,653.5c-2.3,0.8-8.3,1.9-13.9,1.9c-6.6,0-14.7-3-18-5.7c-3.3-2.6-6-6.3-9.1-7.7
			s-5.4-1.4-7.4-2.5s-2.6-2.4-2.6-3.6c-0.4,2.9,2.7,4.7,6.4,5.5c4,0.8,8.3,5.1,10.1,6.9c3.3,3.4,11.5,7.9,21.7,7.6
			c10.5-0.3,17.8-3.4,18.5-6.3C404.7,649.9,403.8,651.9,399.1,653.5z"/>
		<path class="st47" d="M351.1,626.5c0,0,0.4-1.8,1.1-4.2l0,0c0-0.2,0-1.4,0.1-1.5l0,0c-0.3-1.5-0.8-4.9-0.4-5.7
			c-0.5,1.2,0.5,3.9,1.2,4.7c1.2,1.3,4.9,1.8,6.3,1.2c2.2-1,4.6-2.4,6.4-1.6c1.5,0.6,3.5,3,3.8,3.3l0,0c2.9,4.8,7,11.3,7,11.7
			s-0.3,1.9-0.3,1.9s5.8-1.2,9.8-3.1c0.5-0.2,0.9-0.5,1.3-0.7c0.2,0.2,0.5,0.4,0.7,0.5c2.1,1.4,6.8,4.3,10.5,7.2l0,0
			c0.3,0.4,2.3,2.9-0.4,4.1c-3,1.3-14.4,1.8-18.7-0.4c-1.8-0.9-3.9-2.1-6.1-2.9c-2.9-1.1-6-1.6-8.6,0.1c-0.2,0.1-0.4,0.3-0.6,0.4
			c-4-2.9-8.8-6-11.4-7c-1.6-0.7-2.2-2.1-2.4-3.6C350.4,628.7,351.1,626.5,351.1,626.5z"/>
		<path class="st48" d="M351.9,615.7c-0.1,1.6,0.6,3.3,1.3,4c1.2,1.3,4.9,1.8,6.3,1.2c2.2-1,4.6-2.4,6.4-1.6c1.5,0.6,3.5,3,3.8,3.3
			c-0.4-0.7-0.8-1.4-1.2-2c-0.3-0.5-0.6-0.9-0.9-1.2c-1.4-1.6-3.3-2.1-5.5-1.1c-2.9,1.3-6.2,1.9-7.3,1.1c-0.7-0.5-1-2.3-1.4-4.1
			c-0.2-1.1-0.6-1.2-1.2-0.7C352.1,614.7,351.9,615.1,351.9,615.7z"/>
		<path class="st48" d="M364.9,641.2c-0.2,0.1-0.4,0.3-0.6,0.4c2.2,1.6,4.2,3.2,5.3,4.3c3,3,12.4,5.7,12.4,5.7
			c8.8,0.9,14.3,0.3,17.6-0.7c-0.4-1.1-1-2.3-1-3c0-1.4,2.4-3.1,3.6-1.9c0.6,0.6,1.2,1.4,1.6,2.2c0.5-0.8,0.6-1.6,0.5-2.3
			c0-0.1-0.1-0.3-0.2-0.4c-0.6-1.2-2.8-3.2-5.5-5.1c0.3,0.4,2.3,2.9-0.4,4.1c-3,1.3-14.4,1.8-18.7-0.4c-1.8-0.9-3.9-2.1-6.1-2.9
			C370.6,640,367.5,639.5,364.9,641.2z"/>
		<path class="st49" d="M369.7,622.7c-0.4-0.7-0.8-1.4-1.2-2c-0.3-0.5-0.6-0.9-0.9-1.2l0.2-0.1c0,0-0.4-0.7-0.4-1.3s0.7-1.4,2.8-2.4
			c2.1-1,4.3-1.1,5-0.6c0.4,0.3,0.8,1,1,1.6c-0.5,0.4,0.1,1.2,0.1,1.2s6.5,11.4,9.8,15.2c-3.9,1.9-9.8,3.1-9.8,3.1s0.3-1.5,0.3-1.9
			C376.8,634,372.7,627.5,369.7,622.7C369.8,622.7,369.7,622.7,369.7,622.7z"/>
		<path class="st48" d="M370.2,617.9c-0.2,0.1-0.4,0.4-0.2,0.7l1.3,2.8c0.1,0.2,0.4,0.4,0.7,0.2l3.6-1.7c0.2-0.1,0.4-0.4,0.2-0.7
			l-1.3-2.8c-0.1-0.2-0.4-0.4-0.7-0.2L370.2,617.9z"/>
		<path class="st48" d="M376.3,616.8c-0.5,0.4,0.1,1.2,0.1,1.2s6.5,11.4,9.8,15.2c0.5-0.2,0.9-0.5,1.3-0.7
			c-3.9-3.5-9.5-15.3-9.5-15.3s-0.3-0.9-1.4-0.6C376.5,616.7,376.4,616.7,376.3,616.8z"/>
		<path class="st50" d="M348.2,635.2c0.7-2.1,2.1-3.4,2.4-4.2c0.2,1.5,0.8,3,2.4,3.6c2.6,1,7.4,4.1,11.4,7c2.2,1.6,4.2,3.2,5.3,4.3
			c3,3,12.4,5.7,12.4,5.7c8.8,0.9,14.3,0.4,17.6-0.7c-0.4-1.1-1-2.3-1-3c0-1.4,2.4-3.1,3.6-1.9c0.6,0.6,1.2,1.4,1.6,2.2
			c0.5-0.8,0.6-1.6,0.5-2.3c0-0.1-0.1-0.3-0.2-0.4l0,0c0,0,1.2,1.4,0.5,4.2l0,0c-0.1,0.2-1,2.2-5.7,3.8l0,0
			c-2.3,0.8-8.3,1.9-13.9,1.9c-6.6,0-14.7-3-18-5.7c-3.3-2.6-6-6.3-9.1-7.7s-5.4-1.4-7.4-2.5s-2.6-2.4-2.6-3.6
			C348.1,635.7,348.1,635.4,348.2,635.2z"/>
	</g>
	<path class="st49" d="M362.2,640.1c3.8,2.7,5.5,4.1,5.5,4.1c1.8-6.4,10.1-8.2,10.1-8.2l-2.1-3.5C375.7,632.5,367,633.8,362.2,640.1
		z"/>
	<path class="st3" d="M357.9,637.3c1.5,0.9,2.9,1.9,4.2,2.8c4.8-6.3,13.5-7.6,13.5-7.6l-6.3-10.4
		C368.1,623.1,359.7,629.8,357.9,637.3z"/>
	<path class="st49" d="M354.2,635.1c1.2,0.6,2.5,1.4,3.8,2.2c1.7-7.5,10-14.1,11.3-15.1l-1.3-1.4
		C359.9,623.4,354.2,635.1,354.2,635.1z"/>
	<path class="st3" d="M369.5,621.9c0,0-0.1,0-0.2,0.1"/>
	<path class="st51" d="M379.1,620.1c0,0-1.7,5-7.7,7.4c0,0,7.4,0.3,11.3-1c0,0-2.1,4.3-8.1,6.3c0,0,10.6,0.7,12.8,0.4
		c0,0-6.3,3-11.3,2.6c0,0,7.9-3.2,9.4-5.9c0,0-7.2,0.9-12.1,0c0,0,7.1-3.4,7.4-6.7c0,0-6.6,1.2-10.8,1.2"/>
</g>
<linearGradient id="SVGID_35_" gradientUnits="userSpaceOnUse" x1="272.8987" y1="2055.1843" x2="273.0686" y2="2040.6747" gradientTransform="matrix(1 0 0 1 25.0195 -1908.4365)">
	<stop  offset="0" style="stop-color:#C47958"/>
	<stop  offset="1" style="stop-color:#F8AD84"/>
</linearGradient>
<path class="st52" d="M271.9,127c0,0.2,1.8,13.8,13.4,17.6c11.4,3.7,23.4-0.4,28.9-3.6c5.5-3.3,9.8-8.3,10.2-14.1v-1l-1.2-0.6
	c0,0-0.3,12.3-15.9,16.9c-15.6,4.5-25.2,3-30.5-6.2c-4.4-7.7-4.2-9.1-4.2-9.1L271.9,127z"/>
<circle class="st3" cx="304.4" cy="325.9" r="302.3"/>
<rect x="0.1" class="st3" width="607.8" height="659"/>
</svg>
