<?xml version="1.0" encoding="utf-8"?>
<!-- Generator: Adobe Illustrator 22.0.0, SVG Export Plug-In . SVG Version: 6.00 Build 0)  -->
<svg version="1.1" id="Layer_1" xmlns="http://www.w3.org/2000/svg" xmlns:xlink="http://www.w3.org/1999/xlink" x="0px" y="0px"
	 viewBox="0 0 70 70" style="enable-background:new 0 0 70 70;" xml:space="preserve">
<style type="text/css">
	.st0{fill:#E91E63;}
</style>
<path class="st0" d="M57.6,7.3C57.6,7.3,57.6,7.3,57.6,7.3c0.3-0.6,0.3-1.5,0-2c-0.8-0.6-1.4-0.6-1.9-0.3c0,0.3-3.6,4-5.8,9.9
	c0,0,0,0,0,0c0,0-24.8,0-24.8,0c-0.6,0-1.4,0.6-1.4,1.4v17.1c0,0.6,0.6,1.4,1.4,1.4l23.4,0c1.1,3.7,2.2,7.1,4.4,10.2
	c0.3,0.6,1.1,1.7,1.7,2.6c-6.1,2.6-13.2,4-20.7,4c-7.4,0-14.9-1.7-21.5-4.3c0.6-1.1,1.1-1.7,1.4-2.3C26.2,25.1,13,7.4,11.2,5
	c-0.3-0.5-1.4-0.8-2.1-0.3C8.6,5.1,8.5,6.2,9.1,7C9.6,7.6,24,24.3,12.1,44c-2.5,4-7.2,11.4-6.3,19.9c0,0.6,0.6,1.4,1.4,1.4
	c0.6,0,1.4-0.6,1.4-1.4c-0.3-5.1,1.4-9.9,3.3-13.6c6.9,3.1,14.6,4.5,22.6,4.5c7.7,0,15.2-1.7,22-4.3c1.9,3.7,3.6,8.2,3.3,13.4
	c0,0.6,0.3,1.4,1.4,1.4c0.6,0,1.4-0.6,1.4-1.4c0.6-8.8-3.9-15.9-6.3-19.9c-1.9-3.1-3.3-6-3.9-9.1c0,0,10.6,0,13.7,0
	c0.5,0,0.9-0.4,0.9-0.9l0-17.5c0-0.9-0.7-1.5-1.5-1.5c-3.7,0-12.6,0-12.6,0C55,10.2,57.3,7.6,57.6,7.3z M65.9,32.3h-2.5v-5.1
	c0-0.6-0.6-1.4-1.4-1.4c-0.6,0-1.4,0.6-1.4,1.4v5.4H57v-5.4c0-0.6-0.6-1.4-1.4-1.4c-0.6,0-1.4,0.6-1.4,1.4v5.4h-3.6v-5.4
	c0-0.6-0.6-1.4-1.4-1.4S48,26.3,48,27.2v5.4h-3.6v-5.4c0-0.6-0.6-1.4-1.4-1.4c-0.6,0-1.4,0.6-1.4,1.4v5.4H38v-5.4
	c0-0.6-0.6-1.4-1.4-1.4c-0.6,0-1.4,0.6-1.4,1.4v5.4h-4.1v-5.4c0-0.6-0.6-1.4-1.4-1.4c-0.6,0-1.4,0.6-1.4,1.4v5.4h-3.3V18.4h39.4
	v14.2h1.4V32.3z M33.3,46.2c-1.7,0-2.5-1.4-2.5-2.6c0-1.4,1.4-2.6,2.5-2.6c1.7,0,2.5,1.4,2.5,2.6C35.8,44.8,35,46.2,33.3,46.2z
	 M4.4,28.2V26H0v-7.4h4.4v-2.1c0-0.3,0.3-0.4,0.5-0.2l5.5,5.4c0.2,0.2,0.2,0.5,0,0.7l-5.5,5.9C4.7,28.5,4.4,28.4,4.4,28.2z"/>
</svg>
