<svg id="Capa_1" data-name="Capa 1" xmlns="http://www.w3.org/2000/svg" viewBox="0 0 68.84 53.77"><defs><style>.cls-1{fill:#e91e63;}</style></defs><title>Meat</title><path class="cls-1" d="M.54,28.83v9.4A16.13,16.13,0,0,0,16.65,54.35c6.75,0,11.54,2,16.18,3.93,4.48,1.87,8.72,3.64,14.36,3.64A22.21,22.21,0,0,0,69.37,39.73v-9.4A22.21,22.21,0,0,0,47.19,8.15c-4.72,0-16.86.32-27.63,3.28C14,13,9.53,15,6.39,17.51,2.51,20.61.54,24.42.54,28.83ZM7.47,38.6a13.47,13.47,0,0,1-4.24-9.77c0-6.72,5.73-11.7,17-14.81,10.45-2.87,22.31-3.18,26.92-3.18a19.5,19.5,0,1,1,0,39c-5.1,0-9.1-1.67-13.33-3.43-4.88-2-9.93-4.14-17.21-4.14-.42,0-.84,0-1.25-.06a1.35,1.35,0,1,0-.25,2.68c.49,0,1,.07,1.5.07,6.75,0,11.54,2,16.18,3.93,4.48,1.87,8.72,3.64,14.36,3.64A22.21,22.21,0,0,0,66.64,41,19.51,19.51,0,0,1,47.19,59.23c-5.1,0-9.1-1.67-13.33-3.43-4.88-2-9.93-4.14-17.21-4.14A13.44,13.44,0,0,1,3.23,38.23v-.52a16.21,16.21,0,0,0,2.39,2.85,1.35,1.35,0,0,0,1.85-2Z" transform="translate(-0.54 -8.15)"/><path class="cls-1" d="M9.25,43.14a1.46,1.46,0,0,0,.6.14,1.35,1.35,0,0,0,.6-2.55l0,0a1.35,1.35,0,0,0-1.17,2.43Z" transform="translate(-0.54 -8.15)"/><path class="cls-1" d="M36.25,15.35a1.35,1.35,0,0,0,1.34,1.24h.18a1.34,1.34,0,0,0-.22-2.68h-.06A1.34,1.34,0,0,0,36.25,15.35Z" transform="translate(-0.54 -8.15)"/><path class="cls-1" d="M5.92,28.83A10.75,10.75,0,0,0,16.65,39.57a38.53,38.53,0,0,1,12.46,2.1c1.84.62,3.67,1.38,5.44,2.11,1.21.51,2.47,1,3.74,1.51a24.08,24.08,0,0,0,8.9,1.85,16.81,16.81,0,1,0,0-33.61c-1.55,0-3.13,0-4.68.09l-.8,0a1.34,1.34,0,0,0,.12,2.68l.78,0c1.52-.05,3.06-.08,4.58-.08a14.12,14.12,0,1,1,0,28.23,21.55,21.55,0,0,1-7.95-1.68c-1.23-.46-2.46-1-3.66-1.47-1.81-.75-3.68-1.53-5.61-2.18a41.07,41.07,0,0,0-13.32-2.24,8.06,8.06,0,0,1-8-8.05,5.24,5.24,0,0,1,.55-2.41c1.77-3.48,8.07-6.51,17.31-8.32,1.57-.31,3.23-.59,4.91-.82A1.35,1.35,0,0,0,31,14.61c-1.73.24-3.44.53-5.06.85a57.67,57.67,0,0,0-10.37,3c-4.51,1.86-7.48,4.13-8.82,6.77A7.9,7.9,0,0,0,5.92,28.83Z" transform="translate(-0.54 -8.15)"/><path class="cls-1" d="M39.09,25.06c0,3.41,3,6.18,6.81,6.18s6.82-2.77,6.82-6.18-3.06-6.18-6.82-6.18S39.09,21.65,39.09,25.06Zm2.69,0c0-1.93,1.85-3.49,4.12-3.49S50,23.13,50,25.06s-1.85,3.49-4.13,3.49S41.78,27,41.78,25.06Z" transform="translate(-0.54 -8.15)"/></svg>