<?xml version="1.0" encoding="utf-8"?>
<!-- Generator: Adobe Illustrator 22.0.0, SVG Export Plug-In . SVG Version: 6.00 Build 0)  -->
<svg version="1.1" id="Layer_1" xmlns="http://www.w3.org/2000/svg" xmlns:xlink="http://www.w3.org/1999/xlink" x="0px" y="0px"
	 viewBox="0 0 70 70" style="enable-background:new 0 0 70 70;" xml:space="preserve">
<style type="text/css">
	.st0{fill:#E91E63;}
</style>
<path class="st0" d="M44.5,31.2c0.1,0,0.3,0.1,0.4,0.1c0.5,0,1-0.3,1.2-0.8c0.4-1.1,1.6-1.7,2.7-1.4c2.4,0.8,5-0.5,5.9-2.9
	c0.2-0.6-0.1-1.3-0.8-1.6c-0.6-0.2-1.3,0.1-1.6,0.8c-0.4,1.1-1.6,1.7-2.7,1.4c-2.4-0.8-5,0.5-5.9,2.9C43.5,30.3,43.8,31,44.5,31.2z"
	/>
<path class="st0" d="M47.4,22.7c0.1,0,0.3,0.1,0.4,0.1c0.5,0,1-0.3,1.2-0.8c0.2-0.5,0.6-1,1.1-1.2c0.5-0.3,1.1-0.3,1.7-0.1
	c2.4,0.8,5-0.5,5.9-2.9c0.2-0.6-0.1-1.3-0.8-1.6c-0.6-0.2-1.3,0.1-1.6,0.8c-0.4,1.1-1.6,1.7-2.7,1.4c-1.2-0.4-2.4-0.3-3.5,0.2
	c-1.1,0.5-1.9,1.5-2.3,2.7C46.4,21.7,46.7,22.4,47.4,22.7z"/>
<path class="st0" d="M50.3,14.1c0.1,0,0.3,0.1,0.4,0.1c0.5,0,1-0.3,1.2-0.8c0.3-0.8,1.2-1.3,2-1c1,0.3,2.1,0.3,3.1-0.2
	c1-0.5,1.7-1.3,2-2.3c0.2-0.6-0.1-1.3-0.8-1.6C57.6,8,56.9,8.4,56.7,9c-0.1,0.4-0.4,0.7-0.8,0.9c-0.4,0.2-0.8,0.2-1.2,0.1
	c-2.1-0.7-4.4,0.4-5.1,2.5C49.3,13.2,49.6,13.9,50.3,14.1z"/>
<path class="st0" d="M59.2,31.1c-0.2-0.1-0.5-0.2-0.7-0.3c2.4-7.9,3.8-15.7,4-23.1c0.1-2.3-1.1-5.4-3.4-6.9
	c-1.1-0.7-2.9-1.3-5.2-0.1c-3.7,1.9-6.3,7.5-8.4,11.9c-0.1,0.3-0.2,0.5-0.4,0.8c-0.5-2.1-1.9-4-3.9-4.9c-0.5-2.3-2.3-4.1-4.6-4.5
	c0-0.1-0.1-0.3-0.1-0.4c-0.5-1.6-1.9-2.8-3.5-3c-0.9-0.1-1.8,0.1-2.6,0.5c-0.7-0.4-1.4-0.6-2.2-0.6c-2.1,0-3.9,1.5-4.4,3.5
	c-2.3,0.6-4,2.8-4.1,5.3c-2.7,0.7-4.6,3.1-4.6,6c0,0.8,0.1,1.5,0.4,2.2c-0.7,0.9-1.1,1.9-1.1,3c0,0.7,0.1,1.3,0.4,1.9
	c-1.2-1.3-3-2.4-4.9-2.4c-0.7,0-1.2,0.6-1.2,1.3c0,0.7,0.6,1.2,1.2,1.2c0,0,0.1,0,0.1,0c1.2,0,2.2,0.8,3,1.6
	c-1.9,0.6-4.3,1.5-5.4,3.5c-0.7,1.2-0.7,2.8-0.3,4.5c-0.2,0.4-0.3,0.8-0.3,1.2l2.1,29.7c0.2,3.7,3.3,6.6,7,6.6h34.5
	c3.7,0,6.8-2.9,7-6.6l2.1-30.7c0,0,0,0,0,0C59.9,32,59.7,31.4,59.2,31.1z M46.1,17c0.5-0.9,1-2,1.6-3.2C49.5,9.9,52,4.5,55,3
	c1.1-0.6,2-0.6,2.8,0C59.2,3.9,60,6.1,60,7.7c-0.2,7.3-1.5,14.9-3.9,22.7c-0.1,0.3-0.3,0.8-0.5,1.5l-2.1,0.9c0,0-0.1,0-0.1,0.1
	c-0.6,0.4-1.3,0.5-2,0.5c-0.7,0-1.4-0.2-2-0.5l-0.9-0.5c-1-0.6-2.1-0.9-3.3-0.9c0,0,0,0,0,0c-1.1,0-2.3,0.3-3.3,0.9L41,32.9
	c-0.5,0.3-1,0.4-1.6,0.5c0-0.1,0.1-0.2,0.1-0.3c0.3-1.1,0.7-2.3,1.1-3.4c0.1-0.4,0.3-0.8,0.4-1.3c0.3-0.9,0.6-1.8,1-2.6
	c0.2-0.4,0.3-0.8,0.5-1.2C43.6,22,44.8,19.5,46.1,17z M30.4,20c0.1-0.2,0.3-0.4,0.4-0.5c0,0,0,0,0,0c0.1-0.1,0.2-0.3,0.3-0.4
	c0.3-0.6,0.4-1.2,0.2-1.8l5.1-1.1c0,0.2,0.1,0.3,0.1,0.5c0.2,0.6,0.6,1,1.2,1.4c0.2,0.1,0.4,0.2,0.6,0.3c0.2,0.1,0.3,0.2,0.5,0.3
	c0.1,0,0.2,0.1,0.2,0.1c0.1,0.1,0.3,0.2,0.4,0.3c0.1,0.1,0.2,0.2,0.4,0.2c0.1,0.1,0.3,0.2,0.4,0.3c0.1,0.1,0.2,0.2,0.3,0.3
	c0.1,0.1,0.2,0.2,0.3,0.4c0.2,0.2,0.4,0.5,0.5,0.7c-0.5,1.1-1,2.3-1.5,3.5c-0.1,0.2-0.2,0.4-0.2,0.5c-1.3,0.3-2.6,1-4.3,2.1
	c-2,1.4-3.5,1.8-6,1.5L28.8,25C28.3,22.7,29.4,21.3,30.4,20z M36.5,12.5C36.5,12.5,36.6,12.5,36.5,12.5c0.3,0,0.5,0.2,0.6,0.4
	c0,0.2,0,0.3-0.1,0.4c0,0.1-0.1,0.2-0.3,0.2L29.9,15c-0.3,0.1-0.5-0.1-0.6-0.4c-0.1-0.3,0.1-0.5,0.4-0.6l3.6-0.8L36.5,12.5z
	 M32.5,31.5c-0.1,0-0.2,0-0.3,0c-0.7,0.1-1.3,0.2-2,0.5L30.1,31c0.4,0,0.7,0.1,1,0.1c2.1,0,3.9-0.6,5.9-2c0.6-0.4,1.2-0.8,1.7-1.1
	c-0.1,0.3-0.2,0.6-0.3,1c-0.1,0.2-0.2,0.5-0.2,0.7c-0.4,1.1-0.7,2.2-1,3.3l-0.8-0.5c-1-0.6-2.1-0.9-3.3-0.9c0,0,0,0,0,0
	C32.8,31.5,32.7,31.5,32.5,31.5z M17.8,18.8l0.8-0.7l-0.5-0.9c-0.3-0.6-0.5-1.2-0.5-1.9c0-2,1.6-3.6,3.5-3.7l1.5-0.1l-0.3-1.5
	c-0.1-0.2-0.1-0.5-0.1-0.7c0-1.6,1.2-2.9,2.8-3l1.1-0.1V5.1c0-1.1,0.9-2,2.1-2c0.6,0,1.1,0.3,1.4,0.5l0.9,0.8l0.8-0.8
	c0.4-0.4,0.9-0.5,1.4-0.5c0.7,0.1,1.3,0.6,1.4,1.3c0.1,0.2,0.1,0.4,0.1,0.7l-0.1,1.4h1.4c1.8,0,3.2,1.4,3.4,3.1l0.1,0.8l0.8,0.3
	c1.9,0.7,3.2,2.5,3.1,4.5c0,0.9-0.3,1.7-0.8,2.4c-0.8-0.7-1.7-1.2-2.5-1.6c-0.2-0.1-0.4-0.2-0.6-0.3c-0.1,0-0.1-0.1-0.1-0.2
	c0-0.2,0-0.4,0.2-0.5c0.5-0.6,0.8-1.5,0.6-2.3L39.4,12c-0.1-0.7-0.6-1.3-1.1-1.6c-0.6-0.4-1.3-0.5-2-0.4L36,10.1c0,0,0,0,0,0
	l-3.6,0.8l-3.5,0.8c-0.7,0.1-1.3,0.6-1.6,1.1c-0.4,0.6-0.5,1.3-0.4,2l0.1,0.3v0c0,0,0,0,0,0l0.1,0.3c0.2,0.8,0.7,1.5,1.5,1.8
	c0.2,0.1,0.4,0.2,0.4,0.4c0,0.1,0,0.1-0.1,0.3v0c-0.1,0.2-0.3,0.3-0.4,0.5c-0.1,0.2-0.3,0.4-0.4,0.5c0,0.1-0.1,0.1-0.1,0.2
	c-0.1,0.1-0.2,0.3-0.3,0.4c-0.1,0.1-0.1,0.2-0.2,0.2c-0.1,0.1-0.2,0.3-0.3,0.4c-0.1,0.1-0.1,0.2-0.2,0.3c-0.1,0.2-0.2,0.4-0.3,0.5
	c0,0.1-0.1,0.2-0.1,0.2c-0.1,0.3-0.2,0.5-0.3,0.8c0,0,0,0.1,0,0.1c-0.1,0.3-0.1,0.5-0.1,0.8c0,0.1,0,0.2,0,0.3c0,0.1,0,0.3,0,0.4
	c0,0,0,0,0,0c0,0,0,0-0.1-0.1c-0.2-0.3-0.4-0.5-0.6-0.8c-0.1-0.1-0.1-0.2-0.2-0.2c-0.2-0.2-0.4-0.4-0.5-0.6
	c-0.1-0.1-0.1-0.1-0.2-0.2c-0.2-0.2-0.5-0.4-0.7-0.6c-0.1,0-0.1-0.1-0.2-0.1c-0.2-0.1-0.3-0.2-0.5-0.3c-0.1,0-0.2-0.1-0.3-0.1
	c-0.2-0.1-0.4-0.2-0.6-0.2c-0.1,0-0.1-0.1-0.2-0.1c-0.2-0.1-0.4-0.1-0.6-0.2c0,0,0,0-0.1,0c0,0-0.1,0-0.1,0c-0.1,0-0.3,0-0.4,0
	c-0.1,0-0.2,0-0.3,0c0,0-0.1,0-0.1,0c-0.2,0-0.4,0-0.6,0c-0.1,0-0.2,0-0.3,0c-0.2,0-0.5,0.1-0.7,0.2c0,0-0.1,0-0.1,0
	c-0.6,0.2-1.2,0.5-1.7,0.9C17,21.2,17,20.9,17,20.6C17,19.9,17.3,19.2,17.8,18.8z M10,29c0.5-1,1.8-1.7,4-2.4c1-0.3,2-0.8,2.7-1.6
	c0.3-0.3,0.7-0.6,1-0.9c1-0.8,1.8-1.2,2.6-1.3c0,0,0,0,0.1,0c0.2,0,0.5,0,0.7,0c0.1,0,0.1,0,0.2,0c0.1,0,0.2,0.1,0.3,0.1
	c0.1,0,0.1,0.1,0.2,0.1c0.1,0.1,0.2,0.1,0.3,0.2c0.1,0.1,0.2,0.1,0.3,0.2c0.1,0.1,0.2,0.1,0.3,0.2c0.1,0.1,0.2,0.2,0.3,0.3
	s0.2,0.2,0.3,0.3c0.1,0.1,0.2,0.2,0.3,0.3c0.1,0.1,0.2,0.2,0.3,0.3c0.1,0.1,0.2,0.3,0.4,0.5c0.1,0.1,0.1,0.2,0.2,0.3
	c0.1,0.2,0.3,0.4,0.4,0.6c0.1,0.1,0.1,0.2,0.2,0.3c0.2,0.3,0.4,0.6,0.6,1c0.9,1.6,1.2,4,0.8,6c-0.1,0-0.1,0-0.2,0
	c-0.5-0.1-0.9-0.2-1.3-0.5l-0.9-0.5c-1-0.6-2.1-0.9-3.3-0.9c0,0,0,0,0,0c-1.1,0-2.3,0.3-3.3,0.9l-0.4,0.3c-0.7,0.4-1.6,0.7-2.4,0.7
	c-0.8,0-1.7-0.2-2.4-0.7l-1.7-1c0,0,0,0,0,0c-0.2-0.1-0.5-0.2-0.7-0.3C9.6,30.4,9.6,29.6,10,29z M55.3,63.2
	c-0.1,2.4-2.1,4.3-4.5,4.3H16.3c-2.4,0-4.4-1.9-4.5-4.3l-2-29l1.1,0.6c1.2,0.7,2.5,1,3.8,1c1.3,0,2.6-0.3,3.8-1l0.4-0.3
	c0.6-0.4,1.3-0.5,2-0.6c0.7,0,1.4,0.2,2,0.6l0.9,0.5c1.1,0.7,2.4,0.9,3.6,0.9c0.1,0,0.2,0,0.3,0c0,0,0,0,0,0
	c0.8-0.1,1.7-0.4,2.4-0.8c0.1,0,0.1,0,0.2-0.1l0.9-0.5c0.6-0.4,1.3-0.5,2-0.6c0.7,0,1.4,0.2,2,0.6l0.9,0.5c0.9,0.6,2,0.8,3,0.9
	c0,0,0,0,0.1,0c0.4,0,0.7,0,1.1-0.1c0.2,0,0.4-0.1,0.6-0.1c0.1,0,0.2,0,0.3-0.1c0.5-0.2,1.1-0.3,1.6-0.6l0.9-0.5
	c0.6-0.4,1.3-0.5,2-0.6c0.7,0,1.4,0.2,2,0.6l0.9,0.5c1,0.6,2.2,0.9,3.3,0.9c0,0,0,0,0.1,0c1.1,0,2.2-0.3,3.2-0.9L57,34
	c0.1,0,0.1-0.1,0.1-0.1l0.2-0.1L55.3,63.2z"/>
<path class="st0" d="M14.5,53h8.6c0.7,0,1.2-0.5,1.2-1.2c0-0.7-0.6-1.2-1.2-1.2h-8.6c-0.7,0-1.2,0.5-1.2,1.2
	C13.3,52.4,13.9,53,14.5,53z"/>
<path class="st0" d="M14.5,57.9h11.1c0.7,0,1.2-0.5,1.2-1.2s-0.6-1.2-1.2-1.2H14.5c-0.7,0-1.2,0.5-1.2,1.2S13.9,57.9,14.5,57.9z"/>
<path class="st0" d="M28.1,60.3H14.5c-0.7,0-1.2,0.5-1.2,1.2c0,0.7,0.6,1.2,1.2,1.2h13.5c0.7,0,1.2-0.5,1.2-1.2
	C29.3,60.9,28.7,60.3,28.1,60.3z"/>
<path class="st0" d="M35.4,60.3H33c-0.7,0-1.2,0.5-1.2,1.2c0,0.7,0.6,1.2,1.2,1.2h2.5c0.7,0,1.2-0.5,1.2-1.2
	C36.7,60.9,36.1,60.3,35.4,60.3z"/>
</svg>
