<?xml version="1.0" encoding="utf-8"?>
<!-- Generator: Adobe Illustrator 22.0.0, SVG Export Plug-In . SVG Version: 6.00 Build 0)  -->
<svg version="1.1" id="Layer_1" xmlns="http://www.w3.org/2000/svg" xmlns:xlink="http://www.w3.org/1999/xlink" x="0px" y="0px"
	 viewBox="0 0 70 70" style="enable-background:new 0 0 70 70;" xml:space="preserve">
<style type="text/css">
	.st0{fill:#E91E63;}
</style>
<path class="st0" d="M35.1,17.5l-1.7,2l-2,2c-0.8,0.8-1.1,1.1-1.4,1.4c-0.6,0.6-0.4,1.5,0.3,2c0.4,0.3,0.8,0.3,1.4,0.3h8.4
	c0.3,0,0.8,0,1.1-0.3c0.3-0.3,0.4-0.6,0.4-0.9c0-0.4-0.1-0.6-0.2-0.8c-0.2-0.3-1-0.3-1.2-0.3h-6.2c0,0,5-5.4,6.6-7.4
	c0.2-0.2,0.4-0.5,0.4-0.7c0.1-0.3,0-0.9-0.5-1.2c-0.4-0.2-1-0.2-1.5-0.2h-7.3c-0.3,0-0.8,0-1.1,0.3c-0.3,0.3-0.3,0.6-0.3,0.8
	c0,0.6,0.2,0.7,0.6,0.9c0.6,0.2,0.8,0.2,1.4,0.2h4.5C36.5,15.8,35.1,17.5,35.1,17.5z"/>
<path class="st0" d="M64.8,46.8c-0.3-0.3-0.9-0.5-1.8-0.2c-15.9,6.7-33.8-0.8-40.5-16.8c-3.4-8.1-3.1-17.1,0.6-25.2
	c0.3-0.8,0.2-1.6-0.2-2c-0.4-0.4-1-0.5-1.7-0.3C3.7,9.7-4.6,29.5,2.6,46.9c7.3,18.8,29.2,25.3,44.6,18.8c7.8-3.4,12.4-8.2,17.5-17.4
	C65,47.6,65,47,64.8,46.8z M33.9,65.3c-17.1,0-31-14-31-31c0-11.2,6.2-21.5,15.9-27.1c-1.1,3.4-2,6.7-2,10.6
	c0,18.7,15.4,33.8,33.8,33.8c3.1,0,6.2-0.3,9.2-1.4C54.9,59.4,44.8,65,33.9,65.3z"/>
<path class="st0" d="M49.4,27.6l-1.5,1.8l-1.8,1.8c-0.8,0.8-1,1-1.3,1.3c-0.5,0.5-0.4,1.4,0.3,1.8c0.4,0.3,0.8,0.3,1.3,0.3h7.6
	c0.3,0,0.7,0,1-0.3c0.3-0.3,0.3-0.5,0.3-0.8c0-0.3-0.1-0.5-0.2-0.7c-0.2-0.3-0.9-0.3-1.1-0.3h-5.6c0,0,4.5-4.9,6-6.7
	c0.2-0.2,0.3-0.4,0.4-0.6c0-0.2,0-0.8-0.4-1.1c-0.4-0.2-0.9-0.2-1.4-0.2h-6.6c-0.3,0-0.8,0-1,0.3s-0.3,0.5-0.3,0.8
	c0,0.5,0.2,0.7,0.5,0.8c0.5,0.2,0.7,0.2,1.2,0.2h4C50.6,26.1,49.4,27.6,49.4,27.6z"/>
<path class="st0" d="M62.1,16.6l-1.7,2l-2,2c-0.8,0.8-1.1,1.1-1.4,1.4c-0.6,0.6-0.4,1.5,0.3,2c0.4,0.3,0.8,0.3,1.4,0.3h8.4
	c0.3,0,0.8,0,1.1-0.3c0.3-0.3,0.4-0.6,0.4-0.9c0-0.4-0.1-0.6-0.2-0.8c-0.2-0.3-1-0.3-1.2-0.3h-6.2c0,0,5-5.4,6.6-7.4
	c0.2-0.2,0.4-0.5,0.4-0.7c0.1-0.3,0-0.9-0.5-1.2c-0.4-0.2-1-0.2-1.5-0.2h-7.3c-0.3,0-0.8,0-1.1,0.3c-0.3,0.3-0.3,0.6-0.3,0.8
	c0,0.6,0.2,0.7,0.6,0.9c0.6,0.2,0.8,0.2,1.4,0.2h4.5C63.5,15,62.1,16.6,62.1,16.6z"/>
</svg>
