<?xml version="1.0" encoding="utf-8"?>
<!-- Generator: Adobe Illustrator 22.0.0, SVG Export Plug-In . SVG Version: 6.00 Build 0)  -->
<svg version="1.1" id="Layer_1" xmlns="http://www.w3.org/2000/svg" xmlns:xlink="http://www.w3.org/1999/xlink" x="0px" y="0px"
	 viewBox="0 0 70 70" style="enable-background:new 0 0 70 70;" xml:space="preserve">
<style type="text/css">
	.st0{fill:#E91E63;}
</style>
<path class="st0" d="M14.2,22.9c-1,3.1-3.9,10.7-3.9,10.6c-3.8,10.4-2.5,23.9,4.4,35.3c0.4,0.7,1.2,1.1,2,1.1h36
	c0.8,0,1.6-0.4,2-1.1c7.1-11.8,8.1-25.5,4.3-35.7c-1.4-3.6-2.7-6.9-3.8-10.2c4.2-1.4,6.3-3.3,6.3-5.4c0-2.4-2.8-4.5-8-6
	c0.2-2.8,1-5.6,2.3-8.2c0.4-0.7,0.3-1.6-0.1-2.3c-0.4-0.7-1.2-1.1-2-1.1h-38c-0.8,0-1.6,0.4-2,1.1c-0.4,0.7-0.5,1.5-0.1,2.3
	c1.3,2.6,2,5.3,2.3,8.2c-5.3,1.5-8,3.5-8,6C7.9,19.7,10,21.5,14.2,22.9L14.2,22.9z M57.5,35.9c0.4,1.3,0.7,2.7,0.9,4.1
	c-2.4,1.3-5.4,2.8-9,4.5c-5.7,2.4-10.7,6.1-14.7,10.8c-4-4.7-9-8.4-14.7-10.8c-3.6-1.6-6.6-3.1-9-4.5c0.2-1.4,0.5-2.7,0.9-4.1
	c3.5,2.7,10.5,6.1,22.7,6.1C47,42,54,38.6,57.5,35.9z M16.7,67.7c-4.6-7.5-6.7-16.4-6-25.2c2.3,1.3,5.1,2.6,8.4,4.1
	c5.7,2.4,10.6,6.2,14.5,11v10.1H16.7z M52.7,67.7H35.9V57.6c3.8-4.8,8.8-8.6,14.5-11c3.3-1.5,6.1-2.8,8.4-4.1
	C59.4,51.3,57.3,60.1,52.7,67.7L52.7,67.7z M59.2,17.5c0,0.8-1.3,2-4.7,3.2c-0.7-2.2-1-4.5-1.1-6.8C57.4,15.1,59.2,16.6,59.2,17.5
	L59.2,17.5z M15.7,2.3h38c-2.9,5.9-3.4,12.8-1.4,19.1c-2,0.5-4.1,0.9-6.2,1.2l3.4-3.1c0.5-0.4,0.5-1.2,0.1-1.6
	c-0.4-0.5-1.2-0.5-1.6-0.1l-5.8,5.3c-0.3,0.3-0.4,0.7-0.4,1.1c0.1,0.4,0.3,0.7,0.7,0.9c6.1,5.5,5.7,5.3,6.3,5.3
	c0.5,0,0.9-0.3,1.1-0.7c0.2-0.5,0.1-1-0.3-1.3L45.8,25c2.4-0.3,4.8-0.8,7.2-1.4c1.1,3.3,2.3,6.5,3.7,10c-10,8.2-33.9,8.2-43.9,0
	c1.3-3.4,2.6-6.6,3.7-10c2.4,0.6,4.8,1.1,7.2,1.4L20,28.3c-0.4,0.3-0.5,0.8-0.3,1.3c0.2,0.5,0.6,0.7,1.1,0.7c0.6,0,0.4,0.1,6.6-5.6
	c0.2-0.2,0.4-0.5,0.4-0.9c0-0.3-0.1-0.6-0.4-0.9l-5.8-5.3c-0.5-0.4-1.2-0.4-1.6,0.1c-0.4,0.5-0.4,1.2,0.1,1.6l3.4,3.1
	c-2.1-0.3-4.1-0.7-6.2-1.2C19.2,15.1,18.7,8.3,15.7,2.3L15.7,2.3z M16,13.9c0,2.3-0.4,4.6-1.1,6.8c-3.4-1.2-4.7-2.4-4.7-3.2
	C10.2,16.6,12,15.1,16,13.9L16,13.9z"/>
<path class="st0" d="M33.7,28.6c0.7,0.3,1.5,0.3,2.2,0c1.5-0.5,2.5-1.9,2.4-3.5c0.1-1.8-1.2-3.4-3.1-3.7c-0.3,0-0.5,0-0.8,0
	c-1.9,0.3-3.2,1.9-3.1,3.7C31.1,26.6,32.1,28,33.7,28.6z M34.7,23.5c0.6,0,1.2,0.7,1.2,1.6c0,0.9-0.5,1.6-1.2,1.6s-1.2-0.7-1.2-1.6
	C33.6,24.2,34.1,23.5,34.7,23.5z"/>
</svg>
