<?xml version="1.0" encoding="utf-8"?>
<!-- Generator: Adobe Illustrator 22.0.0, SVG Export Plug-In . SVG Version: 6.00 Build 0)  -->
<svg version="1.1" id="Layer_1" xmlns="http://www.w3.org/2000/svg" xmlns:xlink="http://www.w3.org/1999/xlink" x="0px" y="0px"
	 viewBox="0 0 65.8 70" style="enable-background:new 0 0 65.8 70;" xml:space="preserve">
<style type="text/css">
	.st0{fill:#E91E63;}
</style>
<path class="st0" d="M34.8,42.4c1.3-0.1,2.7-0.6,3.4-1.6l12.5-13.7c0.4-0.4,0.3-1-0.1-1.4c-0.4-0.3-1.2-0.4-1.7-0.1l-17.1,10
	c-1.1,0.6-1.9,1.7-2,2.8c-0.1,1.1,0.4,2.2,1.3,3c0.9,0.7,2.1,1.1,3.3,1.1C34.5,42.4,34.6,42.4,34.8,42.4z M32.4,38.5
	c0-0.5,0.4-1,0.8-1.2l10.2-5.9c0,0,0.1,0,0.1,0.1l-7.4,8.2c-0.4,0.4-0.9,0.6-1.5,0.6c-0.7,0-1.2-0.1-1.6-0.5
	C32.5,39.5,32.4,39,32.4,38.5z"/>
<path class="st0" d="M61.1,22.8C61.1,22.7,61.1,22.7,61.1,22.8c0-0.1-0.1-0.1-0.1-0.1c-1.2-2-2.6-3.8-4.1-5.6c0,0,0,0,0-0.1l2.5-2.4
	c0,0,0,0,0.1,0l0.9,0.9c0.4,0.3,0.9,0.3,1.3,0l3.8-3.7c0.4-0.3,0.4-0.9,0-1.3L61.7,7c-0.4-0.3-0.9-0.3-1.3,0l-3.8,3.7
	c-0.4,0.3-0.4,0.9,0,1.3l0.9,0.9c0,0,0,0,0,0.1l-2.4,2.3c0,0,0,0-0.1,0c-1.8-1.5-3.6-2.9-5.6-4.1c0,0,0,0-0.1,0
	c-3.6-2.1-7.8-3.5-12.1-4V5.8h1.5c1.5,0,3.1-1.2,3.2-2.7C42.1,1.4,40.8,0,39,0H28.7c-1.5,0-3.1,1.2-3.2,2.7
	c-0.1,1.7,1.2,3.1,2.9,3.1h1.8v1.4c-1.3,0.1-2.6,0.3-3.8,0.6c-0.6,0.1-1.1,0.8-0.9,1.4c0.1,0.6,0.8,1,1.4,0.9
	c1.1-0.2,2.1-0.5,3.3-0.6l1.3-0.1c0.4,0,0.7,0,1.1-0.1v2.3c0,0.7,0.5,1.2,1.2,1.2c0.7,0,1.2-0.5,1.2-1.2V9.4
	c4.4,0.2,8.5,1.4,12.2,3.3c0,0,0,0,0,0.1l-1.2,2c-0.4,0.6-0.1,1.3,0.5,1.6c0.2,0.1,0.4,0.1,0.6,0.1c0.4,0,0.8-0.2,1.1-0.6l1.2-2
	c0,0,0,0,0.1,0c3.6,2.3,6.7,5.3,9.1,9c0,0,0,0,0,0.1l-2,1.2c-0.6,0.3-0.7,1-0.5,1.6c0.2,0.3,0.6,0.6,1.1,0.6c0.2,0,0.4,0,0.6-0.1
	l2-1.2c0,0,0,0,0.1,0c2,3.7,3.2,7.9,3.3,12.2h-2.2c-0.7,0-1.2,0.5-1.2,1.2c0,0.7,0.5,1.2,1.2,1.2H63c-0.2,4.4-1.4,8.6-3.3,12.2
	c0,0,0,0-0.1,0l-2-1.2c-0.6-0.3-1.3-0.1-1.6,0.5c-0.4,0.6-0.1,1.3,0.5,1.6l2,1.2c0,0,0,0,0,0.1c-2.4,3.6-5.4,6.6-9.1,9
	c0,0,0,0-0.1,0l-1.2-2c-0.4-0.6-1.1-0.7-1.6-0.5c-0.6,0.3-0.7,1-0.5,1.6l1.2,2c0,0,0,0,0,0.1c-3.6,1.9-7.8,3-12.2,3.3v-2.2
	c0-0.7-0.5-1.2-1.2-1.2c-0.7,0-1.2,0.5-1.2,1.2v2.2c-1.9-0.1-3.8-0.3-5.5-0.7c-0.6-0.1-1.3,0.2-1.4,0.9c-0.1,0.6,0.2,1.3,0.9,1.4
	c2.4,0.6,4.7,0.8,7.2,0.8h0.1c5.7,0,10.9-1.5,15.5-4.2h0.1c4.7-2.8,8.7-6.6,11.5-11.4c0,0,0,0,0.1-0.1c0,0,0,0,0-0.1
	c2.7-4.7,4.2-9.9,4.2-15.6C65.4,32.9,63.8,27.3,61.1,22.8z M61.4,9.9l1.1,1c0.1,0.1,0.1,0.5,0,0.6l-1.1,1c-0.1,0.1-0.5,0.1-0.6,0
	l-1.1-1c-0.1-0.1-0.1-0.5,0-0.6l1.1-1C61,9.8,61.3,9.8,61.4,9.9z M32.7,7V3.5h-4.1c-0.4,0-0.6-0.2-0.6-0.6s0.2-0.6,0.6-0.6h10.6
	c0.4,0,0.6,0.2,0.6,0.6s-0.2,0.6-0.6,0.6H35V7c-0.4,0-0.8,0-1.2,0h-0.1c0,0,0,0-0.1,0c-0.2,0-0.4,0-0.6,0C32.9,7,32.8,7,32.7,7z"/>
<path class="st0" d="M23.9,17h-7.6c-0.9,0-1.5,0.4-1.5,1.1c0,0.6,0.6,1.1,1.5,1.1h7.6c0.9,0,1.5-0.4,1.5-1.1
	C25.5,17.4,24.7,17,23.9,17z"/>
<path class="st0" d="M24,25.5H9.9c-0.8,0-1.4,0.4-1.4,1.1s0.6,1.1,1.4,1.1H24c0.8,0,1.4-0.4,1.4-1.1S24.7,25.5,24,25.5z"/>
<path class="st0" d="M24.2,33.9H5.5c-0.7,0-1.2,0.4-1.2,1.1s0.5,1.1,1.2,1.1h18.7c0.7,0,1.2-0.4,1.2-1.1S24.8,33.9,24.2,33.9z"/>
<path class="st0" d="M24.2,42.4h-23c-0.7,0-1.2,0.4-1.2,1.1c0,0.6,0.5,1.1,1.2,1.1h23c0.7,0,1.2-0.4,1.2-1.1
	C25.5,42.8,24.8,42.4,24.2,42.4z"/>
<path class="st0" d="M24.2,50.9H7.6c-0.8,0-1.3,0.4-1.3,1.1c0,0.6,0.5,1.1,1.3,1.1h16.5c0.8,0,1.3-0.4,1.3-1.1
	C25.5,51.3,24.8,50.9,24.2,50.9z"/>
<path class="st0" d="M24,59.4h-9.9c-0.8,0-1.4,0.4-1.4,1.1c0,0.6,0.6,1.1,1.4,1.1H24c0.8,0,1.4-0.4,1.4-1.1
	C25.5,59.8,24.7,59.4,24,59.4z"/>
</svg>
