<?xml version="1.0" encoding="utf-8"?>
<!-- Generator: Adobe Illustrator 22.0.0, SVG Export Plug-In . SVG Version: 6.00 Build 0)  -->
<svg version="1.1" id="Layer_1" xmlns="http://www.w3.org/2000/svg" xmlns:xlink="http://www.w3.org/1999/xlink" x="0px" y="0px"
	 viewBox="0 0 70 70" style="enable-background:new 0 0 70 70;" xml:space="preserve">
<style type="text/css">
	.st0{fill:#E91E63;}
</style>
<path class="st0" d="M22.2,10.4l-2.2-1.1l1.9-4.7l-4.7-1.7l1.1-2.2l5.8,2.2c0.6,0.3,0.8,1.1,0.6,1.7L22.2,10.4z"/>
<path class="st0" d="M34.9,70c-6.6,0-13.3-1.9-19.1-5.5c-7.7-5-13-12.8-14.9-21.9c-3.3-16.6,5.5-33,21-39.1l0.8,2.2
	C8.3,11.5,0.3,26.7,3.4,42c1.9,8.6,6.6,15.8,13.8,20.5c7.5,4.7,16,6.1,24.3,4.7c8.6-1.9,15.7-6.7,20.4-13.9s6.4-15.8,4.7-24.1
	C64.7,20.6,60,13.4,52.8,8.7S37.1,2.3,28.5,4L28,1.8c9.1-1.9,18.2-0.3,26,5c7.7,5,13,12.8,14.9,21.9c1.9,9.2,0.3,18.3-5,26.1
	c-5.2,8-13,13.3-22.1,15C39.6,69.7,37.3,70,34.9,70z"/>
<path class="st0" d="M36.2,8.7H34v4.7h2.2V8.7z"/>
<path class="st0" d="M36.2,57.5H34v4.7h2.2V57.5z"/>
<path class="st0" d="M23,11.5l-2.2,1.4L23,17l1.9-1.1L23,11.5z"/>
<path class="st0" d="M47,53.9L45.1,55l2.2,4.2l1.9-1.1L47,53.9z"/>
<path class="st0" d="M12.8,21.2l-1.4,1.9l4.1,2.2l1.1-1.9L12.8,21.2z"/>
<path class="st0" d="M54.7,45.3l-1.1,1.9l4.1,2.2l1.1-1.9L54.7,45.3z"/>
<path class="st0" d="M13.3,34.2H8.6v2.2h4.7V34.2z"/>
<path class="st0" d="M61.7,34.2H57v2.2h4.7V34.2z"/>
<path class="st0" d="M15.5,45.3l-4.1,2.5l1.1,1.9l4.1-2.2L15.5,45.3z"/>
<path class="st0" d="M57.5,20.9l-4.1,2.2l1.1,1.9l4.1-2.2L57.5,20.9z"/>
<path class="st0" d="M23.3,53.9l-2.2,4.2l1.9,1.1l2.2-4.2L23.3,53.9z"/>
<path class="st0" d="M47.6,11.8l-2.2,4.2l1.9,1.1l2.2-4.2L47.6,11.8z"/>
<path class="st0" d="M32.9,45.9h-9.1c-0.3,0-0.6-0.3-0.8-0.3c-0.3-0.3-0.3-0.6-0.3-0.8c0-2.5,0.8-5,2.2-6.9l4.1-5.5
	c0.8-1.4,1.4-2.8,1.4-4.4s-1.4-2.8-2.8-2.8c-1.7,0-2.8,1.4-2.8,2.8v1.9h-2.8v-1.9c0-2.8,2.2-5.3,5.2-5.3c2.8,0,5.5,2.2,5.5,5.3
	c0,2.2-0.8,4.2-1.9,6.1l-4.1,5.5c-0.8,1.4-1.7,2.8-1.9,4.4h8V45.9L32.9,45.9z"/>
<path class="st0" d="M46.5,41.2H34.9c-0.3,0-0.8-0.3-0.8-0.6c-0.3-0.3-0.3-0.8-0.3-1.1l5-17.2l2.2,0.6l-4.1,15.8H47L46.5,41.2z"/>
<path class="st0" d="M44.5,35.3h-2.2v10.5h2.2V35.3z"/>
</svg>
