<?xml version="1.0" encoding="utf-8"?>
<!-- Generator: Adobe Illustrator 22.0.0, SVG Export Plug-In . SVG Version: 6.00 Build 0)  -->
<svg version="1.1" id="Capa_1" xmlns="http://www.w3.org/2000/svg" xmlns:xlink="http://www.w3.org/1999/xlink" x="0px" y="0px"
	 viewBox="0 0 70 70" style="enable-background:new 0 0 70 70;" xml:space="preserve">
<style type="text/css">
	.st0{fill:#E91E63;}
</style>
<g>
	<g>
		<path class="st0" d="M42.8,15.1c-1.4-3-4.5-5-7.9-5s-6.5,2-7.9,5c-0.2,0.5,0,1.1,0.5,1.4c0.5,0.2,1.1,0,1.4-0.5
			c1.1-2.3,3.5-3.8,6-3.8c2.6,0,4.9,1.5,6,3.8c0.2,0.4,0.5,0.6,0.9,0.6c0.1,0,0.3,0,0.4-0.1C42.8,16.2,43,15.6,42.8,15.1z"/>
	</g>
</g>
<g>
	<g>
		<path class="st0" d="M55.9,23c-2.1-2.6-5.6-3.8-8.8-3.1c-0.6,0.1-0.9,0.7-0.8,1.2c0.1,0.6,0.7,0.9,1.2,0.8
			c2.5-0.6,5.2,0.3,6.8,2.4c1.6,2,1.9,4.8,0.8,7.1c-0.3,0.5,0,1.1,0.5,1.4c0.1,0.1,0.3,0.1,0.5,0.1c0.4,0,0.7-0.2,0.9-0.6
			C58.4,29.3,58,25.6,55.9,23z"/>
	</g>
</g>
<g>
	<g>
		<path class="st0" d="M22.7,19.9c-3.3-0.8-6.7,0.4-8.8,3.1c-2.1,2.6-2.5,6.3-1,9.3c0.2,0.4,0.5,0.6,0.9,0.6c0.2,0,0.3,0,0.5-0.1
			c0.5-0.2,0.7-0.9,0.5-1.4c-1.1-2.3-0.8-5.1,0.8-7.1c1.6-2,4.3-2.9,6.8-2.4c0.6,0.1,1.1-0.2,1.2-0.8C23.6,20.6,23.3,20,22.7,19.9z"
			/>
	</g>
</g>
<g>
	<g>
		<path class="st0" d="M61.7,20.4c0.1-0.6,0.1-1.2,0.1-1.8c0-6.4-5.5-11.5-12.3-11.5c-1.3,0-2.5,0.2-3.7,0.5
			c-2.1-3.8-6.3-6.2-11-6.2s-8.9,2.4-11,6.2c-1.2-0.4-2.4-0.5-3.7-0.5c-2.3,0-4.6,0.6-6.5,1.7c-0.5,0.3-0.7,0.9-0.4,1.4
			c0.3,0.5,0.9,0.7,1.4,0.4c1.6-0.9,3.5-1.5,5.5-1.5c1.3,0,2.6,0.2,3.9,0.7c0.5,0.2,1.1,0,1.3-0.5c1.6-3.6,5.3-5.9,9.5-5.9
			s7.9,2.3,9.5,5.9c0.2,0.5,0.8,0.7,1.3,0.5c1.2-0.5,2.5-0.7,3.9-0.7c5.7,0,10.3,4.2,10.3,9.5c0,0.7-0.1,1.5-0.3,2.2
			c-0.1,0.5,0.2,1.1,0.7,1.3c4.4,1.1,7.5,4.9,7.5,9.1c0,5.2-4.6,9.5-10.3,9.5c-0.2,0-0.5,0-0.7,0c-1.3,0-2.5,0-3.6-0.3c0,0,0,0,0,0
			c-0.4-0.1-0.7-0.2-1-0.4c0,0,0,0,0,0c-0.1,0-0.2-0.1-0.3-0.2c0,0,0,0-0.1,0c-0.1-0.1-0.2-0.1-0.2-0.2c0,0,0,0-0.1-0.1
			c-0.1-0.1-0.2-0.1-0.2-0.2c0,0,0,0-0.1-0.1c-0.1-0.1-0.2-0.1-0.2-0.2c0,0,0,0,0,0c-0.1-0.1-0.2-0.2-0.2-0.3
			c-0.1-0.1-0.1-0.1-0.2-0.2c0,0,0,0-0.1-0.1c0,0-0.1-0.1-0.1-0.1c0,0,0,0-0.1-0.1c-0.1-0.1-0.1-0.1-0.2-0.1c0,0-0.1,0-0.1-0.1
			c0,0-0.1-0.1-0.1-0.1c0,0-0.1,0-0.1-0.1c-0.1,0-0.1-0.1-0.2-0.1c0,0,0,0,0,0c-0.1,0-0.1-0.1-0.2-0.1c0,0,0,0,0,0
			c-1.3-0.8-3-0.9-4.5-0.2c-2.4,1-4.8,1.6-7.2,1.8c-0.4,0-0.7,0.1-1.1,0.1c0,0,0,0,0,0c-0.2,0-0.3,0-0.5,0c-0.2,0-0.4,0-0.5,0
			l-1.9,0c0,0,0,0,0,0c-0.1,0-0.3,0-0.4,0c-0.1,0-0.1,0-0.2,0c0,0-0.1,0-0.1,0c-0.2,0-0.4,0-0.5,0c0,0,0,0,0,0
			c-2.4-0.2-4.8-0.8-7.3-1.9c-1.3-0.6-2.7-0.6-4-0.1c0,0,0,0,0,0c-0.1,0.1-0.3,0.1-0.4,0.2c0,0,0,0,0,0c-0.1,0.1-0.2,0.1-0.3,0.2
			c0,0,0,0,0,0c0,0-0.1,0.1-0.1,0.1c0,0-0.1,0-0.1,0.1c0,0-0.1,0.1-0.1,0.1c-0.1,0-0.1,0.1-0.2,0.1c0,0-0.1,0-0.1,0.1
			c-0.1,0-0.1,0.1-0.2,0.2c0,0,0,0,0,0c-0.1,0.1-0.1,0.1-0.2,0.2c0,0,0,0-0.1,0.1c-0.1,0.1-0.1,0.1-0.2,0.2c0,0,0,0,0,0
			c-0.1,0.1-0.1,0.2-0.2,0.2c0,0,0,0-0.1,0.1c-0.1,0.1-0.1,0.1-0.2,0.2c0,0-0.1,0.1-0.1,0.1c0,0-0.1,0.1-0.1,0.1
			c-0.1,0.1-0.1,0.1-0.2,0.2c0,0,0,0-0.1,0c-0.1,0.1-0.2,0.1-0.3,0.2c0,0,0,0,0,0c-0.1,0-0.1,0.1-0.2,0.1c0,0,0,0,0,0
			c-0.1,0-0.2,0.1-0.3,0.1c0,0-0.1,0-0.1,0.1c-0.1,0-0.1,0-0.2,0.1c-0.1,0-0.1,0-0.2,0.1c-1.1,0.3-2.3,0.3-3.8,0.3
			c-0.2,0-0.5,0-0.7,0c-5.7,0-10.3-4.2-10.3-9.5c0-4.2,3.1-8,7.5-9.1c0.5-0.1,0.9-0.7,0.7-1.3c-0.2-0.7-0.3-1.5-0.3-2.2
			c0-1.8,0.5-3.5,1.6-5c0.3-0.5,0.2-1.1-0.3-1.4c-0.5-0.3-1.1-0.2-1.4,0.3c-1.3,1.8-1.9,4-1.9,6.2c0,0.6,0,1.2,0.1,1.8
			C3.3,22,0,26.3,0,31.2c0,6.4,5.5,11.5,12.3,11.5c0.2,0,0.5,0,0.7,0c0.2,0,0.4,0,0.7,0c1,0,2.1,0,3-0.2c8.9,8.8,9.9,16,9.9,18.6v4
			c0,0.8,0.5,2,2.9,2.9c1.5,0.5,3.5,0.8,5.6,0.8c2.1,0,4.1-0.3,5.6-0.8c2.4-0.9,2.9-2,2.9-2.9v-4c0-3.3,1.2-6.9,3.5-10.7
			c0.3-0.5,0.1-1.1-0.3-1.4c-0.5-0.3-1.1-0.1-1.4,0.3c-2.5,4.1-3.8,8.1-3.8,11.8l0,4c0,0.1-0.4,0.6-1.7,1c-1.3,0.4-3,0.7-4.7,0.7
			s-3.5-0.2-4.7-0.7c-1.3-0.4-1.6-0.9-1.7-1v-4c0-8.1-6.2-15.7-9.8-19.4c0.2-0.1,0.5-0.3,0.7-0.5c0,0,0,0,0,0
			c0.1-0.1,0.1-0.1,0.2-0.2c0,0,0,0,0,0c0.1,0,0.1-0.1,0.2-0.2c0,0,0,0,0,0c0.1-0.1,0.1-0.1,0.2-0.2c0,0,0,0,0,0
			c0.1-0.1,0.1-0.1,0.2-0.2c0,0,0,0,0,0c0.1-0.1,0.1-0.1,0.2-0.2c0.1-0.1,0.1-0.1,0.2-0.2c0,0,0,0,0.1-0.1c0,0,0.1-0.1,0.1-0.1
			c0,0,0.1-0.1,0.1-0.1c0,0,0,0,0.1,0c0,0,0.1-0.1,0.1-0.1c2.7,2.5,6.2,6.4,8.4,11.2c0.3,0.7,1,1,1.7,0.9c0.7-0.1,1.3-0.7,1.3-1.4
			l0.6-8.8c0.1,0,0.3,0,0.4,0l1.9,0c0.1,0,0.2,0,0.3,0c0.1,0,0.2,0,0.2,0c0.1,0,0.2,0,0.2,0c0.2,0,0.4,0,0.6,0c0,0,0,0,0,0l0.6,8.8
			c0,0.7,0.6,1.3,1.3,1.4c0.7,0.1,1.4-0.2,1.7-0.9c2.1-4.8,5.5-8.6,8.2-11.1c0,0,0,0,0,0c0.1,0.1,0.1,0.1,0.2,0.2c0,0,0,0,0,0
			c0.1,0.1,0.1,0.1,0.2,0.2c0.1,0.1,0.1,0.2,0.2,0.2c0,0,0,0,0,0c0.1,0.1,0.1,0.1,0.2,0.2c0,0,0,0,0,0c0.1,0.1,0.1,0.1,0.2,0.2
			c0,0,0,0,0,0c0.1,0.1,0.1,0.1,0.2,0.2c0,0,0,0,0,0c0.3,0.3,0.7,0.5,1,0.7c-0.9,0.9-2,2.1-3,3.5c-0.4,0.4-0.3,1.1,0.2,1.4
			c0.4,0.4,1.1,0.3,1.4-0.2c1.3-1.7,2.6-3.1,3.6-4c1.2,0.2,2.4,0.2,3.5,0.2c0.2,0,0.4,0,0.7,0c6.8,0,12.3-5.2,12.3-11.5
			C69.8,26.3,66.5,22,61.7,20.4z M30.7,48.4c-1.9-3.7-4.5-6.8-6.8-9.1c0.1,0,0.3,0.1,0.4,0.1c2.3,1,4.6,1.7,6.9,1.9L30.7,48.4z
			 M39.4,48.4l-0.5-7c2.2-0.3,4.5-0.9,6.8-1.9c0.2-0.1,0.3-0.1,0.5-0.2C43.9,41.6,41.3,44.7,39.4,48.4z"/>
	</g>
</g>
</svg>
