<?xml version="1.0" encoding="utf-8"?>
<!-- Generator: Adobe Illustrator 22.0.0, SVG Export Plug-In . SVG Version: 6.00 Build 0)  -->
<svg version="1.1" id="Layer_1" xmlns="http://www.w3.org/2000/svg" xmlns:xlink="http://www.w3.org/1999/xlink" x="0px" y="0px"
	 viewBox="0 0 70 70" style="enable-background:new 0 0 70 70;" xml:space="preserve">
<style type="text/css">
	.st0{fill:#E91E63;}
</style>
<path class="st0" d="M51.9,31.5c0.6-0.6,0.6-1.4,0-1.9c-0.6-0.6-1.4-0.6-1.9,0c-0.6,0.6-0.5,1.5,0,1.9C50.4,32,51.4,32,51.9,31.5z"
	/>
<path class="st0" d="M3.6,57.3l9.4,9.3c3.6,3.6,9.7,3.6,13.3,0l5.5-5.3c1.7-1.7,2.2-3.9,1.9-5.8c2.2,0.3,4.2-0.3,5.8-1.9
	s2.2-3.9,1.9-5.8c1.9,0.3,4.2-0.3,5.8-1.9c1.7-1.7,2.2-3.9,1.9-5.8c2.2,0.3,4.2-0.3,5.8-1.9l2.5-2.5c1.9-1.7,3-3.9,3.3-6.4l1.9-11.1
	c1.4,0.3,2.8,0,3.9-1.1l1.9-2.5c1.7-1.7,1.7-4.2,0-5.8l-7.5-7.5c-1.7-1.7-4.2-1.7-5.8,0L53,3.8c-1.1,1.1-1.4,2.5-1.1,3.9L40.8,9.6
	c-2.5,0.3-4.7,1.7-6.4,3.3l-2.5,2.5c-1.7,1.7-2.2,3.9-1.9,5.8c-1.9-0.3-4.2,0.3-5.8,1.9c-1.7,1.7-2.2,3.6-1.9,5.8
	c-1.9-0.3-4.2,0.3-5.8,1.9c-1.4,1.1-2.2,3.3-1.9,5.3c-1.9-0.3-4.2,0.3-5.8,1.9l-5.5,5.3C-1.1,47.7-0.7,53.1,3.6,57.3z M54.9,5.8
	l2.5-2.5c0.6-0.6,1.4-0.6,1.9,0l7.5,7.5c0.6,0.6,0.6,1.4,0,1.9l-2.5,2.5c-0.6,0.6-1.4,0.6-1.9,0l-7.5-7.5
	C54.1,7.1,54.1,6.3,54.9,5.8z M33.6,17.1l2.5-2.5c1.4-1.4,3.3-2.2,5-2.5l12.2-2.2l6.6,6.6l-2.2,12.2c-0.3,1.9-1.1,3.6-2.5,5
	l-2.5,2.5c-1.7,1.7-4.2,1.7-5.8,0L33.6,22.9C31.9,21.5,31.9,18.8,33.6,17.1z M26.1,24.9c1.7-1.7,4.2-1.7,5.8,0l13.3,13.3
	c1.7,1.7,1.7,4.2,0,5.8c-1.7,1.7-4.2,1.7-5.8,0L26.1,30.7C24.4,29,24.4,26.5,26.1,24.9z M18.3,32.6c1.7-1.7,4.2-1.7,5.8,0l13.3,13.3
	c1.7,1.7,1.7,4.2,0,5.8c-1.7,1.7-4.2,1.7-5.8,0L18.3,38.2C16.7,36.5,16.7,34.3,18.3,32.6z M10.9,40.1c1.7-1.7,4.2-1.7,5.8,0L30,53.4
	c1.7,1.7,1.7,4.2,0,5.8l-5.5,5.3c-2.5,2.5-6.9,2.5-9.7,0l-9.7-9.7c-2.3-2.6-3.2-6.9-0.3-9.7L10.9,40.1z"/>
<path class="st0" d="M48,25.7L41.3,19c-0.6-0.6-1.4-0.6-1.9,0c-0.6,0.6-0.6,1.4,0,1.9l6.6,6.6c0.6,0.6,1.4,0.6,1.9,0
	C48.5,27.1,48.5,26.5,48,25.7z"/>
</svg>
