<?xml version="1.0" encoding="utf-8"?>
<!-- Generator: Adobe Illustrator 22.0.1, SVG Export Plug-In . SVG Version: 6.00 Build 0)  -->
<svg version="1.1" id="Layer_1" xmlns="http://www.w3.org/2000/svg" xmlns:xlink="http://www.w3.org/1999/xlink" x="0px" y="0px"
	 viewBox="0 0 607.8 659" style="enable-background:new 0 0 607.8 659;" xml:space="preserve">
<style type="text/css">
	.st0{fill:#F5E1ED;}
	.st1{fill:#E0BDD4;}
	.st2{fill:none;}
</style>
<circle class="st0" cx="304.3" cy="329.2" r="301.3"/>
<g>
	<path class="st1" d="M535.7,519.4H72.8c-0.6,0-1,0.4-1,1s0.4,1,1,1h462.9c0.6,0,1-0.4,1-1S536.3,519.4,535.7,519.4z"/>
	<path class="st1" d="M566.2,474.6H102.5c1-1.1,1.6-2.6,1.6-4.2v-5.5h14.3c0.5,0,1-0.4,1-1l0.1-3.2c0-0.1,0-0.1,0-0.2
		c-0.5-2.7,0.4-7.6,1.2-11.4c1.4,4.8,4.2,7.8,6.7,8.9c1.5,0.7,2.8,0.8,3.7,0.1c1.3-1,2.4-4.5,3.1-7.3c1.3,5.4-1.2,12.3-1.2,12.4
		c-0.1,0.3-0.1,0.6,0.1,0.9c0.2,0.3,0.5,0.4,0.8,0.4h16.9c0.3,0,0.5-0.1,0.7-0.3c0.2-0.2,0.3-0.5,0.3-0.8c-0.6-6.5,3.1-11.7,5.2-14
		c1.1,4.1,4.9,6,7,6.4c0.5,0.1,1-0.2,1.2-0.7c1.4-5.6,1-9.6,0.2-12.1c5.8,4.8,7.4,12.4,7.9,17c0,1.2,0,2.5,0.2,3.8
		c0,0.5,0.5,0.9,1,0.9c0.5,0,1-0.4,1-0.9c0-0.2,0.1-1.8-0.1-4.2c0.1-6.2,1.7-9.5,3.2-11.2c-3.4,11.7,5.2,18.8,5.3,18.9
		c0.2,0.1,0.4,0.2,0.6,0.2h17.9c0.6,0,1-0.4,1-1V340.6c4.9-3.7,9.3-8.1,13-13.3c0.9-1.3,1.8-2.6,2.6-3.9v16.7c0,0.6,0.4,1,1,1
		s1-0.4,1-1v-17c0-0.6-0.4-1-1-1c-0.1,0-0.1,0-0.2,0c1.2-2.1,2.4-4.3,3.3-6.6c3.1,7.3,7.7,13.9,13.3,19.5v131.7c0,0.6,0.4,1,1,1
		h27.6c0.3,0,0.6-0.2,0.8-0.4c0.2-0.2,3.8-5.6,1.9-10.7c-0.8-2.1-2.5-3.9-4.9-5.2c3.9,0.2,9.3,1.7,11,7.8c0.2,0.5,0.7,0.8,1.2,0.7
		c0.5-0.1,0.8-0.7,0.7-1.2c0-0.1-2.9-11.6,1.6-17.9c1.4-2,3.4-3.2,6-3.8c-1.6,4.9-5.3,19.7,6.4,27.9l3.8,2.6
		c0.2,0.1,0.4,0.2,0.6,0.2h26.5c0.3,0,0.5-0.1,0.7-0.3c0.1-0.1,3-3.1-0.6-8.7c1.8,0.5,4,1.5,4.7,3.4c0,0,0,0,0,0c0,0,0,0.1,0.1,0.1
		c0,0.1,0.1,0.1,0.1,0.2c0,0,0.1,0.1,0.1,0.1c0.1,0,0.1,0.1,0.2,0.1c0,0,0,0,0.1,0s0,0,0.1,0c0.1,0,0.2,0,0.2,0c0,0,0.1,0,0.1,0
		c0,0,0,0,0.1,0c0.1,0,0.1,0,0.1-0.1c0,0,0.1,0,0.1-0.1c0.1,0,0.1-0.1,0.2-0.1c0,0,0.1,0,0.1-0.1c0.1-0.1,0.1-0.2,0.2-0.3
		c0,0,0,0,0,0c0-0.1,2.6-7.2,7.2-8.4c-0.7,2.4-1.6,7.1,0.2,10.4c0.9,1.8,2.5,3,4.7,3.6c0.1,0,0.2,0,0.3,0h20.3c0.6,0,1-0.4,1-1
		s-0.4-1-1-1h-20.2c-1.5-0.4-2.6-1.3-3.3-2.6c-2-3.9,0.4-10.3,0.4-10.4c0.1-0.3,0.1-0.7-0.1-0.9c-0.2-0.3-0.5-0.4-0.8-0.4
		c-4,0-6.8,3.2-8.5,6V443c9-2.5,13.4-10.3,13-14.9c-0.2-2-1.2-3.2-2.8-3.3c-2.5-0.1-4.7,1.9-6.3,4.1c0.2-2.5,0.2-5.3-1-6.8
		c-0.9-1.2-2.4-1.5-4.2-0.9c-4.9,1.8-3.3,7.4-2.2,10.7c-0.6-0.7-1.1-1.5-1.7-2.3c-1.9-2.7-3.1-4.3-4.6-4.3c-2.1,0-2.4,3.2-2.5,4.5
		c-0.8,8.6,7.8,12.2,10.4,13.1v15.9c-2.7-2.2-6.8-2.6-7-2.6c-0.4,0-0.8,0.2-1,0.5c-0.2,0.4-0.1,0.8,0.1,1.1c3.9,4.5,3,7,2.6,7.9
		h-25.7l-3.5-2.4c-12.7-8.9-5.2-27-5.1-27.1c0.1-0.3,0.1-0.7-0.1-1c-0.2-0.3-0.5-0.4-0.9-0.4c-4,0.3-7,2-9,4.8
		c-2.9,4.1-3.1,9.8-2.8,14c-5.4-5.7-15-3.9-15.1-3.9c-0.5,0.1-0.8,0.5-0.8,1c0,0.5,0.3,0.9,0.8,1c4.4,1.1,7.1,3,8,5.6
		c1.3,3.4-0.7,7.2-1.4,8.5h-26V337c1.7,1.5,3.5,3,5.3,4.3c10.6,7.7,23.2,11.7,36.2,11.7c19.9,0,38.7-9.6,50.3-25.7
		c11.8-16.3,14.9-37.3,8.4-56.3c10.3-5.4,19-13,25.9-22.5c11.7-16.2,16.4-36.1,13.2-55.9s-13.9-37.1-30.1-48.9
		c-12.9-9.3-28-14.2-43.8-14.2c-5.2,0-10.4,0.5-15.5,1.6c-4.2-17.2-14.5-32.4-28.9-42.8c-12.9-9.3-28-14.2-43.8-14.2
		c-24.1,0-46.8,11.6-60.9,31.1c-3.2,4.5-5.9,9.2-8,14.1c-23.5,0.7-44.8,12-58.5,31.1c-11.7,16.2-16.4,36.1-13.2,55.9
		s13.9,37.1,30.1,48.8c2.3,1.7,4.8,3.2,7.3,4.6c-7.6,13.1-10.1,28.4-7.1,43.4c3.1,15.3,11.8,28.8,24.5,38
		c10.6,7.7,23.2,11.7,36.2,11.7c12.7,0,25-4,35.3-11v123.8h-16.5c-1.5-1.3-8.3-8.3-3.4-19.4c0.2-0.3,0.1-0.8-0.1-1
		c-0.2-0.3-0.6-0.4-1-0.3c-0.2,0.1-4.5,1.2-6.2,8.3c-1.5-5-4.5-10.6-10.6-13.8c-0.4-0.2-0.9-0.1-1.2,0.3c-0.3,0.4-0.3,0.9,0,1.3
		c0,0,3.3,4,1.3,12.8c-1.6-0.6-4.6-2.3-4.8-6.3c0-0.4-0.2-0.7-0.6-0.9c-0.4-0.2-0.8-0.1-1.1,0.2c-0.3,0.3-7.6,6.7-7.3,16h-14.4
		c0.9-3.1,2.6-10.6-0.5-15.5c-0.2-0.3-0.6-0.5-1-0.5c-0.4,0.1-0.7,0.4-0.8,0.8c-0.8,3.9-2.2,8.5-3.1,9.1c-0.1,0.1-0.8,0.1-1.8-0.5
		c-2.6-1.4-5.8-5.4-6.1-12.2c0-0.5-0.4-0.9-0.9-1c-0.5-0.1-0.9,0.3-1.1,0.7c-0.1,0.5-3.3,11.8-2.4,17l-0.1,2.2h-13.3v-77.1
		c0-3.4-2.8-6.2-6.2-6.2c-1.6,0-3.1,0.6-4.2,1.6v-9.8c0-4-3.3-7.3-7.3-7.3H6.3c-0.6,0-1,0.4-1,1s0.4,1,1,1h80.1
		c2.9,0,5.3,2.4,5.3,5.3v14.3v28.4c0,2.9-2.4,5.3-5.3,5.3H18.3c-0.6,0-1,0.4-1,1s0.4,1,1,1h68.2c2.1,0,4-0.9,5.3-2.3v12.6
		c-1.3-1.4-3.2-2.3-5.3-2.3H21.8c-0.6,0-1,0.4-1,1s0.4,1,1,1h64.7c2.9,0,5.3,2.4,5.3,5.3v4.6c0,2.9-2.4,5.3-5.3,5.3H28.1
		c-0.6,0-1,0.4-1,1s0.4,1,1,1h58.4c2.1,0,4-0.9,5.3-2.3v24c0,1.6,0.6,3.1,1.6,4.2H42.6c-0.6,0-1,0.4-1,1s0.4,1,1,1h523.6
		c0.6,0,1-0.4,1-1S566.8,474.6,566.2,474.6z M316.9,430.1c0.2-1.9,0.5-2.5,0.6-2.7c0.7,0.3,2,2.2,2.9,3.4c1.3,1.8,2.4,3.4,3.6,4.2
		c0.9,0.6,1.6,0.5,2.1-0.1c0.5-0.7,0.2-1.5-0.3-3.2c-1.2-3.7-2.1-7.5,0.9-8.6c0.9-0.3,1.5-0.3,1.9,0.2c1.3,1.7,0.5,7.4-0.3,10.6
		c-0.1,0.5,0.1,1,0.6,1.2c0.5,0.2,1-0.1,1.2-0.5c0.9-2,4.2-7.8,7.1-7.8l0.1,0c0.7,0,0.9,0.8,0.9,1.5c0.3,3.2-2.8,10.1-11,12.7
		c-0.1-0.4-0.5-0.7-0.9-0.7c-0.4,0-0.8,0.3-0.9,0.7C322.6,439.9,316.3,436.8,316.9,430.1z M130.8,339.7
		C106,321.8,98.7,287.4,114,261c2.2,1,8.1,3.1,19.3,3.1c1,0,2.1,0,3.2-0.1c0.6,0,1-0.5,1-1c0-0.6-0.5-1-1-1
		c-13.6,0.5-20.3-2.3-21.9-3.1c-0.1-0.1-0.2-0.2-0.3-0.3c-2.7-1.5-5.4-3.2-8-5c-15.8-11.4-26.2-28.3-29.3-47.5s1.5-38.6,12.9-54.4
		c13.2-18.3,33.6-29.3,56.1-30.2c-1.2,4.2-4.2,17.5,0.4,32.5c0.1,0.4,0.5,0.7,1,0.7c0.1,0,0.2,0,0.3,0c0.5-0.2,0.8-0.7,0.7-1.3
		c-4.9-15.8-0.8-30.1-0.1-32.3c0.1-0.1,0.1-0.2,0.2-0.3c2.1-5,4.8-9.8,8.1-14.3c13.7-19,35.8-30.3,59.3-30.3
		c15.4,0,30.1,4.8,42.7,13.8c14,10.1,24,24.9,28.1,41.7c-3.3,1-15.1,5.1-23.5,17.4c-0.3,0.5-0.2,1.1,0.3,1.4
		c0.2,0.1,0.4,0.2,0.6,0.2c0.3,0,0.6-0.2,0.8-0.4c9.2-13.3,23-16.7,23.2-16.8c0.1,0,0.1-0.1,0.2-0.1c5.2-1.2,10.6-1.8,16-1.8
		c15.4,0,30.1,4.8,42.6,13.8c15.8,11.4,26.2,28.3,29.3,47.5c3.1,19.2-1.5,38.6-12.9,54.4c-6.9,9.5-15.6,17-26,22.3c0,0,0,0,0,0
		c-0.9,0.3-18,5.6-34.1-2.9c-0.5-0.3-1.1-0.1-1.4,0.4c-0.3,0.5-0.1,1.1,0.4,1.4c7.5,3.9,15,5.1,21.3,5.1c6.6,0,11.7-1.3,13.6-1.8
		c6.2,18.4,3.2,38.6-8.2,54.3c-11.2,15.6-29.5,24.9-48.7,24.9c-12.7,0-24.8-3.9-35.1-11.4c-9.5-6.9-16.7-16.2-20.9-27.1
		c-0.1-0.4-0.5-0.6-0.9-0.6c0,0,0,0,0,0c-0.4,0-0.8,0.3-0.9,0.6c-1.8,4.8-4.3,9.4-7.4,13.6c-11.3,15.6-29.5,24.9-48.7,24.9
		C153.3,351,141.1,347.1,130.8,339.7z M93.8,470.5v-29v-4.6v-22.6v-28.4c0-2.3,1.9-4.2,4.2-4.2c2.3,0,4.2,1.9,4.2,4.2v84.6
		c0,2.3-1.9,4.2-4.2,4.2C95.6,474.6,93.8,472.8,93.8,470.5z"/>
	<path class="st1" d="M84.7,376.2c0-0.6-0.4-1-1-1H7.9c-0.6,0-1,0.4-1,1s0.4,1,1,1h75.8C84.3,377.2,84.7,376.8,84.7,376.2z"/>
	<path class="st1" d="M84.7,387.7c0-0.6-0.4-1-1-1H9.8c-0.6,0-1,0.4-1,1s0.4,1,1,1h73.9C84.3,388.7,84.7,388.2,84.7,387.7z"/>
	<path class="st1" d="M84.7,399.1c0-0.6-0.4-1-1-1H12.3c-0.6,0-1,0.4-1,1s0.4,1,1,1h71.4C84.3,400.1,84.7,399.6,84.7,399.1z"/>
	<path class="st1" d="M84.7,410.5c0-0.6-0.4-1-1-1H15.1c-0.6,0-1,0.4-1,1s0.4,1,1,1h68.6C84.3,411.5,84.7,411,84.7,410.5z"/>
	<path class="st1" d="M211.7,344.3c0-0.6-0.4-1-1-1s-1,0.4-1,1v28.1c0,0.6,0.4,1,1,1s1-0.4,1-1V344.3z"/>
	<path class="st1" d="M210.7,387.9c-0.6,0-1,0.4-1,1v61.9c0,0.6,0.4,1,1,1s1-0.4,1-1v-61.9C211.7,388.3,211.3,387.9,210.7,387.9z"/>
	<path class="st1" d="M229.5,332.6c0-0.6-0.4-1-1-1s-1,0.4-1,1v66.2c0,0.6,0.4,1,1,1s1-0.4,1-1V332.6z"/>
	<path class="st1" d="M228.5,409.9c-0.6,0-1,0.4-1,1v49.8c0,0.6,0.4,1,1,1s1-0.4,1-1v-49.8C229.5,410.4,229,409.9,228.5,409.9z"/>
	<path class="st1" d="M219.8,364.7c-0.6,0-1,0.4-1,1v62.1c0,0.6,0.4,1,1,1s1-0.4,1-1v-62.1C220.8,365.2,220.4,364.7,219.8,364.7z"/>
	<path class="st1" d="M109.1,155.9c-0.2,0.3-21.8,32.1-2.2,65.1c0.2,0.3,0.5,0.5,0.9,0.5c0.2,0,0.3,0,0.5-0.1
		c0.5-0.3,0.6-0.9,0.4-1.4c-18.9-31.9,1.9-62.7,2.1-63c0.3-0.5,0.2-1.1-0.3-1.4C110,155.3,109.4,155.5,109.1,155.9z"/>
	<path class="st1" d="M157.2,330.6c-33.6-3-31.3-38.4-31.2-39.9c0-0.5-0.4-1-0.9-1.1c-0.6-0.1-1,0.4-1.1,0.9c0,0.4-2.6,38.8,33,42
		c0,0,0.1,0,0.1,0c0.5,0,0.9-0.4,1-0.9C158.1,331.1,157.7,330.7,157.2,330.6z"/>
	<path class="st1" d="M267.8,328.5c-0.2,0.5,0.1,1.1,0.7,1.3c0.1,0,6,1.8,13.7,1.8c11.8,0,27.9-4.1,34.6-24.7
		c0.2-0.5-0.1-1.1-0.6-1.3c-0.5-0.2-1.1,0.1-1.3,0.6c-10.4,32.1-44.4,22-45.8,21.6C268.6,327.7,268,328,267.8,328.5z"/>
	<path class="st1" d="M202.7,310.2c-0.5-0.2-1.1,0-1.3,0.4c-4.8,9.6-19.7,14.4-19.9,14.5c-0.5,0.2-0.8,0.7-0.6,1.3
		c0.1,0.4,0.5,0.7,1,0.7c0.1,0,0.2,0,0.3,0c0.6-0.2,15.9-5.1,21.1-15.5C203.4,311.1,203.2,310.5,202.7,310.2z"/>
	<path class="st1" d="M167.6,133.5c0.1,0,0.2,0,0.3,0c0.4,0,0.8-0.3,1-0.7c0.1-0.4,11.9-38,54-37.2c0.6,0,1-0.4,1-1c0-0.6-0.4-1-1-1
		c-43.7-0.8-55.8,38.2-55.9,38.6C166.8,132.8,167.1,133.3,167.6,133.5z"/>
	<path class="st1" d="M239.7,100.7c0.1,0.1,12.8,6.5,19.1,16.5c0.2,0.3,0.5,0.5,0.8,0.5c0.2,0,0.4,0,0.5-0.2
		c0.5-0.3,0.6-0.9,0.3-1.4c-6.6-10.5-19.3-17-19.9-17.2c-0.5-0.2-1.1,0-1.3,0.4C239,99.8,239.2,100.4,239.7,100.7z"/>
	<path class="st1" d="M202.2,271.6c0-0.6-0.4-1-1-1c-19.3,0-36-11.5-43.5-28.1c0.3-0.3,0.4-0.7,0.3-1.1c-0.1-0.5-0.6-0.7-1.1-0.7
		c-2.3-5.5-3.5-11.6-3.5-17.9c0-26.3,21.4-47.8,47.8-47.8c11.6,0,22.7,4.2,31.4,11.8c0.4,0.3,0.9,0.3,1.2,0.1c5-3.6,10.9-5.5,17-5.5
		c16.1,0,29.1,13.1,29.1,29.1c0,0.6,0.4,1,1,1s1-0.4,1-1c0-17.2-14-31.1-31.1-31.1c-6.3,0-12.4,1.9-17.6,5.4
		c-9-7.6-20.4-11.8-32.1-11.8c-27.4,0-49.8,22.3-49.8,49.8c0,6.5,1.3,12.8,3.6,18.5c-20.4,5.5-35.7-5.9-35.9-6
		c-0.4-0.3-1.1-0.2-1.4,0.2c-0.3,0.4-0.3,1.1,0.2,1.4c0.1,0.1,10.6,7.9,25.8,7.9c3.8,0,7.8-0.5,12.1-1.7
		c7.8,17.3,25.2,29.4,45.4,29.4C201.8,272.6,202.2,272.1,202.2,271.6z"/>
	<path class="st1" d="M212.4,188.6c0-0.6-0.4-1-0.9-1.1c-14.4-1-25.1,2.2-31.9,9.5c-9.8,10.4-7.9,25.3-7.9,26c0.1,0.5,0.5,0.9,1,0.9
		c0,0,0.1,0,0.1,0c0.5-0.1,0.9-0.6,0.9-1.1c0-0.1-1.8-14.6,7.3-24.3c6.4-6.8,16.6-9.8,30.3-8.8C211.9,189.5,212.3,189.1,212.4,188.6
		z"/>
	<path class="st1" d="M272.8,209.4c0.1,0,0.2,0,0.4-0.1c0.5-0.2,0.8-0.8,0.6-1.3c-2.9-7.6-7.3-12.6-12.9-15.1
		c-7.8-3.4-15.1-0.5-15.4-0.4c-0.5,0.2-0.8,0.8-0.6,1.3c0.2,0.5,0.8,0.8,1.3,0.6c0.1,0,6.8-2.7,13.9,0.4c5.1,2.2,9.1,6.9,11.9,14
		C272,209.2,272.4,209.4,272.8,209.4z"/>
	<path class="st1" d="M458.2,325.4c-5.3,1.8-10.8,2.7-16.5,2.7c-11.4,0-22.2-3.7-31.2-10.6c-0.4-0.3-1.1-0.3-1.4,0.2
		c-0.3,0.4-0.3,1.1,0.2,1.4c9.4,7.2,20.6,11,32.4,11c5.9,0,11.6-0.9,17.1-2.8c0.5-0.2,0.8-0.7,0.6-1.3
		C459.3,325.5,458.7,325.3,458.2,325.4z"/>
	<path class="st1" d="M537.7,267.3c0-11.1-7.4-20.7-18-23.6c-3.3-18.1-18.9-31.2-37.4-31.2c-21,0-38,17.1-38,38
		c0,3.1,0.4,6.2,1.1,9.1c0.1,0.5,0.7,0.9,1.2,0.7c0.5-0.1,0.9-0.7,0.7-1.2c-0.7-2.8-1-5.7-1-8.6c0-19.9,16.2-36,36-36
		c17.7,0,32.7,12.7,35.5,30.2c0.1,0.4,0.4,0.7,0.8,0.8c10.1,2.4,17.1,11.4,17.1,21.8c0,12.4-10.1,22.4-22.4,22.4c-0.6,0-1,0.4-1,1
		s0.4,1,1,1C526.7,291.7,537.7,280.7,537.7,267.3z"/>
	<path class="st1" d="M482.7,227.3c-13,0-23.5,10.5-23.5,23.5c0,0.6,0.4,1,1,1s1-0.4,1-1c0-11.9,9.6-21.5,21.5-21.5
		c9.7,0,18.2,6.5,20.8,15.9c0.1,0.5,0.7,0.8,1.2,0.7c0.5-0.1,0.8-0.7,0.7-1.2C502.6,234.4,493.3,227.3,482.7,227.3z"/>
	<path class="st1" d="M469,179.7c6-6.2,14.1-9.7,22.8-9.7c17.5,0,31.7,14.2,31.7,31.7c0,0.6,0.4,1,1,1s1-0.4,1-1
		c0-18.6-15.1-33.7-33.7-33.7c-9.2,0-17.8,3.6-24.2,10.3c-0.4,0.4-0.4,1,0,1.4C468,180.1,468.6,180.1,469,179.7z"/>
	<path class="st1" d="M459.4,207.4c0,0,0.1,0,0.1,0c0.5-0.1,0.9-0.6,0.9-1.1c-0.2-1.5-0.3-3-0.3-4.5c0-5.1,1.2-10,3.5-14.5
		c0.3-0.5,0.1-1.1-0.4-1.3c-0.5-0.3-1.1-0.1-1.3,0.4c-2.5,4.8-3.7,10-3.7,15.4c0,1.6,0.1,3.2,0.3,4.8
		C458.5,207,458.9,207.4,459.4,207.4z"/>
	<path class="st1" d="M515.3,316c28.5-1.9,50.7-25.8,50.7-54.3c0-13.5-5-26.4-13.9-36.4c-0.4-0.4-1-0.4-1.4-0.1s-0.4,1-0.1,1.4
		c8.7,9.6,13.4,22.1,13.4,35c0,27.5-21.5,50.5-48.9,52.3c-0.6,0-1,0.5-0.9,1.1C514.3,315.6,514.7,316,515.3,316
		C515.3,316,515.3,316,515.3,316z"/>
	<path class="st1" d="M483.7,366.4c0.6,0,1-0.4,1-1v-30.8c0-0.6-0.4-1-1-1s-1,0.4-1,1v30.8C482.7,366,483.2,366.4,483.7,366.4z"/>
	<path class="st1" d="M482.7,379.8c0,0.6,0.4,1,1,1s1-0.4,1-1v-9.1c0-0.6-0.4-1-1-1s-1,0.4-1,1V379.8z"/>
	<path class="st1" d="M492.9,410.5c0.6,0,1-0.4,1-1v-49.1c0-0.6-0.4-1-1-1s-1,0.4-1,1v49.1C491.9,410,492.3,410.5,492.9,410.5z"/>
	<path class="st1" d="M491.9,436.4c0,0.6,0.4,1,1,1s1-0.4,1-1V420c0-0.6-0.4-1-1-1s-1,0.4-1,1V436.4z"/>
	<path class="st1" d="M482.7,467.9c0,0.6,0.4,1,1,1s1-0.4,1-1v-62c0-0.6-0.4-1-1-1s-1,0.4-1,1V467.9z"/>
	<path class="st1" d="M571.9,463.6h-28c-0.5-0.2-1.8-1-2.4-2.6c-0.6-1.6-0.2-3.7,1.2-6.1c3.1-5.5,4.8-7.2,5.8-8.1
		c0.4-0.4,0.7-0.7,0.9-1.1c0.2-0.4,0.1-0.9-0.2-1.2c-0.8-0.8-6.9-0.4-9.3,0.9c-1.8,1-3.1,2.5-3.9,3.8c-0.9-3.6-3.1-9.4-7.7-9.8
		c-0.3,0-0.6,0.1-0.9,0.3c-0.2,0.2-0.3,0.6-0.2,0.9c0.7,2.8,2.1,10.6,0.2,13.2c-0.2,0.2-0.4,0.4-0.5,0.4c-0.9-0.2-2.4-3.2-3.3-5.9
		c-0.1-0.5-0.6-0.8-1.1-0.7c-0.5,0-0.8,0.4-0.9,0.9c-0.1,0.8-0.6,7.6,0.6,10.5c0.3,0.6-0.1,1.4-0.4,1.9c-1,1.6-3.7,3.4-6.3,3.6
		c-1.2-0.9-5.8-4.8-5.3-10.1c0-0.5-0.2-0.9-0.7-1c-0.4-0.2-0.9,0-1.2,0.4c-0.1,0.2-2.8,4.2-3.3,8.1c-0.2-0.6-0.4-1.4-0.4-2.5
		c0-0.4-0.2-0.7-0.6-0.9c-0.3-0.2-0.7-0.1-1,0.1c-0.5,0.3-3.1,2.4-5.1,4.8V328.8c5.4,1.4,11,2,16.7,2c37.7,0,68.3-30.7,68.3-68.3
		c0-27.3-16.1-51.9-41.2-62.7c-1.2-26.8-23.1-47.7-50-47.7c-27.6,0-50,22.4-50,50c0,2,0.1,4,0.4,6c-0.5,0-1.1,0-1.6,0
		c-37.9,0-68.7,30.8-68.7,68.7s30.8,68.7,68.7,68.7c13.5,0,26.4-3.9,37.4-11.1v132.6c-2.1,0-5.9-0.5-7.7-2.3c-0.8-0.8-1.2-1.8-1.2-3
		c0.1-6.5,1.2-7.1,1.7-7.3c0.4-0.2,0.7-0.7,0.6-1.2s-0.5-0.8-1-0.8c-0.7,0-5,1.4-6.4,5c-0.9-5.1-2.7-11-6.9-12.5
		c-0.4-0.1-0.7-0.1-1,0.2s-0.4,0.6-0.3,1c0.9,3.8,2,10.5,1,12.6c-0.5,1-1.5,1.2-2.2,1c-1.2-0.4-2.3-1.8-1.9-4.2
		c0.1-0.4-0.2-0.9-0.5-1c-0.4-0.2-0.9-0.1-1.2,0.2c-0.2,0.2-3.9,4.1-3.7,9.3h-18.8v-8.4c4-0.4,6.8-1.7,8.4-3.7
		c1.7-2.1,1.4-4.2,1.4-4.3c-0.1-0.5-0.5-0.9-1-0.9c-4.6,0.1-7.3,2-8.8,3.9v-7.5c4-0.4,6.8-1.7,8.4-3.7c1.7-2.1,1.4-4.2,1.4-4.3
		c-0.1-0.5-0.5-0.9-1-0.9c-4.6,0.1-7.3,2-8.8,3.9v-5.2c0,0,0-0.1,0-0.1c7.2-2.4,9.1-10.8,9.1-11.2c0-0.1,0-0.2,0-0.3l-0.7-8.1
		c0-0.4-0.3-0.8-0.7-0.9c-0.4-0.1-0.8,0-1.1,0.4l-2.5,3.3l-3.3-7.3c-0.2-0.3-0.5-0.6-0.9-0.6c-0.4,0-0.7,0.2-0.9,0.5l-4.4,7.7
		l-3.1-3.6c-0.3-0.3-0.7-0.4-1.1-0.3c-0.4,0.1-0.6,0.5-0.7,0.9c0,0.1-0.1,2.5,0,8.7c0.1,5.9,6.3,9.7,8.2,10.7c0,0.1,0,0.1,0,0.2v5.2
		c-1.5-1.9-4.2-3.7-8.8-3.9c-0.5-0.1-1,0.4-1,0.9c0,0.1-0.3,2.2,1.4,4.3c1.6,2,4.5,3.3,8.4,3.7v7.5c-1.5-1.9-4.2-3.7-8.8-3.9
		c-0.5-0.1-1,0.4-1,0.9c0,0.1-0.3,2.2,1.4,4.3c1.6,2,4.5,3.3,8.4,3.7v8.4h-30.7c-0.8-1-3-4.7,0.4-10.7c1.3-2.2,2.5-3.4,3.5-3.2
		c1,0.1,1.8,1.4,2,1.9c0,0,0,0,0,0.1c0.1,0.3,0.2,1,1,1c0.4,0,0.9-0.3,1-0.7c0.1-0.2,0-0.6-0.1-1c-1.2-4.5-4.5-6.6-9-5.8
		c-2.4,0.4-4.2,1.3-5.4,2.6c-0.8-3.6-2.5-8.1-6.5-8.5c-0.3,0-0.6,0.1-0.9,0.3c-0.2,0.2-0.3,0.6-0.2,0.9c0.7,2.8,2.1,10.6,0.2,13.2
		c-0.3,0.4-0.4,0.4-0.4,0.5c-0.6-0.2-1.6-2.8-2-5.3c-0.1-0.5-0.5-0.8-0.9-0.8c-0.5,0-0.9,0.3-1,0.7c-0.2,0.7-2,7.2-0.7,10.2
		c0.3,0.6-0.1,1.4-0.4,1.9c-1.1,1.7-3.9,3.6-6.7,3.6c-0.6,0-1,0.5-1,1c0,0.5,0.5,1,1,1c0,0,0,0,0,0c3.1-0.1,6.7-2,8.3-4.6
		c0.8-1.3,1-2.6,0.5-3.8c-0.5-1.1-0.4-3.1-0.1-4.9c0.6,1.4,1.4,2.6,2.4,2.9c0.6,0.1,1.6,0.1,2.5-1.2c2.3-3.1,1.2-9.8,0.6-13.1
		c2.5,1.6,3.5,6.6,3.8,9.6c0,0.7,0.1,1.2,0.1,1.3c0.1,0.5,0.6,0.8,1.1,0.8c0.5-0.1,0.9-0.5,0.9-1c0-0.1,0-0.5-0.1-1
		c0-0.5,0.2-1.1,0.6-1.7c0.8-1.2,2.4-2.1,4.7-2.5c1.7-0.3,3-0.1,4.1,0.5c-1.4,0.2-3,1.2-4.7,4.2c-4.8,8.4,0,13.2,0.2,13.4
		c0.2,0.2,0.4,0.3,0.7,0.3h32.1h20.9c0.3,0,0.6-0.1,0.8-0.4c0.2-0.2,0.3-0.5,0.2-0.8c-0.4-2.6,0.5-4.9,1.5-6.5
		c0.5,1.8,1.8,3,3.1,3.4c1.9,0.6,3.7-0.2,4.6-2c1.2-2.5,0.3-8.2-0.4-11.5c3.4,3.6,4.3,12.8,4.4,17.3c0,0.5,0,0.8,0,0.8
		c0,0.5,0.4,1,1,1c0.5,0,1-0.4,1-1c0-0.1,0-0.3,0-0.6c0-1.1,0.1-3.8,0.9-6.7c0.3-1.3,1.2-2.2,2.1-2.9c-0.3,1.3-0.5,3.2-0.6,5.8
		c0,1.8,0.6,3.3,1.8,4.5c2.7,2.7,7.8,2.9,9.6,2.9c0.3,0,0.6,0,0.6,0c0.5,0,1-0.5,1-1v-135c3-2.1,5.9-4.5,8.6-7.2
		c2.4,1,4.9,1.8,7.4,2.5v139.6c0,0.6,0.4,1,1,1s1-0.4,1-1c0-1.8,2.6-4.5,4.8-6.4c0.7,3.7,3,4.2,3.1,4.2c0.3,0.1,0.7-0.1,0.9-0.3
		c0.2-0.3,0.3-0.6,0.2-0.9c-0.5-1.9,0.3-4.5,1.3-6.6c1.2,5.2,6,8.4,6.2,8.6c0.2,0.1,0.4,0.2,0.6,0.2c3.1-0.1,6.7-2,8.3-4.6
		c0.8-1.3,1-2.6,0.5-3.8c-0.5-1.1-0.6-3.1-0.6-5c0.8,1.4,1.8,2.7,3,2.9c0.6,0.1,1.6,0,2.5-1.2c2.3-3.1,1.2-9.9,0.6-13.2
		c3.1,1.8,4.7,7.9,5.1,10.5c0.1,0.5,0.4,0.8,0.9,0.9c0.5,0,0.9-0.2,1-0.7c0,0,1.2-3.7,4.3-5.3c1.4-0.8,3.9-1,5.6-1.1
		c-1.1,1.1-2.8,3.2-5.4,7.9c-1.7,2.9-2.1,5.6-1.3,7.8c1,2.8,3.6,3.8,3.7,3.9c0.1,0,0.2,0.1,0.4,0.1h28.2c0.6,0,1-0.4,1-1
		S572.4,463.6,571.9,463.6z M436.3,448.5c-0.1,0.5-0.4,1.2-0.9,1.8c-1.2,1.4-3.4,2.4-6.4,2.9C429.8,451.6,431.7,449,436.3,448.5z
		 M436.3,436.1c-0.1,0.5-0.4,1.2-0.9,1.8c-1.2,1.4-3.4,2.4-6.4,2.9C429.8,439.1,431.7,436.6,436.3,436.1z M419.6,437.9
		c-0.5-0.7-0.8-1.3-0.9-1.8c4.6,0.5,6.5,3.1,7.3,4.7C423,440.3,420.8,439.4,419.6,437.9z M419.6,450.4c-0.5-0.7-0.8-1.3-0.9-1.8
		c4.6,0.5,6.5,3.1,7.3,4.7C423,452.8,420.8,451.8,419.6,450.4z M420.3,421.7c-0.1-2.7-0.1-4.6-0.1-6l2.4,2.7
		c0.2,0.2,0.5,0.4,0.9,0.3c0.3,0,0.6-0.2,0.8-0.5l4.1-7.2l3.2,7.1c0.1,0.3,0.4,0.5,0.8,0.6c0.3,0,0.7-0.1,0.9-0.4l2-2.6l0.5,5.3
		c-0.3,1-2.1,7.9-8,9.7C426.2,430,420.4,426.6,420.3,421.7z M487.7,323.8c-12.6,12.6-29.3,19.5-47.1,19.5
		c-36.8,0-66.7-29.9-66.7-66.7s29.9-66.7,66.7-66.7c0.9,0,1.8,0,2.7,0.1c0.3,0,0.6-0.1,0.8-0.3c0.2-0.2,0.3-0.5,0.2-0.8
		c-0.3-2.2-0.5-4.5-0.5-6.9c0-26.5,21.5-48,48-48c26,0,47.1,20.4,48,46.4c0,0.4,0.3,0.7,0.6,0.9c24.6,10.4,40.6,34.4,40.6,61.2
		c0,36.6-29.8,66.3-66.3,66.3c-9,0-17.7-1.8-25.9-5.2C488.5,323.4,488,323.5,487.7,323.8z"/>
	<path class="st1" d="M526.4,530.2h-444c-0.6,0-1,0.4-1,1c0,0.6,0.4,1,1,1h444c0.6,0,1-0.4,1-1C527.4,530.7,526.9,530.2,526.4,530.2
		z"/>
</g>
<rect class="st2" width="607.8" height="659"/>
</svg>
