<?xml version="1.0" encoding="utf-8"?>
<!-- Generator: Adobe Illustrator 22.0.1, SVG Export Plug-In . SVG Version: 6.00 Build 0)  -->
<svg version="1.1" id="Layer_1" xmlns="http://www.w3.org/2000/svg" xmlns:xlink="http://www.w3.org/1999/xlink" x="0px" y="0px"
	 viewBox="0 0 607.8 659" style="enable-background:new 0 0 607.8 659;" xml:space="preserve">
<style type="text/css">
	.st0{fill:none;}
	.st1{fill:#51062A;}
	.st2{fill:#961E4C;}
	.st3{fill:#502870;}
	.st4{fill:#F8AD84;}
	.st5{fill:url(#SVGID_1_);}
	.st6{opacity:0.79;}
	.st7{fill:url(#SVGID_2_);}
	.st8{fill:url(#SVGID_3_);}
	.st9{fill:#BA3175;}
	.st10{fill:#A01C64;}
	.st11{opacity:0.66;fill:url(#SVGID_4_);enable-background:new    ;}
	.st12{fill:url(#SVGID_5_);}
	.st13{fill:url(#SVGID_6_);}
	.st14{opacity:0.75;fill:#E89972;enable-background:new    ;}
	.st15{opacity:0.8;fill:url(#SVGID_7_);enable-background:new    ;}
	.st16{fill:url(#SVGID_8_);}
	.st17{fill:none;stroke:#D6805F;stroke-width:0.5;stroke-linecap:round;stroke-linejoin:round;stroke-miterlimit:10;}
	.st18{opacity:0.43;fill:url(#SVGID_9_);enable-background:new    ;}
	.st19{opacity:0.5;fill:url(#SVGID_10_);enable-background:new    ;}
	.st20{fill:url(#SVGID_11_);}
	.st21{opacity:0.65;fill:url(#SVGID_12_);enable-background:new    ;}
	.st22{opacity:0.65;fill:url(#SVGID_13_);enable-background:new    ;}
	.st23{fill:#6E0001;}
	.st24{fill:#E89972;}
	.st25{fill:#DD8C68;}
	.st26{fill:#BD3624;}
	.st27{fill:#FFFFFF;}
	.st28{fill:#DB7556;}
	.st29{fill:#4F0E4F;}
	.st30{opacity:0.5;fill:url(#SVGID_14_);enable-background:new    ;}
	.st31{opacity:0.46;fill:url(#SVGID_15_);enable-background:new    ;}
	.st32{opacity:0.34;fill:url(#SVGID_16_);enable-background:new    ;}
	.st33{fill:url(#SVGID_17_);}
	.st34{fill:#E8966D;}
	.st35{fill:#EA9C75;}
	.st36{opacity:0.61;}
	.st37{fill:url(#SVGID_18_);}
	.st38{opacity:0.98;fill:url(#SVGID_19_);enable-background:new    ;}
	.st39{fill:url(#SVGID_20_);}
	.st40{fill:url(#SVGID_21_);}
	.st41{opacity:0.47;fill:url(#SVGID_22_);enable-background:new    ;}
	.st42{fill:#E1E1EA;}
	.st43{fill:#9E0481;}
	.st44{fill:#2B3A44;}
	.st45{fill:#B735A4;}
	.st46{fill:url(#SVGID_23_);}
	.st47{fill:url(#SVGID_24_);}
	.st48{fill:url(#SVGID_25_);}
	.st49{fill:#F7C1F0;}
	.st50{fill:url(#SVGID_26_);}
	.st51{fill:url(#SVGID_27_);}
	.st52{fill:url(#SVGID_28_);}
	.st53{opacity:0.79;fill:url(#SVGID_29_);enable-background:new    ;}
	.st54{opacity:0.79;fill:url(#SVGID_30_);enable-background:new    ;}
	.st55{opacity:0.64;fill:url(#SVGID_31_);enable-background:new    ;}
	.st56{fill:url(#SVGID_32_);}
	.st57{opacity:0.36;fill:#A01C64;enable-background:new    ;}
</style>
<g id="Layer_1_1_">
	<circle class="st0" cx="304.3" cy="322.7" r="301.3"/>
</g>
<g id="Layer_2_1_">
	<g id="XMLID_259_">
		<g>
			<g>
				<path class="st1" d="M375.5,79c7.3,18.1-6.7,33.7-7.7,42.4s16.4,25.6,0.7,44.6c-15.7,19-57.7,5.7-57.7,5.7s-4.4,11.3-54.8-6.8
					s-14.7-83.5-14.7-83.5s-10.5-20.4,2.6-49.9s35.8-20.7,35.8-20.7c4.3-2.4,8.7-9,25-5.7c13.5,2.7,39.6,37.6,39.6,37.6
					S365.4,53.7,375.5,79z"/>
			</g>
		</g>
		<g>
			<g>
				<path class="st2" d="M340.1,177.8c-12.9,0-25.1-3.3-28.7-4.4c-2.7,2.8-13.6,8-55.9-7.1c-12.5-4.5-21-12.2-25.1-23
					c-9.4-24.6,6.5-56.7,9.2-61.9c-1.8-4-9.1-23.4,2.9-50.5c12.2-27.5,32.8-23,37-21.8c0.5-0.3,1.1-0.7,1.7-1.2
					c3.9-2.8,9.8-7.1,23.8-4.3c13.4,2.7,37.7,34.4,40.3,37.9c2.8,1.5,21.9,12.8,31.6,37c5.3,13.2-0.2,25.1-4.2,33.8
					c-1.7,3.7-3.2,6.9-3.4,9.3c-0.3,2.3,1.1,5.6,2.7,9.4c3.9,9.3,9.2,22.1-2.4,36C362.7,175.4,351.2,177.8,340.1,177.8z
					 M309.9,169.7l1.3,0.5c0.4,0.1,41.2,12.8,56.1-5.2c10.4-12.5,5.7-23.9,1.9-33c-1.7-4.2-3.2-7.8-2.9-10.8
					c0.3-2.9,1.9-6.3,3.7-10.2c4-8.7,8.9-19.4,4.1-31.4c-9.8-24.5-30.3-35.5-30.5-35.6l-0.3-0.2l-0.2-0.3
					c-0.3-0.3-25.9-34.5-38.7-37C291.7,4,286.6,7.6,283,10.3c-0.9,0.6-1.7,1.2-2.6,1.7l-0.6,0.3l-0.7-0.2c-0.9-0.3-21.5-7.9-33.9,20
					c-12.7,28.6-2.8,48.4-2.7,48.6l0.4,0.7l-0.4,0.7c-0.2,0.3-18.9,35.1-9.4,60.1c3.8,9.9,11.6,17.1,23.3,21.3
					c47.3,16.9,52.9,7.7,52.9,7.6L309.9,169.7z"/>
			</g>
		</g>
	</g>
	<g>
		<g id="XMLID_258_">
			<g>
				<path class="st3" d="M282.8,317.9c1.9,1,3.6,1.3,3.6,1.3c6.6,20.4,36.3,87.6,47.6,113.6c11.3,26,10.4,20.7,12.6,45.6
					c1,11.2,3.5,16.4,7.6,27.1c1.2,3.1,2.4,6.4,3.6,9.6c12,4.4,23.4,0.1,27.1-2.1c-4.3-19.9-9.2-41.2-12.3-49.7
					c-3.6-10-6.9-18.9-6.9-18.9c-1.7-7.6-0.7-14.8-3.8-42.5c-7.1-64.8-20-105.9-24.3-119.3c-2.2-6.9-4-12.5-5.9-17.9
					c-12.6,7.8-60,23.2-94.1-5.6c-4,5.8-7.4,11.2-8.9,14.9c-7,16.6-13.4,19.8,1.7,110.9c2.2,16.6,5.9,31.5,8.1,42.7
					c3.8,16.9,8.9,34.1,8.9,34.1s-1.1,24.9,2.2,57.5c0.2,1.9,0.4,4,0.7,6.4c10.3,4.5,21.9,1.1,25.7-0.3c0-0.2,0.1-0.4,0.1-0.6
					c2.5-17.5,3.7-39.8-1.3-52.5c-3-7.5-2.3-14-2.3-14S280.6,374.4,282.8,317.9z"/>
				<path class="st4" d="M255.7,234.7c-3.5,4.7-11.4,15-17.9,24.5c34,28.8,81.4,13.5,94.1,5.6c-2.6-7.6-5.3-14.8-9.4-25.1
					c-1.6-4-2.5-6.2-1.8-14.6c0.2-7.1-9.1-10.4-12.6-11.7s-20.4-3.6-33.5-0.7c-13.1,2.9-15.3,13.6-15.3,13.6
					C258.5,229.3,257.4,232.3,255.7,234.7z"/>
				<path class="st4" d="M239.8,636.6c3.8,3.3,12.1,3.5,15.1,3.5c1.9,0,4.3-1.7,6.9-3.6c1.6-1.2,3.2-2.4,4.9-3.4
					c6.1-3.7,8.9-9.1,10-11.9c-1-3-2.4-6.2-3.1-8.1c-0.5-1.3-1.1-4.7-1.1-5.8c0-0.7,0.1-4.6,0.2-7.3c-4.1,2.8-13.1-0.6-13.1-0.6
					c-0.2,2.4-1.2,11.9-3.6,15.4C251.9,620.9,247.3,630.8,239.8,636.6z"/>
				<path class="st4" d="M259.5,599.4C259.5,599.5,259.5,599.5,259.5,599.4c0,0,9,3.4,13.1,0.6c0,0,0,0,0.1,0c0,0,1-56.4,3.4-74.6
					c-3.8,1.4-15.4,4.8-25.7,0.3C253,547.1,258.9,586,259.5,599.4z"/>
				<path class="st4" d="M261.8,636.6c-2.6,1.9-5,3.6-6.9,3.6c-3,0-11.3-0.2-15.1-3.5c-0.8,0.6-1.7,1.2-2.6,1.7c-3,1.8-9,7,1.4,8.1
					c10.9,1.2,19.7-0.1,20.7-3.1c0.6-1.9,2-4.3,5-6.4L261.8,636.6z"/>
				<path class="st4" d="M261.8,636.6l2.5,0.5c1.6-1.1,3.7-2,6.4-2.8c4.6-1.3,7-2.7,6.9-8.4c0-1.3-0.4-2.9-1-4.6
					c-1.1,2.9-3.9,8.2-10,11.9C265,634.2,263.4,635.4,261.8,636.6z"/>
				<path class="st4" d="M385,513c-3.8,2.2-15.1,6.5-27.1,2.1c8.8,23.2,18.4,48.8,23.4,59.1c8.1,16.6,7.9,22,8.7,25.7
					c1.9,8.7,16.9,3.1,16.2,0.8c-0.7-2.3-9.8-35.2-14.2-55.4C390.2,537.5,387.7,525.6,385,513z"/>
			</g>
		</g>
		<g id="XMLID_257_">
			<g>
				<path class="st4" d="M428.8,646.1c1.1,3,0.3,4.8-5.8,5.9c-4.2,0.8-14.7-0.8-17.6-4.7s-3.8-8.8-5.2-11.2
					c-0.1-0.2-0.2-0.3-0.3-0.4l2-0.2c2.1,2.4,3.3,3.9,4.2,4.7c3.8,2.8,15.6,2.9,17.2-2C426.7,641.3,427.6,643.1,428.8,646.1z"/>
				<path class="st4" d="M390.5,601.1c-1.1-2.5,3.4-4.5,7.7-4.5c4.4,0,6.7,0.1,7.9,4.3c0,0,3.2,12.1,4.3,15.9s7.2,16.2,12.9,21.5
					c-1.6,4.9-13.5,4.9-17.2,2c-1-0.7-2.2-2.3-4.2-4.7c-1.2-1.4-2.8-3.1-4.8-5.2c-5.4-5.4-6.8-13.7-6.8-13.7
					c0.6-1.5,1.2-3.1,1.4-5.2C392.1,607.5,391.6,603.6,390.5,601.1z"/>
				<path class="st4" d="M397.1,630.4c2,2,3.6,3.7,4.8,5.2l-2,0.2c-1.6-2.1-5.6-3.1-8.8-4.7c-3.4-1.7-4-6.9-2.7-10.2
					c0.6-1.6,1.3-2.9,1.8-4.2C390.3,616.7,391.7,625,397.1,630.4z"/>
			</g>
		</g>
	</g>
	<g>
		<g id="XMLID_256_">
			
				<linearGradient id="SVGID_1_" gradientUnits="userSpaceOnUse" x1="310.7079" y1="-1114.8646" x2="290.8236" y2="-867.8165" gradientTransform="matrix(1 0 0 -1 0 -606)">
				<stop  offset="0" style="stop-color:#851C73"/>
				<stop  offset="1" style="stop-color:#582978"/>
			</linearGradient>
			<path class="st5" d="M384.9,512.9c-3.8,2.2-15.1,6.5-27.1,2.1c-1.2-3.3-2.5-6.5-3.7-9.6c-4.1-10.7-6.6-15.9-7.6-27.1
				c-2.2-25-1.3-19.6-12.6-45.6c-11.3-26-41-93.2-47.6-113.6c0,0-1.7-0.3-3.6-1.3c-2.3,56.5-10.3,140.3-10.3,140.3s-0.7,6.4,2.3,14
				c5,12.8,3.9,35.1,1.4,52.5c0,0.2-0.2,0.4-0.2,0.6c-3.8,1.4-15.2,5-25.5,0.4c-0.3-2.4-0.7-4.6-0.9-6.5
				c-3.2-32.7-2.2-57.5-2.2-57.5s-5.1-17.2-8.9-34.1c-2.2-11.1-5.9-26-8.1-42.7c-15.1-91.1-8.7-94.3-1.7-110.9
				c1.5-3.7,5-9.1,8.9-14.9c34,28.8,81.4,13.4,94,5.6c1.9,5.4,3.7,11,5.9,17.9c4.3,13.4,17.2,54.5,24.3,119.3
				c3,27.7,2.1,34.9,3.8,42.5c0,0,3.3,8.9,6.9,18.9C375.7,471.7,380.6,493,384.9,512.9z"/>
		</g>
	</g>
	<g class="st6">
		<g id="XMLID_255_">
			
				<linearGradient id="SVGID_2_" gradientUnits="userSpaceOnUse" x1="260.7657" y1="-1249.7985" x2="253.5816" y2="-1095.0652" gradientTransform="matrix(1 0 0 -1 0 -606)">
				<stop  offset="0" style="stop-color:#E68D6C"/>
				<stop  offset="1" style="stop-color:#F8AD84;stop-opacity:0"/>
			</linearGradient>
			<path class="st7" d="M276.4,621c-0.7,2.2-2.7,7.7-9.8,12.1c-1.4,0.9-2.8,1.9-4.1,2.8c-2.9,2.1-5.6,4.2-7.7,4.2
				c-3,0-11.3-0.2-15.1-3.5c7.4-5.8,12-15.7,16.1-21.7c2.4-3.5,3.4-13.1,3.6-15.4l0,0c-0.6-13.4-6.6-52.4-9.1-73.8
				c10.3,4.5,21.9,1.1,25.7-0.3c-2.4,18.2-3.4,74.6-3.4,74.6s0,0-0.1,0c-0.1,2.7-0.2,6.5-0.2,7.3c0,1.1,0.6,4.5,1.1,5.8
				C274.3,614.9,275.3,618.5,276.4,621z"/>
		</g>
		<g id="XMLID_254_">
			
				<linearGradient id="SVGID_3_" gradientUnits="userSpaceOnUse" x1="393.5383" y1="-1243.6339" x2="386.3543" y2="-1088.9008" gradientTransform="matrix(1 0 0 -1 0 -606)">
				<stop  offset="0" style="stop-color:#E68D6C"/>
				<stop  offset="1" style="stop-color:#F8AD84;stop-opacity:0"/>
			</linearGradient>
			<path class="st8" d="M423.4,638.1c-1.6,4.9-13.5,4.9-17.2,2c-1-0.7-2.2-2.3-4.2-4.7c-1.2-1.4-2.8-3.2-4.8-5.2
				c-5.4-5.4-6.8-13.7-6.8-13.7c0.6-1.5,1.2-3.1,1.4-5.2c0.4-3.4,0-6.8-0.7-9.3c-0.5-0.6-0.8-1.4-1-2.3c-0.8-3.7-0.6-9.1-8.7-25.7
				c-5-10.3-14.6-35.9-23.4-59.1c12,4.4,23.4,0.1,27.1-2.1c2.7,12.5,5.2,24.5,7,32.3c4.2,19.5,12.8,50.7,14.1,55.1
				c0,0.1,0.1,0.2,0.1,0.4c0,0,3.2,12.2,4.3,16C411.6,620.4,421,634.3,423.4,638.1z"/>
		</g>
	</g>
	<g id="XMLID_253_">
		<g>
			<path class="st4" d="M342.2,140.1c2.3,5.4-5.4,20.9-7,24.4c-1.6,3.4-1.9,4.5-1.1,7c-1.6-3.7-3.9-8.7-4.9-10.7
				c-1.8-3.4-1.4-31.4-1.4-31.4C336,131.6,339.9,134.7,342.2,140.1z"/>
			<path class="st9" d="M256.3,201.1c-0.6-1.4-1.5-2.7-2.7-4.4c-4.7-7-3.2-13.7-3.2-18.9c0-0.2,0-0.5,0-0.7c0.6-2.1,1.6-7,0.4-14.5
				c-1.6-9.7-4.8-25-7.9-29.2c1.8-0.6,3.9-1.2,6.2-1.9c1.9,4,10.9,23.3,13,29.9l0.8,2.5c0,0,10.2,2,21,7.5
				c8.4,4.3,10.8,5.8,10.8,5.8s7.7-4.6,15.8-9.8c7.9-5,11.4-6.4,11.4-6.4s-0.4-24.2,1.9-32.5c1.5,0.3,2.9,0.6,4.1,1
				c0,0-0.4,27.9,1.4,31.4c1.1,2,3.3,7,4.9,10.7c0,0.1,0.1,0.2,0.1,0.3c0.9,2.7,2.2,4.4,3,11.8c0.8,6.5-1.2,13.6-8.6,17.4
				c-0.1,0.1-0.3,0.1-0.4,0.2c-1.4,4.5-3.8,12.5-5.6,19.4c-23.7,5.8-56-0.1-64.2-1.8c-0.3-4.6-0.8-10.4-1.5-15.8
				C256.8,202.3,256.6,201.7,256.3,201.1z"/>
			<path class="st4" d="M322.6,244.4c2.4,6-3,10.6-8.1,12.8c-8.9,3.8-31.5,7.7-44.5,0.7s-15.7-12.9-14.6-17.6
				c1.6-6.6,3.1-11.4,3.1-11.4s0.2-1.1,0.2-2.6c0-0.8,0-1.7-0.1-2.8c8.7,1.7,41,7.3,62.8,1.8c-0.7,3.1-1.2,5.7-1.2,7.3
				C320.3,235.4,320.5,239.3,322.6,244.4z"/>
			<path class="st10" d="M322.6,220.6c-0.4,1.6-0.8,3.2-1.2,4.6c-21.9,5.5-54.1-0.1-62.8-1.8c-0.1-1.4-0.1-2.9-0.2-4.6
				C266.6,220.5,298.9,226.4,322.6,220.6z"/>
			<path class="st4" d="M321.3,127.9c-2.2,7.8-2.2,31.2-2.2,31.2c-11,4.9-24.5,14.7-24.5,14.7c-8-6-29.2-12.6-29.2-12.6
				c-7.3-16.8-13-26.9-14.9-30.3c8.1-2.4,17.3-5.1,19.4-6c3.4-1.4,5.1-3.9,5.5-5.9c0.6-2.8,0.2-23.9,0.2-23.9s-0.3-8.6,5.1-11.7
				s11.7-0.8,14.6,3.6c1.6,2.5,2.4,5.4,2.4,11.2c0,4.4,0.6,14.4,2.1,20.1c0.4,1.7,1.1,4.1,2.8,5.1
				C305.3,125.1,314,126.5,321.3,127.9z"/>
			<path class="st10" d="M321.9,160.9c0,0-3.6,1.5-11.5,6.5c-8.1,5.2-15.8,9.8-15.8,9.8s-2.4-1.6-10.8-5.8c-10.8-5.5-21-7.5-21-7.5
				l-0.8-2.5c-2.1-6.6-11.1-26-13-29.9c0.5-0.1,0.9-0.3,1.4-0.4c1.9,3.3,7.6,13.5,14.9,30.3c0,0,21.2,6.6,29.2,12.6
				c0,0,13.5-9.8,24.5-14.7c0,0,0-23.4,2.2-31.2c0.8,0.2,1.6,0.3,2.4,0.5C321.4,136.8,321.9,160.9,321.9,160.9z"/>
			<path class="st4" d="M250.8,162.5c1.3,7.4,0.3,12.4-0.4,14.5c-0.2-6-2.2-9.5-2.2-9.5s-15.3-6.9-17.3-16.6c-2-9.7,2.9-13.9,7.6-16
				c0.9-0.4,2.4-1,4.4-1.6C246,137.5,249.2,152.9,250.8,162.5z"/>
		</g>
	</g>
	<g>
		
			<linearGradient id="SVGID_4_" gradientUnits="userSpaceOnUse" x1="335.8675" y1="-1068.214" x2="375.6555" y2="-1068.214" gradientTransform="matrix(1 0 0 -1 0 -606)">
			<stop  offset="0" style="stop-color:#571B57"/>
			<stop  offset="1" style="stop-color:#701862;stop-opacity:0"/>
		</linearGradient>
		<path class="st11" d="M365.7,444.4c0,0,2.1,6-2,8.7s-13.1-1.3-17.7-7.7c-4.6-6.4-9.4-9.7-10.3-8.8c-0.3,0.3,4.7,9.3,7.2,17.3
			c4.8,14.9,2.4,21.7,5.9,28.1c4.6,8.5,16.2,5.8,19.8,4.6C381.6,482.4,373.9,466.2,365.7,444.4z"/>
	</g>
	
		<linearGradient id="SVGID_5_" gradientUnits="userSpaceOnUse" x1="243.8354" y1="-1077.05" x2="273.7046" y2="-1077.05" gradientTransform="matrix(1 0 0 -1 0 -606)">
		<stop  offset="0" style="stop-color:#571B57"/>
		<stop  offset="1" style="stop-color:#701862;stop-opacity:0"/>
	</linearGradient>
	<path class="st12" d="M273.6,443.1c0,0-2.7,15-5.8,20.9c-3.1,6-15.4,12.1-21.1-10.2c0,0-3.5-10.9-2.9-5c0.2,1.9,3.7,12.9,3.7,13
		c0,3.6-0.1,8.8-0.2,9.5c-0.2,4.5,0.8,27.7,0.8,27.7s18.7-6.2,22.4-15.1c2-4.7,3.7-9.8,2.5-18.2C272,458.9,273.6,443.1,273.6,443.1z
		"/>
	
		<linearGradient id="SVGID_6_" gradientUnits="userSpaceOnUse" x1="293.0455" y1="-917.5687" x2="292.2421" y2="-996.6904" gradientTransform="matrix(1 0 0 -1 0 -606)">
		<stop  offset="0" style="stop-color:#4D2469"/>
		<stop  offset="1" style="stop-color:#701862;stop-opacity:0"/>
	</linearGradient>
	<path class="st13" d="M275.2,408c0,0-1.2-46.3-5-72.5c-1.9-13.4-13-36.9-9.6-36.9s14.2,13.9,23.5,13.9s19.2-9,23.3-9
		s-1.6,13.4,13.5,60.1c10.3,31.7,0,39.1,0,39.1s-22.4-52.4-24.1-56.6s-10.3-26.8-10.3-26.8l-3.6-1.3
		C282.8,317.9,280.3,382.4,275.2,408z"/>
	<path class="st14" d="M290.4,255.4c0,0-1.2,0.8-0.9,2.4c0.3,1.5,2.2,4.1,0.9,4.9c-1.3,0.8-2.8,0.5-3.3-0.3
		C286.6,261.5,287.7,257.1,290.4,255.4z"/>
	
		<linearGradient id="SVGID_7_" gradientUnits="userSpaceOnUse" x1="251.3571" y1="-844.7171" x2="268.5752" y2="-854.462" gradientTransform="matrix(1 0 0 -1 0 -606)">
		<stop  offset="0" style="stop-color:#D48864"/>
		<stop  offset="1" style="stop-color:#F8AD84;stop-opacity:0"/>
	</linearGradient>
	<path class="st15" d="M237.8,259.1l8.3,4.7c0,0,4.5-10.6,13-15.1c7.3-3.9,9.6-14.1,12.1-15.1s8.5-6.9,8.5-6.9s-9.9-1-21.1-3.1
		c0,0,0.5,3.8-0.4,6.5c-1.2,3.8-3.9,6.4-5.5,8.7C251.1,240.8,240.1,255.7,237.8,259.1z"/>
	
		<linearGradient id="SVGID_8_" gradientUnits="userSpaceOnUse" x1="325.6078" y1="-849.1005" x2="313.4642" y2="-854.2853" gradientTransform="matrix(1 0 0 -1 0 -606)">
		<stop  offset="0" style="stop-color:#D48864"/>
		<stop  offset="1" style="stop-color:#F8AD84;stop-opacity:0"/>
	</linearGradient>
	<path class="st16" d="M321.5,225.3c0,0-10.3,2-13.6,2c-3.2,0-7.6,3.7-1.8,6.2c5.8,2.5,12.9,16,14.5,19s0,9.2-1.9,11.1
		c-2.7,2.7-18.4,5.9-21.8,6.5c0,0,14.7-1,21.7-2.6c8.2-1.8,13.1-3.2,13.1-3.2s-5.2-14.5-5.8-15.9c-0.4-0.9-4.2-10.9-4.6-12.1
		C320.7,234.9,319.8,232.7,321.5,225.3z"/>
	<path class="st17" d="M289.7,255.9c0,0-5.2,6-1.6,7s2.1-4.7,1.1-3.2s-0.8,2-0.8,2"/>
	
		<linearGradient id="SVGID_9_" gradientUnits="userSpaceOnUse" x1="336.3125" y1="-625.9681" x2="335.4376" y2="-650.9529" gradientTransform="matrix(0.9977 6.755986e-02 6.755986e-02 -0.9977 -2.1807 -417.644)">
		<stop  offset="0" style="stop-color:#E68D6C"/>
		<stop  offset="1" style="stop-color:#F8AD84;stop-opacity:0"/>
	</linearGradient>
	<path class="st18" d="M289.1,249.6c0,0,0.7-1.7,0.2-7.7s-0.4-12.9,1.4-13.4s1.9,0.5,1.8,2.4s-2.2,17.6-2.3,18.7
		C290.2,250.8,289.3,252.7,289.1,249.6z"/>
	
		<linearGradient id="SVGID_10_" gradientUnits="userSpaceOnUse" x1="304.8392" y1="-855.5737" x2="324.7343" y2="-854.8923" gradientTransform="matrix(1 0 0 -1 0 -606)">
		<stop  offset="0" style="stop-color:#E68D6C"/>
		<stop  offset="1" style="stop-color:#F8AD84;stop-opacity:0"/>
	</linearGradient>
	<path class="st19" d="M307.9,227.3c0,0-5,11.5-4.1,16.8c0.8,5.3,0.7,12.2,0.7,16.5c0,5.5-2.9,12-2.9,12s7.6-1.5,14.1-3.1
		c6.4-1.6-2.8-2.9-2.5-9.1c0.5-8.9-4.2-19.8-4.2-24.3s1.5-8.9,6.3-9.8L307.9,227.3z"/>
	
		<linearGradient id="SVGID_11_" gradientUnits="userSpaceOnUse" x1="286.6624" y1="-710.1011" x2="288.8471" y2="-731.5117" gradientTransform="matrix(1 0 0 -1 0 -606)">
		<stop  offset="0" style="stop-color:#C47958"/>
		<stop  offset="1" style="stop-color:#F8AD84;stop-opacity:0"/>
	</linearGradient>
	<path class="st20" d="M297.8,98.9c0,0-4.3,3.3-7.9,4s-6.1,0.2-8-0.6c-3.4-1.3-6.5-3.6-6.5-3.6l0.4,13.3c0,0,3.6,7.5,13.6,8
		c7.6,0.4,9.3-8.3,9.3-8.3S297.5,100.4,297.8,98.9z"/>
	
		<linearGradient id="SVGID_12_" gradientUnits="userSpaceOnUse" x1="70.439" y1="-918.0355" x2="75.0701" y2="-909.545" gradientTransform="matrix(1.0484 -5.840858e-02 -6.224136e-02 -0.9983 138.2068 -769.9111)">
		<stop  offset="0" style="stop-color:#E89166"/>
		<stop  offset="1" style="stop-color:#F8AD84;stop-opacity:0"/>
	</linearGradient>
	<path class="st21" d="M262.4,140.1c0,0,5.7,2.4,16.3,4.3c7.5,1.4,2.6-3.1-0.4-3.8c-3.6-0.9-10.8-5.3-15.9-7.5c-1.9-0.8-4,0.7-3.8,3
		C258.6,136.8,259.5,138.7,262.4,140.1z"/>
	
		<linearGradient id="SVGID_13_" gradientUnits="userSpaceOnUse" x1="-5124.5254" y1="-428.0402" x2="-5119.6982" y2="-419.1898" gradientTransform="matrix(-0.9739 -0.1156 0.1152 -0.9932 -4633.9683 -875.3306)">
		<stop  offset="0" style="stop-color:#E89166"/>
		<stop  offset="1" style="stop-color:#F8AD84;stop-opacity:0"/>
	</linearGradient>
	<path class="st22" d="M313.9,139.9c0,0-4.9,3.7-15.6,4.1c-7.1,0.3-2.3-3.2,0.6-3.8c3.4-0.7,10.7-5.4,15.6-7.3
		c1.8-0.7,3.7,0.9,3.4,3.2C317.8,136.8,316.5,137.9,313.9,139.9z"/>
	<path class="st4" d="M259.2,54.2c0,0-2.1-4-5.5-1.7c-3.3,2.3-1.6,10.7,1.2,14.2c2.8,3.5,4.9,5.3,4.9,5.3s0.1,16.7,9.4,23.7
		c9.3,6.9,11.7,7.5,16.6,8.3s14.5-5.8,17.6-8.9s8.9-10.2,9.8-17.2c0.9-7.1-0.8-30.2-1.1-32.1c-0.3-1.9-25-21.8-35.8-15.1
		C265.5,37.4,259.2,48,259.2,54.2z"/>
	<path class="st23" d="M266.8,56.8c-0.3,0.2,2.6-5.3,7.2-6.1c3.9-0.7,5.7,0.8,5.7,1.6s0.1,1.7-1.7,1.4c-1.9-0.3-3.3-0.6-5-0.4
		C270.1,53.6,267.7,56,266.8,56.8z"/>
	<path class="st23" d="M266.8,62.5c0,0,2.5-3.7,5.8-3.9c3.3-0.3,6.3,2.1,7,2.9c0.7,0.7-3.8-1.1-6.6-0.7
		C270.2,61.1,266.3,63.4,266.8,62.5z"/>
	<path class="st23" d="M271.1,60.2c0,0-1.2,4.7,0.8,6.2s3.3-0.4,3.9-1.7c0.7-1.3,0.3-4.4-0.3-5C275,59,271.1,60.2,271.1,60.2z"/>
	<path class="st24" d="M270.7,33.9c0,0,0.5,7.9,7.9,12.7s11,5.4,11,5.4s0.5,11.8,9,16.6s14.8,8.4,14.8,6.6c0-5.7,1-19.4-2.5-27.2
		C307.3,40.2,277.6,24.8,270.7,33.9z"/>
	<path class="st23" d="M307.5,64.6c0,0-2.2-3.9-5.5-4.4s-6.4,1.6-7.2,2.3c-0.7,0.7,3.9-0.8,6.7-0.2C304.3,63,308,65.6,307.5,64.6z"
		/>
	<path class="st23" d="M303.4,62c0,0,0.8,4.8-1.3,6.1c-2.1,1.3-3.2-0.7-3.8-2c-0.5-1.3,0.1-4.4,0.7-5C299.7,60.6,303.4,62,303.4,62z
		"/>
	<path class="st25" d="M283.7,77c0,0,0.8,1.2,2.4,1.4s3.3-0.9,3.8-1.4s0.4,3-2.2,3.8s-4.1-1.7-4.1-2.9S283.7,77,283.7,77z"/>
	<g id="XMLID_252_">
		<g>
			<path class="st26" d="M283.7,90.1c-1.1-0.6-3.8-2.7-4.2-3l0,0l-1.1,0.1c0.5,0.7,1,1.6,1.2,2c1.2,2.1,3.4,4.5,7.1,4.3
				s5.7-2.2,6.9-3.9c0.5-0.7,1-1.4,1.5-1.8l-0.8-0.1c0,0-3.2,1.7-5.6,2.6C287.5,90.9,284.9,90.7,283.7,90.1z"/>
			<path class="st27" d="M284.4,87.9c0,0-4.2-0.4-4.9-0.8c0.4,0.3,3.1,2.4,4.2,3s3.7,0.8,5,0.3c2.3-0.9,5.6-2.7,5.6-2.7l-1.3,0.2
				c0,0-2,0.1-3.1,0.1c-0.8,0-1.3,0.7-3,0.7S284.4,87.9,284.4,87.9z"/>
			<path class="st26" d="M284.4,85.4c-0.8-0.1-5.5,0.8-6.9,0.4c0,0,0.5,0.7,0.9,1.4l1.1-0.1l0.1,0.1c0.7,0.4,4.7,0.7,4.7,0.7
				s0.7,0.9,2.4,0.8c1.8,0,2.2-0.7,3-0.7c1.1,0,3.1-0.1,3.1-0.1l1.3-0.2l0.9,0.1c0.6-0.6,1.1-0.9,1.1-0.9s-2.2-0.2-4-0.6
				s-3.6-0.9-4.9-0.1l-0.7,0.3C286.7,86.5,285.9,85.6,284.4,85.4z"/>
		</g>
	</g>
	<g id="XMLID_251_">
		<g>
			<path class="st1" d="M340.7,55.1c0,0-0.1,9.7-21.7,11.6s-27.4-16.5-27.4-16.5c-22.1-3.2-21.9-22.4-21.9-22.4s2.3-10.8,25.2-3.3
				C317.8,31.9,340.7,47.6,340.7,55.1z"/>
		</g>
	</g>
	<ellipse class="st28" cx="268.1" cy="69.5" rx="1" ry="1"/>
	<circle class="st28" cx="271.7" cy="72.7" r="0.6"/>
	<circle class="st28" cx="276" cy="70.9" r="0.7"/>
	<circle class="st28" cx="280.9" cy="69" r="0.7"/>
	<circle class="st28" cx="290.6" cy="67.2" r="0.5"/>
	<circle class="st28" cx="292.9" cy="71.3" r="0.8"/>
	<circle class="st28" cx="300.3" cy="72" r="0.8"/>
	<circle class="st28" cx="305.5" cy="77.1" r="0.8"/>
	<path class="st24" d="M258.3,57.1c0,0-1.4-4-3.3-3.4c-1.9,0.6-1.8,3.7-1.8,3.7s0,1.1,1.8,1.4c2.6,0.5,3.8,6.5,3.8,8.4
		C258.8,69,258.9,59,258.3,57.1z"/>
	<path class="st2" d="M328.9,72.2c-0.9-1.1-1.7-2.4-2.2-3.7c-0.2-0.6-0.3-1.2-0.4-1.8c1.1-0.3,2.2-0.6,3.3-1c0.2,0,0.5-0.2,0.7-0.3
		c0.2-0.2,0.5-0.3,0.6-0.6c0.4-0.4,0.6-1.1,0.6-1.7c-0.1-1.3-1.3-2.2-2.3-2.2c-0.3,0-0.5,0-0.7,0s-0.5,0.1-0.7,0.2
		c-0.2,0.1-0.4,0.2-0.6,0.3s-0.4,0.2-0.6,0.4c-0.4,0.3-0.7,0.7-1,1c-0.2,0.4-0.4,0.8-0.5,1.2c-0.1,0.3-0.1,0.5-0.1,0.8
		c-1.5,0.3-3.1,0.5-4.6,0.6c-2.9,0.2-5.9,0.1-8.7-0.4c-2.9-0.5-5.7-1.3-8.1-2.6c-4.9-2.7-8.6-7.6-10.6-12.8l-0.3-0.8l-0.9-0.2
		c-3.1-0.6-6.3-1.6-9.1-2.9c-1.4-0.7-2.9-1.5-4-2.4c-1.2-0.9-2.3-2.1-3.2-3.3c-1.4-1.9-2.6-4-3.5-6.2c0.2-0.4,0.5-0.7,0.7-1.1
		c0.9-1.5,1.6-3.1,2.1-4.9c0.2-0.9,0.3-1.8,0.2-2.9c0-0.3-0.1-0.5-0.2-0.8s-0.2-0.5-0.3-0.7c-0.2-0.5-0.5-0.9-0.9-1.2
		c-0.7-0.7-1.4-1.3-2.5-1.7l-0.4-0.1c-0.1,0-0.3-0.1-0.5-0.1c-0.3-0.1-0.7,0-1,0c-0.3,0.1-0.7,0.2-1,0.4c-0.3,0.2-0.6,0.5-0.7,0.8
		c-0.1,0.1-0.2,0.3-0.3,0.4l-0.3,0.5c-0.1,0.3-0.2,0.6-0.2,0.8c0,0.3-0.1,0.5-0.1,0.8v0.7c0,0.9,0.2,1.8,0.4,2.7
		c0.4,1.7,0.8,3.4,1.3,5c0.3,0.8,0.5,1.6,0.9,2.4c-0.3,0.4-0.6,0.9-0.9,1.3l-0.8,0.9l-0.9,0.9c-0.6,0.6-1.2,1.2-1.7,1.9
		c-1.1,1.3-2,2.8-2.8,4.3c-1.6,3-2.6,6.3-3,9.7c0.3-1.6,0.9-3.2,1.5-4.8s1.3-3,2.2-4.5c0.8-1.4,1.9-2.7,3-3.9
		c0.5-0.6,1.2-1.2,1.8-1.7l1-0.9c0.3-0.3,0.6-0.6,0.9-0.9c0.2-0.2,0.3-0.4,0.5-0.6c0.8,1.9,1.8,3.7,3.1,5.3c1.1,1.4,2.3,2.8,3.7,3.9
		c1.5,1.1,3,2,4.6,2.8c2.9,1.4,5.9,2.4,9.1,3c0.5,1.3,1.1,2.4,1.7,3.5c0.8,1.4,1.7,2.7,2.7,3.9c2,2.4,4.5,4.6,7.3,6.1
		c0.7,0.3,1.4,0.7,2.2,1c0.8,0.3,1.5,0.6,2.3,0.7c0.8,0.2,1.5,0.4,2.3,0.6s1.5,0.3,2.3,0.4c3.1,0.5,6.2,0.4,9.3,0.1
		c1.5-0.2,3-0.4,4.5-0.7c0.1,0.7,0.3,1.3,0.6,1.9c0.6,1.5,1.6,2.7,2.7,3.8c2.2,2.2,5,3.6,7.9,4.4C333.5,76,330.9,74.4,328.9,72.2z
		 M269.3,22.8c0.1-0.2,0.1-0.1,0.2-0.2c0.1,0,0.1,0,0.3,0h0.2l0.2,0.1c0.5,0.2,1.2,0.6,1.6,1.1c0.2,0.2,0.5,0.5,0.6,0.8
		c0.1,0.1,0.2,0.3,0.2,0.4c0.1,0.1,0.1,0.3,0.1,0.4c0.1,0.6,0.1,1.4-0.1,2.1c-0.3,1.5-0.9,2.9-1.6,4.3c0-0.1-0.1-0.2-0.1-0.3
		c-0.5-1.5-1-3.1-1.4-4.7c-0.2-0.8-0.3-1.6-0.4-2.3C269.1,23.8,269.2,23.1,269.3,22.8z M326.5,64.4c0.2-0.6,0.5-1.1,1-1.4
		c0.5-0.3,1.2-0.5,1.6-0.4c0.5,0,0.7,0.4,0.7,0.6c0,0.1-0.1,0.3-0.2,0.4c-0.1,0.1-0.3,0.2-0.6,0.3c-0.8,0.3-1.7,0.5-2.6,0.7
		C326.5,64.5,326.5,64.5,326.5,64.4z"/>
	<g id="XMLID_250_">
		<g>
			<path class="st29" d="M331.7,264.5l1.3,3.9c0,0-27.7,11.6-54.5,9.2s-43.3-14.9-43.3-14.9l2.6-3.7c0,0,18.2,12.1,41.2,14.6
				C302,276.2,331.7,264.5,331.7,264.5z"/>
		</g>
	</g>
	
		<linearGradient id="SVGID_14_" gradientUnits="userSpaceOnUse" x1="275.1518" y1="-859.0406" x2="257.3436" y2="-853.0261" gradientTransform="matrix(1 0 0 -1 0 -606)">
		<stop  offset="0" style="stop-color:#E68D6C"/>
		<stop  offset="1" style="stop-color:#F8AD84;stop-opacity:0"/>
	</linearGradient>
	<path class="st30" d="M276.9,243.2c0,0-3.9,12.4-3.9,16c0,9.3,2.5,14,2.5,14s-10.7-1.7-16.8-4.1c0,0-1.6-1.2,0-1.6s4.3-1.2,5.3-3.9
		c1-2.7,3.9-7.1,5.1-9.8s5-9.2,4.5-13.2s-2.1-8.2-1-9.8C273.6,229.1,277.6,240.2,276.9,243.2z"/>
	
		<linearGradient id="SVGID_15_" gradientUnits="userSpaceOnUse" x1="288.9212" y1="-878.6149" x2="288.5009" y2="-867.434" gradientTransform="matrix(1 0 0 -1 0 -606)">
		<stop  offset="0" style="stop-color:#E68D6C"/>
		<stop  offset="1" style="stop-color:#F8AD84;stop-opacity:0"/>
	</linearGradient>
	<path class="st31" d="M273.7,263.9c0,0,2.6,3.6,7.5,1.9c4.8-1.7,6-2.4,8.3-1.9s4.9,4.1,8.2,4.4c3.2,0.4,5.9-1.4,5.9-1.4
		s-0.7,4.5-2.8,5.5c-2.1,1.1-21.1,2.3-24.6,0.5C274.1,272,273.7,263.9,273.7,263.9z"/>
	
		<linearGradient id="SVGID_16_" gradientUnits="userSpaceOnUse" x1="248.909" y1="-777.6972" x2="257.6651" y2="-776.4988" gradientTransform="matrix(1 0 0 -1 0 -606)">
		<stop  offset="0.1865" style="stop-color:#507D63"/>
		<stop  offset="1" style="stop-color:#74A692;stop-opacity:0.46"/>
	</linearGradient>
	<path class="st32" d="M244.4,136.2c0,0,7.6,18.8,9.8,26s-2.1,20.1,2.2,26.4c4.3,6.4,9.6,10.9,17.8,10.2s16.3-1.7,15.6,0
		s-12.6,7.4-24.3,5.1c-11.7-2.3-15.3-11.9-15.3-17.7s1.3-12.9,1.1-17.2C251.1,163.5,248.3,146.1,244.4,136.2z"/>
	
		<linearGradient id="SVGID_17_" gradientUnits="userSpaceOnUse" x1="292.3075" y1="-778.7421" x2="292.1406" y2="-764.5562" gradientTransform="matrix(1 0 0 -1 0 -606)">
		<stop  offset="0" style="stop-color:#C7754E"/>
		<stop  offset="1" style="stop-color:#F8AD84;stop-opacity:0"/>
	</linearGradient>
	<path class="st33" d="M265.3,161.2c0,0,11.4,4.1,16.4,5.9c5.1,1.9,12.8,6.7,12.8,6.7s9.3-6.1,12.4-8.2c3.7-2.5,12.1-6.6,12.1-6.6
		v-1.5c0,0-17.2,5.3-18.4,6.7c-6,7.1-3.1-3.2-7.7-4.3s-1.6,10.4-8.3,5.3C278.2,160.6,265.3,161.2,265.3,161.2z"/>
	<g id="XMLID_249_">
		<g>
			<path class="st29" d="M276.6,520.6l-0.5,5.7c0,0-12.8,5.8-25.7,0.3l-0.5-4.7C249.9,521.9,265.5,526.9,276.6,520.6z"/>
		</g>
	</g>
	<g id="XMLID_248_">
		<g>
			<path class="st29" d="M384.6,511l1.2,5.4c0,0-12.1,7.2-26.6,2.5l-2.1-5.8C357.7,513.3,373.1,518,384.6,511z"/>
		</g>
	</g>
	<g id="XMLID_247_">
		<g>
			<path class="st4" d="M358.9,331.3c1.3,3,1.6,12.5,0.3,16.2c-1.3,3.7,0.3,8.9-1.2,11.1s-7.9,8.7-10,9.5s-5.4,2.4-5.4,2.4
				s-0.7-1.6,0-3.4c0.1-0.3,0.4-0.7,0.8-1c1.7-1.5,5.2-3,5.2-3c0.5-2.9,2.9-6.6,2.9-6.6s-0.5-1.9-1-4.3l0,0
				c-0.3-1.2-0.6-2.6-0.9-3.9c-0.2-0.8-0.3-1.5-0.4-2.1c-0.7-3.9,0-7.7,0-7.7s-2.8,3.8-4.1,5.1c-1.3,1.3-0.9,6.5-1.8,9.2
				c-0.9,2.6-2.3,3.3-2.3,3.3c-1.4,0.8-3.3,0.8-3.1-0.8c0.2-1.7,1.3-9.7,1.3-9.7l0.7-4.7c0,0,4.1-10.7,6.3-12.9
				c2.2-2.2-3.1-23.5-5.3-53.2c-2.1-29.8-1.8-36-1.8-43.1s-14.8-64.4-14.8-69.7c0,0-1.4-7.1-1.6-8.8c-0.5-6.6,0.5-10.1,2.3-14.3
				c3.6-7.3,6.7-6.7,8.1-6.5c6.2,1,9.7,8,11.2,14.4c2,8.7,6.6,50.8,7.2,61.3s2.2,12.4,5.8,23.2s2.9,54.1,0,70.8s-2,20.7-2,20.7
				S357.5,328.3,358.9,331.3z"/>
			<path class="st34" d="M343.8,360.5c0.7-3.3,3.6-4,3.6-5.9s2.2-6.2,2.2-6.2c0.3,1.3,0.6,2.7,0.9,3.9l0,0c-0.1,0.3-1.2,4.9-2.2,5.9
				c-0.9,0.9-3.6,2.4-4.5,5.7C343.6,363.9,343.1,363.5,343.8,360.5z"/>
			<path class="st35" d="M348.6,363.1c0,0-3.5,1.5-5.2,3c0-0.9,0.1-1.6,0.3-2.3c0.9-3.3,3.6-4.8,4.5-5.7c1-1,2.1-5.6,2.2-5.9
				c0.6,2.4,1,4.3,1,4.3S349,360.2,348.6,363.1z"/>
			<path class="st35" d="M348.7,363.1c0,0-3.5,1.5-5.2,3c0-0.9,0.1-1.6,0.3-2.3c0.9-3.3,3.6-4.8,4.5-5.7c1-1,2.1-5.6,2.2-5.9
				c0.6,2.4,1,4.3,1,4.3S349.1,360.2,348.7,363.1z"/>
		</g>
	</g>
	<g id="XMLID_246_" class="st36">
		<g>
			
				<linearGradient id="SVGID_18_" gradientUnits="userSpaceOnUse" x1="356.36" y1="567.5478" x2="324.8669" y2="800.1122" gradientTransform="matrix(1 0 0 1 0 -432)">
				<stop  offset="0" style="stop-color:#E68D6C"/>
				<stop  offset="1" style="stop-color:#F8AD84;stop-opacity:0"/>
			</linearGradient>
			<path class="st37" d="M358.9,331.3c-1.4-3-3.6-8.5-3.6-8.5s-0.9-4,2-20.7s3.6-60,0-70.8s-5.2-12.7-5.8-23.2s-5.2-52.6-7.2-61.3
				c-1.5-6.4-5-13.4-11.2-14.4c-1.4-0.2-4.5-0.8-8.1,6.5c-1.8,4.2-2.8,7.7-2.3,14.3c0.2,1.7,1.6,8.8,1.6,8.8
				c0,5.3,14.8,62.6,14.8,69.7s-0.3,13.3,1.8,43.1c2.2,29.7,7.5,51,5.3,53.2s-6.3,12.9-6.3,12.9l-0.7,4.7c0,0-1.1,8-1.3,9.7
				c-0.2,1.6,1.7,1.6,3.1,0.8c0,0,1.4-0.7,2.3-3.3c0.9-2.7,0.5-7.9,1.8-9.2c1.3-1.3,4.1-5.1,4.1-5.1s-0.7,3.8,0,7.7
				c0.1,0.6,0.2,1.3,0.4,2.1v0.1c-0.3,0.5-2.2,4.4-2.2,6.1c0,1.9-2.9,2.6-3.6,5.9c-0.6,2.7-0.3,3.3-0.1,3.4
				c-0.2,0.7-0.3,1.5-0.4,2.3c-0.4,0.3-0.7,0.7-0.8,1c-0.7,1.8,0,3.4,0,3.4s3.3-1.6,5.4-2.4s8.5-7.3,10-9.5s-0.1-7.4,1.2-11.1
				C360.5,343.8,360.2,334.3,358.9,331.3z"/>
		</g>
	</g>
	
		<linearGradient id="SVGID_19_" gradientUnits="userSpaceOnUse" x1="330.8833" y1="-791.2593" x2="344.6988" y2="-789.049" gradientTransform="matrix(1 0 0 -1 0 -606)">
		<stop  offset="0" style="stop-color:#D48864"/>
		<stop  offset="1" style="stop-color:#F8AD84;stop-opacity:0"/>
	</linearGradient>
	<path class="st38" d="M339.1,231.2c0,0,0,6.9,6.7,5.3c3.2-0.8,6.3-18.7,5.7-29.2c-0.6-10.6-5.3-52.6-7.3-61.3
		c-1.4-6.4-5-13.4-11.2-14.4c-1.4-0.2-4.5-0.8-8.1,6.5c-1.8,4.2-2.8,7.8-2.3,14.3c0.1,1.6,1.6,8.7,1.6,8.7
		c0,5.3,14.8,62.5,14.8,69.7C339.1,230.9,339.1,231,339.1,231.2z"/>
	<g id="XMLID_244_">
		<g id="XMLID_245_">
			<g>
				<path class="st10" d="M258.4,218.8c8.2,1.7,40.5,7.6,64.2,1.8c-0.4,1.6-0.8,3.2-1.1,4.7c-21.9,5.5-54.1-0.1-62.8-1.8
					C258.6,222.1,258.5,220.6,258.4,218.8z"/>
				<path class="st9" d="M283.9,171.3c8.4,4.3,10.8,5.8,10.8,5.8s7.7-4.6,15.8-9.8c7.9-5.1,11.4-6.4,11.4-6.4s-0.4-24.2,1.9-32.5
					c1.5,0.3,2.9,0.6,4.1,1c0,0-0.4,27.9,1.4,31.4c1.1,2,3.3,7,4.9,10.7c0,0.1,0.1,0.2,0.1,0.3c0.9,2.7,2.2,4.4,3,11.8
					c0.8,6.5-1.2,13.6-8.6,17.4c-0.1,0.1-0.3,0.1-0.4,0.2c-1.4,4.5-3.8,12.4-5.6,19.4c-23.7,5.8-56-0.1-64.2-1.8
					c-0.3-4.7-0.8-10.4-1.5-15.8c-0.1-0.7-0.3-1.3-0.5-2c-0.6-1.4-1.5-2.7-2.7-4.4c-4.7-7-3.2-13.6-3.2-18.9c0-0.3,0-0.5,0-0.8
					c0.6-2.1,1.6-7,0.3-14.4c-1.6-9.7-4.8-25-7.9-29.2c1.8-0.6,3.9-1.2,6.2-1.9c1.9,4,10.9,23.3,13,29.9l0.8,2.5
					C262.8,163.8,273.1,165.8,283.9,171.3z"/>
				<path class="st10" d="M294.5,173.9c0,0,13.5-9.8,24.5-14.7c0,0,0.1-23.5,2.3-31.3c0.8,0.2,1.7,0.3,2.5,0.5
					c-2.2,8.4-2.1,32.6-2.1,32.6s-3.5,1.4-11.4,6.4c-8.1,5.2-15.8,9.8-15.8,9.8s-2.4-1.6-10.8-5.8c-10.8-5.5-21-7.5-21-7.5l-0.8-2.5
					c-2.1-6.6-11.1-25.9-13-29.9c0.5-0.1,0.9-0.3,1.4-0.4c1.9,3.3,7.8,13.3,15.1,30.1C265.5,161,286.5,167.9,294.5,173.9z"/>
			</g>
		</g>
	</g>
	
		<linearGradient id="SVGID_20_" gradientUnits="userSpaceOnUse" x1="291.9735" y1="-810.0373" x2="293.1784" y2="-829.9182" gradientTransform="matrix(1 0 0 -1 0 -606)">
		<stop  offset="4.594595e-02" style="stop-color:#AB2466"/>
		<stop  offset="1" style="stop-color:#BA3175;stop-opacity:0"/>
	</linearGradient>
	<path class="st39" d="M328.2,201.5c0,0-9.3,3.9-19.7,0.8c-11.2-3.3-13.9-2.3-22.2,0.5c-8,2.6-23.2,4.2-31-3.6c0,0,1.3,2,1.6,3.4
		c0.2,1.5,0.7,5.4,0.7,5.4s8.3,5.3,17.3,5.8c9,0.6,17.4-0.8,22.8,2.5s20.5,7.1,24.8,5.2L328.2,201.5z"/>
	
		<linearGradient id="SVGID_21_" gradientUnits="userSpaceOnUse" x1="348.4432" y1="-963.265" x2="345.5597" y2="-961.2308" gradientTransform="matrix(1 0 0 -1 0 -606)">
		<stop  offset="0" style="stop-color:#BA7758"/>
		<stop  offset="0.527" style="stop-color:#CE8866;stop-opacity:0.6784"/>
		<stop  offset="1" style="stop-color:#F8AD84;stop-opacity:0"/>
	</linearGradient>
	<path class="st40" d="M343.7,363.8c0,0,1.1-3,3.8-5.2c2.2-1.7,2.9-5.7,2.9-5.7l0.1-0.8l-0.9-3.9c0,0-1.7,3.7-2.1,5.2
		c-0.2,1.8-0.2,2-1.2,3.1c-1,1-2.9,2.3-2.9,6.9L343.7,363.8z"/>
	
		<linearGradient id="SVGID_22_" gradientUnits="userSpaceOnUse" x1="340.0135" y1="-961.4366" x2="348.8553" y2="-940.6097" gradientTransform="matrix(1 0 0 -1 0 -606)">
		<stop  offset="0" style="stop-color:#BA7758"/>
		<stop  offset="0.527" style="stop-color:#CE8866;stop-opacity:0.6784"/>
		<stop  offset="1" style="stop-color:#F8AD84;stop-opacity:0"/>
	</linearGradient>
	<path class="st41" d="M338.2,354.5c0,0,1.5,1.8,2.8,0s2.2-7.6,2.6-9.4s4.1-7.3,4.9-8.2s0.9,0.8,0.9,1.3c-0.1,0.5-4.1,5.1-4.4,5.8
		c-0.2,0.7-0.5,0.9-0.8,3.2c-0.2,2.2-0.5,8.5-4,9.2S338.2,354.5,338.2,354.5z"/>
	<g>
		<g id="XMLID_170_">
			<g>
				<path class="st42" d="M429.7,651.9L429.7,651.9c-0.1,0.1-0.2,0.1-0.3,0.1C429.5,651.9,429.6,651.9,429.7,651.9z"/>
				<path class="st42" d="M429.7,651.9L429.7,651.9c-0.1,0.1-0.2,0.1-0.3,0.1C429.5,651.9,429.6,651.9,429.7,651.9z"/>
				<g>
					<path class="st42" d="M429.8,649.4c-0.4-1.1-0.9-2.3-0.9-3c0-1.3,2.1-3,3.2-1.8c0.5,0.5,1,1.3,1.3,2
						C432.8,647.6,431.6,648.6,429.8,649.4z"/>
					<path class="st42" d="M434.2,648.3c-0.1,0.2-1.3,2.6-5.4,3.9c-2.2,0.8-7.3,1.8-12,1.8c-5.8,0-12.9-3-15.8-5.7s-5.2-6.3-8-7.7
						s-4.8-1.4-6.5-2.5s-2.3-2.4-2.3-3.6c0.1-0.3,0.1-0.5,0.2-0.8c0.6-2.1,1.9-3.4,2.1-4.2c0.1,1.6,0.7,3,2.1,3.7
						c2.2,1,6.5,4.1,10,7c2,1.7,3.8,3.2,4.7,4.3c2.7,3,8,5.2,11,5.7c7.4,1.3,16.6-0.1,19.1-3.6C433.9,647.5,434.2,648.3,434.2,648.3
						z"/>
				</g>
				<path class="st42" d="M433.8,644.1c0.1,0.2,0.1,0.3,0.1,0.4c0.1,0.6,0,1.3-0.5,2.1c0.5,0.9,0.8,1.7,0.8,1.7
					C434.9,645.5,433.8,644.1,433.8,644.1L433.8,644.1z"/>
				<path class="st43" d="M403.3,644.5c2.6,3,7.9,5.2,11,5.7c7.4,1.3,12.4,0.6,15.5-0.8c-0.4-1.1-0.9-2.3-0.9-3
					c0-1.3,2.1-3.1,3.2-1.8c0.5,0.5,0.9,1.3,1.3,2c0.5-0.8,0.7-1.5,0.5-2.1c0-0.1-0.1-0.3-0.1-0.4c-0.5-1.2-2.5-3.2-4.9-5.2
					c0.2,0.2,2.2,2.9-0.4,4.1c-2.6,1.3-12.7,1.8-16.5-0.4c-1.6-0.9-3.4-2.1-5.4-2.9c-2.6-1.1-5.3-1.6-7.5,0.1
					c-0.2,0.1-0.3,0.2-0.5,0.4C400.7,641.8,402.4,643.4,403.3,644.5z"/>
				<path class="st44" d="M398.8,647c3,3.4,10.1,7.9,19.1,7.6c9.2-0.3,15.6-3.5,16.3-6.3c-0.1,0.2-0.9,2.2-4.8,3.7
					c-3,1.2-7.8,1.9-12.5,1.9c-5.9,0-12.9-3-15.8-5.7s-5.3-6.3-8-7.7c-2.8-1.4-4.8-1.4-6.5-2.5s-2.3-2.4-2.3-3.6
					c-0.3,2.9,2.4,4.8,5.6,5.5C393.5,640.9,397.2,645.2,398.8,647z"/>
				<path class="st42" d="M429.5,652C429.4,652,429.4,652,429.5,652C429.4,652,429.4,652,429.5,652z"/>
				<path class="st45" d="M388.3,619.9c0,0-0.4,3.5,4.2,7.6c4.9,4.3,7.9,8.1,6.7,12.4c2.2-1.7,4.9-1.2,7.5-0.1c0,0-1.4-6.2-5.3-9.4
					s-12.3-8-12.3-12.9C388.8,618.3,388.5,619.1,388.3,619.9z"/>
				<path class="st45" d="M390.5,614.2c-0.4,1.2-0.5,3.7,0.2,4.5c1.1,1.3,2.5,1.6,3.8,1c2-1,4-2.4,5.7-1.6c1.4,0.7,3.4,3.4,3.4,3.4
					c-0.4-0.7-0.8-1.5-1.1-2.1c-0.2-0.5-0.5-0.8-0.8-1.2c-1.3-1.6-2.9-2.1-4.8-1.1c-2.6,1.3-3.6,2.1-4.6,1.3
					c-1.4-1.1-0.8-2.7-0.3-3.9C392.4,613.5,390.8,612.6,390.5,614.2z"/>
				<path class="st43" d="M401.8,617.9l-0.2,0.1c0.3,0.4,0.5,0.7,0.8,1.2c0.3,0.6,0.7,1.3,1.1,2.1c2.6,4.8,6.1,11.4,6.1,11.7
					c0,0.4-0.3,2-0.3,2s5.1-1.2,8.6-3.2c-2.9-3.8-8.6-15.2-8.6-15.2s-0.6-0.8-0.1-1.2c-0.2-0.6-0.5-1.3-0.9-1.7
					c-0.7-0.6-2.5-0.5-4.4,0.6c-1.9,1-2.5,1.7-2.5,2.4C401.4,617.3,401.8,617.9,401.8,617.9z M402.9,617.2c-0.2-0.4,0-0.9,0.3-1.1
					l3.8-2.1c0.4-0.2,0.8,0,1,0.4l1.4,3.3c0.2,0.4,0,0.9-0.3,1.1l-3.8,2.1c-0.4,0.2-0.7-0.1-0.9-0.4L402.9,617.2z"/>
				<path class="st45" d="M403.2,616.1c-0.4,0.2-0.5,0.8-0.3,1.2l1.5,3.2c0.2,0.4,0.6,0.6,0.9,0.4l3.8-2.1c0.4-0.2,0.5-0.7,0.3-1.1
					l-1.4-3.3c-0.2-0.4-0.6-0.6-1-0.4L403.2,616.1z"/>
				<path class="st45" d="M409.2,615.4c-0.5,0.4,0.1,1.2,0.1,1.2s5.7,11.4,8.6,15.2c0.4-0.2,0.8-0.5,1.2-0.7
					c-3.4-3.4-8.4-15.3-8.4-15.3s-0.3-0.9-1.2-0.6C409.4,615.2,409.3,615.3,409.2,615.4z"/>
			</g>
		</g>
		
			<linearGradient id="SVGID_23_" gradientUnits="userSpaceOnUse" x1="-6835.0693" y1="-1251.004" x2="-6792.4155" y2="-1224.8267" gradientTransform="matrix(-1 0 0 -1 -6417.2031 -606)">
			<stop  offset="0" style="stop-color:#851C73"/>
			<stop  offset="1" style="stop-color:#582978"/>
		</linearGradient>
		<path class="st46" d="M398.7,640.2c0,0-7.5-5.9-8.8-6.4c-1.2-0.5-2.4-1.2-2.8-2.1c-0.4-0.9-1-2.6-0.5-5s1.7-6.8,1.7-6.8
			s0,1.8,1.1,3.9c1.1,2,4.1,4.3,5.7,6.2c1.7,1.8,2.8,3,3.5,4.5s0.9,2.9,0.8,4.1c-0.1,1-0.2,1.4-0.2,1.4L398.7,640.2z"/>
		
			<linearGradient id="SVGID_24_" gradientUnits="userSpaceOnUse" x1="-6803.5552" y1="-1242.0607" x2="-6850.3833" y2="-1261.1117" gradientTransform="matrix(-1 0 0 -1 -6417.2031 -606)">
			<stop  offset="0.1108" style="stop-color:#BFC4CC"/>
			<stop  offset="1" style="stop-color:#FFFFFF;stop-opacity:0"/>
		</linearGradient>
		<path class="st47" d="M384.4,633.7c-0.1,0.3-0.1,0.5-0.2,0.8c0,1.2,0.6,2.5,2.3,3.6c1.7,1.1,3.7,1.1,6.5,2.5s5.1,5,8,7.7
			s10,5.7,15.8,5.7c4.7,0,9.8-1,12-1.8l0,0c0.5-0.2,0.8-0.4,1-0.5c0.3-0.4,0.1-1.2-0.2-2.2c-3,1.1-7.9,2.1-15.5,0.7
			c-3-0.6-8.3-2.7-10.9-5.7c-0.9-1.1-2.6-2.7-4.6-4.4c-3.5-2.9-7.9-6.2-10.1-7.2c-1.4-0.7-2-2.7-2.1-4.2
			C386.3,629.5,385.1,631.6,384.4,633.7z"/>
		
			<linearGradient id="SVGID_25_" gradientUnits="userSpaceOnUse" x1="-6836.9595" y1="-1244.9036" x2="-6795.853" y2="-1219.6757" gradientTransform="matrix(-1 0 0 -1 -6417.2031 -606)">
			<stop  offset="0" style="stop-color:#851C73"/>
			<stop  offset="1" style="stop-color:#582978"/>
		</linearGradient>
		<path class="st48" d="M417.9,631.9c-3.5,1.9-8.6,3.1-8.6,3.1s0.3-1.5,0.3-2c0-0.4-3.4-6.7-5.9-11.4l-0.4-0.8
			c-0.2-0.3-1.8-2.1-3.1-2.8c-1.6-0.8-3.7,0.7-5.7,1.6c-1.2,0.6-2.7,0.3-3.8-1c-0.6-0.8-0.6-3.2-0.2-4.5c-0.5,1-1,2.2-1.4,3.4l0,0
			c0,4.9,8.4,9.7,12.3,12.9s5.3,9.4,5.3,9.4c2,0.8,3.8,2,5.4,2.9c3.7,2.2,13.9,1.7,16.5,0.4c2.5-1.2,0.5-3.9,0.4-4.1l0,0
			c-3.3-2.8-7.4-5.8-9.2-7.2c-0.2-0.1-0.4-0.3-0.6-0.5C418.7,631.4,418.3,631.6,417.9,631.9z"/>
		<g>
			<path class="st49" d="M409.7,634.1c-0.3,0-0.6,0-0.9,0c-0.2,0-0.4-0.2-0.4-0.4s0.1-0.4,0.3-0.5c0.8-0.4,2-1,3.4-1.8
				c-2.3-0.1-4.4-0.3-4.5-0.3c-0.2,0-0.4-0.2-0.5-0.4c0-0.2,0.1-0.5,0.3-0.5c1.1-0.4,2-0.9,2.8-1.5c-1.3,0-2.6-0.1-3.8-0.4
				c-0.2,0-0.4-0.2-0.4-0.4s0.1-0.4,0.3-0.5c0.6-0.3,1.5-0.9,2.5-1.6c-2.1,0.1-3.9,0-4,0c-0.2,0-0.4-0.2-0.5-0.4
				c0-0.2,0.1-0.5,0.3-0.5c1.4-0.7,2.5-1.5,3.4-2.4c-1.5,0.2-3.1,0.4-4.4,0.4c-0.3,0-0.5-0.2-0.5-0.5s0.2-0.5,0.5-0.5
				c1.6,0,3.7-0.3,5.5-0.5c1.5-1.9,2-3.6,2.1-3.6c0.1-0.3,0.4-0.4,0.6-0.3s0.4,0.4,0.3,0.6c0,0.1-0.5,1.5-1.6,3.1
				c1.4-0.3,2.5-0.5,2.5-0.5c0.2,0,0.3,0,0.4,0.1s0.2,0.3,0.2,0.4c-0.1,1.2-0.8,2.3-1.8,3.4c1.1-0.1,2.1-0.4,2.9-0.7
				c0.2-0.1,0.4,0,0.5,0.1s0.2,0.4,0.1,0.5c0,0.1-0.7,1.5-2.2,3.1c2.3-0.1,4.1-0.3,4.1-0.3c0.2,0,0.4,0.1,0.5,0.2
				c0.1,0.2,0.1,0.3,0,0.5c-0.4,0.8-1.4,1.7-2.5,2.6c1.6,0.1,3,0.1,3.6,0c0.2,0,0.5,0.1,0.5,0.3c0.1,0.2,0,0.5-0.2,0.6
				C418.9,631.5,414.1,634.1,409.7,634.1z M413.8,631.4c-1,0.6-1.9,1.2-2.7,1.6c2-0.2,4-0.9,5.4-1.5
				C415.7,631.5,414.7,631.4,413.8,631.4z M409.5,630.1c1.1,0.1,2.6,0.2,4,0.2c1-0.7,2-1.4,2.6-2.1c-1,0.1-2.5,0.2-4.2,0.3
				C411.2,629.1,410.4,629.6,409.5,630.1z M407.9,627.4c1.1,0.1,2.4,0.2,3.5,0.2c1-0.9,1.8-1.9,2.2-2.5c-1,0.2-2.1,0.4-3.2,0.5
				C409.6,626.3,408.6,626.9,407.9,627.4z M409.5,622.1c-0.8,0.9-1.7,1.8-2.9,2.6c1,0,2.2,0,3.5-0.1c1-0.9,1.9-2,2.3-3
				C411.7,621.7,410.7,621.9,409.5,622.1z"/>
		</g>
	</g>
	<g>
		<g id="XMLID_3_">
			<g>
				<path class="st42" d="M235.1,649.1L235.1,649.1c0.1,0.1,0.2,0.1,0.3,0.1C235.3,649.2,235.2,649.1,235.1,649.1z"/>
				<path class="st42" d="M235.1,649.1L235.1,649.1c0.1,0.1,0.2,0.1,0.3,0.1C235.3,649.2,235.2,649.1,235.1,649.1z"/>
				<g>
					<path class="st42" d="M235,646.6c0.4-1.1,0.9-2.3,0.9-3c0-1.3-2.1-3-3.2-1.8c-0.5,0.5-1,1.3-1.3,2
						C232,644.8,233.2,645.8,235,646.6z"/>
					<path class="st42" d="M230.6,645.5c0.1,0.2,1.3,2.6,5.4,3.9c2.2,0.8,7.3,1.8,12,1.8c5.8,0,12.9-3,15.8-5.7s5.2-6.3,8-7.7
						s4.8-1.4,6.5-2.5s2.3-2.4,2.3-3.6c-0.1-0.3-0.1-0.5-0.2-0.8c-0.6-2.1-1.9-3.4-2.1-4.2c-0.1,1.6-0.7,3-2.1,3.7
						c-2.2,1-6.5,4.1-10,7c-2,1.7-3.8,3.2-4.7,4.3c-2.7,3-8,5.2-11,5.7c-7.4,1.3-16.6-0.1-19.1-3.6
						C230.9,644.7,230.6,645.5,230.6,645.5z"/>
				</g>
				<path class="st42" d="M231,641.3c0,0-1.1,1.4-0.4,4.2c0,0,0.3-0.8,0.8-1.7c-0.5-0.8-0.6-1.5-0.5-2.1
					C230.9,641.6,230.9,641.5,231,641.3L231,641.3z"/>
				<path class="st43" d="M266.2,637.4c-0.2-0.2-0.3-0.3-0.5-0.4c-2.2-1.7-4.9-1.2-7.5-0.1c-2,0.8-3.8,2-5.4,2.9
					c-3.8,2.2-13.9,1.7-16.5,0.4c-2.6-1.2-0.6-3.9-0.4-4.1c-2.4,2-4.4,4-4.9,5.2c0,0.1-0.1,0.3-0.1,0.4c-0.2,0.6,0,1.3,0.5,2.1
					c0.4-0.7,0.8-1.5,1.3-2c1.1-1.3,3.2,0.5,3.2,1.8c0,0.7-0.5,1.9-0.9,3c3.1,1.4,8.1,2.1,15.5,0.8c3.1-0.5,8.4-2.7,11-5.7
					C262.4,640.6,264.1,639,266.2,637.4z"/>
				<path class="st44" d="M274.9,637.1c3.2-0.7,5.9-2.6,5.6-5.5c0,1.2-0.6,2.5-2.3,3.6s-3.7,1.1-6.5,2.5c-2.7,1.4-5.1,5-8,7.7
					s-9.9,5.7-15.8,5.7c-4.7,0-9.5-0.7-12.5-1.9c-3.9-1.5-4.7-3.5-4.8-3.7c0.7,2.8,7.1,6,16.3,6.3c9,0.3,16.1-4.2,19.1-7.6
					C267.6,642.4,271.3,638.1,274.9,637.1z"/>
				<path class="st42" d="M235.3,649.2C235.4,649.2,235.4,649.2,235.3,649.2C235.4,649.2,235.4,649.2,235.3,649.2z"/>
				<path class="st45" d="M275.7,614.7c0,4.9-8.4,9.7-12.3,12.9s-5.3,9.4-5.3,9.4c2.6-1.1,5.3-1.6,7.5,0.1
					c-1.2-4.3,1.8-8.1,6.7-12.4c4.6-4.1,4.2-7.6,4.2-7.6C276.3,616.3,276,615.5,275.7,614.7z"/>
				<path class="st45" d="M272.8,611.7c0.5,1.2,1.1,2.8-0.3,3.9c-1,0.8-2,0-4.6-1.3c-1.9-1-3.5-0.5-4.8,1.1
					c-0.3,0.4-0.6,0.7-0.8,1.2c-0.3,0.6-0.7,1.4-1.1,2.1c0,0,2-2.7,3.4-3.4c1.7-0.8,3.7,0.6,5.7,1.6c1.3,0.6,2.7,0.3,3.8-1
					c0.7-0.8,0.6-3.3,0.2-4.5C274,609.9,272.4,610.7,272.8,611.7z"/>
				<path class="st43" d="M263.4,613.9c0-0.7-0.6-1.4-2.5-2.4c-1.9-1.1-3.7-1.2-4.4-0.6c-0.4,0.4-0.7,1.1-0.9,1.7
					c0.5,0.4-0.1,1.2-0.1,1.2s-5.7,11.4-8.6,15.2c3.5,2,8.6,3.2,8.6,3.2s-0.3-1.6-0.3-2c0-0.3,3.5-6.9,6.1-11.7
					c0.4-0.8,0.8-1.5,1.1-2.1c0.3-0.5,0.5-0.8,0.8-1.2l-0.2-0.1C263,615.1,263.4,614.5,263.4,613.9z M260.4,617.7
					c-0.2,0.3-0.5,0.6-0.9,0.4l-3.8-2.1c-0.3-0.2-0.5-0.7-0.3-1.1l1.4-3.3c0.2-0.4,0.6-0.6,1-0.4l3.8,2.1c0.3,0.2,0.5,0.7,0.3,1.1
					L260.4,617.7z"/>
				<path class="st45" d="M257.8,611.2c-0.4-0.2-0.8,0-1,0.4l-1.4,3.3c-0.2,0.4-0.1,0.9,0.3,1.1l3.8,2.1c0.3,0.2,0.7,0,0.9-0.4
					l1.5-3.2c0.2-0.4,0.1-1-0.3-1.2L257.8,611.2z"/>
				<path class="st45" d="M255.3,612.4c-0.9-0.3-1.2,0.6-1.2,0.6s-5,11.9-8.4,15.3c0.4,0.2,0.8,0.5,1.2,0.7
					c2.9-3.8,8.6-15.2,8.6-15.2s0.6-0.8,0.1-1.2C255.5,612.5,255.4,612.4,255.3,612.4z"/>
			</g>
		</g>
		
			<linearGradient id="SVGID_26_" gradientUnits="userSpaceOnUse" x1="-4872.7002" y1="-1248.1025" x2="-4830.0464" y2="-1221.9253" gradientTransform="matrix(1 0 0 -1 5119.6362 -606)">
			<stop  offset="0" style="stop-color:#851C73"/>
			<stop  offset="1" style="stop-color:#582978"/>
		</linearGradient>
		<path class="st50" d="M265.6,637.1c0,0-0.2-0.4-0.2-1.4c-0.1-1.2,0.1-2.6,0.8-4.1s1.8-2.7,3.5-4.5c1.6-1.9,4.6-4.2,5.7-6.2
			c1.1-2.1,1.1-3.9,1.1-3.9s1.2,4.4,1.7,6.8s-0.1,4.1-0.5,5s-1.6,1.6-2.8,2.1c-1.3,0.5-8.8,6.4-8.8,6.4L265.6,637.1z"/>
		
			<linearGradient id="SVGID_27_" gradientUnits="userSpaceOnUse" x1="-4841.0913" y1="-1239.3213" x2="-4887.9189" y2="-1258.3723" gradientTransform="matrix(1 0 0 -1 5119.6362 -606)">
			<stop  offset="0.1108" style="stop-color:#BFC4CC"/>
			<stop  offset="1" style="stop-color:#FFFFFF;stop-opacity:0"/>
		</linearGradient>
		<path class="st51" d="M278.4,626c-0.1,1.5-0.7,3.5-2.1,4.2c-2.2,1-6.6,4.3-10.1,7.2c-2,1.7-3.7,3.3-4.6,4.4
			c-2.6,3-7.9,5.1-10.9,5.7c-7.6,1.4-12.5,0.4-15.5-0.7c-0.3,1-0.5,1.8-0.2,2.2c0.2,0.1,0.5,0.3,1,0.5l0,0c2.2,0.8,7.3,1.8,12,1.8
			c5.8,0,12.9-3,15.8-5.7s5.2-6.3,8-7.7s4.8-1.4,6.5-2.5s2.3-2.4,2.3-3.6c-0.1-0.3-0.1-0.5-0.2-0.8
			C279.7,628.8,278.5,626.7,278.4,626z"/>
		
			<linearGradient id="SVGID_28_" gradientUnits="userSpaceOnUse" x1="-4874.5459" y1="-1242.0748" x2="-4833.4395" y2="-1216.8468" gradientTransform="matrix(1 0 0 -1 5119.6362 -606)">
			<stop  offset="0" style="stop-color:#851C73"/>
			<stop  offset="1" style="stop-color:#582978"/>
		</linearGradient>
		<path class="st52" d="M245.6,628.5c-0.2,0.2-0.4,0.4-0.6,0.5c-1.8,1.4-5.9,4.4-9.2,7.2l0,0c-0.1,0.2-2.1,2.9,0.4,4.1
			c2.6,1.3,12.8,1.8,16.5-0.4c1.6-0.9,3.4-2.1,5.4-2.9c0,0,1.4-6.2,5.3-9.4s12.3-8,12.3-12.9l0,0c-0.4-1.2-0.9-2.4-1.4-3.4
			c0.4,1.3,0.4,3.7-0.2,4.5c-1.1,1.3-2.6,1.6-3.8,1c-2-0.9-4.1-2.4-5.7-1.6c-1.3,0.7-2.9,2.5-3.1,2.8l-0.4,0.8
			c-2.5,4.7-5.9,11-5.9,11.4c0,0.5,0.3,2,0.3,2s-5.1-1.2-8.6-3.1C246.5,628.8,246.1,628.6,245.6,628.5z"/>
		<g>
			<path class="st49" d="M245.7,628.7c-0.2-0.1-0.3-0.4-0.2-0.6c0-0.2,0.3-0.3,0.5-0.3c0.6,0.1,2,0.1,3.6,0
				c-1.1-0.9-2.1-1.8-2.5-2.6c-0.1-0.2-0.1-0.3,0-0.5c0.1-0.1,0.3-0.2,0.5-0.2c0,0,1.8,0.2,4.1,0.3c-1.5-1.6-2.2-3-2.2-3.1
				c-0.1-0.1,0-0.4,0.1-0.5s0.3-0.2,0.5-0.1c0.8,0.3,1.8,0.6,2.9,0.7c-1-1.1-1.7-2.2-1.8-3.4c0-0.1,0.1-0.3,0.2-0.4
				c0.1-0.1,0.2-0.1,0.4-0.1c0,0,1.1,0.2,2.5,0.5c-1.1-1.6-1.6-3-1.6-3.1c-0.1-0.2,0.1-0.5,0.3-0.6s0.5,0,0.6,0.3
				c0.1,0,0.6,1.7,2.1,3.6c1.8,0.2,3.9,0.5,5.5,0.5c0.3,0,0.5,0.2,0.5,0.5s-0.2,0.5-0.5,0.5c-1.3,0-2.9-0.2-4.4-0.4
				c0.9,0.9,2,1.7,3.4,2.4c0.2,0,0.3,0.3,0.3,0.5c-0.1,0.2-0.3,0.4-0.5,0.4c-0.1,0-1.9,0.1-4,0c1,0.7,1.9,1.3,2.5,1.6
				c0.2,0.1,0.3,0.3,0.3,0.5s-0.2,0.4-0.4,0.4c-1.2,0.3-2.5,0.4-3.8,0.4c0.8,0.6,1.7,1.1,2.8,1.5c0.2,0,0.3,0.3,0.3,0.5
				c-0.1,0.2-0.3,0.4-0.5,0.4c-0.1,0-2.2,0.2-4.5,0.3c1.4,0.8,2.6,1.4,3.4,1.8c0.2,0.1,0.3,0.3,0.3,0.5s-0.2,0.4-0.4,0.4
				c-0.3,0-0.6,0-0.9,0C250.7,631.3,245.9,628.7,245.7,628.7z M248.3,628.7c1.4,0.6,3.4,1.3,5.4,1.5c-0.8-0.4-1.7-1-2.7-1.6
				C250.1,628.6,249.1,628.7,248.3,628.7z M252.9,625.7c-1.7-0.1-3.2-0.2-4.2-0.3c0.6,0.7,1.6,1.4,2.6,2.1c1.4,0,2.9-0.1,4-0.2
				C254.4,626.8,253.6,626.3,252.9,625.7z M254.4,622.8c-1.1-0.1-2.2-0.3-3.2-0.5c0.4,0.6,1.2,1.6,2.2,2.5c1.1,0,2.4-0.1,3.5-0.2
				C256.2,624.1,255.2,623.5,254.4,622.8z M252.4,618.8c0.4,1,1.3,2.1,2.3,3c1.3,0.1,2.5,0.1,3.5,0.1c-1.2-0.8-2.1-1.7-2.9-2.6
				C254.1,619.1,253.1,618.9,252.4,618.8z"/>
		</g>
	</g>
	<path class="st4" d="M242.8,133.3c0,0-7.6,1.4-10.3,6.3c-2.2,3.9-31,78.1-31.7,83.3c-0.7,5.3-3.9,14.1,2.8,17.4
		c6.7,3.3,14-6.6,17.7-13.3s25.7-57.4,27.4-62.3c1.6-4.9,7.4-16.7,4.9-23.5S245.9,132.4,242.8,133.3z"/>
	<path class="st4" d="M175.2,156.6c0,0,14.6,67,23.3,79.2s16.9,0.3,18-3.1c3.1-9.7-6.4-22.7-12.3-35.2s-18.8-42.1-20-44.6
		c-0.4-0.9-1-3.1-2.8-3.8C178.3,147.9,173.5,149.6,175.2,156.6z"/>
	<g id="XMLID_2_">
		<g>
			<path class="st9" d="M261.2,159.1l-10,6.6c-1.7-14-8.4-32.4-8.4-32.4l6.2-2C251,134.1,261.2,159.1,261.2,159.1z"/>
		</g>
	</g>
	
		<linearGradient id="SVGID_29_" gradientUnits="userSpaceOnUse" x1="247.0004" y1="-781.1136" x2="198.0016" y2="-854.6119" gradientTransform="matrix(1 0 0 -1 0 -606)">
		<stop  offset="0" style="stop-color:#D48864"/>
		<stop  offset="1" style="stop-color:#F8AD84;stop-opacity:0"/>
	</linearGradient>
	<path class="st53" d="M250.5,176.8c0,0,0.6-2.3,0.7-4.1c0.1-0.9,0.2-3.6,0.2-3.6s-1.2-9.7-5.5-5.3c-3.1,3.1-6.6,10.5-11.4,21.2
		c-12.7,28.3-20.4,52.3-20.4,52.3s4.4-4.7,10.1-16c3.2-6.4,7.2-15.7,11.9-26.6c6.1-14,10.9-25.5,11.6-26.9
		C248.4,166.1,250.5,176.8,250.5,176.8z"/>
	<g id="XMLID_1_">
		<g>
			<path class="st4" d="M174.2,105.8c0.8,0.8,1.8,12.9,1.8,16.9s0.8,5.2,0.8,5.2c0-4.9,0-22.8,0-24.3c0-1.7,1.5-2.5,2.8-1.2
				s1.3,21.2,1.8,23.6c0.5,2.5,0.9,1.6,0.9,1.6l0,0c0.2-4.5,0.2-17,0.2-18.8c0-2.1,1.3-3.4,2.4-2.4c1.1,1.1,1.6,10.3,2,13.7
				c0.4,3.4,0.8,13.9,0.8,13.9c1-2.2,2-4.4,2-4.8c0-0.7,1-6.3,2-7.3s2.7,0,2.7,3.4c0,5.8-2.1,9.5-2.6,14.1
				c-0.8,6.6-5.8,16.1-5.8,16.1s-0.3,0.7,0.1,2.9c0,1.6-0.9,5.1-5.2,5.1s-4.7-4.1-4.7-4.1c-1.5-7.7-6.6-4.8-7.4-18.9
				c-0.6-5-0.5-8-0.5-18.4s-0.2-11.1,0.3-11.6s1.8-0.5,2.2,1.4s1.4,14.7,1.4,14.7l0.2-2.7c0-5.4-0.2-15.3-0.2-16.7
				C172.4,105.5,173.4,105,174.2,105.8z"/>
		</g>
	</g>
	
		<linearGradient id="SVGID_30_" gradientUnits="userSpaceOnUse" x1="205.24" y1="-840.8655" x2="174.017" y2="-707.4083" gradientTransform="matrix(1 0 0 -1 0 -606)">
		<stop  offset="0" style="stop-color:#D48864"/>
		<stop  offset="1" style="stop-color:#F8AD84;stop-opacity:0"/>
	</linearGradient>
	<path class="st54" d="M204.3,197.4c-4.9-10.3-14.5-32.1-18.4-40.9c0-0.5,0.1-0.7,0.1-0.7s5.1-9.5,5.8-16.1
		c0.5-4.6,2.6-8.3,2.6-14.1c0-3.5-1.6-4.5-2.7-3.4c-1,1-2,6.6-2,7.3c0,0.4-0.9,2.6-2,4.8l0,0c0,0-0.4-10.5-0.8-13.9
		c-0.4-3.4-0.9-12.7-2-13.7c-1.1-1.1-2.4,0.2-2.4,2.4c0,1.8,0,14.3-0.2,18.8l0,0c0,0-0.4,0.8-0.9-1.6c-0.5-2.5-0.5-22.3-1.8-23.6
		s-2.8-0.5-2.8,1.2c0,1.5,0,19.4,0,24.3c0,0-0.8-1.3-0.8-5.2s-1-16-1.8-16.9s-1.8-0.3-1.9,1.6c-0.1,1.3,0.1,11.3,0.2,16.7l-0.2,2.7
		c0,0-1-12.8-1.4-14.7c-0.4-1.9-1.7-1.9-2.2-1.4s-0.3,1.2-0.3,11.6s-0.1,13.5,0.5,18.4c0.7,11.4,4.2,11.5,6.3,15.4v0.1
		c0,0,14.6,67,23.3,79.2s16.9,0.3,18-3.1C219.8,222.9,210.2,209.9,204.3,197.4z"/>
	
		<linearGradient id="SVGID_31_" gradientUnits="userSpaceOnUse" x1="181.8923" y1="-754.6393" x2="176.3691" y2="-731.0311" gradientTransform="matrix(1 0 0 -1 0 -606)">
		<stop  offset="0" style="stop-color:#D48864"/>
		<stop  offset="1" style="stop-color:#F8AD84;stop-opacity:0"/>
	</linearGradient>
	<path class="st55" d="M180.3,150.1c0,0,0-3-5.1-6.1c-4.6-2.7-5.2-12.4-5-13.7c0.4-2.5,9.1-2.8,12.9-1.5c3.8,1.2,4.1,6.7,2.6,9.1
		C184.1,140.3,180.3,144.1,180.3,150.1z"/>
	
		<linearGradient id="SVGID_32_" gradientUnits="userSpaceOnUse" x1="349.2234" y1="-967.7041" x2="346.0458" y2="-964.2041" gradientTransform="matrix(1 0 0 -1 0 -606)">
		<stop  offset="0" style="stop-color:#BA7758"/>
		<stop  offset="0.527" style="stop-color:#CE8866;stop-opacity:0.6784"/>
		<stop  offset="1" style="stop-color:#F8AD84;stop-opacity:0"/>
	</linearGradient>
	<path class="st56" d="M343.4,366.1c0,0,2.7-2,5.2-3c0,0,1.2-4.5,2.9-6.6l-1-4.2c0,0-1.5,4.3-2.1,5.4
		C347.8,358.7,343,362,343.4,366.1z"/>
	<path class="st57" d="M245.3,138.8c0,0,7.4,17.5,9.5,24.3c2.1,6.8-1.3,15.8-0.1,24.9c0.9,6.9,6.6,12,16.4,13
		c7.7,0.8,17.7-2.6,17.1-1c-0.7,1.6-12.7,5.8-23.8,3.7c-11.1-2.1-13.6-12.1-13.6-17.6s1.2-12.2,1.1-16.3
		C251.7,164.5,249,148.1,245.3,138.8z"/>
</g>
<rect class="st0" width="607.8" height="659"/>
</svg>
