<svg width="31" height="64" viewBox="0 0 31 64" fill="none" xmlns="http://www.w3.org/2000/svg">
<path d="M30.1 59.216C30.1 56.516 29 48.416 28.9 48.016C28.9 48.016 28.6 45.116 28.5 40.616C28.4 36.216 27.1 27.316 25 26.116C24 25.616 20.8 24.416 18.2 23.716C17.7 23.616 17.3 23.116 17 22.316C16.5 20.916 16.6 19.016 16.8 18.216C17.2 19.916 18.2 21.916 19 22.816C20.3 24.116 22.9 24.316 24.7 24.116C27.3 23.816 28.9 20.916 29 20.716C29.1 20.616 29 20.416 28.9 20.316C28.8 20.216 28.6 20.216 28.5 20.316C28 20.816 27.4 20.916 26.8 20.716C26.2 20.516 25.7 19.916 25.6 19.316C25.5 18.516 25.9 17.716 26.8 17.116C29.4 15.116 27.5 11.916 25.5 8.51602C25 7.61601 24.4 6.61601 23.9 5.71601C22.7 3.31601 21.3 2.71601 20.3 2.61601C19.2 2.51601 18.3 3.11601 18 3.61601C17.9 3.81601 17.8 3.91601 17.7 4.11601C17.7 4.01601 17.6 3.81601 17.6 3.51601C17.4 2.91601 17 2.31601 16.2 1.71601C14.4 0.516015 11.5 -0.283985 9.8 0.116015C7.2 0.716015 5.3 2.21601 3.7 4.91601C3.3 5.61601 3.5 6.31601 3.7 6.91601C3.8 7.31601 3.9 7.61601 3.9 7.91601C3.4 9.41601 4.1 10.916 4.3 11.316C4.2 11.716 3.8 13.416 3.5 14.316C3.4 14.616 3.4 14.916 3.6 15.116C3.9 15.516 4.4 15.616 4.8 15.716C4.8 15.716 4.8 15.716 4.9 15.716C4.9 15.816 4.9 15.916 4.9 16.016C4.9 16.516 4.9 17.316 5.5 17.716C5.6 17.716 5.6 18.116 5.7 18.216C5.8 18.816 6.1 19.816 7.2 19.816C8.4 19.816 9.7 19.216 10.2 19.016C10.5 19.516 11.3 21.016 10.1 23.116C9.8 23.716 8.2 24.216 6.9 24.716C6 25.016 5.2 25.316 4.7 25.616C4.6 25.616 2.4 26.716 2 29.916C1.6 33.316 1.8 35.816 1.9 36.416C1.6 36.816 0.300003 38.416 0.400003 40.116C0.500003 41.116 0.900003 41.816 1.4 42.416C1.5 43.516 1.9 52.616 1.3 54.416C0.600003 56.516 0.700003 60.616 1 63.816H1.6C1.4 60.716 1.3 56.616 1.9 54.616C2.4 52.816 2.1 45.316 2 43.016C2.6 43.516 3.1 43.716 3.4 43.916C3.3 44.916 2.9 48.916 3.1 50.516C3.2 51.316 3 53.316 2.7 55.516C2.4 58.016 2 61.116 2 63.816H2.6C2.6 61.716 2.9 59.416 3.1 57.216C3.9 57.416 6.2 57.916 9.4 57.916C12.4 57.916 16.2 57.416 20.1 55.816C21.4 57.816 22.9 60.616 23.2 63.016C23.2 63.216 23.3 63.516 23.3 63.716H23.9C23.9 63.416 23.9 63.216 23.8 62.916C23.4 59.916 21.4 56.716 19.6 54.016C19.1 53.216 18.5 51.816 18.3 50.116V50.016C18.2 48.916 18.4 47.716 19 46.516C21.1 42.716 21.7 39.816 21.9 38.116C22.8 41.016 24.3 46.616 24.4 48.116C24.4 48.716 24.4 49.516 24.4 50.416C24.4 52.916 24.4 56.316 24.7 58.016C24.8 58.416 25.1 59.316 25.4 60.516C25.7 61.316 26 62.516 26.3 63.716H26.9C26.6 62.816 26.3 61.716 25.9 60.416C25.6 59.316 25.3 58.316 25.2 58.016C24.9 56.416 24.9 53.016 24.9 50.516C24.9 49.616 24.9 48.816 24.9 48.216C24.8 46.116 22 36.616 21.9 36.216C21.9 36.116 21.7 36.016 21.6 36.016C21.5 36.016 21.4 36.216 21.4 36.316C21.4 36.316 21.5 36.916 21.4 38.016C20.8 37.116 19.8 35.216 20 33.516C20.4 30.516 21.7 26.016 22 25.316C23.2 25.716 24.3 26.216 24.8 26.416C26.5 27.316 27.9 35.516 28 40.416C28.1 44.916 28.4 47.816 28.4 47.816C28.4 47.916 29.5 56.316 29.6 58.916C29.6 60.116 29.6 61.916 29.5 63.616H30C30 62.216 30.1 60.416 30.1 59.216ZM10.5 23.416C11.7 21.116 11 19.416 10.6 18.716C11.4 18.416 13.2 17.616 13.6 17.116C13.7 17.016 13.7 16.816 13.6 16.716C13.5 16.616 13.3 16.616 13.2 16.716C12.9 17.016 11.1 17.816 10 18.316C10 18.316 8.4 19.216 7.1 19.216C6.4 19.216 6.3 18.716 6.1 18.016C6 17.616 5.9 17.316 5.7 17.116C5.4 16.916 5.4 16.316 5.4 15.916C5.4 15.516 5.4 15.216 5.1 15.116C5 15.116 5 15.116 4.8 15.016C4.6 15.016 4.1 14.916 4 14.716C3.9 14.616 3.9 14.516 4 14.316C4.3 13.316 4.8 11.316 4.8 11.216C4.8 11.116 4.8 11.116 4.8 11.016C4.8 11.016 3.9 9.41601 4.4 7.91601C4.4 7.81601 4.4 7.71601 4.5 7.71601C5 7.81601 6 7.91601 6.6 7.31601C7.3 6.61601 9.8 5.61601 11.3 6.01601C12.5 6.31601 12.6 9.51602 12.5 10.516C12.5 10.616 12.6 10.716 12.7 10.816C12.8 10.916 12.9 10.816 13 10.816C13.3 10.516 14 10.216 14.3 10.316C14.4 10.316 14.5 10.416 14.6 10.716C14.7 11.216 14.6 11.716 14.4 12.216C14.2 12.916 13.9 13.916 15 14.416H15.1C15.2 14.416 15.3 14.316 15.3 14.216C15.4 14.116 15.3 13.916 15.2 13.816C14.5 13.516 14.6 13.116 14.9 12.316C15.1 11.816 15.3 11.116 15.1 10.516C15 9.91601 14.7 9.81602 14.5 9.71601C14 9.61601 13.5 9.81602 13.1 10.016C13.1 8.71601 13 5.81601 11.5 5.51601C9.7 5.01601 7 6.11601 6.2 6.91601C5.8 7.31601 4.8 7.31601 4.4 7.21601C4.4 7.01602 4.3 6.91601 4.2 6.71601C4 6.21601 3.8 5.71601 4.1 5.21601C5.6 2.61601 7.4 1.21601 9.9 0.716015C11.4 0.416015 14.2 1.11601 15.8 2.21601C16.5 2.71601 16.8 3.11601 16.9 3.61601C17 4.61601 17.1 4.91601 17.4 5.01601C17.7 5.11601 17.8 4.81601 18 4.51601C18.1 4.41601 18.2 4.21601 18.2 4.11601C18.4 3.81601 19.1 3.31601 20 3.41601C20.8 3.51601 22 4.01602 23.2 6.21601C23.7 7.11601 24.2 8.11602 24.8 9.01602C26.7 12.216 28.5 15.216 26.2 16.916C24.8 18.016 24.7 19.116 24.8 19.716C24.9 20.616 25.6 21.316 26.4 21.616C26.8 21.716 27.2 21.716 27.5 21.716C26.8 22.516 25.7 23.716 24.3 23.816C22.5 24.016 20.2 23.816 19.1 22.716C18.3 21.916 17.3 19.916 17 18.416C16.9 18.216 16.8 17.616 16.5 17.616C16.4 17.616 16 17.616 15.9 19.216C15.8 20.916 16 24.216 17.9 24.616C18.6 24.816 19.4 25.016 20.1 25.216C19.7 26.116 17.8 30.816 17.5 34.116C17.3 34.316 16.5 34.516 15.7 34.716C13.7 35.216 10.7 35.916 9.2 37.616C8.6 36.916 7.1 34.916 6.5 34.316C6.1 33.816 7.1 29.216 8.2 25.316C8.2 25.216 8.2 25.116 8.2 25.116C9.3 24.416 10.2 24.016 10.5 23.416ZM2.4 30.016C2.7 27.116 4.7 26.216 4.8 26.116C5 26.016 5.3 25.816 5.7 25.716L3.5 33.116C3.2 34.416 2.6 35.316 2.2 35.816C2.2 34.816 2.1 32.716 2.4 30.016ZM19 54.516C19.2 54.816 19.4 55.116 19.6 55.516C11.7 58.716 4.4 57.116 3 56.816C3 56.416 3.1 56.116 3.1 55.716C3.3 53.816 3.5 52.316 3.5 51.316C4.2 51.916 5.7 52.716 8.5 52.716C10.7 52.716 13.6 52.216 17.5 50.716C17.9 52.316 18.5 53.716 19 54.516ZM19.4 33.716C19.1 36.016 20.8 38.516 21.2 39.116C20.9 40.816 20.2 43.316 18.4 46.616C17.8 47.816 17.5 49.016 17.6 50.216C7.1 54.216 3.9 51.016 3.5 50.516C3.3 48.716 3.8 43.916 3.8 43.916C3.8 43.816 3.7 43.716 3.6 43.616C3.6 43.616 0.900004 42.516 0.700004 40.216C0.600004 38.516 2 36.916 2.1 36.816C2.2 36.716 3.4 35.616 3.9 33.316L6.2 25.516C6.4 25.416 6.6 25.416 6.8 25.316C7 25.216 7.3 25.116 7.5 25.116C6.9 27.316 5.1 33.716 5.9 34.516C6.7 35.316 8.8 38.116 8.8 38.116C8.9 38.216 8.9 38.216 9 38.216C9.1 38.216 9.2 38.216 9.2 38.116C10.5 36.416 13.6 35.616 15.6 35.116C17.1 34.716 17.8 34.616 17.8 34.116C18.1 30.816 20.1 25.916 20.4 25.216C20.6 25.316 20.8 25.316 21 25.416C21.2 26.016 19.9 30.616 19.4 33.716Z" fill="white"/>
<path d="M19.8 7.91606C19.3 7.21606 19 6.91606 18.7 7.01606C18.3 7.11606 18.3 7.81606 18.3 8.41606V8.51606C18.3 9.81606 17.5 12.0161 17.5 12.0161C17.5 12.1161 17.5 12.2161 17.6 12.3161C17.7 12.4161 17.7 12.4161 17.8 12.4161C17.8 12.4161 17.8 12.4161 17.9 12.4161C18 12.4161 18.5 12.2161 18.9 11.2161C19 10.9161 19.2 10.7161 19.5 10.4161C19.9 9.81606 20.6 9.11606 19.8 7.91606ZM19 10.0161C18.8 10.2161 18.7 10.3161 18.6 10.5161C18.8 9.81606 18.9 9.11607 18.9 8.51606V8.41606C18.9 7.91606 18.9 7.71606 18.9 7.61606C19 7.71606 19.1 7.81606 19.4 8.21606C19.9 9.11606 19.5 9.51606 19 10.0161Z" fill="white"/>
<path d="M14.7 43.416C10.7 45.016 9.00005 43.216 8.90005 43.116C8.80005 43.016 8.60005 43.016 8.50005 43.116C8.40005 43.216 8.40005 43.416 8.50005 43.516C8.60005 43.616 9.60005 44.616 11.7 44.616C12.6 44.616 13.6 44.416 14.9 43.916C15 43.816 15.1 43.716 15.1 43.516C15 43.416 14.9 43.316 14.7 43.416Z" fill="white"/>
</svg>
